<?xml version="1.0" standalone="no"?>
<!DOCTYPE svg PUBLIC "-//W3C//DTD SVG 20010904//EN"
 "http://www.w3.org/TR/2001/REC-SVG-20010904/DTD/svg10.dtd">
<svg version="1.0" xmlns="http://www.w3.org/2000/svg"
 width="168.000000pt" height="299.000000pt" viewBox="0 0 168.000000 299.000000"
 preserveAspectRatio="xMidYMid meet">

<g transform="translate(0.000000,299.000000) scale(0.100000,-0.100000)"
fill="#000000" stroke="none">
<path d="M772 2105 c0 -16 2 -22 5 -12 2 9 2 23 0 30 -3 6 -5 -1 -5 -18z"/>
<path d="M1097 2073 c-4 -3 -7 -13 -7 -21 0 -12 3 -12 15 -2 8 7 15 16 15 21
0 11 -14 12 -23 2z"/>
<path d="M430 2022 c0 -5 7 -15 15 -22 8 -7 15 -8 15 -2 0 5 -7 15 -15 22 -8
7 -15 8 -15 2z"/>
<path d="M751 1914 c-101 -27 -220 -101 -204 -127 3 -6 1 -7 -5 -3 -14 8 -54
-44 -47 -61 2 -8 1 -12 -4 -8 -13 7 -51 -99 -50 -138 1 -30 1 -31 9 -7 8 24 8
24 9 3 2 -44 31 -18 31 27 0 11 6 23 13 27 6 4 12 14 13 21 4 48 4 48 15 29 8
-13 7 -24 -4 -40 -18 -29 -38 -87 -29 -87 4 0 18 25 31 55 12 30 43 81 67 113
54 73 106 98 220 108 69 6 85 4 125 -15 54 -25 118 -87 161 -153 27 -41 33
-45 43 -31 11 15 12 15 18 -1 9 -22 47 -21 47 2 0 19 -25 94 -42 126 -18 34
-80 106 -90 106 -6 0 -5 -7 2 -15 9 -10 9 -15 1 -15 -6 0 -12 5 -12 10 -1 6
-2 16 -3 23 -1 6 -9 11 -19 11 -9 -1 -15 2 -12 6 11 17 -112 50 -185 49 -25 0
-69 -7 -99 -15z m122 -1 c-7 -2 -19 -2 -25 0 -7 3 -2 5 12 5 14 0 19 -2 13 -5z
m12 -43 c-4 -7 3 -9 22 -5 23 5 25 4 13 -5 -12 -10 -11 -11 8 -7 14 3 42 -5
71 -20 38 -21 47 -31 45 -47 -3 -12 -2 -15 2 -8 9 20 26 14 19 -8 -4 -12 -2
-20 5 -20 6 0 8 5 5 10 -3 6 -2 10 2 10 5 0 14 -9 20 -20 14 -21 7 -54 -9 -44
-5 3 -7 13 -3 22 3 9 3 13 -1 10 -3 -4 -29 11 -57 33 -87 69 -115 79 -187 69
-35 -5 -66 -9 -69 -8 -39 4 -77 -8 -120 -37 -28 -19 -56 -35 -62 -35 -6 0 -9
-7 -5 -15 3 -9 0 -15 -9 -15 -8 0 -15 3 -15 6 0 12 38 53 44 47 3 -3 6 -1 6 5
0 7 7 12 15 12 8 0 15 3 15 8 0 12 63 36 90 34 23 -1 23 -1 5 7 -18 9 -17 10
7 10 15 1 30 -3 33 -9 10 -15 28 -12 22 4 -4 10 3 16 21 19 53 8 73 7 67 -3z
m-341 -108 c3 -5 -1 -9 -9 -9 -8 0 -12 4 -9 9 3 4 7 8 9 8 2 0 6 -4 9 -8z
m616 -22 c6 -11 8 -20 6 -20 -3 0 -10 9 -16 20 -6 11 -8 20 -6 20 3 0 10 -9
16 -20z m-580 -23 c0 -2 -9 -12 -19 -21 -19 -17 -19 -17 -14 3 3 12 12 21 19
21 8 0 14 -2 14 -3z m558 -70 c-2 -15 -7 -12 -22 14 -10 17 -14 29 -7 25 6 -4
11 0 12 11 0 13 3 12 10 -7 5 -13 9 -33 7 -43z"/>
<path d="M945 1840 c3 -5 11 -10 16 -10 6 0 7 5 4 10 -3 6 -11 10 -16 10 -6 0
-7 -4 -4 -10z"/>
<path d="M995 1810 c3 -5 8 -10 11 -10 2 0 4 5 4 10 0 6 -5 10 -11 10 -5 0 -7
-4 -4 -10z"/>
<path d="M1265 1859 c-11 -17 -2 -18 19 -3 17 12 17 14 4 14 -9 0 -20 -5 -23
-11z"/>
<path d="M729 1776 c-52 -14 -121 -65 -149 -112 -25 -39 -52 -114 -42 -114 5
0 14 15 20 34 7 19 31 60 54 90 57 76 107 100 213 101 104 0 150 -23 208 -105
23 -32 45 -59 50 -59 14 -1 -21 54 -65 102 -25 26 -43 49 -41 52 2 3 1 3 -3 1
-3 -2 -26 3 -51 10 -56 17 -132 17 -194 0z"/>
<path d="M795 1755 c-5 -2 -26 -6 -46 -9 -64 -11 -191 -148 -176 -188 3 -7 12
3 20 23 16 35 82 109 124 136 26 17 173 31 173 16 0 -6 14 -13 31 -17 17 -3
28 -10 24 -16 -4 -7 -14 -6 -28 2 -12 6 -56 12 -98 12 -68 1 -79 -2 -113 -27
-41 -32 -90 -100 -84 -117 2 -7 19 10 37 37 50 73 92 98 161 96 71 -2 127 -24
142 -57 6 -15 15 -26 20 -26 14 0 9 16 -13 44 -12 15 -18 30 -14 34 8 8 55
-47 55 -64 0 -7 7 -14 15 -18 19 -7 19 -2 1 33 -36 69 -165 128 -231 106z"/>
<path d="M1310 1710 c0 -5 7 -7 15 -4 8 4 15 8 15 10 0 2 -7 4 -15 4 -8 0 -15
-4 -15 -10z"/>
<path d="M291 1701 c-11 -7 -9 -10 8 -16 25 -8 36 -2 26 14 -8 13 -15 14 -34
2z"/>
<path d="M698 1629 c-22 -23 -37 -44 -34 -47 3 -3 16 7 27 23 12 15 36 36 53
46 24 14 27 19 12 19 -11 0 -37 -18 -58 -41z"/>
<path d="M847 1660 c18 -4 44 -15 59 -24 14 -10 28 -15 31 -12 8 8 -75 46 -99
45 -17 -1 -15 -3 9 -9z"/>
<path d="M1203 1573 c-12 -2 -24 -12 -27 -21 -14 -49 -28 -143 -23 -157 7 -16
57 -21 57 -5 0 6 -9 10 -21 10 -15 0 -19 4 -15 16 3 9 6 21 6 29 0 7 10 16 23
20 19 6 19 8 5 12 -13 3 -18 15 -18 39 0 32 2 34 40 40 22 4 40 10 40 15 0 9
-27 10 -67 2z"/>
<path d="M959 1548 c-28 -52 -50 -176 -29 -163 6 3 10 17 10 31 0 13 4 24 9
24 5 0 16 3 25 6 13 5 16 -2 16 -35 0 -23 5 -41 10 -41 14 0 18 122 5 178 -7
28 -31 28 -46 0z m31 -22 c0 -13 3 -31 6 -39 3 -10 -2 -18 -16 -22 -30 -9 -33
-3 -20 44 12 45 30 55 30 17z"/>
<path d="M1060 1551 c-19 -5 -21 -8 -9 -13 13 -5 15 -19 11 -82 -6 -104 14
-101 24 3 5 67 10 81 28 89 20 10 20 11 -4 10 -14 0 -36 -3 -50 -7z"/>
<path d="M730 1455 c0 -76 2 -85 18 -85 30 0 55 36 60 88 5 55 -13 82 -54 82
-24 0 -24 -2 -24 -85z m48 63 c20 -20 15 -92 -8 -113 -20 -18 -20 -17 -20 53
0 72 5 83 28 60z"/>
<path d="M857 1461 c-7 -78 -5 -102 8 -89 3 3 5 43 3 89 l-3 84 -8 -84z"/>
<path d="M620 1515 c-15 -18 -40 -100 -40 -132 0 -32 18 -29 22 5 2 19 9 28
26 30 18 3 22 -1 22 -22 0 -14 5 -28 10 -31 11 -7 14 122 4 149 -8 20 -28 21
-44 1z m30 -46 c0 -17 -6 -32 -15 -36 -24 -9 -28 2 -15 41 13 42 30 39 30 -5z"/>
<path d="M528 1500 c19 -22 14 -38 -18 -55 -32 -17 -34 -15 -43 30 -2 11 -7
-3 -11 -32 -8 -53 -2 -93 15 -93 5 0 9 13 9 29 0 17 6 31 16 35 21 8 24 8 24
-3 0 -23 21 -62 30 -56 6 4 4 20 -6 43 -10 24 -11 38 -4 40 16 6 12 48 -7 63
-15 11 -16 11 -5 -1z"/>
<path d="M1202 1324 c7 -25 6 -50 -1 -80 -14 -56 -14 -64 3 -64 7 0 16 14 19
33 3 18 19 56 36 85 17 29 26 52 21 52 -5 0 -17 -13 -26 -29 -21 -35 -29 -33
-37 9 -4 16 -11 30 -16 30 -6 0 -6 -14 1 -36z"/>
<path d="M1007 1343 c-3 -4 -11 -28 -18 -53 l-12 -45 -10 35 c-15 57 -17 63
-21 59 -9 -9 19 -149 29 -149 11 0 50 148 42 157 -3 2 -7 1 -10 -4z"/>
<path d="M1135 1342 c-18 -6 -21 -17 -24 -79 -2 -61 0 -73 13 -73 13 0 16 13
16 70 0 56 3 70 15 70 8 0 15 5 15 10 0 11 -5 11 -35 2z"/>
<path d="M1048 1263 c-4 -83 1 -109 13 -77 11 27 11 154 0 154 -5 0 -11 -35
-13 -77z"/>
<path d="M622 1318 c-18 -18 -14 -49 9 -74 24 -25 19 -60 -9 -67 -13 -4 -13
-5 4 -6 11 0 25 4 32 11 13 13 17 58 4 58 -14 0 -33 41 -27 60 3 10 14 21 23
23 13 4 13 5 -3 6 -12 0 -26 -4 -33 -11z"/>
<path d="M728 1283 c-4 -60 2 -113 13 -113 12 0 12 147 0 154 -5 3 -11 -15
-13 -41z"/>
<path d="M798 1321 c10 -6 12 -25 6 -80 -6 -62 -4 -71 10 -71 13 0 16 12 16
74 0 63 3 75 18 79 9 3 -1 5 -23 6 -25 0 -35 -2 -27 -8z"/>
<path d="M897 1323 c-10 -17 -7 -143 3 -143 6 0 10 30 10 75 0 71 -3 85 -13
68z"/>
<path d="M505 1297 c-22 -35 -30 -93 -15 -112 35 -42 84 3 85 78 0 49 -2 52
-27 55 -19 2 -31 -3 -43 -21z m53 -17 c9 -61 -26 -125 -49 -89 -13 20 -11 45
6 85 16 39 38 41 43 4z"/>
<path d="M434 1294 c19 -19 20 -36 4 -52 -22 -22 -37 -13 -41 26 -2 20 -4 2
-5 -40 -1 -47 2 -78 8 -78 6 0 10 13 10 28 0 21 7 32 25 40 41 19 32 92 -12
92 -2 0 3 -7 11 -16z"/>
</g>
</svg>
