<?xml version="1.0" standalone="no"?>
<!DOCTYPE svg PUBLIC "-//W3C//DTD SVG 20010904//EN"
 "http://www.w3.org/TR/2001/REC-SVG-20010904/DTD/svg10.dtd">
<svg version="1.0" xmlns="http://www.w3.org/2000/svg"
 width="293.000000pt" height="292.000000pt" viewBox="0 0 293.000000 292.000000"
 preserveAspectRatio="xMidYMid meet">

<g transform="translate(0.000000,292.000000) scale(0.100000,-0.100000)"
fill="#000000" stroke="none">
<path d="M1565 2887 c-8 -12 -15 -33 -15 -47 l0 -25 -158 -2 c-109 -1 -159 2
-164 10 -15 22 -25 -13 -33 -105 -6 -86 -7 -89 -28 -81 -12 4 -67 8 -122 8
l-100 0 -33 -35 -34 -35 29 -12 c28 -11 28 -11 -17 -15 -33 -3 -26 -5 25 -6
39 0 151 6 250 14 99 8 195 15 213 16 17 1 33 4 33 7 1 3 3 16 4 29 3 32 15
40 15 11 0 -22 4 -24 38 -23 20 0 47 -3 60 -7 16 -6 24 -5 28 6 9 22 -19 44
-66 51 -33 5 -46 14 -59 35 -9 16 -22 29 -28 29 -8 0 -13 14 -13 35 0 30 -4
35 -22 35 -20 1 -21 2 -6 11 9 5 34 7 55 3 l38 -6 -4 -44 c-1 -24 1 -44 7 -44
5 0 7 11 4 25 -2 14 0 25 5 25 11 0 33 -44 33 -65 0 -9 10 -15 26 -15 14 0 23
-4 20 -8 -2 -4 0 -14 5 -22 8 -11 9 1 5 40 -3 33 -2 47 3 35 21 -52 21 -168 0
-283 -11 -64 -19 -126 -16 -138 2 -13 -2 -25 -9 -28 -9 -3 -18 18 -29 72 -9
42 -24 106 -33 142 l-18 65 -42 3 c-29 2 -42 -1 -42 -10 0 -10 -16 -12 -62
-10 -78 5 -72 -6 8 -16 l59 -7 31 -90 c29 -83 33 -90 58 -89 29 1 31 -4 41
-139 4 -42 10 -75 13 -73 4 2 7 -25 7 -60 0 -46 5 -68 15 -74 11 -8 12 -12 3
-18 -9 -6 -9 -29 2 -102 22 -144 64 -464 62 -466 -1 -1 -33 -18 -72 -37 -48
-25 -63 -36 -47 -37 41 0 13 -20 -29 -20 -22 0 -38 -4 -35 -9 4 -5 -18 -17
-46 -26 -29 -10 -57 -21 -63 -25 -5 -4 -21 -11 -35 -15 -14 -4 -113 -50 -220
-102 -195 -95 -325 -158 -495 -238 -50 -24 -150 -73 -223 -109 -88 -43 -134
-61 -137 -53 -2 7 -22 125 -44 262 -74 468 -131 820 -145 895 l-14 75 -1 -198
c-1 -170 3 -218 25 -348 14 -84 24 -163 21 -176 -2 -13 -2 -21 1 -18 9 9 73
-378 67 -408 -3 -16 3 -74 12 -130 17 -105 38 -143 72 -134 14 3 17 -1 13 -18
-2 -13 1 -26 7 -29 14 -9 -4 -39 -49 -83 -20 -20 -31 -37 -25 -41 6 -4 10 -23
9 -42 0 -39 21 -80 42 -80 8 0 14 -4 14 -9 0 -8 54 -24 86 -26 21 -1 124 -77
118 -87 -4 -5 8 -2 26 7 18 9 42 14 55 11 13 -3 27 -2 30 4 3 5 0 10 -7 10 -7
0 1 9 17 20 24 16 39 19 74 15 42 -6 221 -92 221 -106 0 -4 -18 -22 -40 -39
-22 -17 -40 -36 -40 -41 0 -5 24 -9 53 -9 44 0 58 4 77 25 29 31 47 31 78 3
22 -22 32 -23 215 -26 l192 -3 -130 62 c-71 33 -159 74 -195 91 -420 193 -652
303 -667 315 -16 12 -14 12 12 0 17 -8 46 -21 65 -30 19 -9 91 -41 160 -72 69
-31 137 -57 152 -57 15 -1 25 -4 23 -8 -3 -5 2 -10 10 -14 8 -3 15 -1 15 4 0
6 9 10 21 10 17 0 14 6 -21 39 l-43 40 34 -13 c19 -7 79 -34 134 -60 159 -76
166 -78 212 -54 21 11 67 44 102 72 36 28 75 58 87 66 12 8 65 49 119 90 53
41 104 80 114 85 9 6 57 42 107 81 49 39 141 109 204 156 63 48 123 93 133
102 9 9 17 13 17 10 0 -3 21 13 46 35 26 23 52 41 58 41 6 0 2 -7 -8 -15 -17
-13 -18 -15 -3 -15 9 0 17 4 17 9 0 5 23 8 51 5 38 -3 50 -2 46 8 -2 7 -11 12
-20 10 -8 -1 -18 2 -22 8 -4 6 4 10 19 10 14 0 26 5 26 10 0 6 -7 10 -15 10
-20 0 -19 14 3 31 15 13 16 12 3 -4 -12 -15 -11 -17 10 -15 26 3 51 27 42 41
-3 5 -9 3 -14 -4 -4 -7 -11 -11 -14 -7 -3 3 8 16 24 28 35 25 40 40 12 40 -11
0 -23 5 -27 12 -5 8 -2 9 12 4 10 -5 39 -10 64 -12 37 -4 41 -3 22 6 -13 5
-28 8 -32 5 -5 -3 -10 -2 -12 3 -3 8 -150 53 -243 74 l-60 13 105 2 c126 3
156 9 142 26 -7 8 -6 18 4 31 14 20 19 13 15 -26 -2 -12 3 -16 13 -12 17 7 21
29 7 38 -14 9 -8 111 7 109 6 -2 12 2 12 8 0 6 -8 8 -19 4 -15 -5 -21 0 -26
25 -4 16 -13 37 -21 45 -12 12 -12 18 -2 35 9 14 10 23 3 28 -6 4 -19 21 -29
37 -11 17 -25 34 -33 38 -7 5 -11 12 -8 18 9 13 25 11 25 -4 0 -7 9 -19 20
-27 11 -8 20 -18 20 -23 0 -4 5 -13 10 -20 45 -53 61 -71 58 -62 -12 31 -35
72 -50 89 -13 15 -15 23 -7 30 8 8 13 8 16 0 2 -6 10 -20 18 -30 12 -15 14
-16 15 -3 0 8 -9 25 -19 36 -17 18 -48 78 -51 100 -1 4 3 9 8 11 6 2 15 -12
21 -31 7 -19 21 -45 31 -58 23 -25 27 -14 6 16 -7 11 -16 33 -20 50 -4 16 -12
33 -18 36 -12 7 -2 29 13 29 5 0 9 -6 9 -13 0 -7 7 -22 15 -33 13 -17 13 -15
1 21 -20 60 -28 115 -18 115 10 0 24 -39 31 -85 1 -5 6 -2 12 9 7 11 8 21 2
25 -18 12 -22 39 -8 58 15 22 8 73 -10 73 -19 0 -24 -23 -9 -35 10 -8 10 -13
-2 -24 -13 -11 -15 -11 -12 2 2 9 -1 17 -7 19 -15 5 -30 -72 -17 -93 11 -17 7
-29 -10 -29 -5 0 -7 4 -3 9 3 5 1 12 -4 15 -11 7 -3 75 12 94 5 6 6 12 1 12
-5 0 -2 5 6 10 11 7 1 10 -34 10 -37 0 -47 -3 -43 -14 3 -8 -3 -24 -13 -36
-11 -13 -17 -27 -14 -32 3 -5 0 -16 -8 -25 -7 -9 -12 -19 -10 -22 2 -3 -1 -7
-7 -9 -13 -4 -15 15 -2 23 5 3 8 19 6 35 -3 20 0 30 9 30 8 0 16 8 19 19 4 16
-5 19 -102 26 -58 5 -127 9 -153 9 -27 1 -48 5 -48 9 0 5 -5 7 -12 5 -13 -5
-19 -46 -6 -54 14 -9 9 -22 -9 -20 -14 1 -18 -8 -19 -39 -1 -22 3 -43 8 -46 6
-4 7 -12 2 -20 -11 -18 -12 -59 -2 -59 4 0 8 5 8 11 0 5 4 8 10 4 5 -3 1 -14
-9 -24 -14 -14 -18 -31 -16 -63 1 -23 -2 -51 -7 -60 -6 -12 -5 -18 2 -18 7 0
9 -9 4 -22 -6 -22 -5 -21 23 5 46 43 50 32 5 -13 -28 -28 -38 -46 -35 -60 3
-12 -1 -22 -11 -26 -9 -3 -16 -15 -16 -25 0 -17 -8 -19 -65 -19 -36 0 -68 -1
-72 -2 -5 -1 -9 6 -11 15 -2 10 0 16 5 15 4 -1 43 6 85 16 63 15 76 22 75 38
-1 13 -6 16 -17 12 -8 -4 -27 -9 -41 -11 -23 -4 -28 0 -43 36 -9 23 -16 65
-16 94 0 28 -3 75 -6 103 -6 50 -7 51 -33 45 -20 -6 -27 -15 -31 -42 -4 -26
-8 -10 -19 66 -8 55 -16 118 -17 140 -2 22 -9 86 -17 143 -7 56 -10 102 -5
102 13 0 9 58 -4 62 -8 3 2 27 29 69 68 105 77 131 77 249 1 153 -8 319 -16
313 -5 -2 -8 1 -8 8 0 7 -3 10 -6 6 -3 -3 -17 -2 -30 3 -19 8 -26 5 -39 -13z
m-165 -202 c0 -7 -11 -16 -24 -19 -15 -4 -26 -16 -31 -33 -5 -21 -8 -24 -16
-12 -5 7 -9 19 -9 24 0 6 5 3 10 -5 8 -13 10 -12 10 2 0 10 9 23 19 30 10 6
17 18 14 25 -4 9 0 11 11 7 9 -3 16 -12 16 -19z m-10 -55 c0 -5 -4 -10 -10
-10 -5 0 -10 5 -10 10 0 6 5 10 10 10 6 0 10 -4 10 -10z m80 -4 c0 -3 -4 -8
-10 -11 -5 -3 -10 -1 -10 4 0 6 5 11 10 11 6 0 10 -2 10 -4z m30 -6 c0 -5 -2
-10 -4 -10 -3 0 -8 5 -11 10 -3 6 -1 10 4 10 6 0 11 -4 11 -10z m575 -700 c3
-5 -1 -10 -10 -10 -9 0 -13 5 -10 10 3 6 8 10 10 10 2 0 7 -4 10 -10z m65 0
c0 -5 -7 -10 -16 -10 -8 0 -12 5 -9 10 3 6 10 10 16 10 5 0 9 -4 9 -10z m-210
-26 c0 -8 -4 -12 -10 -9 -5 3 -10 13 -10 21 0 8 5 12 10 9 6 -3 10 -13 10 -21z
m50 6 c0 -5 -4 -10 -10 -10 -5 0 -10 5 -10 10 0 6 5 10 10 10 6 0 10 -4 10
-10z m62 -15 c4 -17 1 -25 -8 -25 -14 0 -19 31 -7 43 9 10 10 9 15 -18z m64
-7 c-1 -13 -7 -23 -11 -23 -4 0 -10 10 -11 23 -3 14 1 22 11 22 10 0 14 -8 11
-22z m115 -15 c-3 -20 -12 -38 -20 -41 -10 -3 -11 2 -5 19 4 13 7 32 6 42 0 9
5 17 12 17 9 0 11 -10 7 -37z m-371 7 c0 -5 -5 -10 -11 -10 -5 0 -7 5 -4 10 3
6 8 10 11 10 2 0 4 -4 4 -10z m30 -20 c0 -5 -4 -10 -10 -10 -5 0 -10 5 -10 10
0 6 5 10 10 10 6 0 10 -4 10 -10z m88 -29 c-12 -4 -29 20 -21 32 3 4 11 0 18
-10 9 -12 10 -19 3 -22z m-48 19 c0 -5 -4 -10 -10 -10 -5 0 -10 5 -10 10 0 6
5 10 10 10 6 0 10 -4 10 -10z m110 -22 c0 -5 -4 -8 -10 -8 -5 0 -10 10 -10 23
0 18 2 19 10 7 5 -8 10 -18 10 -22z m-170 2 c0 -5 -4 -10 -10 -10 -5 0 -10 5
-10 10 0 6 5 10 10 10 6 0 10 -4 10 -10z m235 0 c-3 -5 -10 -10 -16 -10 -5 0
-9 5 -9 10 0 6 7 10 16 10 8 0 12 -4 9 -10z m135 -20 c0 -5 -7 -10 -16 -10 -8
0 -12 5 -9 10 3 6 10 10 16 10 5 0 9 -4 9 -10z m-379 -27 c-12 -20 -14 -14 -5
12 4 9 9 14 11 11 3 -2 0 -13 -6 -23z m139 17 c0 -5 -4 -10 -10 -10 -5 0 -10
5 -10 10 0 6 5 10 10 10 6 0 10 -4 10 -10z m55 -9 c-3 -6 -11 -8 -17 -5 -6 4
-5 9 3 15 16 10 23 4 14 -10z m65 -2 c0 -5 -4 -9 -10 -9 -5 0 -10 7 -10 16 0
8 5 12 10 9 6 -3 10 -10 10 -16z m65 11 c-3 -5 -10 -10 -16 -10 -5 0 -9 5 -9
10 0 6 7 10 16 10 8 0 12 -4 9 -10z m61 -37 c-10 -10 -19 5 -10 18 6 11 8 11
12 0 2 -7 1 -15 -2 -18z m-286 7 c0 -5 -2 -10 -4 -10 -3 0 -8 5 -11 10 -3 6
-1 10 4 10 6 0 11 -4 11 -10z m60 0 c0 -5 -7 -10 -15 -10 -8 0 -15 5 -15 10 0
6 7 10 15 10 8 0 15 -4 15 -10z m60 -5 c0 -8 -4 -15 -9 -15 -13 0 -22 16 -14
24 11 11 23 6 23 -9z m60 7 c0 -13 -12 -22 -22 -16 -10 6 -1 24 13 24 5 0 9
-4 9 -8z m58 -3 c-2 -6 -8 -10 -13 -10 -5 0 -11 4 -13 10 -2 6 4 11 13 11 9 0
15 -5 13 -11z m-268 -19 c0 -5 -2 -10 -4 -10 -3 0 -8 5 -11 10 -3 6 -1 10 4
10 6 0 11 -4 11 -10z m55 -10 c-3 -5 -10 -10 -16 -10 -5 0 -9 5 -9 10 0 6 7
10 16 10 8 0 12 -4 9 -10z m55 2 c0 -13 -12 -22 -22 -16 -10 6 -1 24 13 24 5
0 9 -4 9 -8z m67 -17 c6 -14 9 -25 7 -25 -11 0 -42 35 -38 42 9 14 19 9 31
-17z m57 10 c-4 -8 -10 -15 -15 -15 -5 0 -9 7 -9 15 0 8 7 15 15 15 9 0 12 -6
9 -15z m56 5 c0 -5 -7 -10 -16 -10 -8 0 -12 5 -9 10 3 6 10 10 16 10 5 0 9 -4
9 -10z m-275 -20 c3 -5 1 -10 -4 -10 -6 0 -11 5 -11 10 0 6 2 10 4 10 3 0 8
-4 11 -10z m297 -7 c0 -10 1 -24 1 -31 -1 -7 5 -11 13 -8 8 3 14 -1 14 -9 0
-25 -25 -17 -43 15 -18 29 -16 50 4 50 5 0 10 -8 11 -17z m-376 -8 c-8 -8 -18
-15 -22 -15 -3 0 -1 7 6 15 7 8 17 15 22 15 5 0 3 -7 -6 -15z m134 5 c0 -5 -4
-10 -9 -10 -6 0 -13 5 -16 10 -3 6 1 10 9 10 9 0 16 -4 16 -10z m60 0 c0 -5
-4 -10 -10 -10 -5 0 -10 5 -10 10 0 6 5 10 10 10 6 0 10 -4 10 -10z m116 -5
c-3 -9 0 -15 9 -15 8 0 15 -4 15 -10 0 -17 -25 -11 -37 9 -12 19 -8 31 10 31
5 0 7 -7 3 -15z m-216 -15 c0 -5 -4 -10 -10 -10 -5 0 -10 5 -10 10 0 6 5 10
10 10 6 0 10 -4 10 -10z m-88 -30 c-12 -11 -25 -20 -29 -20 -4 0 4 11 17 24
14 13 27 22 29 20 3 -2 -5 -13 -17 -24z m148 26 c0 -3 -4 -8 -10 -11 -5 -3
-10 -1 -10 4 0 6 5 11 10 11 6 0 10 -2 10 -4z m60 -6 c0 -5 -7 -10 -16 -10 -8
0 -12 5 -9 10 3 6 10 10 16 10 5 0 9 -4 9 -10z m60 2 c0 -13 -12 -22 -22 -16
-10 6 -1 24 13 24 5 0 9 -4 9 -8z m-503 -49 c-3 -10 -5 -4 -5 12 0 17 2 24 5
18 2 -7 2 -21 0 -30z m348 27 c3 -5 -1 -10 -9 -10 -9 0 -16 5 -16 10 0 6 4 10
9 10 6 0 13 -4 16 -10z m55 -10 c0 -5 -4 -10 -10 -10 -5 0 -10 5 -10 10 0 6 5
10 10 10 6 0 10 -4 10 -10z m60 -6 c0 -8 -4 -12 -10 -9 -5 3 -10 10 -10 16 0
5 5 9 10 9 6 0 10 -7 10 -16z m65 6 c-3 -5 -10 -10 -16 -10 -5 0 -9 5 -9 10 0
6 7 10 16 10 8 0 12 -4 9 -10z m-210 -10 c3 -5 1 -10 -4 -10 -6 0 -11 5 -11
10 0 6 2 10 4 10 3 0 8 -4 11 -10z m-65 -10 c0 -5 -2 -10 -4 -10 -3 0 -8 5
-11 10 -3 6 -1 10 4 10 6 0 11 -4 11 -10z m115 0 c3 -5 1 -10 -4 -10 -6 0 -11
5 -11 10 0 6 2 10 4 10 3 0 8 -4 11 -10z m190 1 c7 -12 -12 -24 -25 -16 -11 7
-4 25 10 25 5 0 11 -4 15 -9z m-339 -27 c-4 -9 -9 -15 -11 -12 -3 3 -3 13 1
22 4 9 9 15 11 12 3 -3 3 -13 -1 -22z m214 16 c0 -5 -4 -10 -9 -10 -6 0 -13 5
-16 10 -3 6 1 10 9 10 9 0 16 -4 16 -10z m60 0 c0 -5 -4 -10 -10 -10 -5 0 -10
5 -10 10 0 6 5 10 10 10 6 0 10 -4 10 -10z m-150 -20 c0 -5 -4 -10 -10 -10 -5
0 -10 5 -10 10 0 6 5 10 10 10 6 0 10 -4 10 -10z m69 -27 c14 -11 14 -12 1
-13 -17 0 -42 34 -32 45 4 3 9 0 11 -7 2 -7 11 -18 20 -25z m183 -4 c10 -9 18
-19 18 -23 0 -14 -40 -49 -47 -42 -5 4 0 13 10 20 22 17 22 25 -4 47 -13 11
-18 23 -13 30 6 10 9 10 12 -1 3 -8 13 -22 24 -31z m-137 21 c-3 -5 -10 -10
-16 -10 -5 0 -9 5 -9 10 0 6 7 10 16 10 8 0 12 -4 9 -10z m60 0 c-3 -5 -10
-10 -16 -10 -5 0 -9 5 -9 10 0 6 7 10 16 10 8 0 12 -4 9 -10z m-215 -10 c0 -5
-2 -10 -4 -10 -2 0 -12 -3 -22 -7 -16 -6 -17 -5 -4 10 17 19 30 22 30 7z m60
-4 c0 -11 -19 -15 -25 -6 -3 5 1 10 9 10 9 0 16 -2 16 -4z m115 -16 c-3 -5
-10 -10 -16 -10 -5 0 -9 5 -9 10 0 6 7 10 16 10 8 0 12 -4 9 -10z m60 0 c-3
-5 -10 -10 -16 -10 -5 0 -9 5 -9 10 0 6 7 10 16 10 8 0 12 -4 9 -10z m-291
-24 c-3 -9 -10 -16 -15 -16 -5 0 -4 9 3 20 14 22 21 20 12 -4z m86 14 c0 -5
-4 -10 -10 -10 -5 0 -10 5 -10 10 0 6 5 10 10 10 6 0 10 -4 10 -10z m45 -10
c3 -5 1 -10 -4 -10 -6 0 -11 5 -11 10 0 6 2 10 4 10 3 0 8 -4 11 -10z m65 0
c0 -5 -7 -10 -16 -10 -8 0 -12 5 -9 10 3 6 10 10 16 10 5 0 9 -4 9 -10z m60
-5 c0 -8 7 -15 15 -15 16 0 20 -15 7 -24 -10 -6 -53 39 -45 48 11 11 23 6 23
-9z m60 7 c0 -13 -12 -22 -22 -16 -10 6 -1 24 13 24 5 0 9 -4 9 -8z m-265 -12
c3 -5 1 -10 -4 -10 -6 0 -11 5 -11 10 0 6 2 10 4 10 3 0 8 -4 11 -10z m50 -10
c3 -5 -1 -10 -9 -10 -9 0 -16 -7 -16 -15 0 -8 5 -15 10 -15 6 0 10 -4 10 -10
0 -17 -14 -11 -28 10 -10 16 -10 23 0 35 15 17 25 18 33 5z m65 -10 c0 -5 -4
-10 -9 -10 -6 0 -13 5 -16 10 -3 6 1 10 9 10 9 0 16 -4 16 -10z m60 0 c0 -5
-7 -10 -16 -10 -8 0 -12 5 -9 10 3 6 10 10 16 10 5 0 9 -4 9 -10z m-95 -20 c3
-5 1 -10 -4 -10 -6 0 -11 5 -11 10 0 6 2 10 4 10 3 0 8 -4 11 -10z m248 -37
c24 -75 28 -103 17 -103 -9 0 -14 23 -13 58 1 7 -4 11 -11 9 -6 -2 -11 -25
-11 -53 0 -40 -3 -49 -20 -52 -15 -3 -17 -1 -9 9 15 21 17 65 2 81 -22 24 -38
57 -30 62 12 7 39 -27 34 -42 -6 -18 18 -15 24 3 4 8 -1 26 -9 39 -15 22 -13
36 4 36 4 0 14 -21 22 -47z m-403 33 c0 -2 -7 -9 -15 -16 -13 -11 -14 -10 -9
4 5 14 24 23 24 12z m220 -10 c0 -8 6 -17 13 -19 8 -4 7 -6 -3 -6 -8 -1 -21 8
-28 19 -10 17 -10 20 3 20 8 0 15 -6 15 -14z m60 -1 c0 -8 6 -15 13 -15 8 0 7
-3 -3 -10 -9 -6 -17 -5 -22 3 -11 17 -10 37 2 37 6 0 10 -7 10 -15z m55 5 c-3
-5 -10 -10 -16 -10 -5 0 -9 5 -9 10 0 6 7 10 16 10 8 0 12 -4 9 -10z m-165
-20 c0 -5 -4 -10 -10 -10 -5 0 -10 5 -10 10 0 6 5 10 10 10 6 0 10 -4 10 -10z
m-40 -20 c0 -5 -4 -10 -10 -10 -5 0 -10 5 -10 10 0 6 5 10 10 10 6 0 10 -4 10
-10z m60 -4 c0 -3 -4 -8 -10 -11 -5 -3 -10 -1 -10 4 0 6 5 11 10 11 6 0 10 -2
10 -4z m55 -6 c3 -5 -1 -10 -9 -10 -9 0 -16 5 -16 10 0 6 4 10 9 10 6 0 13 -4
16 -10z m-280 -10 c3 -5 1 -10 -4 -10 -6 0 -11 5 -11 10 0 6 2 10 4 10 3 0 8
-4 11 -10z m39 -11 c-3 -5 -10 -7 -15 -3 -5 3 -7 10 -3 15 3 5 10 7 15 3 5 -3
7 -10 3 -15z m46 17 c0 -11 -19 -15 -25 -6 -3 5 1 10 9 10 9 0 16 -2 16 -4z
m50 -6 c0 -5 -4 -10 -9 -10 -6 0 -13 5 -16 10 -3 6 1 10 9 10 9 0 16 -4 16
-10z m205 0 c-3 -5 -10 -10 -16 -10 -5 0 -9 5 -9 10 0 6 7 10 16 10 8 0 12 -4
9 -10z m-155 -10 c0 -5 -4 -10 -9 -10 -6 0 -13 5 -16 10 -3 6 1 10 9 10 9 0
16 -4 16 -10z m-214 -18 c9 -14 8 -22 -2 -37 -20 -27 -19 -30 34 -65 26 -18
40 -30 32 -28 -8 3 -47 11 -87 18 l-71 13 -189 -101 c-103 -55 -260 -139 -348
-187 -88 -48 -290 -157 -450 -242 -159 -86 -302 -164 -318 -175 -19 -13 -27
-15 -27 -6 0 12 274 162 1014 558 287 153 320 173 309 183 -3 4 1 7 9 7 9 0
21 14 28 30 11 26 33 49 50 50 3 0 10 -8 16 -18z m274 8 c0 -5 -7 -7 -15 -4
-8 4 -15 8 -15 10 0 2 7 4 15 4 8 0 15 -4 15 -10z m60 0 c0 -5 -4 -10 -10 -10
-5 0 -10 5 -10 10 0 6 5 10 10 10 6 0 10 -4 10 -10z m60 -4 c0 -8 5 -16 11
-18 7 -2 7 -12 0 -31 -14 -37 -34 -36 -26 2 3 17 2 32 -5 36 -5 3 -8 11 -5 16
9 14 25 11 25 -5z m-322 -41 c0 -13 -4 -22 -9 -19 -5 3 -9 14 -9 25 0 10 4 19
9 19 5 0 9 -11 9 -25z m292 10 c0 -8 -4 -15 -9 -15 -13 0 -22 16 -14 24 11 11
23 6 23 -9z m-263 -17 c-3 -8 -6 -5 -6 6 -1 11 2 17 5 13 3 -3 4 -12 1 -19z
m83 12 c0 -5 -4 -10 -10 -10 -5 0 -10 5 -10 10 0 6 5 10 10 10 6 0 10 -4 10
-10z m120 -5 c0 -8 -4 -15 -9 -15 -13 0 -22 16 -14 24 11 11 23 6 23 -9z m-72
-13 c-10 -2 -18 -8 -18 -13 0 -5 -5 -9 -12 -9 -6 0 -3 8 7 20 10 11 23 16 29
12 7 -4 5 -8 -6 -10z m-73 -2 c3 -5 1 -10 -4 -10 -6 0 -11 5 -11 10 0 6 2 10
4 10 3 0 8 -4 11 -10z m116 -13 c-1 -12 -15 -9 -19 4 -3 6 1 10 8 8 6 -3 11
-8 11 -12z m67 2 c-2 -6 -8 -10 -13 -10 -5 0 -11 4 -13 10 -2 6 4 11 13 11 9
0 15 -5 13 -11z m57 -29 c-3 -5 -10 -10 -16 -10 -5 0 -9 5 -9 10 0 6 7 10 16
10 8 0 12 -4 9 -10z m55 -10 c0 -5 -5 -10 -11 -10 -5 0 -7 5 -4 10 3 6 8 10
11 10 2 0 4 -4 4 -10z m-750 -4 c0 -6 -106 -64 -238 -131 -62 -31 -119 -64
-128 -73 -13 -13 -17 -13 -25 -1 -7 11 -9 11 -9 -3 0 -10 -17 -26 -40 -38 -48
-24 -50 -24 -51 -2 -1 13 -2 13 -5 2 -6 -21 -108 -74 -128 -67 -10 4 -14 3
-11 -3 6 -10 -85 -60 -110 -60 -8 0 -15 -5 -15 -11 0 -5 -4 -8 -9 -5 -5 3 -12
-1 -15 -10 -4 -9 -13 -14 -21 -10 -8 3 -15 2 -15 -2 0 -4 -12 -9 -26 -10 -15
-1 -33 -10 -40 -20 -7 -9 -14 -14 -14 -10 0 4 -11 3 -25 -2 -14 -5 -25 -8 -25
-6 0 3 75 44 119 66 36 16 128 63 161 80 129 69 290 143 240 110 -9 -6 -10
-10 -3 -10 7 0 17 8 22 18 5 10 49 38 98 63 48 24 90 46 93 49 3 3 12 6 20 8
8 2 18 10 23 17 4 7 21 17 39 20 18 4 38 14 46 22 8 8 21 12 28 9 8 -3 24 -1
36 4 29 11 28 11 28 6z m527 -62 c-3 -3 -12 -4 -19 -1 -8 3 -5 6 6 6 11 1 17
-2 13 -5z m63 -14 l25 -8 -25 -1 c-14 0 -32 4 -40 9 -13 9 -13 10 0 9 8 -1 26
-5 40 -9z m57 -16 c-3 -3 -12 -4 -19 -1 -8 3 -5 6 6 6 11 1 17 -2 13 -5z m98
-25 c17 -6 15 -8 -10 -8 -16 0 -41 6 -55 14 -25 14 -24 14 10 8 19 -3 44 -10
55 -14z m-61 -154 c-7 -16 -24 -21 -24 -6 0 8 7 13 27 20 1 1 0 -6 -3 -14z
m-1139 -25 c-3 -5 -12 -10 -18 -10 -7 0 -6 4 3 10 19 12 23 12 15 0z m890 0
c-3 -5 -12 -10 -18 -10 -7 0 -6 4 3 10 19 12 23 12 15 0z m-1798 -222 c-3 -7
-5 -2 -5 12 0 14 2 19 5 13 2 -7 2 -19 0 -25z m10 -50 c-3 -7 -5 -2 -5 12 0
14 2 19 5 13 2 -7 2 -19 0 -25z m1318 -68 c-3 -5 -14 -10 -23 -9 -14 0 -13 2
3 9 27 11 27 11 20 0z m-1292 -50 c3 -11 1 -18 -4 -14 -5 3 -9 12 -9 20 0 20
7 17 13 -6z m1177 -24 c0 -2 -7 -9 -15 -16 -13 -11 -14 -10 -9 4 5 14 24 23
24 12z m140 0 c0 -2 -8 -10 -17 -17 -16 -13 -17 -12 -4 4 13 16 21 21 21 13z
m-360 -16 c0 -5 -5 -10 -11 -10 -5 0 -7 5 -4 10 3 6 8 10 11 10 2 0 4 -4 4
-10z m-240 -4 c0 -3 -4 -8 -10 -11 -5 -3 -10 -1 -10 4 0 6 5 11 10 11 6 0 10
-2 10 -4z m345 -55 c3 -5 2 -12 -3 -15 -5 -3 -9 1 -9 9 0 17 3 19 12 6z m150
-11 c-10 -11 -23 -20 -29 -20 -6 0 0 9 14 20 32 25 38 25 15 0z m-485 -31
c-31 -24 -60 -41 -60 -35 0 6 72 56 80 56 3 0 -6 -9 -20 -21z m299 8 c-2 -1
-13 -9 -24 -17 -19 -14 -19 -14 -6 3 7 9 18 17 24 17 6 0 8 -1 6 -3z m-484
-47 c3 -6 -1 -7 -9 -4 -18 7 -21 14 -7 14 6 0 13 -4 16 -10z m555 -15 c-19
-14 -36 -25 -39 -25 -10 1 53 50 63 50 6 0 -5 -11 -24 -25z m-270 -30 c-7 -8
-17 -15 -22 -15 -6 0 -5 7 2 15 7 8 17 15 22 15 6 0 5 -7 -2 -15z m-220 -30
c0 -8 -7 -15 -15 -15 -9 0 -12 6 -9 15 4 8 10 15 15 15 5 0 9 -7 9 -15z m343
-42 c-7 -2 -19 -2 -25 0 -7 3 -2 5 12 5 14 0 19 -2 13 -5z"/>
<path d="M2005 2860 c-38 -41 -28 -167 16 -216 14 -15 28 -19 54 -16 20 2 34
7 32 11 -24 44 -39 93 -40 132 -2 37 -5 45 -15 37 -9 -8 -11 -7 -6 7 5 13 4
16 -4 11 -8 -5 -10 2 -6 24 7 35 -5 39 -31 10z"/>
<path d="M2061 2854 c0 -11 3 -14 6 -6 3 7 2 16 -1 19 -3 4 -6 -2 -5 -13z"/>
<path d="M2194 2842 c-13 -8 -15 -170 -3 -178 5 -3 24 -2 43 1 l33 7 -21 41
c-12 23 -20 51 -18 61 3 14 0 17 -13 12 -15 -5 -16 -2 -11 29 7 37 7 39 -10
27z"/>
<path d="M1519 2540 c3 -8 5 -34 5 -57 0 -23 4 -37 8 -30 5 7 8 0 9 -18 1 -28
2 -27 10 10 7 27 6 41 -1 43 -5 2 -7 15 -4 28 5 17 2 24 -9 24 -8 0 -17 3 -20
8 -2 4 -1 0 2 -8z"/>
<path d="M1074 2513 c39 -47 83 -112 101 -147 11 -21 26 -40 32 -43 7 -3 10
-10 6 -16 -6 -10 85 -3 96 8 3 3 -2 18 -11 33 -13 20 -24 26 -45 25 -26 -2
-31 3 -60 66 -18 38 -33 74 -33 80 0 7 -20 11 -50 11 -46 0 -49 -1 -36 -17z"/>
<path d="M953 2473 c0 -27 4 -54 9 -60 6 -7 7 -13 3 -13 -4 0 -2 -7 5 -15 7
-9 11 -17 9 -18 -2 -1 -16 -9 -31 -16 -15 -8 -25 -18 -23 -22 3 -4 -19 -5 -48
-2 l-53 5 4 -41 c2 -22 7 -41 11 -41 27 -1 288 34 293 39 5 4 -15 37 -42 73
-28 37 -50 71 -50 77 0 5 -14 19 -30 31 -25 18 -28 25 -19 36 9 11 7 14 -12
14 -22 0 -24 -4 -26 -47z"/>
<path d="M580 2503 c-25 -3 -39 -8 -32 -12 7 -4 26 -59 43 -122 16 -63 32
-122 35 -131 3 -12 15 -18 35 -18 35 0 36 12 13 91 -23 75 -43 172 -37 182 8
14 21 7 27 -15 4 -13 20 -72 36 -133 24 -95 31 -110 49 -111 26 -2 26 -8 -4
123 -14 59 -28 118 -31 131 -5 23 -17 25 -134 15z"/>
<path d="M1935 2503 c-12 -3 -30 -25 -45 -56 -16 -32 -35 -57 -53 -65 -38 -18
-54 -55 -62 -147 -4 -44 -12 -93 -16 -109 -11 -37 -5 -43 25 -27 13 8 54 14
90 15 56 2 66 0 64 -13 -2 -12 -21 -18 -73 -23 -38 -4 -71 -11 -73 -16 -2 -6
-12 -7 -24 -4 -12 3 -19 1 -15 -4 8 -13 394 -12 405 1 12 14 34 134 27 145 -3
6 -2 10 3 10 5 0 13 26 17 58 10 81 31 171 45 187 25 30 -2 34 -33 5 -46 -43
-67 -47 -89 -19 -51 65 -57 69 -117 68 -31 -1 -65 -4 -76 -6z m53 -408 c-27
-14 -33 -12 -25 9 4 9 14 12 27 9 21 -6 21 -6 -2 -18z"/>
<path d="M463 2493 c15 -2 37 -2 50 0 12 2 0 4 -28 4 -27 0 -38 -2 -22 -4z"/>
<path d="M245 2484 c-16 -2 -78 -6 -137 -10 l-108 -6 0 -165 0 -166 47 7 c25
3 48 8 50 10 3 2 -3 28 -12 58 -9 29 -19 67 -21 83 -3 17 -12 58 -21 93 -8 35
-13 66 -10 68 7 7 30 -76 56 -194 11 -51 22 -96 25 -101 5 -8 253 23 264 33 3
4 0 23 -8 44 -7 20 -21 73 -31 117 -10 44 -21 90 -25 102 -5 18 -1 22 23 26
32 5 -44 6 -92 1z m-136 -166 c1 -22 6 -28 24 -28 20 -1 21 -1 4 -11 -27 -16
-38 0 -42 62 -2 38 -1 46 5 29 4 -14 8 -37 9 -52z m46 -58 c-3 -5 -16 -10 -28
-9 -20 1 -20 2 3 9 14 4 26 8 28 9 2 1 0 -3 -3 -9z"/>
<path d="M2363 2246 c4 -51 17 -57 17 -8 0 23 -4 42 -9 42 -6 0 -9 -15 -8 -34z"/>
<path d="M1475 2260 c3 -5 8 -10 11 -10 2 0 4 5 4 10 0 6 -5 10 -11 10 -5 0
-7 -4 -4 -10z"/>
<path d="M1600 2189 c0 -11 5 -17 10 -14 6 3 10 13 10 21 0 8 -4 14 -10 14 -5
0 -10 -9 -10 -21z"/>
<path d="M2356 2161 c-9 -14 5 -42 18 -38 18 6 20 47 2 47 -8 0 -17 -4 -20 -9z"/>
<path d="M1385 2015 c14 -14 25 -31 25 -37 0 -6 3 -9 6 -5 9 9 -29 67 -44 67
-7 0 -3 -10 13 -25z"/>
<path d="M1403 2028 c2 -7 10 -12 16 -10 7 1 10 -2 6 -8 -3 -5 1 -22 9 -37
l14 -28 -3 39 c-3 36 -17 55 -38 56 -5 0 -7 -6 -4 -12z"/>
<path d="M1127 1979 c-16 -10 -47 -60 -47 -76 0 -4 6 -1 13 7 11 14 77 43 84
37 1 -2 -9 -20 -22 -40 -14 -20 -25 -41 -25 -46 0 -6 -6 -11 -14 -11 -8 0 -16
-7 -20 -15 -3 -9 -12 -12 -22 -8 -14 5 -16 2 -10 -20 6 -25 18 -113 19 -149 1
-10 3 -18 6 -18 12 0 30 39 31 67 0 17 4 34 9 37 11 7 121 -25 121 -35 0 -5
10 -9 23 -8 21 0 21 1 2 9 -11 5 -17 9 -13 9 4 1 1 20 -7 42 -20 55 -19 69 5
69 11 0 20 7 20 15 0 9 -6 12 -16 8 -11 -4 -15 0 -14 13 4 31 1 44 -10 44 -5
0 -9 -3 -9 -7 4 -24 -3 -43 -15 -43 -9 0 -12 7 -9 19 3 10 0 28 -7 40 -8 15
-8 26 0 39 10 15 10 14 5 -5 -7 -25 8 -38 30 -25 14 7 13 12 -5 35 -23 29 -69
36 -103 16z"/>
<path d="M1296 1948 c-3 -13 -6 -33 -6 -46 0 -18 4 -22 19 -17 15 4 18 0 17
-25 -1 -31 -10 -40 -19 -17 -3 6 -6 -5 -6 -26 -1 -21 6 -53 14 -73 8 -19 11
-42 8 -52 -6 -15 -3 -14 16 3 12 11 18 21 12 23 -12 4 -15 22 -3 22 4 0 13 -4
21 -9 12 -8 12 -12 2 -25 -7 -9 -11 -22 -8 -30 3 -8 -3 -22 -14 -32 -22 -20
-24 -58 -8 -150 10 -59 12 -62 27 -47 12 12 14 17 4 21 -7 2 -9 8 -6 13 3 6
12 5 22 -3 15 -12 16 -11 4 4 -8 9 -21 14 -30 12 -15 -5 -15 -4 1 6 9 6 22 8
27 5 13 -8 30 37 23 63 -2 11 1 23 8 28 9 5 11 2 6 -9 -3 -10 -2 -17 3 -17 5
0 10 -10 12 -22 4 -22 5 -22 18 5 11 24 12 30 1 37 -8 4 -10 13 -6 19 9 15
-21 61 -40 61 -8 0 -15 -9 -15 -20 0 -11 -4 -20 -10 -20 -5 0 -10 2 -10 5 0
11 24 55 30 55 4 0 24 -13 45 -30 21 -16 35 -30 31 -30 -4 0 0 -8 10 -17 11
-11 13 -18 5 -21 -6 -2 -11 -10 -11 -19 0 -8 5 -13 12 -11 15 5 23 68 9 68 -6
0 -8 7 -5 15 4 10 0 15 -11 15 -9 0 -13 5 -10 10 4 6 11 8 16 4 6 -3 8 11 5
38 -4 31 -13 48 -31 61 -30 23 -34 42 -4 27 28 -16 36 -4 14 20 -12 14 -14 20
-5 20 17 0 7 80 -12 91 -19 13 -33 5 -36 -19 -4 -28 -12 -27 -41 4 -13 14 -30
23 -38 20 -7 -3 -13 1 -13 8 0 8 -7 17 -16 20 -22 8 -21 9 -28 -16z m166 -70
c-15 -15 -24 -6 -16 16 5 12 10 14 17 7 8 -8 8 -14 -1 -23z m-44 -153 c-2 -12
-7 -7 -15 16 -12 30 -11 32 3 17 9 -8 14 -23 12 -33z m67 -25 c3 -5 2 -10 -4
-10 -5 0 -13 5 -16 10 -3 6 -2 10 4 10 5 0 13 -4 16 -10z m-120 -119 c3 -5 1
-12 -5 -16 -5 -3 -10 1 -10 9 0 18 6 21 15 7z m21 -20 c-4 -5 0 -11 6 -14 7
-2 10 -8 5 -12 -10 -12 -31 11 -23 24 4 6 9 11 12 11 3 0 3 -4 0 -9z"/>
<path d="M941 1888 c-5 -13 -10 -49 -13 -81 -4 -53 -3 -58 18 -63 12 -3 28
-19 35 -36 12 -29 13 -30 27 -12 13 17 13 16 7 -13 -3 -18 -2 -34 4 -38 6 -3
11 -13 11 -22 0 -12 -5 -10 -21 8 l-21 24 8 -30 c4 -17 11 -33 17 -36 5 -4 3
-9 -4 -13 -11 -5 -11 -7 -1 -12 6 -3 12 -13 11 -22 0 -11 -2 -12 -6 -4 -2 6
-8 10 -13 7 -5 -3 -14 36 -21 86 -8 58 -15 86 -21 77 -6 -10 -13 -8 -27 10
-11 12 -21 28 -24 35 -3 9 -9 8 -21 -3 -13 -13 -14 -22 -5 -53 8 -30 15 -37
34 -37 24 0 25 -3 25 -67 0 -61 -1 -65 -15 -47 -8 10 -15 25 -15 32 0 6 -5 12
-11 12 -5 0 -8 -4 -5 -9 8 -13 -24 -37 -32 -25 -4 6 -15 13 -24 17 -13 4 -18
1 -18 -11 0 -22 20 -54 20 -33 0 8 3 11 6 8 4 -4 1 -13 -6 -22 -14 -17 -6 -50
10 -40 5 3 10 1 10 -4 0 -6 -4 -11 -10 -11 -5 0 -10 -16 -10 -36 0 -31 2 -35
14 -24 8 6 13 17 10 24 -6 15 22 30 37 20 15 -9 10 6 -12 38 -20 28 -21 31 -5
46 16 16 17 15 11 -8 -5 -20 0 -31 20 -50 l27 -25 -8 29 c-5 22 -4 28 7 24 7
-2 16 -15 19 -29 6 -22 7 -21 12 11 3 19 2 37 -3 38 -12 5 -11 29 1 37 6 3 7
-1 4 -10 -5 -11 0 -18 15 -22 23 -6 27 -18 11 -28 -6 -4 -8 -16 -4 -27 3 -11
0 -33 -7 -49 -9 -23 -9 -33 0 -42 8 -8 11 -4 11 15 0 18 11 35 33 52 32 26 32
26 7 27 -14 1 -28 1 -32 0 -15 -2 -8 10 20 34 15 13 22 25 17 25 -6 0 -9 19
-8 43 5 84 2 127 -13 179 -9 29 -18 71 -21 93 -8 64 -44 89 -62 43z"/>
<path d="M908 1893 c7 -3 16 -2 19 1 4 3 -2 6 -13 5 -11 0 -14 -3 -6 -6z"/>
<path d="M625 1841 c-3 -5 -1 -12 4 -15 12 -8 41 3 41 15 0 12 -37 12 -45 0z"/>
<path d="M2480 1834 c28 -7 323 -35 326 -31 8 7 -231 37 -286 36 -30 -1 -48
-3 -40 -5z"/>
<path d="M693 1808 c-8 -11 -33 -73 -33 -84 0 -1 9 -4 20 -6 14 -2 17 -7 10
-18 -7 -12 -12 -11 -30 5 -26 23 -35 14 -48 -50 -10 -49 -3 -85 18 -85 6 0 10
-7 10 -15 0 -8 5 -15 10 -15 6 0 10 -15 11 -32 l1 -33 10 33 c6 17 15 32 19
32 5 0 9 6 9 14 0 8 5 18 11 22 9 5 10 -6 5 -43 -7 -54 -1 -69 21 -51 17 13
22 9 25 -23 2 -13 8 -27 13 -31 6 -5 4 -12 -5 -18 -13 -9 -13 -11 0 -20 13 -8
12 -11 -4 -23 -19 -14 -19 -15 1 -21 38 -12 72 14 37 28 -13 5 -14 9 -4 21 8
10 9 15 2 15 -6 0 -11 8 -11 18 1 9 -3 41 -9 70 -5 29 -5 55 -1 58 14 8 10 24
-6 24 -8 0 -15 -6 -15 -14 0 -8 -4 -18 -10 -21 -18 -11 -10 42 10 65 18 20 18
26 7 44 -19 29 -40 95 -41 130 -1 32 -17 44 -33 24z m-30 -223 c-3 -9 -8 -14
-10 -11 -3 3 -2 9 2 15 9 16 15 13 8 -4z"/>
<path d="M1260 1786 c0 -7 6 -19 14 -25 11 -9 14 -6 14 14 0 15 -6 25 -14 25
-8 0 -14 -6 -14 -14z"/>
<path d="M2848 1793 c12 -2 30 -2 40 0 9 3 -1 5 -23 4 -22 0 -30 -2 -17 -4z"/>
<path d="M2378 1768 c-24 -8 -28 -15 -25 -44 2 -40 10 -42 42 -9 41 40 31 70
-17 53z"/>
<path d="M495 1760 c3 -5 11 -10 16 -10 6 0 7 5 4 10 -3 6 -11 10 -16 10 -6 0
-7 -4 -4 -10z"/>
<path d="M1050 1699 c0 -22 4 -38 8 -35 8 5 4 76 -4 76 -2 0 -4 -18 -4 -41z"/>
<path d="M1147 1710 c3 -12 18 -27 34 -36 29 -14 29 -15 14 -51 -20 -47 -23
-50 -32 -28 -4 11 -2 20 5 23 8 2 7 8 -3 19 -8 8 -13 18 -10 23 3 4 -4 6 -14
3 -11 -3 -17 -11 -15 -18 3 -7 -2 -15 -11 -19 -9 -3 -13 -11 -10 -16 4 -6 12
-7 19 -3 7 4 4 1 -6 -9 -19 -17 -26 -64 -8 -53 8 5 9 -10 4 -44 -4 -33 -3 -51
4 -51 5 0 8 -9 5 -20 -6 -23 -5 -23 102 25 33 15 71 31 84 36 17 7 21 13 14
20 -8 8 -31 2 -78 -20 -69 -32 -102 -42 -50 -15 17 9 41 23 55 32 14 9 30 17
35 18 6 0 16 2 23 2 13 2 17 62 5 62 -5 0 -8 20 -8 44 -1 51 -7 61 -31 52 -12
-5 -14 -9 -5 -20 9 -11 8 -15 -5 -20 -11 -4 -22 1 -31 14 -8 11 -21 20 -29 20
-8 0 -13 4 -10 8 5 9 -29 42 -43 42 -5 0 -7 -9 -4 -20z m125 -162 c-9 -9 -15
-9 -24 0 -9 9 -7 12 12 12 19 0 21 -3 12 -12z"/>
<path d="M828 1653 c-10 -2 -18 -11 -18 -18 0 -17 42 -5 48 13 4 12 0 13 -30
5z"/>
<path d="M1059 1600 c-3 -8 -3 -26 1 -40 4 -14 6 -35 5 -47 -1 -13 3 -23 8
-23 5 0 7 -7 4 -15 -4 -8 -2 -17 4 -21 17 -10 18 -2 8 46 -6 25 -13 61 -18 80
-4 21 -9 29 -12 20z"/>
<path d="M418 1585 c17 -8 32 -20 32 -26 0 -5 5 -7 11 -4 6 4 13 -2 16 -14 6
-25 26 -29 21 -5 -4 22 -46 51 -83 58 l-30 5 33 -14z"/>
<path d="M552 1589 c-15 -5 -20 -13 -16 -21 6 -9 9 -9 12 0 2 7 12 12 23 12
10 0 19 5 19 10 0 12 -7 12 -38 -1z"/>
<path d="M1467 1543 c-11 -10 -8 -63 3 -63 6 0 10 -11 10 -25 0 -53 35 -20 44
40 3 22 3 31 -1 20 -5 -20 -21 -35 -36 -35 -4 0 -5 16 -1 35 6 32 -3 45 -19
28z"/>
<path d="M540 1534 c0 -15 22 -44 33 -44 7 0 13 -8 14 -17 7 -68 7 -68 38 -66
l30 2 -30 -14 c-19 -9 -24 -14 -12 -15 20 0 22 -11 5 -28 -15 -15 2 -34 20
-23 8 5 14 32 15 71 2 60 1 64 -23 70 -21 6 -23 8 -7 15 29 12 19 31 -22 43
-42 13 -61 15 -61 6z"/>
<path d="M2260 1520 c0 -6 5 -16 10 -23 6 -7 17 -21 25 -32 14 -19 15 -18 8
10 -8 39 -43 75 -43 45z"/>
<path d="M1411 1506 c-7 -8 -8 -17 -3 -20 6 -3 13 1 16 10 9 23 2 28 -13 10z"/>
<path d="M1 1444 c0 -11 3 -14 6 -6 3 7 2 16 -1 19 -3 4 -6 -2 -5 -13z"/>
<path d="M500 1425 c0 -17 -11 -38 -31 -56 l-31 -29 13 -85 c11 -79 14 -84 29
-70 9 8 26 15 38 15 42 0 57 -75 22 -110 -19 -19 -22 -19 -36 -5 -25 24 -37
18 -31 -15 6 -27 2 -32 -33 -52 -22 -13 -41 -32 -42 -42 -5 -32 -28 -31 -28 1
0 15 -6 40 -14 55 -8 14 -17 49 -21 78 -6 40 -11 50 -24 48 -13 -3 -15 -15
-13 -67 3 -69 -12 -77 -23 -11 -9 52 -21 58 -29 15 -4 -20 -11 -33 -17 -30 -5
4 -9 1 -9 -4 0 -6 -7 -11 -15 -11 -10 0 -15 -10 -15 -32 0 -47 21 -158 30
-158 4 0 60 25 124 55 64 30 118 55 120 55 2 0 46 20 98 44 51 24 110 51 132
60 34 14 37 18 25 32 -14 17 -37 72 -46 112 -6 25 -33 30 -33 6 0 -8 6 -22 13
-29 41 -46 42 -49 23 -42 -12 5 -16 3 -13 -5 8 -22 -23 -49 -43 -38 -18 10
-29 58 -35 157 -4 75 -24 129 -52 142 -13 6 -22 15 -18 20 3 5 1 12 -5 16 -6
4 -10 -5 -10 -20z m-170 -447 l-1 -63 -20 38 c-19 36 -19 40 -4 63 8 13 18 24
20 24 3 0 5 -28 5 -62z m-80 18 c0 -2 -7 -7 -16 -10 -8 -3 -12 -2 -9 4 6 10
25 14 25 6z"/>
<path d="M1030 1420 c0 -13 5 -20 13 -17 6 2 12 10 12 17 0 7 -6 15 -12 18 -8
2 -13 -5 -13 -18z"/>
<path d="M1086 1431 c-4 -7 -5 -15 -2 -18 9 -9 19 4 14 18 -4 11 -6 11 -12 0z"/>
<path d="M885 1420 c-8 -13 4 -32 16 -25 12 8 12 35 0 35 -6 0 -13 -4 -16 -10z"/>
<path d="M1185 1420 c-3 -6 1 -7 9 -4 18 7 21 14 7 14 -6 0 -13 -4 -16 -10z"/>
<path d="M1245 1415 c-25 -12 -26 -14 -5 -9 28 7 60 23 45 23 -5 0 -23 -6 -40
-14z"/>
<path d="M12 1395 c0 -16 2 -22 5 -12 2 9 2 23 0 30 -3 6 -5 -1 -5 -18z"/>
<path d="M1133 1403 c-14 -5 -18 -73 -4 -73 13 0 115 42 126 52 6 6 -4 8 -25
7 -19 -1 -48 -1 -65 0 -26 2 -28 3 -10 11 21 9 0 12 -22 3z"/>
<path d="M1375 1400 c-7 -12 22 -12 50 0 17 7 15 9 -12 9 -17 1 -35 -3 -38 -9z"/>
<path d="M2349 1401 c7 -5 10 -14 7 -20 -4 -6 -3 -11 2 -11 12 0 23 26 15 34
-4 3 -13 6 -22 6 -13 0 -13 -2 -2 -9z"/>
<path d="M170 1391 c0 -6 5 -13 10 -16 6 -3 10 1 10 9 0 9 -4 16 -10 16 -5 0
-10 -4 -10 -9z"/>
<path d="M373 1393 c-18 -7 -16 -30 3 -37 8 -3 12 -10 9 -16 -7 -11 -3 -12 17
-5 10 4 13 16 10 35 -4 29 -13 34 -39 23z"/>
<path d="M2310 1386 c0 -8 4 -17 9 -20 5 -4 7 3 4 14 -6 23 -13 26 -13 6z"/>
<path d="M2390 1380 c0 -23 25 -27 33 -6 7 16 -1 26 -20 26 -7 0 -13 -9 -13
-20z"/>
<path d="M1030 1360 c0 -33 11 -38 30 -15 10 12 10 18 0 30 -19 23 -30 18 -30
-15z"/>
<path d="M2440 1370 c0 -23 25 -27 33 -6 7 16 -1 26 -20 26 -7 0 -13 -9 -13
-20z"/>
<path d="M273 1364 c-4 -10 -2 -19 5 -22 15 -5 16 -49 1 -58 -11 -6 -8 -89 4
-100 15 -15 25 9 16 38 -6 21 -5 34 2 39 6 3 10 9 10 13 -2 16 0 18 14 6 8 -7
15 -25 15 -41 0 -16 5 -29 10 -29 14 0 12 14 -8 95 -15 58 -22 71 -40 73 -14
2 -25 -3 -29 -14z"/>
<path d="M867 1362 c-12 -13 -14 -21 -6 -29 17 -17 39 -4 39 23 0 29 -11 31
-33 6z"/>
<path d="M1090 1371 c0 -6 5 -13 10 -16 6 -3 10 1 10 9 0 9 -4 16 -10 16 -5 0
-10 -4 -10 -9z"/>
<path d="M2487 1366 c-7 -16 1 -26 20 -26 7 0 13 9 13 20 0 23 -25 27 -33 6z"/>
<path d="M2536 1354 c-9 -25 16 -38 32 -17 11 16 12 16 12 0 0 -9 2 -17 4 -17
2 0 11 -3 20 -6 12 -5 16 0 16 20 0 18 -5 26 -17 26 -10 0 -28 3 -39 6 -15 4
-23 0 -28 -12z"/>
<path d="M22 1330 c0 -19 2 -27 5 -17 2 9 2 25 0 35 -3 9 -5 1 -5 -18z"/>
<path d="M685 1350 c-3 -5 -1 -10 4 -10 6 0 11 5 11 10 0 6 -2 10 -4 10 -3 0
-8 -4 -11 -10z"/>
<path d="M2318 1342 c-12 -5 -15 -11 -8 -22 8 -12 12 -11 30 8 21 22 12 28
-22 14z"/>
<path d="M2637 1331 c-5 -22 0 -31 20 -31 7 0 13 11 13 25 0 30 -25 34 -33 6z"/>
<path d="M2689 1338 c-7 -25 -4 -37 12 -41 10 -3 20 0 22 7 3 7 11 3 21 -9 12
-14 19 -16 22 -7 8 17 35 15 28 -2 -3 -7 2 -16 11 -20 9 -3 18 0 21 9 4 8 10
12 15 9 5 -3 7 -9 4 -14 -3 -4 3 -11 12 -15 10 -3 19 -1 21 4 5 16 22 13 22
-4 0 -8 7 -15 16 -15 10 0 14 7 12 23 -2 16 -9 21 -25 19 -13 -2 -23 1 -23 6
0 5 -34 15 -75 22 -42 7 -78 17 -81 21 -5 8 -33 13 -35 7z"/>
<path d="M770 1313 l-23 -16 28 -14 c25 -14 29 -13 47 4 19 19 19 20 -5 30
-20 9 -29 8 -47 -4z"/>
<path d="M684 1305 c-3 -8 2 -37 11 -65 13 -39 20 -48 30 -40 13 11 14 87 1
108 -10 17 -35 15 -42 -3z"/>
<path d="M1032 1308 c-18 -18 -14 -27 8 -21 21 6 26 18 12 27 -5 3 -14 0 -20
-6z"/>
<path d="M612 1296 c1 -10 8 -17 13 -17 15 1 12 24 -3 29 -9 3 -13 -2 -10 -12z"/>
<path d="M855 1300 c-3 -5 -3 -21 1 -35 6 -24 8 -25 21 -12 9 9 13 23 8 36 -7
22 -20 27 -30 11z"/>
<path d="M958 1285 c-3 -14 -2 -25 2 -25 11 0 20 39 10 45 -4 3 -10 -6 -12
-20z"/>
<path d="M26 1275 c4 -8 8 -15 10 -15 2 0 4 7 4 15 0 8 -4 15 -10 15 -5 0 -7
-7 -4 -15z"/>
<path d="M182 1250 c0 -14 2 -19 5 -12 2 6 2 18 0 25 -3 6 -5 1 -5 -13z"/>
<path d="M419 1256 c-3 -3 -3 -21 -1 -41 5 -38 22 -49 21 -12 -1 27 -13 60
-20 53z"/>
<path d="M787 1246 c-4 -10 0 -12 14 -9 10 3 16 9 13 14 -8 13 -21 11 -27 -5z"/>
<path d="M1028 1219 c-26 -13 -38 -26 -38 -40 0 -18 4 -20 28 -14 41 10 74 34
70 52 -4 24 -19 24 -60 2z"/>
<path d="M755 1221 c-3 -5 -2 -12 3 -15 5 -3 9 1 9 9 0 17 -3 19 -12 6z"/>
<path d="M831 1214 c0 -11 3 -14 6 -6 3 7 2 16 -1 19 -3 4 -6 -2 -5 -13z"/>
<path d="M2900 1220 l-25 -8 28 -1 c15 -1 27 4 27 9 0 6 -1 10 -2 9 -2 -1 -14
-5 -28 -9z"/>
<path d="M370 1175 c-16 -19 -7 -30 14 -18 9 5 12 13 7 21 -6 10 -11 10 -21
-3z"/>
<path d="M640 1164 c0 -8 5 -12 10 -9 6 3 10 10 10 16 0 5 -4 9 -10 9 -5 0
-10 -7 -10 -16z"/>
<path d="M393 1138 c-17 -24 -32 -67 -24 -72 4 -3 15 4 24 15 9 10 25 19 35
19 26 0 33 10 21 31 -11 22 -42 25 -56 7z"/>
<path d="M2404 1133 c15 -4 16 -7 5 -15 -12 -8 -12 -9 0 -6 25 7 24 28 -1 27
-19 -1 -20 -2 -4 -6z"/>
<path d="M2455 1120 c3 -5 14 -10 23 -10 15 0 15 2 2 10 -20 13 -33 13 -25 0z"/>
<path d="M2570 1090 c-8 -5 -10 -10 -5 -10 6 0 17 5 25 10 8 5 11 10 5 10 -5
0 -17 -5 -25 -10z"/>
<path d="M2606 1075 c-23 -18 -18 -19 21 -5 26 9 27 9 9 -5 -25 -19 -17 -19
18 -1 l27 13 -23 7 c-30 8 -30 8 -52 -9z"/>
<path d="M61 1064 c0 -11 3 -14 6 -6 3 7 2 16 -1 19 -3 4 -6 -2 -5 -13z"/>
<path d="M413 1060 c-33 -19 -41 -34 -25 -44 13 -8 72 32 72 49 0 20 -8 19
-47 -5z"/>
<path d="M2698 1063 c7 -3 16 -2 19 1 4 3 -2 6 -13 5 -11 0 -14 -3 -6 -6z"/>
<path d="M2738 1053 c7 -3 16 -2 19 1 4 3 -2 6 -13 5 -11 0 -14 -3 -6 -6z"/>
<path d="M72 1005 c0 -16 2 -22 5 -12 2 9 2 23 0 30 -3 6 -5 -1 -5 -18z"/>
<path d="M82 945 c0 -16 4 -41 8 -55 l8 -25 0 25 c0 14 -4 39 -8 55 l-8 30 0
-30z"/>
<path d="M2095 950 c-3 -5 -4 -14 -1 -19 3 -5 -1 -11 -9 -15 -21 -8 -19 -21 8
-35 12 -6 14 -9 4 -7 -25 8 -75 -4 -81 -19 -3 -8 2 -11 15 -8 25 7 25 -14 -1
-22 -11 -3 -20 -11 -20 -16 0 -13 18 -11 23 4 4 9 8 8 16 -3 6 -9 11 -10 11
-3 0 6 13 14 30 18 16 4 29 10 29 13 -3 20 2 25 11 12 8 -13 10 -12 10 3 0 13
8 17 35 17 19 0 35 5 35 10 0 6 10 10 22 10 19 0 245 -62 422 -116 50 -16 72
-13 38 5 -10 5 -70 24 -133 41 -138 38 -439 129 -450 135 -4 3 -10 1 -14 -5z
m32 -46 c-3 -3 -12 -4 -19 -1 -8 3 -5 6 6 6 11 1 17 -2 13 -5z m-27 -55 c0 -5
-9 -9 -20 -9 -19 0 -26 11 -14 23 8 8 34 -3 34 -14z"/>
<path d="M102 835 c0 -16 2 -22 5 -12 2 9 2 23 0 30 -3 6 -5 -1 -5 -18z"/>
<path d="M2100 810 c0 -5 4 -10 9 -10 6 0 13 5 16 10 3 6 -1 10 -9 10 -9 0
-16 -4 -16 -10z"/>
<path d="M2496 582 c-3 -5 1 -9 9 -9 8 0 12 4 9 9 -3 4 -7 8 -9 8 -2 0 -6 -4
-9 -8z"/>
<path d="M2290 329 c0 -5 5 -7 10 -4 6 3 10 8 10 11 0 2 -4 4 -10 4 -5 0 -10
-5 -10 -11z"/>
<path d="M900 290 c8 -5 20 -10 25 -10 6 0 3 5 -5 10 -8 5 -19 10 -25 10 -5 0
-3 -5 5 -10z"/>
<path d="M615 100 c3 -5 14 -10 23 -10 15 0 15 2 2 10 -20 13 -33 13 -25 0z"/>
</g>
</svg>
