<?xml version="1.0" standalone="no"?>
<!DOCTYPE svg PUBLIC "-//W3C//DTD SVG 20010904//EN"
 "http://www.w3.org/TR/2001/REC-SVG-20010904/DTD/svg10.dtd">
<svg version="1.0" xmlns="http://www.w3.org/2000/svg"
 width="37.000000pt" height="40.000000pt" viewBox="0 0 37.000000 40.000000"
 preserveAspectRatio="xMidYMid meet">

<g transform="translate(0.000000,40.000000) scale(0.100000,-0.100000)"
fill="#000000" stroke="none">
<path d="M103 273 c-35 -40 -53 -68 -45 -70 8 -3 12 -25 12 -64 l0 -59 105 0
105 0 0 60 c0 47 3 60 15 60 8 0 15 3 15 6 0 16 -115 134 -130 134 -10 0 -45
-30 -77 -67z m135 -3 l43 -50 -101 0 -101 0 42 50 c23 28 49 50 58 50 9 0 35
-23 59 -50z m32 -125 l0 -55 -90 0 -90 0 0 55 0 55 90 0 90 0 0 -55z"/>
</g>
</svg>
