<?xml version="1.0" standalone="no"?>
<!DOCTYPE svg PUBLIC "-//W3C//DTD SVG 20010904//EN"
 "http://www.w3.org/TR/2001/REC-SVG-20010904/DTD/svg10.dtd">
<svg version="1.0" xmlns="http://www.w3.org/2000/svg"
 width="37.000000pt" height="40.000000pt" viewBox="0 0 37.000000 40.000000"
 preserveAspectRatio="xMidYMid meet">

<g transform="translate(0.000000,40.000000) scale(0.100000,-0.100000)"
fill="#000000" stroke="none">
<path d="M71 286 c-8 -9 -11 -45 -9 -98 l3 -83 125 0 125 0 3 83 c2 53 -1 89
-9 98 -8 10 -39 14 -119 14 -80 0 -111 -4 -119 -14z m209 -7 c0 -5 -20 -31
-44 -57 l-45 -47 -45 45 c-66 64 -63 70 44 70 57 0 90 -4 90 -11z m-90 -109
c9 0 38 23 64 50 26 28 49 50 51 50 9 0 5 -135 -3 -148 -6 -9 -37 -12 -118
-10 l-109 3 -3 80 -2 80 51 -52 c28 -29 59 -53 69 -53z"/>
</g>
</svg>
