<?xml version="1.0" standalone="no"?>
<!DOCTYPE svg PUBLIC "-//W3C//DTD SVG 20010904//EN"
 "http://www.w3.org/TR/2001/REC-SVG-20010904/DTD/svg10.dtd">
<svg version="1.0" xmlns="http://www.w3.org/2000/svg"
 width="81.000000pt" height="68.000000pt" viewBox="0 0 81.000000 68.000000"
 preserveAspectRatio="xMidYMid meet">

<g transform="translate(0.000000,68.000000) scale(0.100000,-0.100000)"
fill="#000000" stroke="none">
<path d="M191 519 c-1 -43 4 -63 20 -83 18 -23 78 -63 82 -54 1 2 7 13 14 24
10 19 8 22 -27 33 -47 14 -58 28 -75 88 l-13 48 -1 -56z"/>
<path d="M595 517 c-8 -31 -55 -74 -91 -83 -17 -4 -23 -11 -20 -21 3 -8 6 -19
6 -24 0 -42 106 46 116 96 8 43 -1 69 -11 32z"/>
<path d="M317 333 c-3 -5 -2 -15 2 -22 7 -10 10 -10 16 -1 4 6 3 16 -3 22 -5
5 -12 6 -15 1z"/>
<path d="M467 334 c-8 -8 1 -24 14 -24 5 0 9 7 9 15 0 15 -12 20 -23 9z"/>
<path d="M380 203 c0 -17 5 -35 10 -38 6 -3 10 1 10 9 0 9 5 16 10 16 6 0 10
-4 10 -10 0 -5 5 -10 10 -10 6 0 10 15 10 33 -1 30 -1 31 -15 13 -15 -20 -15
-20 -30 0 -14 18 -14 17 -15 -13z"/>
</g>
</svg>
