<?xml version="1.0" standalone="no"?>
<!DOCTYPE svg PUBLIC "-//W3C//DTD SVG 20010904//EN"
 "http://www.w3.org/TR/2001/REC-SVG-20010904/DTD/svg10.dtd">
<svg version="1.0" xmlns="http://www.w3.org/2000/svg"
 width="37.000000pt" height="40.000000pt" viewBox="0 0 37.000000 40.000000"
 preserveAspectRatio="xMidYMid meet">

<g transform="translate(0.000000,40.000000) scale(0.100000,-0.100000)"
fill="#000000" stroke="none">
<path d="M95 295 c-22 -21 -25 -33 -25 -100 0 -103 12 -115 120 -115 109 0
120 11 120 118 0 42 -4 82 -8 88 -15 23 -53 34 -117 34 -57 0 -69 -3 -90 -25z
m179 -11 c20 -19 23 -153 4 -172 -7 -7 -43 -12 -90 -12 -92 0 -98 6 -98 101 0
86 13 99 101 99 48 0 72 -5 83 -16z"/>
<path d="M246 272 c-3 -6 -1 -14 5 -17 15 -10 25 3 12 16 -7 7 -13 7 -17 1z"/>
<path d="M154 235 c-27 -27 -26 -59 4 -82 57 -45 123 36 72 87 -27 27 -46 25
-76 -5z m64 -7 c22 -22 14 -57 -13 -64 -45 -11 -71 29 -39 60 19 19 36 20 52
4z"/>
</g>
</svg>
