<?xml version="1.0" standalone="no"?>
<!DOCTYPE svg PUBLIC "-//W3C//DTD SVG 20010904//EN"
 "http://www.w3.org/TR/2001/REC-SVG-20010904/DTD/svg10.dtd">
<svg version="1.0" xmlns="http://www.w3.org/2000/svg"
 width="962.000000pt" height="510.000000pt" viewBox="0 0 962.000000 510.000000"
 preserveAspectRatio="xMidYMid meet">

<g transform="translate(0.000000,510.000000) scale(0.100000,-0.100000)"
fill="#000000" stroke="none">
<path d="M4805 5090 c3 -5 8 -10 11 -10 2 0 4 5 4 10 0 6 -5 10 -11 10 -5 0
-7 -4 -4 -10z"/>
<path d="M4840 5089 c0 -5 5 -7 10 -4 6 3 10 8 10 11 0 2 -4 4 -10 4 -5 0 -10
-5 -10 -11z"/>
<path d="M383 4817 c-29 -17 -53 -34 -53 -38 0 -15 99 35 103 53 3 10 4 18 4
17 -1 0 -26 -15 -54 -32z"/>
<path d="M250 4825 c-7 -8 -10 -18 -6 -22 3 -3 6 -2 6 4 0 17 30 24 52 12 16
-9 19 -8 16 3 -7 19 -53 22 -68 3z"/>
<path d="M9202 4754 c3 -58 6 -69 22 -72 17 -4 18 -3 2 19 -9 13 -16 36 -16
51 l0 28 95 0 c69 0 95 3 95 13 0 9 -22 11 -86 9 -57 -2 -90 1 -100 9 -13 11
-15 4 -12 -57z"/>
<path d="M427 4764 c-3 -3 -46 -6 -96 -6 -60 0 -91 -4 -91 -12 0 -7 27 -10 85
-7 58 2 90 -1 100 -9 13 -10 15 -8 15 14 0 27 -2 30 -13 20z"/>
<path d="M9386 4705 c-3 -8 -1 -15 4 -15 6 0 10 7 10 15 0 8 -2 15 -4 15 -2 0
-6 -7 -10 -15z"/>
<path d="M4541 4630 c0 -14 4 -34 9 -45 7 -17 9 -16 9 10 0 17 -4 37 -9 45 -8
12 -10 10 -9 -10z"/>
<path d="M3966 4573 c21 -39 40 -70 42 -68 5 4 -56 116 -70 130 -6 6 7 -22 28
-62z"/>
<path d="M4661 4610 c1 -19 4 -60 9 -90 l7 -55 1 75 c1 41 -3 82 -8 90 -7 11
-9 6 -9 -20z"/>
<path d="M5077 4598 c-4 -24 -22 -134 -42 -246 -19 -111 -35 -210 -34 -220 2
-35 19 47 54 257 20 119 38 224 41 234 3 9 1 17 -4 17 -5 0 -12 -19 -15 -42z"/>
<path d="M5191 4614 c0 -11 3 -14 6 -6 3 7 2 16 -1 19 -3 4 -6 -2 -5 -13z"/>
<path d="M5275 4544 c-36 -121 -38 -130 -32 -124 10 9 69 202 63 207 -2 3 -17
-35 -31 -83z"/>
<path d="M5687 4623 c-2 -5 -17 -30 -33 -57 -15 -27 -23 -46 -16 -42 13 8 66
106 58 106 -3 0 -7 -3 -9 -7z"/>
<path d="M5802 4577 l-33 -52 31 35 c36 40 54 70 43 70 -4 0 -23 -24 -41 -53z"/>
<path d="M418 4590 c16 -27 17 -28 20 -9 2 12 -2 26 -10 30 -24 16 -27 9 -10
-21z"/>
<path d="M4070 4611 c0 -6 4 -13 10 -16 6 -3 7 1 4 9 -7 18 -14 21 -14 7z"/>
<path d="M4761 4566 c0 -35 3 -56 8 -50 4 5 5 32 1 59 l-7 50 -2 -59z"/>
<path d="M240 4594 c0 -8 5 -12 10 -9 6 3 10 10 10 16 0 5 -4 9 -10 9 -5 0
-10 -7 -10 -16z"/>
<path d="M4211 4590 c0 -8 9 -31 20 -50 15 -26 18 -29 13 -10 -9 35 -33 78
-33 60z"/>
<path d="M4972 4579 c-1 -15 -5 -42 -8 -60 -4 -28 -3 -31 6 -16 6 9 9 36 7 60
-2 23 -4 30 -5 16z"/>
<path d="M4451 4564 c0 -11 3 -14 6 -6 3 7 2 16 -1 19 -3 4 -6 -2 -5 -13z"/>
<path d="M5520 4559 c-7 -11 -10 -23 -7 -25 2 -2 9 7 15 21 14 30 7 33 -8 4z"/>
<path d="M9385 4571 c-6 -5 -47 -21 -92 -36 -46 -14 -83 -31 -83 -36 0 -12 16
-12 38 0 33 19 123 43 137 37 11 -4 15 2 15 19 0 28 -2 29 -15 16z"/>
<path d="M4111 4540 c0 -8 31 -76 70 -150 38 -74 67 -124 63 -111 -9 36 -133
278 -133 261z"/>
<path d="M4460 4534 c1 -20 49 -196 55 -202 4 -4 5 2 2 13 -3 11 -16 58 -27
105 -20 78 -30 108 -30 84z"/>
<path d="M3863 4516 c9 -24 172 -255 176 -250 5 4 -169 264 -177 264 -2 0 -2
-6 1 -14z"/>
<path d="M240 4508 c0 -10 27 -13 100 -13 73 0 100 3 100 13 0 9 -27 12 -100
12 -73 0 -100 -3 -100 -12z"/>
<path d="M5496 4503 c-6 -14 -5 -15 5 -6 7 7 10 15 7 18 -3 3 -9 -2 -12 -12z"/>
<path d="M4574 4450 c16 -110 50 -274 53 -263 5 14 -45 295 -54 303 -3 3 -3
-15 1 -40z"/>
<path d="M5578 4433 c-19 -32 -54 -94 -78 -138 -23 -44 -54 -100 -68 -124 -15
-25 -21 -42 -15 -38 15 10 207 347 200 353 -3 3 -20 -21 -39 -53z"/>
<path d="M5122 4354 c-18 -69 -31 -128 -29 -131 9 -9 71 230 65 248 -2 6 -18
-47 -36 -117z"/>
<path d="M5631 4323 c-56 -86 -105 -163 -108 -172 -3 -9 46 59 107 152 62 92
111 169 109 171 -2 3 -51 -65 -108 -151z"/>
<path d="M5864 4452 c-28 -37 -36 -52 -30 -52 8 0 59 70 54 75 -2 3 -13 -8
-24 -23z"/>
<path d="M9368 4461 l-28 -6 30 -17 c30 -17 30 -17 30 7 0 14 -1 24 -2 24 -2
-1 -15 -4 -30 -8z"/>
<path d="M4042 4445 c17 -34 91 -155 95 -155 8 0 -67 134 -84 150 -9 8 -14 11
-11 5z"/>
<path d="M4771 4314 c1 -76 5 -150 9 -164 4 -14 5 47 3 135 -3 88 -7 162 -9
164 -2 2 -4 -58 -3 -135z"/>
<path d="M5398 4302 c-94 -206 -93 -215 1 -23 87 175 85 171 74 171 -5 0 -38
-66 -75 -148z"/>
<path d="M4957 4433 c-7 -11 -30 -263 -25 -269 2 -2 12 57 22 132 16 124 17
160 3 137z"/>
<path d="M3626 4408 c149 -169 256 -288 261 -288 12 0 -258 309 -271 309 -5 1
-1 -9 10 -21z"/>
<path d="M4293 4388 c77 -185 110 -258 113 -255 6 6 -110 287 -118 287 -5 0
-2 -15 5 -32z"/>
<path d="M3500 4358 c113 -106 132 -120 50 -35 -46 48 -89 87 -95 87 -5 0 15
-24 45 -52z"/>
<path d="M4684 4361 c3 -18 6 -49 6 -67 0 -19 4 -34 8 -34 10 0 -3 118 -13
128 -5 4 -5 -8 -1 -27z"/>
<path d="M272 4354 c-12 -8 -22 -20 -22 -25 0 -6 12 -1 26 10 15 12 40 21 56
21 33 0 84 -23 91 -42 4 -9 6 -9 6 -1 1 6 -11 21 -25 32 -32 25 -100 28 -132
5z"/>
<path d="M5739 4293 c-24 -32 -96 -125 -161 -206 -104 -131 -128 -167 -114
-167 2 0 55 66 117 148 62 81 131 170 154 197 63 77 68 85 57 85 -5 0 -29 -26
-53 -57z"/>
<path d="M5151 4156 c-46 -142 -66 -220 -39 -156 19 47 98 304 94 308 -3 2
-27 -67 -55 -152z"/>
<path d="M9200 4248 c0 -32 2 -58 4 -58 2 0 12 -3 22 -7 17 -6 17 -5 1 17 -9
14 -17 37 -17 52 l0 28 95 0 c69 0 95 3 95 13 0 9 -27 12 -100 12 l-100 0 0
-57z"/>
<path d="M430 4275 c0 -12 -17 -15 -95 -15 -79 0 -95 -3 -95 -15 0 -12 4 -13
19 -5 25 13 122 13 155 0 24 -9 26 -8 26 20 0 17 -2 30 -5 30 -3 0 -5 -7 -5
-15z"/>
<path d="M3430 4256 c19 -21 49 -47 65 -59 29 -20 29 -19 -5 17 -19 21 -48 47
-65 59 -29 20 -29 19 5 -17z"/>
<path d="M4524 4263 c3 -10 24 -90 46 -178 58 -229 61 -237 66 -233 7 8 -103
428 -112 428 -3 0 -3 -8 0 -17z"/>
<path d="M5945 4220 c-27 -27 -47 -52 -44 -55 3 -2 30 20 59 50 30 30 50 55
44 55 -5 0 -32 -22 -59 -50z"/>
<path d="M4695 4228 c4 -23 25 -229 25 -255 0 -7 4 -13 9 -13 5 0 8 8 6 18 -2
9 -9 74 -16 145 -6 70 -16 127 -21 127 -4 0 -6 -10 -3 -22z"/>
<path d="M6059 4177 c-93 -81 -205 -188 -174 -165 38 28 220 186 244 212 43
46 15 28 -70 -47z"/>
<path d="M4160 4235 c0 -12 83 -146 88 -141 2 3 -10 28 -27 56 -17 28 -31 54
-31 59 0 5 -7 14 -15 21 -8 7 -15 9 -15 5z"/>
<path d="M9387 4216 c-4 -10 -5 -21 -2 -24 9 -9 17 6 13 25 -3 17 -4 17 -11
-1z"/>
<path d="M6222 4139 c-102 -73 -167 -131 -97 -85 70 46 228 166 218 166 -5 0
-60 -36 -121 -81z"/>
<path d="M4080 4204 c0 -10 170 -264 176 -264 6 0 -16 37 -103 173 -57 89 -73
108 -73 91z"/>
<path d="M3680 4196 c0 -7 202 -201 213 -204 7 -2 -36 44 -95 102 -97 96 -118
114 -118 102z"/>
<path d="M4295 4155 c9 -22 21 -44 26 -50 6 -5 3 8 -6 30 -9 22 -21 45 -26 50
-6 6 -3 -8 6 -30z"/>
<path d="M5071 4159 c-1 -3 -12 -62 -26 -129 -14 -68 -23 -126 -20 -128 3 -3
5 -2 5 3 0 4 12 59 26 122 14 63 23 120 20 126 -2 7 -5 9 -5 6z"/>
<path d="M3560 4147 c0 -3 59 -54 131 -114 163 -134 179 -146 184 -142 4 4
-290 252 -306 257 -5 2 -9 1 -9 -1z"/>
<path d="M4633 4125 c3 -11 11 -53 18 -92 7 -40 15 -73 19 -73 10 0 -20 163
-32 175 -7 7 -8 3 -5 -10z"/>
<path d="M5689 3961 c-93 -93 -169 -172 -169 -177 0 -9 20 10 199 186 128 126
159 160 146 160 -3 0 -83 -76 -176 -169z"/>
<path d="M240 4091 c0 -20 3 -22 12 -13 7 7 21 12 33 12 11 0 26 4 34 9 9 6
-1 10 -33 12 -43 4 -46 3 -46 -20z"/>
<path d="M405 4101 c-3 -6 -41 -31 -85 -57 -44 -26 -80 -54 -80 -62 0 -12 4
-12 23 2 12 8 57 37 99 63 42 26 74 51 72 55 -7 11 -22 10 -29 -1z"/>
<path d="M3440 4093 c0 -11 90 -76 97 -70 2 3 -13 18 -34 34 -49 38 -63 46
-63 36z"/>
<path d="M5430 4020 c-29 -45 -50 -83 -48 -85 2 -2 28 32 58 75 29 44 51 82
48 85 -3 3 -29 -31 -58 -75z"/>
<path d="M3920 4087 c0 -4 16 -24 35 -44 19 -20 35 -33 35 -27 0 6 -16 25 -35
44 -19 19 -35 31 -35 27z"/>
<path d="M4331 4085 c0 -5 8 -26 19 -45 11 -19 19 -30 19 -25 0 6 -8 26 -19
45 -11 19 -19 31 -19 25z"/>
<path d="M5347 4025 c-38 -66 -48 -95 -21 -60 21 27 66 116 62 121 -2 2 -21
-26 -41 -61z"/>
<path d="M4431 4065 c1 -23 37 -107 38 -85 0 8 -9 35 -19 60 -10 25 -19 36
-19 25z"/>
<path d="M9200 4055 c0 -17 4 -24 12 -19 6 4 51 6 100 6 64 -1 88 2 88 11 0 9
-21 11 -79 9 -46 -3 -87 1 -100 7 -19 11 -21 9 -21 -14z"/>
<path d="M5261 4018 c-29 -69 -21 -71 12 -3 15 30 23 55 18 55 -4 0 -18 -23
-30 -52z"/>
<path d="M4905 3975 c-4 -47 -5 -88 -2 -91 3 -3 8 33 12 81 4 47 5 88 2 91 -3
3 -8 -33 -12 -81z"/>
<path d="M4976 4018 c-4 -24 -9 -59 -13 -78 -3 -19 -3 -32 1 -29 3 3 10 30 16
60 6 30 13 62 16 72 3 9 1 17 -4 17 -5 0 -12 -19 -16 -42z"/>
<path d="M4786 3915 c3 -71 7 -131 10 -134 7 -7 3 139 -6 204 -6 42 -7 22 -4
-70z"/>
<path d="M4300 3990 c11 -22 23 -40 25 -40 3 0 -4 18 -15 40 -11 22 -23 40
-25 40 -3 0 4 -18 15 -40z"/>
<path d="M9260 4007 c-42 -19 -59 -33 -60 -49 0 -6 95 45 109 58 13 13 -10 8
-49 -9z"/>
<path d="M410 4010 c-8 -5 -31 -10 -50 -11 -32 -1 -31 -2 12 -9 26 -5 52 -11
57 -15 7 -4 11 4 11 19 0 28 -6 31 -30 16z"/>
<path d="M5995 3974 c-39 -35 -39 -35 -7 -17 35 19 71 53 56 53 -5 0 -27 -16
-49 -36z"/>
<path d="M6105 3917 c-119 -75 -231 -153 -165 -115 95 55 288 174 300 185 34
31 -14 7 -135 -70z"/>
<path d="M9319 3983 c13 -25 49 -31 69 -11 19 19 14 33 -6 15 -23 -21 -31 -21
-55 1 -19 16 -20 16 -8 -5z"/>
<path d="M3594 3982 c7 -12 222 -168 271 -196 29 -17 28 -17 -5 14 -42 38
-276 198 -266 182z"/>
<path d="M5790 3940 c-25 -22 -40 -39 -35 -40 10 0 85 67 85 76 0 7 -4 4 -50
-36z"/>
<path d="M4049 3945 c26 -35 115 -125 124 -125 11 0 -85 107 -114 128 -23 15
-24 15 -10 -3z"/>
<path d="M3970 3907 c195 -182 284 -263 294 -266 15 -4 -21 31 -183 183 -74
69 -139 126 -145 126 -6 0 9 -19 34 -43z"/>
<path d="M4732 3930 c0 -14 2 -19 5 -12 2 6 2 18 0 25 -3 6 -5 1 -5 -13z"/>
<path d="M4411 3925 c0 -5 27 -62 59 -125 32 -63 59 -110 59 -105 0 6 -27 62
-59 125 -32 63 -59 111 -59 105z"/>
<path d="M4491 3919 c-1 -10 12 -48 28 -85 16 -38 46 -114 66 -169 41 -109 54
-139 61 -133 2 3 -32 94 -75 204 -44 109 -80 192 -80 183z"/>
<path d="M5051 3834 c-35 -115 -47 -166 -33 -144 15 24 75 231 69 237 -3 3
-19 -39 -36 -93z"/>
<path d="M3310 3895 c25 -13 50 -24 55 -24 6 0 -10 11 -35 24 -25 13 -49 24
-55 24 -5 0 10 -11 35 -24z"/>
<path d="M5255 3865 c-15 -25 -25 -48 -22 -51 2 -3 17 16 32 41 15 26 25 49
22 52 -3 2 -17 -16 -32 -42z"/>
<path d="M5842 3860 c-66 -46 -92 -70 -76 -70 3 0 33 20 66 45 34 25 68 50 77
54 9 5 13 12 10 15 -3 3 -38 -16 -77 -44z"/>
<path d="M4681 3885 c0 -11 6 -47 14 -80 l14 -60 -5 59 c-6 63 -23 121 -23 81z"/>
<path d="M4370 3870 c6 -11 13 -20 16 -20 2 0 0 9 -6 20 -6 11 -13 20 -16 20
-2 0 0 -9 6 -20z"/>
<path d="M5126 3734 c-43 -86 -75 -158 -72 -161 3 -3 39 65 81 152 42 86 75
159 72 161 -2 3 -39 -66 -81 -152z"/>
<path d="M5333 3878 c-9 -11 -73 -113 -131 -208 -9 -14 -11 -20 -5 -15 12 12
125 180 142 213 13 24 9 29 -6 10z"/>
<path d="M5396 3862 c-11 -15 -31 -43 -45 -62 -20 -28 -21 -31 -5 -17 27 22
88 107 77 107 -4 0 -17 -13 -27 -28z"/>
<path d="M4295 3869 c22 -35 123 -178 138 -194 16 -16 -2 13 -65 107 -31 47
-63 90 -69 94 -8 5 -9 3 -4 -7z"/>
<path d="M4892 3840 c0 -19 2 -27 5 -17 2 9 2 25 0 35 -3 9 -5 1 -5 -18z"/>
<path d="M5669 3833 l-34 -37 43 33 c23 18 42 35 42 37 0 13 -20 0 -51 -33z"/>
<path d="M240 3840 c0 -13 12 -15 74 -12 85 5 116 -7 116 -43 0 -35 -31 -47
-116 -43 -61 2 -74 0 -74 -12 0 -24 168 -11 186 15 20 27 17 59 -6 80 -28 26
-180 38 -180 15z"/>
<path d="M670 3830 c0 -17 4 -20 18 -15 9 5 37 11 62 15 l45 7 -40 2 c-22 1
-50 4 -62 7 -19 5 -23 2 -23 -16z"/>
<path d="M836 3835 c-8 -9 -48 -35 -87 -58 -73 -43 -105 -77 -56 -58 14 5 28
7 33 3 4 -4 4 -2 0 5 -4 8 19 27 63 53 39 22 73 44 76 49 10 17 -13 21 -29 6z"/>
<path d="M3930 3842 c0 -5 28 -31 62 -58 81 -64 103 -80 95 -67 -11 18 -157
134 -157 125z"/>
<path d="M4946 3839 c-9 -27 -38 -221 -33 -225 2 -2 14 48 26 112 12 64 20
118 17 121 -3 3 -8 0 -10 -8z"/>
<path d="M4996 3835 c-3 -9 -6 -24 -5 -33 0 -9 5 -4 10 12 9 32 6 48 -5 21z"/>
<path d="M3160 3835 c0 -7 67 -39 175 -83 55 -22 135 -57 179 -77 43 -19 83
-34 89 -32 5 1 -41 25 -104 52 -63 26 -143 62 -179 78 -140 64 -160 71 -160
62z"/>
<path d="M3435 3833 c6 -6 109 -61 230 -123 121 -62 216 -108 210 -103 -12 12
-400 219 -430 229 -14 5 -17 4 -10 -3z"/>
<path d="M9346 3813 c-39 -20 -60 -24 -98 -21 -40 4 -48 2 -48 -12 0 -15 8
-16 53 -12 28 2 64 11 79 18 15 8 36 14 48 14 13 0 20 7 20 20 0 11 -1 20 -2
20 -2 -1 -25 -12 -52 -27z"/>
<path d="M4740 3814 c1 -35 29 -237 35 -242 7 -7 7 -2 -10 132 -13 108 -25
160 -25 110z"/>
<path d="M6355 3800 c-68 -34 -37 -29 40 6 28 12 43 23 35 23 -8 1 -42 -13
-75 -29z"/>
<path d="M4420 3796 c0 -11 49 -96 56 -96 2 0 -5 17 -15 38 -26 48 -41 69 -41
58z"/>
<path d="M4651 3785 c0 -11 7 -38 14 -60 l14 -40 -6 45 c-6 49 -23 91 -22 55z"/>
<path d="M4982 3760 c0 -14 2 -19 5 -12 2 6 2 18 0 25 -3 6 -5 1 -5 -13z"/>
<path d="M4258 3723 c22 -27 64 -70 93 -98 38 -36 29 -23 -32 47 -46 53 -88
97 -92 97 -5 1 9 -20 31 -46z"/>
<path d="M5188 3748 c-24 -36 -39 -68 -33 -68 8 0 57 81 52 86 -2 3 -11 -6
-19 -18z"/>
<path d="M5534 3714 c-32 -30 -52 -52 -43 -47 24 12 123 103 112 103 -6 0 -36
-25 -69 -56z"/>
<path d="M5535 3640 c-163 -119 -239 -179 -195 -155 8 5 78 54 155 110 77 56
161 116 188 135 26 18 47 35 47 37 0 12 -36 -12 -195 -127z"/>
<path d="M830 3743 c-19 -6 -44 -13 -55 -14 -11 -1 5 -5 35 -9 30 -4 56 -6 58
-4 2 1 2 11 0 21 -3 16 -7 17 -38 6z"/>
<path d="M3065 3740 c3 -5 14 -10 23 -10 15 0 15 2 2 10 -20 13 -33 13 -25 0z"/>
<path d="M5385 3659 c-50 -50 -81 -87 -70 -81 26 14 182 172 170 172 -6 0 -51
-41 -100 -91z"/>
<path d="M5752 3698 c-45 -28 -80 -53 -77 -56 4 -4 120 62 161 93 44 33 -7 11
-84 -37z"/>
<path d="M6023 3652 c-111 -53 -201 -98 -198 -100 4 -4 396 176 410 189 21 20
-18 4 -212 -89z"/>
<path d="M6387 3688 c-86 -34 -156 -63 -153 -65 4 -4 326 114 335 122 14 15
-41 -3 -182 -57z"/>
<path d="M9361 3747 c2 -2 12 -9 22 -16 14 -11 17 -11 17 1 0 7 -10 14 -21 15
-12 1 -20 1 -18 0z"/>
<path d="M3950 3720 c14 -11 30 -20 35 -20 6 0 -1 9 -15 20 -14 11 -29 20 -35
20 -5 0 1 -9 15 -20z"/>
<path d="M4711 3724 c0 -11 3 -14 6 -6 3 7 2 16 -1 19 -3 4 -6 -2 -5 -13z"/>
<path d="M3140 3710 c19 -11 42 -19 50 -19 8 0 -3 9 -25 19 -53 24 -70 24 -25
0z"/>
<path d="M5221 3633 c-39 -54 -81 -111 -93 -128 -13 -16 -17 -26 -10 -21 11 7
106 126 165 207 15 22 24 39 18 39 -5 0 -41 -44 -80 -97z"/>
<path d="M4791 3685 c0 -16 4 -50 8 -75 l8 -45 1 55 c0 30 -3 64 -8 75 -7 17
-9 16 -9 -10z"/>
<path d="M4877 3681 c-4 -18 -6 -52 -6 -75 1 -37 2 -35 10 19 10 67 7 109 -4
56z"/>
<path d="M8950 3681 c0 -6 5 -13 10 -16 6 -3 10 1 10 9 0 9 -4 16 -10 16 -5 0
-10 -4 -10 -9z"/>
<path d="M4020 3676 c0 -6 210 -156 227 -163 31 -12 6 9 -94 79 -120 83 -133
91 -133 84z"/>
<path d="M3256 3661 c13 -12 216 -82 222 -76 3 2 -4 8 -14 11 -10 4 -59 22
-108 40 -89 34 -118 42 -100 25z"/>
<path d="M4140 3667 c0 -3 53 -49 117 -103 64 -54 113 -92 109 -86 -7 13 -192
173 -213 186 -7 4 -13 5 -13 3z"/>
<path d="M4950 3656 c0 -7 -3 -29 -6 -47 -10 -48 3 -32 14 19 6 24 6 42 1 42
-5 0 -9 -6 -9 -14z"/>
<path d="M4500 3656 c0 -13 71 -135 83 -143 6 -4 -4 20 -22 53 -40 70 -61 102
-61 90z"/>
<path d="M4560 3625 c14 -36 50 -105 55 -105 6 0 -10 40 -35 90 -23 44 -35 54
-20 15z"/>
<path d="M5118 3628 c-22 -34 -59 -108 -54 -108 8 0 78 121 73 126 -2 2 -11
-6 -19 -18z"/>
<path d="M8770 3628 c0 -24 2 -26 29 -18 15 4 60 7 100 6 39 -2 71 1 71 6 0 4
-40 8 -88 8 -55 0 -92 4 -100 12 -9 9 -12 6 -12 -14z"/>
<path d="M4692 3625 c0 -11 3 -29 8 -40 11 -25 11 1 0 35 -6 20 -8 21 -8 5z"/>
<path d="M5320 3535 c-115 -102 -151 -138 -92 -97 42 30 217 183 220 193 8 20
-12 5 -128 -96z"/>
<path d="M4976 3594 c-4 -14 -5 -28 -3 -31 3 -2 8 8 11 23 4 14 5 28 3 31 -3
2 -8 -8 -11 -23z"/>
<path d="M9386 3605 c4 -8 8 -15 10 -15 2 0 4 7 4 15 0 8 -4 15 -10 15 -5 0
-7 -7 -4 -15z"/>
<path d="M3686 3602 c12 -12 94 -43 94 -37 0 6 -86 45 -98 45 -3 0 -2 -4 4 -8z"/>
<path d="M4480 3607 c0 -11 58 -94 72 -103 6 -4 3 6 -6 22 -23 39 -66 91 -66
81z"/>
<path d="M4731 3594 c0 -11 3 -14 6 -6 3 7 2 16 -1 19 -3 4 -6 -2 -5 -13z"/>
<path d="M5498 3537 c-96 -65 -148 -104 -108 -82 38 22 230 147 230 151 0 10
-23 -3 -122 -69z"/>
<path d="M4385 3516 c50 -47 94 -86 98 -86 11 0 -162 164 -177 168 -6 2 30
-35 79 -82z"/>
<path d="M6460 3585 c-25 -7 -65 -19 -89 -25 -23 -6 -41 -13 -38 -16 5 -6 195
41 204 50 10 10 -30 5 -77 -9z"/>
<path d="M670 3575 c0 -9 19 -11 69 -7 52 3 77 0 102 -12 34 -17 34 -17 14 3
-16 15 -39 20 -102 23 -60 3 -83 1 -83 -7z"/>
<path d="M6005 3549 c-60 -21 -114 -44 -120 -50 -10 -10 158 46 225 75 68 30
4 14 -105 -25z"/>
<path d="M8956 3574 c-4 -9 -4 -19 -1 -22 2 -3 7 3 11 12 4 9 4 19 1 22 -2 3
-7 -3 -11 -12z"/>
<path d="M9200 3555 c0 -22 2 -23 30 -14 16 6 61 9 100 7 42 -2 70 1 70 7 0 6
-28 9 -70 7 -39 -2 -84 1 -100 7 -28 9 -30 8 -30 -14z"/>
<path d="M3204 3562 c3 -5 16 -12 28 -15 13 -3 97 -26 187 -51 91 -26 168 -45
173 -44 7 3 -161 54 -376 115 -11 3 -16 1 -12 -5z"/>
<path d="M3521 3566 c7 -8 159 -66 171 -66 24 0 -8 17 -80 43 -67 25 -102 33
-91 23z"/>
<path d="M3975 3551 c3 -6 30 -23 58 -37 29 -13 43 -18 32 -9 -29 24 -98 58
-90 46z"/>
<path d="M5100 3528 c-12 -22 -12 -22 6 -6 10 10 15 20 12 24 -4 3 -12 -5 -18
-18z"/>
<path d="M5725 3516 c-27 -14 -45 -25 -39 -25 13 -1 104 38 104 44 0 9 -15 5
-65 -19z"/>
<path d="M3860 3525 c0 -8 193 -96 203 -92 6 2 -23 18 -64 36 -114 52 -139 62
-139 56z"/>
<path d="M6195 3510 c-66 -24 -47 -25 35 -1 36 11 54 19 40 19 -14 0 -47 -8
-75 -18z"/>
<path d="M5200 3473 l-45 -47 53 43 c28 24 52 45 52 47 0 13 -21 -2 -60 -43z"/>
<path d="M9387 3506 c-4 -10 -5 -21 -2 -24 9 -9 17 6 13 25 -3 17 -4 17 -11
-1z"/>
<path d="M670 3471 c0 -16 8 -17 83 -13 51 2 88 9 97 18 12 12 9 12 -20 4 -44
-13 -101 -13 -134 0 -22 8 -26 7 -26 -9z"/>
<path d="M3766 3481 c10 -10 392 -150 434 -158 46 -10 16 4 -95 44 -366 134
-358 132 -339 114z"/>
<path d="M4485 3470 c10 -11 20 -20 22 -20 2 0 -1 9 -7 20 -6 11 -16 20 -22
20 -6 0 -3 -9 7 -20z"/>
<path d="M5715 3444 c-49 -20 -103 -41 -118 -46 -15 -6 -26 -13 -23 -15 3 -3
53 14 113 36 138 53 152 60 133 60 -8 0 -55 -16 -105 -35z"/>
<path d="M6065 3470 c-13 -5 -14 -9 -5 -9 8 0 24 4 35 9 13 5 14 9 5 9 -8 0
-24 -4 -35 -9z"/>
<path d="M4320 3466 c0 -9 111 -88 116 -83 3 2 -17 20 -43 39 -60 43 -73 51
-73 44z"/>
<path d="M5437 3388 c-97 -44 -176 -83 -173 -85 2 -2 50 17 107 43 57 26 137
61 177 79 72 32 94 45 76 45 -5 0 -89 -37 -187 -82z"/>
<path d="M6460 3454 c-252 -53 -317 -68 -330 -75 -9 -5 -2 -6 20 -3 65 11 355
76 375 84 27 12 11 10 -65 -6z"/>
<path d="M330 3447 c0 -9 12 -11 42 -9 32 3 45 0 55 -14 7 -10 13 -13 13 -7 0
5 -8 17 -18 26 -22 20 -92 23 -92 4z"/>
<path d="M4713 3446 c-61 -20 -106 -51 -157 -107 -122 -135 -118 -344 8 -477
58 -62 100 -86 187 -108 151 -39 333 54 402 204 17 37 21 67 22 142 0 82 -4
102 -26 150 -63 132 -169 202 -314 207 -47 2 -97 -3 -122 -11z"/>
<path d="M5966 3444 c-26 -7 -51 -16 -55 -20 -8 -8 53 5 99 22 45 16 19 15
-44 -2z"/>
<path d="M8770 3439 c0 -24 1 -24 100 -24 82 0 100 3 100 15 0 12 -15 14 -85
11 -58 -2 -90 1 -100 9 -13 10 -15 9 -15 -11z"/>
<path d="M247 3443 c-4 -3 -7 -13 -7 -20 0 -12 3 -12 15 1 8 8 15 17 15 20 0
8 -15 7 -23 -1z"/>
<path d="M4260 3398 c100 -56 150 -80 150 -73 0 5 -199 112 -225 120 -11 4 23
-17 75 -47z"/>
<path d="M5235 3414 c-22 -19 -31 -31 -20 -25 29 14 82 60 70 60 -5 1 -28 -15
-50 -35z"/>
<path d="M4435 3420 c10 -11 20 -20 23 -20 3 0 -3 9 -13 20 -10 11 -20 20 -23
20 -3 0 3 -9 13 -20z"/>
<path d="M3680 3425 c0 -2 24 -11 53 -19 92 -27 110 -30 103 -18 -3 6 -37 18
-76 26 -76 18 -80 18 -80 11z"/>
<path d="M5272 3394 c-24 -14 -42 -28 -39 -30 4 -5 97 45 97 52 0 9 -17 3 -58
-22z"/>
<path d="M4126 3401 c12 -13 246 -103 251 -97 2 2 -20 13 -49 24 -29 11 -84
34 -121 51 -70 31 -99 39 -81 22z"/>
<path d="M5740 3380 c-52 -16 -115 -34 -140 -41 -25 -6 -40 -14 -33 -16 13 -5
256 63 283 78 28 16 -11 8 -110 -21z"/>
<path d="M415 3373 c-30 -36 -106 -44 -146 -14 -16 12 -29 17 -29 11 0 -16 62
-50 93 -50 42 0 94 25 102 50 10 30 3 31 -20 3z"/>
<path d="M9200 3369 c0 -24 1 -24 100 -24 82 0 100 3 100 15 0 12 -15 14 -85
11 -58 -2 -90 1 -100 9 -13 10 -15 9 -15 -11z"/>
<path d="M3915 3362 c12 -12 233 -74 248 -69 6 2 -43 18 -109 37 -65 18 -126
35 -134 38 -10 3 -12 2 -5 -6z"/>
<path d="M5500 3360 c-8 -5 -10 -10 -5 -10 6 0 17 5 25 10 8 5 11 10 5 10 -5
0 -17 -5 -25 -10z"/>
<path d="M5882 3335 c-84 -18 -156 -36 -159 -39 -4 -3 -3 -6 0 -6 14 0 352 72
356 76 10 10 -56 0 -197 -31z"/>
<path d="M8770 3326 c0 -23 2 -25 26 -16 30 12 119 11 152 -1 18 -7 22 -5 22
10 0 16 -8 18 -80 14 -46 -2 -88 0 -100 7 -18 9 -20 8 -20 -14z"/>
<path d="M785 3324 c-8 -9 -22 -31 -30 -50 -17 -40 -39 -52 -69 -35 -19 11
-19 11 1 -8 32 -27 58 -16 82 35 24 51 48 67 76 51 18 -9 19 -9 6 6 -17 21
-45 22 -66 1z"/>
<path d="M676 3315 c-4 -13 -2 -14 14 -5 23 13 26 20 6 20 -8 0 -16 -7 -20
-15z"/>
<path d="M3183 3324 c8 -8 271 -44 317 -43 55 1 27 6 -146 28 -181 23 -180 23
-171 15z"/>
<path d="M5450 3295 c-61 -18 -157 -53 -147 -54 13 -1 207 60 207 65 0 6 -8 4
-60 -11z"/>
<path d="M5295 3285 c-25 -12 -26 -14 -5 -9 28 7 60 23 45 23 -5 0 -23 -6 -40
-14z"/>
<path d="M4320 3287 c0 -3 15 -10 32 -16 18 -6 28 -7 23 -2 -12 10 -55 25 -55
18z"/>
<path d="M5635 3283 c-169 -36 -212 -47 -225 -55 -10 -6 -4 -7 20 -3 73 12
215 48 225 56 5 5 7 8 5 8 -3 -1 -14 -3 -25 -6z"/>
<path d="M9200 3254 c0 -21 3 -23 19 -14 11 5 47 10 81 10 34 0 70 -5 81 -10
16 -9 19 -7 19 15 0 18 -4 24 -12 19 -18 -11 -138 -14 -165 -3 -20 7 -23 6
-23 -17z"/>
<path d="M856 3253 c-4 -13 -12 -23 -17 -23 -5 0 -9 -4 -9 -10 0 -5 4 -10 10
-10 13 0 32 38 27 53 -2 7 -7 2 -11 -10z"/>
<path d="M3624 3263 c9 -9 185 -31 192 -24 6 7 -117 29 -165 30 -19 1 -31 -2
-27 -6z"/>
<path d="M4294 3250 c33 -11 65 -19 70 -17 11 4 -44 21 -99 31 -16 3 -3 -3 29
-14z"/>
<path d="M2930 3241 c16 -9 329 -35 336 -28 4 4 -294 37 -331 37 -16 -1 -17
-2 -5 -9z"/>
<path d="M3892 3235 c8 -8 270 -46 276 -40 3 3 1 5 -4 5 -5 0 -63 9 -129 20
-127 21 -152 23 -143 15z"/>
<path d="M6350 3224 c-74 -7 -141 -13 -149 -13 -8 -1 -12 -4 -9 -7 9 -9 318
18 318 28 0 4 -6 7 -12 7 -7 -1 -74 -7 -148 -15z"/>
<path d="M5295 3210 l-20 -9 20 1 c11 0 31 4 45 8 l25 8 -25 0 c-14 0 -34 -3
-45 -8z"/>
<path d="M240 3186 c0 -13 4 -16 18 -11 20 9 142 20 142 13 0 -3 -36 -26 -80
-52 -44 -25 -80 -51 -80 -56 0 -16 9 -12 79 34 36 24 78 50 94 57 47 21 25 30
-76 32 -88 2 -97 0 -97 -17z"/>
<path d="M3375 3199 c22 -4 67 -8 100 -7 l60 1 -50 7 c-27 5 -72 8 -100 8
l-50 0 40 -9z"/>
<path d="M6035 3200 l-50 -7 58 -1 c32 -1 57 2 57 8 0 6 -3 9 -7 8 -5 0 -30
-4 -58 -8z"/>
<path d="M3600 3191 c13 -10 169 -16 159 -7 -2 2 -42 6 -89 10 -59 5 -80 4
-70 -3z"/>
<path d="M5895 3194 c-11 -2 -46 -6 -78 -9 -32 -4 -56 -9 -53 -12 9 -9 176 8
176 18 0 9 -6 9 -45 3z"/>
<path d="M4240 3180 c14 -4 41 -8 60 -8 l35 0 -40 9 c-22 4 -49 8 -60 7 -16 0
-15 -2 5 -8z"/>
<path d="M8770 3174 c0 -17 9 -19 100 -19 64 0 100 4 100 11 0 7 -28 9 -85 6
-59 -3 -90 -1 -100 8 -12 10 -15 9 -15 -6z"/>
<path d="M3841 3176 c2 -2 24 -6 49 -9 30 -4 38 -3 25 3 -19 8 -83 14 -74 6z"/>
<path d="M4024 3158 c-3 -4 15 -8 40 -8 25 0 46 2 46 4 0 8 -82 11 -86 4z"/>
<path d="M5608 3163 c17 -2 47 -2 65 0 17 2 3 4 -33 4 -36 0 -50 -2 -32 -4z"/>
<path d="M5518 3153 c7 -3 16 -2 19 1 4 3 -2 6 -13 5 -11 0 -14 -3 -6 -6z"/>
<path d="M4217 3143 c18 -2 50 -2 70 0 21 2 7 4 -32 4 -38 0 -55 -2 -38 -4z"/>
<path d="M5308 3143 c12 -2 30 -2 40 0 9 3 -1 5 -23 4 -22 0 -30 -2 -17 -4z"/>
<path d="M424 3110 c-6 -6 -37 -14 -70 -19 l-59 -9 61 -1 c33 0 65 -6 72 -13
9 -9 12 -5 12 20 0 35 -1 37 -16 22z"/>
<path d="M5315 3109 c-17 -4 45 -7 137 -8 110 -1 169 3 173 10 8 11 -254 10
-310 -2z"/>
<path d="M5715 3109 c55 -11 174 -11 157 0 -8 5 -55 8 -105 8 -73 0 -84 -2
-52 -8z"/>
<path d="M5960 3109 c-15 -5 82 -6 230 -3 140 3 257 8 259 10 9 8 -465 2 -489
-7z"/>
<path d="M6527 3113 c18 -2 50 -2 70 0 21 2 7 4 -32 4 -38 0 -55 -2 -38 -4z"/>
<path d="M9200 3095 c0 -22 3 -24 26 -15 33 13 130 13 155 0 16 -9 19 -7 19
14 0 23 -2 25 -26 16 -32 -13 -99 -13 -142 -1 -30 9 -32 8 -32 -14z"/>
<path d="M3067 3098 c-7 -4 50 -8 126 -8 76 0 137 4 137 9 0 11 -246 9 -263
-1z"/>
<path d="M3400 3100 c0 -9 388 -3 399 6 2 2 -86 4 -197 4 -127 0 -202 -4 -202
-10z"/>
<path d="M3943 3103 c42 -2 112 -2 155 0 42 1 7 3 -78 3 -85 0 -120 -2 -77 -3z"/>
<path d="M4278 3103 c18 -2 45 -2 60 0 15 2 0 4 -33 4 -33 0 -45 -2 -27 -4z"/>
<path d="M8770 3087 c0 -18 5 -27 15 -27 13 0 14 4 4 23 -17 33 -19 33 -19 4z"/>
<path d="M8957 3094 c-4 -4 -7 -14 -7 -23 0 -11 3 -12 11 -4 6 6 10 16 7 23
-2 6 -7 8 -11 4z"/>
<path d="M4339 3076 c-2 -2 -39 -6 -82 -9 -88 -6 -117 -17 -41 -16 73 1 150
13 138 21 -6 4 -13 6 -15 4z"/>
<path d="M5325 3069 c22 -4 54 -8 70 -7 l30 0 -30 8 c-16 4 -48 8 -70 8 l-40
0 40 -9z"/>
<path d="M5495 3062 c29 -13 175 -22 175 -11 0 5 -22 9 -49 9 -26 0 -70 2 -97
5 -33 4 -42 3 -29 -3z"/>
<path d="M4030 3050 c-45 -7 -45 -7 17 -8 34 -1 65 3 68 8 7 11 -15 11 -85 0z"/>
<path d="M5722 3045 c7 -7 67 -12 388 -30 63 -4 121 -8 128 -11 7 -2 11 0 8 5
-3 5 -56 12 -118 16 -62 3 -124 8 -138 10 -64 9 -274 16 -268 10z"/>
<path d="M3705 3029 c-33 -3 -51 -7 -40 -8 30 -4 112 0 185 9 l65 8 -75 -1
c-41 -1 -102 -4 -135 -8z"/>
<path d="M5291 3036 c2 -2 29 -6 59 -9 36 -4 48 -3 35 3 -19 8 -103 14 -94 6z"/>
<path d="M3427 3010 c-48 -4 -91 -10 -95 -14 -10 -11 181 4 193 15 5 6 5 8 0
8 -6 -1 -49 -5 -98 -9z"/>
<path d="M3548 3013 c7 -3 16 -2 19 1 4 3 -2 6 -13 5 -11 0 -14 -3 -6 -6z"/>
<path d="M5495 3010 c62 -15 265 -37 265 -29 0 3 -31 9 -69 13 -38 4 -80 9
-93 11 -13 2 -50 6 -83 9 -52 4 -55 4 -20 -4z"/>
<path d="M4293 2996 c-76 -16 -75 -26 2 -11 36 6 68 15 72 18 8 9 -11 7 -74
-7z"/>
<path d="M6338 3003 c7 -3 16 -2 19 1 4 3 -2 6 -13 5 -11 0 -14 -3 -6 -6z"/>
<path d="M6463 2993 c9 -2 25 -2 35 0 9 3 1 5 -18 5 -19 0 -27 -2 -17 -5z"/>
<path d="M6598 2983 c12 -2 30 -2 40 0 9 3 -1 5 -23 4 -22 0 -30 -2 -17 -4z"/>
<path d="M5290 2971 c8 -5 96 -32 195 -60 99 -29 186 -54 193 -56 6 -2 12 -1
12 3 0 7 -383 122 -405 122 -5 0 -3 -4 5 -9z"/>
<path d="M5771 2976 c5 -5 221 -36 247 -36 72 2 -156 40 -235 40 -9 0 -14 -2
-12 -4z"/>
<path d="M6688 2973 c6 -2 18 -2 25 0 6 3 1 5 -13 5 -14 0 -19 -2 -12 -5z"/>
<path d="M840 2963 c0 -4 8 -17 16 -28 15 -20 16 -20 12 4 -3 22 -28 44 -28
24z"/>
<path d="M4110 2958 c-116 -23 -191 -41 -187 -45 5 -4 228 37 236 44 11 8 -8
9 -49 1z"/>
<path d="M4175 2924 c-82 -24 -153 -48 -159 -54 -11 -11 20 -3 199 51 154 47
156 47 130 48 -11 0 -87 -20 -170 -45z"/>
<path d="M670 2944 c0 -14 3 -14 15 -4 8 7 15 14 15 16 0 2 -7 4 -15 4 -8 0
-15 -7 -15 -16z"/>
<path d="M9200 2934 c0 -21 3 -25 18 -19 9 4 33 11 52 15 30 7 32 8 8 9 -15 0
-38 5 -52 11 -24 9 -26 7 -26 -16z"/>
<path d="M9360 2936 c-19 -14 -64 -42 -98 -64 -35 -22 -59 -42 -54 -46 6 -3
33 10 61 29 29 19 70 44 91 56 22 13 40 29 40 36 0 17 1 17 -40 -11z"/>
<path d="M240 2930 c0 -12 18 -15 100 -15 82 0 100 3 100 15 0 12 -18 15 -100
15 -82 0 -100 -3 -100 -15z"/>
<path d="M5340 2916 c47 -18 96 -36 110 -40 50 -14 -8 14 -92 45 -110 39 -124
36 -18 -5z"/>
<path d="M6085 2942 c6 -5 55 -15 110 -21 55 -7 108 -14 118 -17 9 -3 17 -1
17 4 0 5 -46 15 -102 21 -57 7 -114 14 -128 17 -16 4 -21 2 -15 -4z"/>
<path d="M761 2924 c0 -11 3 -14 6 -6 3 7 2 16 -1 19 -3 4 -6 -2 -5 -13z"/>
<path d="M4278 2907 c-32 -11 -58 -24 -58 -29 0 -8 18 -2 90 30 59 27 40 26
-32 -1z"/>
<path d="M4300 2879 c-47 -21 -79 -39 -73 -39 15 0 153 59 168 72 18 16 -10 6
-95 -33z"/>
<path d="M5309 2889 c35 -16 66 -27 69 -24 6 6 -103 55 -121 54 -7 0 17 -14
52 -30z"/>
<path d="M6400 2898 c0 -5 18 -8 40 -8 22 0 40 2 40 4 0 2 -18 6 -40 8 -22 2
-40 0 -40 -4z"/>
<path d="M3747 2880 c-43 -10 -81 -21 -84 -24 -11 -11 21 -6 112 18 105 28 86
32 -28 6z"/>
<path d="M6498 2883 c6 -2 18 -2 25 0 6 3 1 5 -13 5 -14 0 -19 -2 -12 -5z"/>
<path d="M5260 2876 c0 -3 45 -28 100 -56 55 -28 100 -48 100 -46 0 5 -154 91
-182 101 -10 4 -18 4 -18 1z"/>
<path d="M670 2858 c0 -10 27 -13 100 -13 73 0 100 3 100 13 0 9 -27 12 -100
12 -73 0 -100 -3 -100 -12z"/>
<path d="M4032 2813 c-62 -25 -111 -47 -109 -49 5 -6 218 75 232 87 16 16 -7
9 -123 -38z"/>
<path d="M9380 2850 c-8 -5 -26 -10 -39 -10 -32 0 -21 -10 23 -20 34 -7 36 -6
36 16 0 27 0 27 -20 14z"/>
<path d="M3850 2834 c-64 -20 -73 -24 -68 -29 2 -3 40 6 84 19 43 14 68 25 54
24 -14 0 -45 -6 -70 -14z"/>
<path d="M3473 2821 c-89 -16 -129 -31 -85 -31 25 0 182 37 190 45 7 7 4 6
-105 -14z"/>
<path d="M4180 2825 c-14 -8 -20 -14 -14 -15 5 0 19 7 30 15 24 18 16 19 -16
0z"/>
<path d="M5450 2834 c0 -4 56 -31 148 -71 21 -9 31 -10 27 -3 -10 17 -175 86
-175 74z"/>
<path d="M5768 2833 c7 -3 16 -2 19 1 4 3 -2 6 -13 5 -11 0 -14 -3 -6 -6z"/>
<path d="M4345 2810 c-16 -11 -25 -20 -20 -20 6 0 24 9 40 20 17 11 26 20 20
20 -5 0 -23 -9 -40 -20z"/>
<path d="M4337 2759 c-54 -39 -96 -73 -93 -76 3 -3 51 29 107 71 129 95 118
99 -14 5z"/>
<path d="M5235 2806 c31 -26 51 -34 40 -16 -3 6 -21 17 -38 26 l-32 16 30 -26z"/>
<path d="M5870 2804 c41 -13 84 -23 95 -21 11 1 -19 12 -67 25 -112 28 -124
27 -28 -4z"/>
<path d="M5659 2799 c24 -11 46 -17 49 -15 5 6 -66 36 -82 35 -6 0 9 -9 33
-20z"/>
<path d="M4415 2765 c-27 -25 -45 -45 -40 -45 6 0 31 20 55 45 56 57 49 57
-15 0z"/>
<path d="M8780 2789 c-16 -30 -8 -31 13 -3 10 13 13 24 8 24 -6 0 -15 -9 -21
-21z"/>
<path d="M8892 2798 c-5 -7 -19 -33 -32 -57 -19 -39 -24 -43 -52 -39 -28 5
-29 4 -13 -9 11 -7 24 -13 31 -13 15 0 54 47 54 65 0 21 38 48 60 42 24 -6 27
8 4 17 -24 9 -41 7 -52 -6z"/>
<path d="M5191 2798 c2 -2 18 -14 34 -28 l30 -25 -24 28 c-14 15 -29 27 -34
27 -6 0 -8 -1 -6 -2z"/>
<path d="M240 2770 c0 -12 15 -14 86 -12 48 2 90 -1 97 -7 9 -7 13 -4 15 12 1
21 -2 22 -98 22 -82 0 -100 -3 -100 -15z"/>
<path d="M3617 2766 c-42 -13 -80 -26 -84 -30 -14 -13 26 -5 107 23 101 35 87
39 -23 7z"/>
<path d="M5215 2731 c66 -69 138 -130 129 -109 -3 7 -47 49 -97 92 l-92 80 60
-63z"/>
<path d="M3190 2759 c-52 -11 -99 -25 -105 -31 -7 -7 -4 -8 10 -5 11 4 62 15
114 27 52 11 96 22 99 25 9 8 -18 5 -118 -16z"/>
<path d="M4015 2750 c-33 -17 -49 -27 -35 -24 29 8 120 53 105 53 -5 0 -37
-13 -70 -29z"/>
<path d="M4427 2725 c-31 -30 -53 -55 -49 -55 4 0 32 25 62 55 70 71 62 71
-13 0z"/>
<path d="M5772 2761 c14 -9 162 -63 477 -172 46 -16 86 -27 89 -24 3 3 3 5 1
5 -3 0 -61 20 -130 45 -107 40 -394 139 -439 152 -11 3 -11 2 2 -6z"/>
<path d="M6056 2756 c45 -21 88 -31 81 -19 -4 6 -23 14 -43 17 -19 4 -43 9
-52 12 -9 2 -3 -2 14 -10z"/>
<path d="M5180 2712 c23 -29 45 -50 48 -47 3 3 -16 27 -43 53 l-48 47 43 -53z"/>
<path d="M5319 2747 c18 -23 71 -60 77 -55 2 3 -17 20 -44 38 -26 19 -41 26
-33 17z"/>
<path d="M4128 2673 c-70 -43 -137 -86 -150 -96 l-23 -18 25 12 c29 14 261
158 275 170 22 21 -8 4 -127 -68z"/>
<path d="M5516 2742 c18 -17 164 -91 164 -84 0 4 -36 26 -79 50 -75 40 -107
52 -85 34z"/>
<path d="M3800 2730 c-13 -9 -13 -10 0 -10 8 0 22 5 30 10 13 9 13 10 0 10 -8
0 -22 -5 -30 -10z"/>
<path d="M4510 2708 l-23 -33 28 27 c16 15 26 30 23 33 -3 4 -16 -9 -28 -27z"/>
<path d="M5681 2726 c13 -11 322 -147 326 -142 7 6 -39 29 -186 92 -107 47
-156 64 -140 50z"/>
<path d="M8945 2710 c-10 -11 -13 -20 -8 -20 13 0 38 29 31 35 -3 3 -13 -4
-23 -15z"/>
<path d="M670 2700 c0 -12 18 -15 100 -15 82 0 100 3 100 15 0 12 -18 15 -100
15 -82 0 -100 -3 -100 -15z"/>
<path d="M3415 2705 c-40 -14 -40 -14 -5 -8 19 3 42 9 50 14 22 12 1 9 -45 -6z"/>
<path d="M3745 2713 c-11 -3 -24 -10 -30 -15 -7 -7 -2 -8 15 -3 52 15 64 30
15 18z"/>
<path d="M4546 2695 c-48 -74 -51 -80 -35 -68 15 12 64 93 56 93 -3 0 -12 -11
-21 -25z"/>
<path d="M5090 2713 c0 -8 142 -219 156 -232 17 -14 -95 163 -138 218 -10 13
-18 20 -18 14z"/>
<path d="M5361 2650 c74 -63 99 -79 99 -66 0 7 -167 136 -175 136 -4 0 30 -31
76 -70z"/>
<path d="M6201 2716 c9 -8 262 -66 267 -62 7 8 -8 12 -137 41 -111 24 -139 29
-130 21z"/>
<path d="M4238 2618 c-53 -45 -95 -84 -93 -87 3 -2 15 3 27 12 29 19 175 156
168 157 -3 0 -49 -37 -102 -82z"/>
<path d="M9233 2680 c-18 -11 -33 -26 -33 -34 0 -11 7 -8 25 9 19 20 34 25 77
25 32 0 62 -6 76 -15 17 -13 21 -13 16 -2 -14 39 -110 49 -161 17z"/>
<path d="M3293 2677 c-23 -7 -45 -15 -49 -19 -13 -14 29 -7 81 12 55 20 34 25
-32 7z"/>
<path d="M3820 2666 c-49 -21 -346 -156 -458 -208 -24 -11 -41 -22 -39 -24 3
-3 112 43 262 111 222 100 300 136 304 140 10 10 -16 3 -69 -19z"/>
<path d="M4519 2583 c-67 -113 -82 -143 -75 -150 4 -4 81 128 125 215 37 74
16 46 -50 -65z"/>
<path d="M4603 2658 c-24 -41 -47 -98 -42 -102 2 -2 18 28 36 65 34 74 37 89
6 37z"/>
<path d="M240 2660 c0 -12 18 -15 100 -15 82 0 100 3 100 15 0 12 -18 15 -100
15 -82 0 -100 -3 -100 -15z"/>
<path d="M3565 2649 c-43 -16 -84 -34 -90 -40 -12 -12 -2 -9 108 33 69 28 91
39 70 38 -5 -1 -44 -14 -88 -31z"/>
<path d="M5000 2675 c0 -5 5 -17 10 -25 5 -8 10 -10 10 -5 0 6 -5 17 -10 25
-5 8 -10 11 -10 5z"/>
<path d="M5111 2603 c70 -127 74 -133 82 -133 9 0 -47 105 -91 173 -41 61 -36
42 9 -40z"/>
<path d="M4667 2633 c-8 -21 -36 -108 -62 -193 -25 -85 -48 -162 -51 -170 -3
-8 -2 -11 3 -7 9 9 133 400 129 405 -2 1 -10 -14 -19 -35z"/>
<path d="M5460 2647 c21 -22 323 -236 334 -237 11 0 -43 41 -199 151 -137 97
-158 110 -135 86z"/>
<path d="M4942 2635 c0 -11 5 -38 13 -60 10 -31 13 -34 13 -15 0 14 -6 41 -13
60 -8 22 -13 28 -13 15z"/>
<path d="M5050 2647 c0 -11 40 -87 45 -87 7 0 -24 73 -36 85 -5 5 -9 6 -9 2z"/>
<path d="M4078 2568 c-54 -40 -96 -74 -93 -76 4 -5 166 109 193 135 33 32 -11
6 -100 -59z"/>
<path d="M4375 2540 c-42 -56 -75 -104 -72 -106 3 -3 40 40 82 96 42 56 75
104 72 106 -3 3 -40 -40 -82 -96z"/>
<path d="M4736 2625 c-3 -9 -5 -29 -5 -43 1 -20 3 -17 9 13 8 43 7 57 -4 30z"/>
<path d="M4847 2500 c3 -80 7 -147 9 -149 7 -7 2 172 -6 234 -5 39 -6 9 -3
-85z"/>
<path d="M5727 2630 c15 -16 316 -170 325 -167 4 1 -70 42 -165 90 -94 49
-167 83 -160 77z"/>
<path d="M3073 2608 c-40 -12 -73 -25 -73 -29 0 -8 61 8 135 35 58 21 22 18
-62 -6z"/>
<path d="M4233 2537 c-114 -113 -121 -122 -58 -70 65 54 172 163 160 163 -6 0
-52 -42 -102 -93z"/>
<path d="M4678 2534 c-31 -114 -44 -182 -34 -173 10 9 68 249 63 262 -1 5 -15
-35 -29 -89z"/>
<path d="M4911 2614 c0 -11 3 -14 6 -6 3 7 2 16 -1 19 -3 4 -6 -2 -5 -13z"/>
<path d="M5020 2628 c0 -8 61 -159 93 -233 20 -44 41 -93 47 -109 6 -16 13
-26 16 -23 3 2 -27 79 -65 170 -39 91 -71 170 -71 175 0 6 -4 14 -10 17 -5 3
-10 5 -10 3z"/>
<path d="M5289 2595 c11 -16 52 -64 91 -105 40 -41 62 -61 51 -45 -11 17 -52
64 -91 105 -40 41 -62 62 -51 45z"/>
<path d="M670 2590 c0 -12 18 -15 100 -15 82 0 100 3 100 15 0 12 -18 15 -100
15 -82 0 -100 -3 -100 -15z"/>
<path d="M4772 2590 c0 -14 2 -19 5 -12 2 6 2 18 0 25 -3 6 -5 1 -5 -13z"/>
<path d="M4882 2590 c0 -14 2 -19 5 -12 2 6 2 18 0 25 -3 6 -5 1 -5 -13z"/>
<path d="M9209 2593 c9 -19 20 -23 56 -23 25 0 45 4 45 9 0 6 -16 7 -35 4 -26
-4 -41 -1 -57 13 -21 19 -21 19 -9 -3z"/>
<path d="M9376 2594 c-17 -12 -17 -14 -4 -14 9 0 20 5 23 11 11 17 2 18 -19 3z"/>
<path d="M3370 2575 c-19 -7 -86 -31 -149 -54 -63 -22 -120 -46 -125 -52 -8
-9 -6 -10 9 -5 228 84 321 118 324 122 9 8 -25 2 -59 -11z"/>
<path d="M8890 2570 c-84 -8 -106 -15 -114 -36 -4 -11 0 -11 19 2 19 12 43 15
100 12 67 -3 75 -1 75 14 0 10 -1 17 -2 16 -2 0 -37 -4 -78 -8z"/>
<path d="M4446 2543 c-6 -14 -5 -15 5 -6 7 7 10 15 7 18 -3 3 -9 -2 -12 -12z"/>
<path d="M4767 2553 c-4 -3 -6 -27 -6 -52 l2 -46 7 50 c8 53 7 59 -3 48z"/>
<path d="M5410 2554 c0 -13 299 -299 305 -292 3 2 -30 38 -73 78 -42 41 -112
108 -154 149 -43 42 -78 71 -78 65z"/>
<path d="M6061 2555 c9 -8 79 -35 79 -30 0 7 -57 35 -71 35 -7 0 -10 -2 -8 -5z"/>
<path d="M240 2525 c0 -8 2 -15 4 -15 2 0 6 7 10 15 3 8 1 15 -4 15 -6 0 -10
-7 -10 -15z"/>
<path d="M4931 2524 c-1 -27 46 -308 59 -348 14 -44 5 36 -21 184 -25 140 -37
192 -38 164z"/>
<path d="M5530 2516 c34 -38 100 -90 100 -78 0 5 -28 31 -62 57 -38 30 -53 38
-38 21z"/>
<path d="M6460 2516 c0 -7 93 -36 98 -31 3 2 -6 8 -19 13 -35 13 -79 23 -79
18z"/>
<path d="M427 2493 c-6 -9 -37 -13 -98 -13 -49 0 -89 -4 -89 -9 0 -8 185 -21
198 -14 2 1 2 12 0 25 -2 16 -6 19 -11 11z"/>
<path d="M4000 2418 c-52 -44 -97 -85 -99 -91 -2 -6 7 -2 20 9 57 45 189 157
189 161 0 11 -26 -7 -110 -79z"/>
<path d="M4471 2389 c-29 -60 -51 -112 -48 -115 2 -3 12 12 22 33 10 21 35 73
57 116 21 42 34 77 30 77 -5 0 -32 -50 -61 -111z"/>
<path d="M4980 2494 c0 -21 54 -216 57 -207 2 6 -8 56 -23 110 -25 92 -34 118
-34 97z"/>
<path d="M6206 2491 c13 -13 135 -63 140 -58 4 4 -130 67 -143 67 -4 0 -3 -4
3 -9z"/>
<path d="M3665 2385 c-180 -116 -228 -150 -202 -141 10 3 61 34 115 69 53 35
134 87 180 116 77 50 93 62 75 60 -5 0 -80 -47 -168 -104z"/>
<path d="M5130 2486 c0 -12 53 -107 57 -102 3 2 -5 21 -16 43 -26 49 -41 70
-41 59z"/>
<path d="M8770 2481 c0 -23 48 -39 123 -43 64 -3 77 -1 77 12 0 12 -14 14 -83
12 -68 -3 -87 -1 -100 13 -9 9 -17 12 -17 6z"/>
<path d="M670 2454 c0 -14 3 -14 15 -4 8 7 15 14 15 16 0 2 -7 4 -15 4 -8 0
-15 -7 -15 -16z"/>
<path d="M3888 2428 c-134 -94 -207 -149 -214 -159 -10 -17 1 -9 144 94 107
77 131 97 119 97 -1 0 -23 -15 -49 -32z"/>
<path d="M4686 2345 c-11 -58 -17 -108 -14 -110 6 -6 23 79 34 163 11 88 -1
58 -20 -53z"/>
<path d="M4903 2410 c0 -25 2 -35 4 -22 2 12 2 32 0 45 -2 12 -4 2 -4 -23z"/>
<path d="M6110 2436 c0 -9 192 -107 203 -103 6 2 -35 27 -92 55 -105 53 -111
55 -111 48z"/>
<path d="M240 2415 c0 -8 4 -15 10 -15 5 0 7 7 4 15 -4 8 -8 15 -10 15 -2 0
-4 -7 -4 -15z"/>
<path d="M4291 2319 c-40 -61 -70 -113 -68 -115 2 -3 36 46 76 107 39 61 70
113 68 116 -3 2 -37 -46 -76 -108z"/>
<path d="M5220 2426 c0 -15 74 -146 83 -146 4 0 -9 30 -29 68 -38 69 -54 92
-54 78z"/>
<path d="M5286 2420 c11 -20 88 -132 136 -197 67 -91 52 -58 -22 49 -69 100
-129 178 -114 148z"/>
<path d="M763 2413 c-116 -5 -123 -23 -9 -23 46 0 91 -3 100 -6 12 -4 16 0 16
15 0 12 -3 20 -7 19 -5 -1 -50 -4 -100 -5z"/>
<path d="M4752 2390 c0 -19 2 -27 5 -17 2 9 2 25 0 35 -3 9 -5 1 -5 -18z"/>
<path d="M6406 2401 c16 -16 154 -71 154 -61 0 4 -33 22 -74 39 -77 32 -97 37
-80 22z"/>
<path d="M4377 2339 c-21 -34 -37 -65 -35 -70 2 -6 21 20 42 56 49 83 43 94
-7 14z"/>
<path d="M5670 2396 c0 -9 413 -347 417 -342 6 6 -32 40 -147 131 -47 38 -124
101 -172 142 -80 67 -98 80 -98 69z"/>
<path d="M4049 2364 c-21 -24 -22 -26 -3 -16 25 13 50 42 37 42 -5 0 -20 -12
-34 -26z"/>
<path d="M4227 2348 c-48 -62 -161 -211 -171 -227 -40 -65 115 125 193 237 32
46 18 40 -22 -10z"/>
<path d="M5533 2325 c59 -76 181 -207 168 -180 -5 11 -46 61 -91 110 -111 122
-132 141 -77 70z"/>
<path d="M670 2353 c0 -13 5 -23 10 -23 13 0 13 11 0 30 -8 12 -10 11 -10 -7z"/>
<path d="M5860 2363 c0 -4 35 -32 78 -62 42 -30 122 -87 177 -126 111 -79 125
-89 125 -81 0 3 -62 49 -137 103 -76 55 -162 116 -190 137 -29 21 -53 34 -53
29z"/>
<path d="M4912 2320 c0 -19 2 -27 5 -17 2 9 2 25 0 35 -3 9 -5 1 -5 -18z"/>
<path d="M8770 2295 c0 -22 3 -26 18 -20 20 9 139 20 132 12 -3 -2 -36 -24
-75 -47 -84 -51 -79 -46 -70 -60 4 -7 16 -2 35 13 16 14 58 41 94 61 36 20 66
40 66 44 0 4 -38 5 -85 3 -58 -2 -90 1 -100 9 -13 10 -15 8 -15 -15z"/>
<path d="M9380 2310 c-8 -5 -45 -10 -81 -10 -51 0 -70 -4 -82 -18 -23 -25 -21
-39 2 -18 13 12 37 17 89 17 39 1 76 -2 81 -6 7 -4 11 4 11 19 0 29 0 29 -20
16z"/>
<path d="M240 2296 c0 -7 9 -16 21 -19 20 -5 20 -5 3 14 -20 23 -24 23 -24 5z"/>
<path d="M3890 2206 c-139 -135 -174 -178 -75 -89 100 89 190 181 184 187 -2
3 -52 -41 -109 -98z"/>
<path d="M4621 2284 c0 -11 3 -14 6 -6 3 7 2 16 -1 19 -3 4 -6 -2 -5 -13z"/>
<path d="M4736 2268 c-7 -40 -17 -229 -11 -208 7 24 25 233 21 237 -2 2 -6
-11 -10 -29z"/>
<path d="M4863 2165 c0 -77 3 -171 7 -210 7 -68 7 -68 7 30 0 55 -3 150 -7
210 l-7 110 0 -140z"/>
<path d="M3804 2246 c-27 -24 -112 -97 -189 -163 -168 -145 -236 -207 -213
-196 18 9 445 379 454 394 11 18 -4 8 -52 -35z"/>
<path d="M425 2260 c-3 -5 -26 -10 -49 -10 -24 0 -57 -7 -72 -15 -16 -8 -37
-15 -46 -15 -11 0 -18 -8 -18 -19 0 -17 3 -17 48 6 37 19 58 24 100 20 49 -3
52 -2 52 20 0 25 -5 29 -15 13z"/>
<path d="M4922 2240 c0 -19 2 -27 5 -17 2 9 2 25 0 35 -3 9 -5 1 -5 -18z"/>
<path d="M5252 2242 c44 -98 244 -492 250 -492 5 0 2 13 -4 28 -31 67 -249
492 -253 492 -3 0 1 -13 7 -28z"/>
<path d="M4590 2168 c-13 -51 -29 -117 -36 -147 -7 -30 -9 -50 -5 -45 11 12
75 274 68 280 -3 3 -15 -37 -27 -88z"/>
<path d="M5320 2245 c0 -10 102 -185 111 -191 17 -10 8 9 -46 102 -50 84 -65
105 -65 89z"/>
<path d="M5750 2225 c13 -14 26 -25 28 -25 3 0 -5 11 -18 25 -13 14 -26 25
-28 25 -3 0 5 -11 18 -25z"/>
<path d="M4284 2183 c-15 -26 -51 -88 -79 -138 -108 -187 -156 -277 -152 -282
5 -4 27 30 74 117 17 30 54 96 83 145 88 152 112 197 107 202 -3 2 -18 -17
-33 -44z"/>
<path d="M3529 2167 c-31 -23 -78 -57 -104 -75 -26 -18 -45 -36 -42 -39 5 -5
207 144 207 153 0 7 -4 5 -61 -39z"/>
<path d="M4365 2172 c-44 -90 -66 -146 -52 -132 17 17 81 160 75 166 -3 2 -13
-13 -23 -34z"/>
<path d="M4512 2153 c-12 -32 -24 -71 -27 -88 -11 -52 15 -2 36 73 23 83 18
91 -9 15z"/>
<path d="M8915 2195 l-40 -13 32 -1 c17 -1 38 -4 47 -7 12 -4 16 0 16 15 0 24
0 24 -55 6z"/>
<path d="M9224 2196 c14 -11 40 -16 86 -16 38 0 71 -5 78 -12 9 -9 12 -6 12
15 0 23 -3 26 -18 18 -20 -11 -126 -9 -157 3 -20 8 -20 7 -1 -8z"/>
<path d="M5060 2183 c0 -26 42 -175 47 -169 6 5 -37 186 -43 186 -2 0 -4 -8
-4 -17z"/>
<path d="M5206 2180 c4 -14 13 -36 21 -50 l14 -25 -7 25 c-4 14 -13 36 -21 50
l-14 25 7 -25z"/>
<path d="M4114 2057 c-84 -122 -91 -132 -77 -124 15 10 156 217 151 223 -3 2
-36 -42 -74 -99z"/>
<path d="M4627 2019 c-27 -143 -32 -187 -22 -177 8 8 56 288 53 307 -2 9 -16
-50 -31 -130z"/>
<path d="M5855 2120 c21 -22 41 -40 44 -40 3 0 -13 18 -34 40 -21 22 -41 40
-44 40 -3 0 13 -18 34 -40z"/>
<path d="M4932 2120 c0 -14 2 -19 5 -12 2 6 2 18 0 25 -3 6 -5 1 -5 -13z"/>
<path d="M5530 2075 c31 -51 90 -135 97 -135 6 0 -2 13 -55 90 -55 79 -74 99
-42 45z"/>
<path d="M5241 2095 c0 -5 6 -21 14 -35 8 -14 14 -20 14 -15 0 6 -6 21 -14 35
-8 14 -14 21 -14 15z"/>
<path d="M4942 2050 c0 -25 4 -58 8 -75 l8 -30 0 30 c0 17 -3 50 -7 75 l-8 45
-1 -45z"/>
<path d="M5774 2049 c88 -99 186 -200 186 -192 0 12 -197 227 -213 232 -6 2 6
-16 27 -40z"/>
<path d="M5016 2026 c4 -56 9 -75 17 -65 2 2 -2 31 -9 64 l-13 60 5 -59z"/>
<path d="M256 2054 c-20 -20 -21 -30 -1 -14 9 7 25 10 42 5 23 -5 25 -4 14 9
-17 20 -35 20 -55 0z"/>
<path d="M415 2060 c-3 -5 -22 -17 -41 -26 -19 -9 -39 -25 -45 -35 -7 -14 -21
-19 -49 -19 -25 0 -40 -5 -40 -12 0 -10 27 -13 100 -13 99 0 100 0 100 25 0
19 -3 21 -12 12 -7 -7 -32 -12 -56 -12 -38 0 -43 2 -32 14 6 8 27 20 46 26 32
11 67 50 45 50 -5 0 -13 -4 -16 -10z"/>
<path d="M3908 1933 c-111 -147 -127 -170 -111 -160 16 10 225 288 220 293 -2
2 -51 -58 -109 -133z"/>
<path d="M9200 2026 c0 -23 2 -25 19 -16 11 5 37 14 58 19 l38 9 -42 1 c-23 1
-48 4 -57 7 -12 5 -16 0 -16 -20z"/>
<path d="M9380 2042 c-8 -3 -20 -11 -27 -17 -6 -7 -41 -30 -77 -51 -36 -21
-66 -44 -66 -51 0 -16 5 -16 22 0 7 7 46 33 86 56 67 40 89 58 81 65 -2 2 -11
1 -19 -2z"/>
<path d="M5960 2026 c22 -28 136 -137 162 -154 13 -8 -6 14 -42 49 -82 80
-139 130 -120 105z"/>
<path d="M5465 2005 c9 -32 149 -267 153 -257 2 7 -115 216 -148 262 -9 12
-10 11 -5 -5z"/>
<path d="M6130 2017 c0 -6 159 -137 166 -137 13 0 -21 33 -88 87 -61 48 -78
59 -78 50z"/>
<path d="M3610 1931 c-67 -66 -91 -97 -52 -69 26 19 136 138 128 138 -4 0 -38
-31 -76 -69z"/>
<path d="M4460 1998 c0 -2 -13 -49 -30 -104 -29 -97 -35 -122 -25 -112 9 9 66
211 60 216 -3 3 -5 3 -5 0z"/>
<path d="M4700 1890 c-7 -56 -10 -103 -7 -107 3 -3 8 10 11 28 9 58 17 179 13
179 -3 0 -10 -45 -17 -100z"/>
<path d="M5360 1801 c67 -164 108 -253 95 -205 -10 39 -144 357 -154 367 -6 6
21 -67 59 -162z"/>
<path d="M5120 1944 c-1 -18 94 -366 97 -357 2 5 -17 87 -41 182 -41 156 -55
202 -56 175z"/>
<path d="M9387 1943 c-4 -3 -24 -9 -44 -13 l-38 -8 36 -1 c19 0 40 -6 47 -13
9 -9 12 -6 12 15 0 28 -2 31 -13 20z"/>
<path d="M4215 1856 c-36 -80 -46 -116 -21 -80 19 27 67 146 61 152 -3 3 -21
-30 -40 -72z"/>
<path d="M4520 1873 c-21 -83 -22 -90 -11 -72 12 18 34 110 28 116 -2 2 -10
-18 -17 -44z"/>
<path d="M4960 1884 c0 -16 5 -61 10 -101 5 -39 12 -100 15 -135 7 -69 13 -94
20 -86 3 3 -4 81 -15 174 -20 161 -30 212 -30 148z"/>
<path d="M5685 1845 c35 -62 76 -117 83 -111 4 5 -79 129 -101 151 -6 6 2 -12
18 -40z"/>
<path d="M3916 1756 c-48 -69 -89 -133 -92 -143 -7 -19 56 70 139 195 77 117
45 82 -47 -52z"/>
<path d="M5052 1840 c0 -14 4 -36 8 -50 l8 -25 0 25 c0 14 -4 36 -8 50 l-8 25
0 -25z"/>
<path d="M4870 1825 c0 -14 4 -25 9 -25 4 0 6 11 3 25 -2 14 -6 25 -8 25 -2 0
-4 -11 -4 -25z"/>
<path d="M414 1819 c9 -13 16 -36 16 -51 l0 -28 -95 0 c-69 0 -95 -3 -95 -12
0 -10 27 -13 100 -13 l101 0 -3 60 c-2 49 -6 60 -22 63 -17 4 -18 3 -2 -19z"/>
<path d="M240 1815 c0 -8 2 -15 4 -15 2 0 6 7 10 15 3 8 1 15 -4 15 -6 0 -10
-7 -10 -15z"/>
<path d="M4883 1730 c0 -36 2 -50 4 -32 2 17 2 47 0 65 -2 17 -4 3 -4 -33z"/>
<path d="M9201 1760 c0 -14 3 -19 6 -12 3 8 33 12 99 12 69 0 94 3 94 13 0 9
-27 12 -100 12 l-100 0 1 -25z"/>
<path d="M4586 1739 c-13 -55 -26 -162 -21 -167 3 -3 5 -1 5 4 0 5 7 47 15 93
8 47 13 87 10 89 -2 2 -6 -6 -9 -19z"/>
<path d="M4360 1673 c-12 -40 -20 -78 -18 -85 3 -7 15 20 27 60 12 41 20 79
18 85 -2 7 -14 -21 -27 -60z"/>
<path d="M4463 1655 c-11 -47 -17 -85 -13 -85 4 0 15 33 25 73 9 39 18 78 21
85 2 6 0 12 -4 12 -4 0 -17 -38 -29 -85z"/>
<path d="M3995 1673 c-15 -26 -37 -63 -48 -82 -12 -19 -16 -32 -10 -28 14 9
96 147 90 153 -2 3 -17 -17 -32 -43z"/>
<path d="M4145 1709 c-4 -6 -5 -12 -2 -15 2 -3 7 2 10 11 7 17 1 20 -8 4z"/>
<path d="M4675 1673 c-3 -26 -7 -63 -10 -80 -2 -18 0 -33 4 -33 9 0 25 149 17
157 -2 3 -7 -17 -11 -44z"/>
<path d="M9219 1692 c6 -12 20 -26 31 -32 40 -21 122 -5 134 27 5 11 1 11 -16
-2 -33 -22 -100 -19 -133 7 l-28 21 12 -21z"/>
<path d="M5081 1674 c0 -11 3 -14 6 -6 3 7 2 16 -1 19 -3 4 -6 -2 -5 -13z"/>
<path d="M5530 1686 c0 -12 59 -114 71 -122 12 -7 -32 82 -55 111 -8 11 -16
16 -16 11z"/>
<path d="M5677 1635 c15 -30 29 -53 31 -51 4 5 -46 106 -53 106 -3 0 7 -25 22
-55z"/>
<path d="M4111 1634 c-12 -26 -20 -48 -17 -51 2 -3 14 17 25 43 27 61 21 67
-8 8z"/>
<path d="M5092 1630 c0 -14 3 -34 8 -45 l9 -20 -1 20 c0 11 -4 31 -8 45 l-8
25 0 -25z"/>
<path d="M240 1579 c0 -20 5 -22 32 -11 15 6 14 9 -7 19 -22 10 -25 9 -25 -8z"/>
<path d="M9202 1478 c2 -41 8 -63 16 -66 11 -3 12 0 3 16 -6 11 -11 35 -11 52
l0 30 95 -2 c84 -3 95 -1 95 14 0 15 -4 16 -26 8 -32 -13 -99 -13 -142 -1
l-33 10 3 -61z"/>
<path d="M350 1509 c-30 -11 -67 -20 -82 -21 -20 -1 -28 -6 -28 -19 0 -15 10
-14 95 14 52 17 95 35 95 39 0 12 -19 9 -80 -13z"/>
<path d="M9386 1435 c-3 -8 -1 -15 4 -15 6 0 10 7 10 15 0 8 -2 15 -4 15 -2 0
-6 -7 -10 -15z"/>
<path d="M412 1321 c16 -25 31 -27 26 -4 -2 10 -11 19 -21 21 -16 3 -17 1 -5
-17z"/>
<path d="M240 1315 c0 -8 2 -15 4 -15 2 0 6 7 10 15 3 8 1 15 -4 15 -6 0 -10
-7 -10 -15z"/>
<path d="M9200 1272 c0 -20 3 -21 21 -12 12 7 54 10 100 8 65 -2 79 0 79 12 0
12 -18 15 -100 15 -97 0 -100 -1 -100 -23z"/>
<path d="M430 1260 c0 -19 -7 -20 -95 -20 -75 0 -95 -3 -95 -14 0 -10 8 -12
33 -7 33 8 105 6 145 -4 20 -5 22 -2 22 30 0 19 -2 35 -5 35 -3 0 -5 -9 -5
-20z"/>
<path d="M9300 1253 c0 -5 -18 -16 -41 -23 -34 -12 -59 -34 -59 -54 0 -5 50
25 95 58 11 8 17 17 13 22 -5 4 -8 3 -8 -3z"/>
<path d="M9387 1217 c-7 -20 -47 -23 -66 -4 -10 10 -11 9 -5 -6 14 -39 95 -26
82 14 -3 9 -6 8 -11 -4z"/>
<path d="M3537 854 c-3 -4 0 -16 8 -28 22 -31 22 -648 0 -666 -28 -23 -15 -30
57 -30 68 0 70 1 55 18 -14 15 -17 40 -17 130 l0 111 59 40 c152 104 250 290
195 370 -29 41 -78 54 -220 58 -72 1 -134 0 -137 -3z m252 -29 c59 -30 63
-103 12 -212 -26 -55 -132 -183 -152 -183 -5 0 -9 91 -9 205 l0 205 60 0 c34
0 74 -7 89 -15z"/>
<path d="M4016 748 c-19 -62 -57 -189 -86 -283 -65 -215 -88 -280 -112 -310
l-19 -25 56 0 c56 0 56 0 41 22 -21 30 -20 41 10 136 l25 82 118 0 118 0 32
-88 c17 -48 31 -93 31 -99 0 -7 -10 -21 -22 -33 l-22 -20 89 0 88 0 -21 23
c-18 19 -106 252 -219 577 -36 105 -48 130 -64 130 -4 0 -24 -51 -43 -112z
m84 -193 c28 -82 50 -153 50 -157 0 -4 -48 -8 -106 -8 -96 0 -105 2 -100 18 3
9 24 83 47 165 24 81 47 143 51 139 4 -4 31 -75 58 -157z"/>
<path d="M4567 849 c-81 -19 -167 -100 -207 -194 -103 -240 29 -506 259 -523
120 -8 219 36 320 143 29 30 54 55 57 55 2 0 4 -35 4 -77 0 -65 -3 -80 -22
-100 l-21 -23 83 0 83 0 -21 23 c-20 21 -22 34 -22 151 0 127 0 128 28 156 27
27 112 60 156 60 12 0 41 9 65 20 24 11 45 20 48 20 2 0 3 -87 1 -194 -3 -174
-5 -196 -22 -215 l-19 -21 84 0 c81 0 83 1 62 18 -22 17 -22 20 -25 344 -2
249 0 330 10 340 22 22 12 28 -51 28 -71 0 -83 -5 -62 -27 15 -14 16 -25 16
-162 0 -93 -8 -101 -136 -130 -50 -12 -105 -30 -123 -41 l-32 -20 0 169 c0
138 3 171 15 181 28 23 15 30 -55 30 -70 0 -83 -7 -55 -30 13 -10 15 -49 15
-233 l0 -221 -68 -66 c-45 -45 -92 -79 -144 -105 -69 -34 -83 -37 -137 -33
-148 11 -249 162 -239 357 6 100 28 159 85 222 63 70 138 87 218 50 38 -17
110 -86 147 -141 l17 -25 0 46 c1 41 -4 51 -35 82 -74 72 -190 108 -277 86z"/>
<path d="M5807 843 c-3 -5 -19 -54 -36 -108 -145 -485 -169 -555 -198 -587
-15 -17 -13 -18 37 -18 46 0 51 2 45 18 -17 39 -15 61 10 140 l26 82 118 0
118 0 32 -86 c37 -102 37 -107 9 -134 l-22 -20 89 0 88 0 -19 22 c-26 29 -37
55 -90 208 -151 440 -185 519 -207 483z m52 -286 c28 -82 51 -153 51 -158 0
-5 -47 -9 -106 -9 -96 0 -105 2 -100 18 3 9 24 83 47 165 24 81 46 144 50 140
3 -5 30 -75 58 -156z"/>
<path d="M4650 581 c0 -35 -17 -59 -57 -80 l-37 -18 36 -12 c35 -12 58 -43 58
-81 0 -11 5 -20 10 -20 6 0 10 11 10 24 0 32 34 72 67 81 l27 6 -40 22 c-26
15 -43 33 -49 54 -14 41 -25 52 -25 24z"/>
</g>
</svg>
