<?xml version="1.0" standalone="no"?>
<!DOCTYPE svg PUBLIC "-//W3C//DTD SVG 20010904//EN"
 "http://www.w3.org/TR/2001/REC-SVG-20010904/DTD/svg10.dtd">
<svg version="1.0" xmlns="http://www.w3.org/2000/svg"
 width="289.000000pt" height="293.000000pt" viewBox="0 0 289.000000 293.000000"
 preserveAspectRatio="xMidYMid meet">

<g transform="translate(0.000000,293.000000) scale(0.100000,-0.100000)"
fill="#000000" stroke="none">
<path d="M1 2643 c0 -241 2 -285 13 -270 8 11 20 15 30 11 11 -4 27 3 46 21
16 16 38 29 47 30 10 1 25 5 33 8 12 4 153 47 170 52 3 1 34 5 69 9 37 5 58
11 51 16 -17 11 63 16 125 9 28 -3 41 -7 30 -8 -17 -3 -17 -4 5 -10 16 -5 -10
-9 -76 -13 -56 -3 -110 -11 -121 -17 -11 -5 -31 -12 -44 -15 -68 -15 -136 -34
-154 -43 -27 -15 -58 -27 -67 -25 -5 1 -8 -3 -8 -9 0 -5 -5 -7 -10 -4 -6 4
-17 1 -25 -5 -8 -6 -18 -9 -24 -6 -5 3 -11 -1 -15 -9 -3 -8 -13 -15 -21 -15
-9 0 -14 -4 -11 -9 3 -4 -6 -7 -19 -5 -24 2 -25 0 -25 -62 0 -35 3 -64 6 -64
3 0 42 18 87 41 99 50 280 130 284 126 1 -2 -24 -19 -56 -37 -33 -19 -57 -39
-54 -44 4 -5 1 -6 -5 -2 -6 4 -34 -5 -62 -19 -27 -14 -52 -25 -55 -26 -6 0
-71 -26 -112 -45 l-33 -15 0 -124 c0 -69 3 -125 6 -125 11 0 89 45 92 53 2 4
9 7 16 7 7 0 21 8 32 18 10 10 30 18 44 19 23 1 21 -2 -19 -37 -39 -33 -43
-41 -31 -55 17 -21 7 -29 -18 -14 -11 7 -27 9 -37 5 -16 -6 -15 -10 9 -41 26
-34 27 -36 10 -70 -9 -19 -21 -35 -26 -35 -5 0 -7 -4 -3 -9 3 -5 1 -12 -5 -16
-6 -4 -8 -11 -4 -16 3 -5 0 -8 -8 -7 -7 2 -12 -3 -11 -9 2 -8 -7 -13 -20 -13
-21 1 -21 1 6 21 15 11 27 28 26 37 0 14 -3 12 -16 -5 -15 -22 -41 -34 -28
-13 3 6 1 10 -4 10 -8 0 -11 -267 -11 -880 l0 -880 1181 0 c827 0 1187 4 1201
11 15 8 19 8 14 0 -4 -7 1 -11 13 -11 20 0 26 14 22 47 -1 6 4 15 10 19 9 5
10 2 6 -10 -5 -14 -3 -17 8 -12 9 3 15 0 15 -10 0 -11 -6 -14 -17 -10 -15 5
-14 3 2 -9 41 -32 46 -23 106 160 33 103 32 98 19 90 -5 -3 -8 7 -7 24 1 16 6
27 10 24 5 -3 6 -12 2 -22 -5 -14 -4 -14 8 -1 8 8 25 47 37 85 21 64 40 103
40 80 0 -15 -28 -102 -39 -123 -5 -10 -12 -29 -14 -43 -2 -13 -9 -36 -15 -50
-6 -15 -16 -46 -22 -70 -6 -24 -18 -59 -26 -77 -9 -18 -16 -43 -17 -55 0 -12
-6 -25 -12 -29 -5 -4 74 -8 178 -8 l187 0 0 925 c0 509 -2 925 -5 925 -3 0
-10 -20 -16 -45 -6 -25 -15 -45 -19 -45 -4 0 -20 30 -35 68 -14 37 -49 109
-76 161 l-50 94 40 -6 c23 -3 41 -2 41 2 0 3 -14 23 -31 44 -26 31 -37 37 -70
37 -26 0 -39 4 -39 14 0 19 57 61 105 76 59 18 69 25 82 50 11 22 8 28 -35 69
-26 24 -53 44 -59 42 -14 -2 -18 15 -5 23 15 9 97 -15 135 -40 l37 -24 0 274
0 275 -202 0 c-202 0 -236 -10 -88 -25 46 -4 69 -11 67 -18 -22 -51 -22 -50
12 -43 18 4 30 3 26 -2 -3 -5 3 -7 13 -4 29 7 43 -20 40 -79 l-3 -53 -62 -3
c-57 -3 -62 -1 -65 20 -4 22 -4 22 -23 -8 -11 -17 -26 -29 -32 -27 -8 3 -15
-11 -19 -36 l-7 -41 -14 27 c-17 34 -43 62 -43 46 0 -6 7 -26 15 -46 13 -32
13 -36 -4 -51 -24 -22 -40 -20 -34 3 3 10 0 22 -6 25 -6 4 -11 16 -11 26 0 30
-51 96 -87 114 -33 16 -41 30 -24 40 18 11 22 88 6 112 -15 24 -18 24 -176 24
-91 0 -169 -4 -180 -10 -13 -7 -19 -7 -19 0 0 24 -698 8 -770 -18 -78 -29
-204 -36 -245 -15 -21 11 -68 10 -124 -2 -33 -8 -34 -7 -29 18 l5 27 -403 0
-404 0 1 -287z m1838 248 c40 -28 39 -44 0 -36 -19 4 -43 12 -54 18 -11 6 -24
12 -30 13 -5 0 -14 2 -20 3 -5 1 -1 8 10 17 23 17 58 12 94 -15z m905 21 c3
-5 -1 -9 -9 -9 -8 0 -15 4 -15 9 0 4 4 8 9 8 6 0 12 -4 15 -8z m-1874 -107
c-6 -19 -8 -40 -4 -47 5 -9 4 -10 -3 -3 -6 6 -14 24 -17 41 -5 24 -3 33 8 37
9 4 17 14 17 24 1 17 2 17 6 0 2 -9 -1 -33 -7 -52z m-167 36 c27 -6 26 -7 -33
-39 l-61 -34 15 37 c9 21 16 39 16 41 0 5 29 3 63 -5z m315 -4 c6 -5 12 -12
12 -16 0 -5 -82 -51 -93 -51 -1 0 -3 17 -3 38 -1 37 -1 37 35 37 20 0 42 -4
49 -8z m1110 -81 c20 -28 51 -53 86 -71 48 -24 54 -30 45 -46 -13 -26 -25 -24
-45 6 -9 14 -42 41 -73 60 -31 19 -66 45 -79 59 -21 22 -21 25 -5 29 35 9 40
7 71 -37z m651 -72 c-7 -9 -29 -13 -63 -12 l-51 1 45 4 c59 6 70 16 72 72 l2
46 3 -48 c3 -28 -1 -55 -8 -63z m-2139 71 c0 -8 -4 -15 -10 -15 -5 0 -7 7 -4
15 4 8 8 15 10 15 2 0 4 -7 4 -15z m30 11 c0 -3 -4 -8 -10 -11 -5 -3 -10 -1
-10 4 0 6 5 11 10 11 6 0 10 -2 10 -4z m57 -48 c-3 -8 -6 -5 -6 6 -1 11 2 17
5 13 3 -3 4 -12 1 -19z m-83 -16 c0 -12 3 -19 8 -16 4 3 8 0 8 -5 0 -6 6 -11
14 -11 8 0 16 -7 20 -15 3 -8 1 -15 -4 -15 -6 0 -10 6 -11 13 0 6 -4 3 -8 -8
-6 -14 -2 -24 11 -35 19 -15 18 -16 -12 -18 -19 -1 -29 2 -25 8 3 5 -9 16 -27
24 l-33 14 28 1 c27 1 27 2 12 18 -14 14 -18 14 -26 2 -6 -10 -8 -3 -7 21 1
19 6 38 11 41 19 13 42 2 41 -19z m208 9 c-5 -3 -11 -15 -14 -26 -2 -11 -6
-15 -10 -10 -9 15 10 57 23 49 7 -4 8 -9 1 -13z m-566 -34 c-3 -14 -14 -27
-25 -30 -15 -4 -20 2 -23 25 -3 16 0 32 5 35 6 3 7 1 3 -5 -3 -6 -2 -13 3 -16
5 -3 11 4 15 16 4 17 8 20 17 11 6 -6 9 -22 5 -36z m249 -5 c0 -9 -5 -24 -10
-31 -6 -11 -4 -13 9 -8 12 5 15 3 9 -6 -4 -6 -9 -21 -10 -31 -4 -25 -14 -35
-20 -18 -3 6 -9 12 -14 12 -6 0 -7 -4 -4 -10 3 -5 4 -10 1 -10 -2 0 -11 -3
-19 -6 -17 -6 -31 22 -15 32 7 5 8 2 3 -6 -6 -9 -4 -11 4 -6 9 6 8 13 -5 27
-10 11 -12 19 -6 19 7 0 12 4 12 8 0 4 -9 8 -20 8 -15 0 -20 -7 -20 -28 0 -15
-5 -30 -12 -34 -6 -4 -9 -3 -6 2 3 5 -4 18 -15 28 -16 15 -19 16 -14 3 4 -11
2 -14 -8 -11 -30 12 -3 48 29 38 11 -4 16 -2 12 4 -3 5 6 13 22 16 15 4 35 9
46 13 13 4 16 2 11 -8 -4 -8 1 -6 11 4 23 22 31 22 29 -1z m-355 -12 c0 -5 -5
-10 -11 -10 -5 0 -7 5 -4 10 3 6 8 10 11 10 2 0 4 -4 4 -10z m395 -19 c-6 -5
-25 10 -25 20 0 5 6 4 14 -3 8 -7 12 -15 11 -17z m-360 0 c-3 -6 -13 -11 -21
-11 -8 0 -12 5 -9 10 4 6 11 8 16 5 5 -4 9 -1 9 6 0 7 3 10 6 6 3 -3 3 -10 -1
-16z m595 -1 c0 -5 -7 -10 -15 -10 -8 0 -15 5 -15 10 0 6 7 10 15 10 8 0 15
-4 15 -10z m-10 -32 c0 -4 -4 -8 -9 -8 -5 0 -11 -9 -14 -20 -3 -11 -17 -24
-31 -30 -14 -5 -26 -14 -26 -20 0 -12 -66 -14 -74 -2 -2 4 11 6 30 4 25 -3 34
0 34 11 0 13 33 31 53 28 10 -1 9 27 -3 50 -10 17 -9 18 15 7 14 -6 25 -15 25
-20z m-454 10 c4 -7 3 -8 -4 -4 -7 4 -12 3 -12 -3 0 -5 6 -11 13 -14 10 -4 10
-7 0 -18 -10 -10 -13 -10 -13 -1 0 8 -10 11 -27 9 -15 -2 -33 1 -39 7 -9 8 -1
14 30 23 22 6 42 11 43 12 1 1 5 -4 9 -11z m220 -3 c-1 -8 -5 -17 -8 -21 -5
-4 -4 16 1 34 3 9 9 -1 7 -13z m27 -15 c3 -11 1 -18 -4 -14 -5 3 -9 12 -9 20
0 20 7 17 13 -6z m306 -8 c26 -16 28 -20 15 -36 -12 -17 -14 -18 -20 -2 -6 15
-10 14 -38 -6 -31 -24 -65 -41 -101 -53 l-20 -6 20 18 c71 65 87 74 104 61 14
-12 14 -11 3 4 -8 9 -11 22 -7 28 8 13 10 13 44 -8z m-506 -15 c-2 -4 -5 -7
-8 -7 -3 0 -9 0 -15 0 -5 0 -10 4 -10 9 0 5 8 8 18 7 9 -2 16 -6 15 -9z m187
-11 c0 -3 -4 -8 -10 -11 -5 -3 -10 -1 -10 4 0 6 5 11 10 11 6 0 10 -2 10 -4z
m303 -56 c-3 -11 -9 -22 -13 -25 -11 -7 -8 29 4 37 15 10 15 11 9 -12z m96 7
c16 -20 2 -28 -23 -15 -19 10 -19 9 -8 -4 14 -18 6 -27 -20 -23 -11 2 -18 -3
-18 -11 0 -9 -5 -12 -10 -9 -8 5 -8 11 -1 19 6 7 7 17 3 21 -4 5 -2 5 4 2 6
-4 19 2 29 13 21 24 29 25 44 7z m61 -27 c0 -5 0 -13 0 -17 -1 -5 -13 -7 -28
-6 -24 2 -24 2 -7 -6 20 -9 18 -11 -20 -15 -5 -1 -16 -5 -22 -9 -8 -5 -13 -3
-13 7 0 9 17 24 38 35 43 23 52 25 52 11z m-370 -20 c0 -5 -2 -10 -4 -10 -3 0
-8 5 -11 10 -3 6 -1 10 4 10 6 0 11 -4 11 -10z m110 -63 c0 -5 -9 -2 -20 8
-11 10 -20 25 -20 34 1 12 5 10 20 -8 11 -13 20 -28 20 -34z m157 38 c0 -8 -4
-12 -9 -9 -4 3 -8 9 -8 15 0 5 4 9 8 9 5 0 9 -7 9 -15z m1335 -37 c-7 -7 -12
-8 -12 -2 0 6 3 14 7 17 3 4 9 5 12 2 2 -3 -1 -11 -7 -17z m-1692 -7 c0 -21
-15 -37 -23 -24 -2 5 -3 3 -1 -3 1 -6 -3 -18 -9 -25 -10 -11 -9 -11 4 -1 20
15 29 7 23 -25 -3 -15 -1 -22 6 -18 5 3 10 1 10 -4 0 -6 -5 -11 -10 -11 -7 0
-7 -6 -1 -19 6 -10 8 -28 6 -40 -2 -11 0 -21 5 -21 4 0 6 -10 4 -22 -2 -13 -1
-17 2 -10 8 17 49 -46 45 -67 -2 -9 3 -12 13 -8 9 4 16 2 16 -3 0 -22 2 -25
20 -32 10 -4 24 -17 31 -29 10 -19 9 -21 -6 -16 -14 6 -13 3 4 -19 11 -14 17
-33 14 -42 -4 -15 -3 -15 6 -2 12 17 14 10 11 -35 -1 -16 1 -27 6 -23 4 5 14
-1 21 -12 14 -20 39 -18 27 1 -3 6 3 5 15 -3 12 -7 21 -16 21 -21 0 -4 5 -5
12 -1 6 4 8 3 5 -2 -3 -5 -27 -9 -52 -9 -38 1 -44 -1 -31 -10 9 -7 13 -15 9
-18 -3 -4 1 -7 10 -7 20 0 23 -16 5 -24 -7 -3 -1 -3 14 -1 22 3 26 0 21 -13
-6 -14 -4 -15 8 -5 13 10 16 10 16 -2 0 -8 -7 -15 -16 -15 -14 0 -14 -2 -1
-11 13 -9 13 -10 0 -6 -8 2 -15 9 -15 15 0 7 -3 12 -7 12 -5 0 -15 0 -23 0
-20 0 -36 -33 -24 -51 8 -12 12 -11 24 5 14 18 15 18 15 2 0 -9 4 -14 10 -11
5 3 10 1 10 -5 0 -7 -7 -9 -16 -6 -10 4 -25 -1 -36 -11 -15 -14 -18 -14 -13
-1 5 12 -2 15 -39 13 -26 -2 -46 2 -46 7 0 6 -7 8 -14 5 -9 -4 -17 2 -21 14
-4 10 -10 17 -15 14 -5 -3 -12 6 -16 21 -4 16 -2 29 5 33 7 5 3 12 -14 19 -36
16 -44 15 -38 -6 3 -12 -1 -19 -11 -19 -9 0 -16 4 -16 8 0 10 -39 -1 -47 -14
-4 -7 1 -8 13 -3 14 5 16 4 8 -4 -6 -6 -19 -8 -28 -4 -13 5 -14 9 -5 14 9 6 7
16 -8 40 -13 20 -23 28 -27 21 -4 -6 -3 -11 3 -11 6 0 16 -10 22 -22 12 -23
12 -23 -9 -5 -16 15 -25 16 -41 8 -25 -14 -34 -14 -26 -1 4 6 -1 7 -11 3 -12
-5 -15 -3 -9 6 5 10 2 11 -13 7 -18 -6 -20 -3 -17 16 4 21 3 21 -9 6 -14 -19
-32 -25 -21 -8 4 6 -1 7 -11 3 -11 -4 -15 -3 -10 5 3 6 -3 13 -14 17 -18 6
-19 9 -8 22 11 14 10 15 -10 9 -25 -8 -29 5 -7 24 8 7 12 16 9 21 -3 5 -2 9 3
8 24 -4 43 2 37 12 -3 6 0 15 7 20 8 4 15 13 15 19 1 5 2 15 3 20 0 6 5 10 11
10 5 0 7 -6 4 -14 -3 -8 -1 -17 5 -21 7 -3 8 0 5 9 -4 10 0 14 13 12 10 -2 17
-10 17 -19 -1 -8 4 -13 11 -11 15 6 25 -26 25 -78 0 -29 4 -38 17 -38 9 0 26
-8 37 -17 12 -10 15 -11 9 -3 -10 11 -10 17 0 29 10 12 9 13 -2 7 -10 -7 -12
-3 -6 14 5 15 4 20 -4 16 -7 -5 -11 3 -11 23 0 16 5 33 12 37 6 4 9 3 6 -2 -3
-5 0 -14 7 -21 11 -10 15 -7 23 16 8 23 7 32 -6 46 -10 10 -11 15 -5 11 8 -5
17 3 25 21 7 15 15 30 18 33 8 8 7 180 -2 180 -13 0 -4 23 17 43 11 10 15 16
10 14 -17 -9 -40 16 -40 43 0 17 -5 25 -17 24 -10 -1 -14 4 -11 12 3 9 20 14
44 14 32 0 39 -4 39 -19z m1794 -16 c-4 -8 -13 -15 -21 -15 -13 0 -13 3 -3 15
7 8 16 15 21 15 5 0 6 -7 3 -15z m-1957 -1 c-3 -3 -12 -4 -19 -1 -8 3 -5 6 6
6 11 1 17 -2 13 -5z m376 -15 l22 -20 -28 10 c-24 9 -27 9 -25 -7 2 -9 8 -21
13 -25 6 -5 0 -6 -12 -2 -12 3 -24 1 -28 -5 -4 -6 -3 -10 2 -9 4 1 11 0 16 -1
20 -7 33 -4 47 10 8 9 11 10 6 3 -6 -9 -4 -13 7 -13 16 0 30 -26 22 -40 -3 -5
-12 -7 -20 -3 -10 3 -15 -1 -15 -12 0 -9 5 -13 10 -10 6 4 10 -5 10 -19 0 -16
6 -26 15 -26 8 0 15 -4 15 -9 0 -5 -13 -8 -29 -7 -23 0 -27 4 -19 14 9 10 8
12 -3 10 -10 -2 -15 10 -19 42 -4 39 -8 45 -30 48 -34 5 -35 8 -16 36 9 14 16
32 16 41 0 21 17 19 43 -6z m1474 -1 c-3 -8 -6 -5 -6 6 -1 11 2 17 5 13 3 -3
4 -12 1 -19z m97 -25 c-3 9 -2 17 4 17 10 0 22 -55 22 -102 0 -14 5 -28 11
-30 8 -3 6 -10 -5 -21 -10 -9 -13 -17 -7 -17 8 0 7 -7 -1 -20 -26 -41 -38 -24
-32 43 3 34 8 65 11 70 2 4 0 7 -6 7 -5 0 -9 8 -9 18 0 9 -3 26 -7 37 l-8 20
17 -20 c13 -16 15 -17 10 -2z m-124 -8 c-10 -12 -9 -15 5 -15 13 0 15 -3 6
-13 -6 -8 -7 -17 -3 -22 4 -4 -3 -2 -16 4 -13 7 -20 17 -16 24 11 20 26 37 31
37 3 0 0 -7 -7 -15z m-1221 -55 c24 -47 28 -64 6 -33 -16 22 -37 73 -31 73 2
0 13 -18 25 -40z m1125 15 c2 -7 -4 -15 -14 -18 -14 -4 -17 -11 -13 -28 6 -22
5 -23 -12 -9 -10 8 -16 10 -12 3 4 -6 3 -14 -3 -18 -5 -3 -10 0 -10 7 0 9 -3
9 -10 -2 -8 -12 -10 -10 -10 10 -1 23 -2 23 -14 8 -20 -27 -25 -11 -8 27 15
31 19 34 50 29 23 -4 32 -2 28 5 -4 7 -1 9 8 5 8 -3 17 -12 20 -19z m-1287
-47 c-3 -8 -6 -5 -6 6 -1 11 2 17 5 13 3 -3 4 -12 1 -19z m1318 12 c-3 -5 1
-10 10 -10 9 0 13 -5 10 -10 -4 -6 -11 -8 -16 -5 -5 3 -6 -1 -3 -9 3 -9 11
-13 18 -9 6 3 0 -5 -14 -18 -27 -27 -54 -34 -46 -12 3 7 0 13 -7 14 -9 0 -9 2
1 6 6 2 9 10 5 16 -4 7 1 6 11 -2 9 -8 16 -10 15 -5 -1 5 0 12 1 17 1 4 4 12
5 17 1 6 3 12 4 15 0 3 4 5 7 5 3 0 2 -4 -1 -10z m-1415 -14 c0 -3 -4 -8 -10
-11 -5 -3 -10 -1 -10 4 0 6 5 11 10 11 6 0 10 -2 10 -4z m319 -42 c12 -20 20
-38 18 -41 -4 -4 -47 63 -47 73 0 11 10 1 29 -32z m-674 -24 c-2 -11 -6 -24
-9 -29 -3 -5 1 -11 9 -15 8 -3 15 -16 15 -28 0 -19 -2 -20 -10 -8 -5 8 -10 11
-10 7 0 -4 8 -20 17 -35 17 -26 17 -26 0 -13 -17 13 -18 12 -13 -14 3 -15 2
-24 -2 -20 -4 3 -7 12 -7 18 0 5 -6 12 -14 15 -8 3 -11 0 -7 -6 3 -6 2 -13 -4
-17 -5 -3 -10 1 -10 9 0 8 5 18 10 21 6 4 8 11 5 16 -4 5 -1 9 5 9 6 0 8 5 4
12 -5 7 -9 32 -10 55 -2 36 1 43 16 43 13 0 18 -6 15 -20z m1796 6 c-9 -11 -9
-15 1 -19 7 -3 3 -6 -9 -6 -37 -2 -27 35 11 38 5 1 3 -5 -3 -13z m36 -8 c-3
-8 -6 -5 -6 6 -1 11 2 17 5 13 3 -3 4 -12 1 -19z m-1380 -14 c-3 -3 -12 -4
-19 -1 -8 3 -5 6 6 6 11 1 17 -2 13 -5z m1374 -27 c-10 -9 -11 -8 -5 6 3 10 9
15 12 12 3 -3 0 -11 -7 -18z m-1361 -20 c0 -3 -9 -3 -19 0 -12 3 -17 11 -14
19 4 11 7 11 19 -1 8 -7 14 -16 14 -18z m1497 8 c0 -8 -6 -15 -13 -15 -8 0
-11 6 -8 15 4 8 9 15 13 15 4 0 8 -7 8 -15z m-113 -10 c-4 -8 -11 -12 -16 -9
-6 4 -5 10 3 15 19 12 19 11 13 -6z m103 -47 c-8 -19 -11 -44 -7 -58 18 -67
19 -90 6 -90 -9 0 -15 21 -20 65 -7 74 0 115 20 115 12 0 12 -5 1 -32z m-1147
-8 c0 -6 -9 -2 -20 7 -11 10 -20 19 -20 21 0 1 9 -2 20 -8 11 -6 20 -15 20
-20z m693 -5 c-3 -9 -8 -14 -10 -11 -3 3 -2 9 2 15 9 16 15 13 8 -4z m71 -7
c-5 -8 -2 -9 9 -5 9 3 19 1 23 -5 4 -7 3 -8 -4 -4 -7 4 -12 2 -12 -5 0 -8 -4
-8 -15 1 -13 11 -12 30 1 30 3 0 2 -5 -2 -12z m-1183 -21 c-10 -9 -11 -8 -5 6
3 10 9 15 12 12 3 -3 0 -11 -7 -18z m35 -2 c1 -8 -4 -19 -11 -25 -10 -9 -13
-7 -10 7 2 10 4 20 5 23 1 3 1 10 0 15 -1 6 2 6 6 2 4 -4 9 -14 10 -22z m214
10 c0 -12 -19 -12 -23 0 -4 9 -1 12 9 8 7 -3 14 -7 14 -8z m198 -10 c-3 -3 -9
2 -12 12 -6 14 -5 15 5 6 7 -7 10 -15 7 -18z m1032 15 c0 -5 -5 -10 -11 -10
-5 0 -7 5 -4 10 3 6 8 10 11 10 2 0 4 -4 4 -10z m-1424 -45 c-3 -8 -10 -15
-15 -15 -7 0 -6 10 1 26 12 26 25 16 14 -11z m429 6 c-6 -5 -25 10 -25 20 0 5
6 4 14 -3 8 -7 12 -15 11 -17z m786 2 c13 -16 12 -17 -3 -4 -10 7 -18 15 -18
17 0 8 8 3 21 -13z m-65 -10 c-3 -10 -1 -25 4 -33 9 -13 10 -13 11 0 1 8 1 19
0 23 -1 5 3 6 7 3 12 -7 3 -56 -10 -56 -6 0 -8 -7 -5 -14 4 -10 1 -13 -9 -9
-7 3 -14 14 -14 25 0 10 -5 16 -10 13 -6 -4 -7 -12 -4 -18 4 -7 3 -9 -1 -4
-12 11 -13 47 -2 54 6 3 7 1 3 -5 -4 -7 -1 -12 7 -12 10 0 13 7 10 20 -3 11
-10 17 -16 13 -6 -3 -7 -1 -3 5 12 19 38 14 32 -5z m-1229 -15 c-3 -8 -6 -5
-6 6 -1 11 2 17 5 13 3 -3 4 -12 1 -19z m1302 -5 c2 -2 -3 -3 -11 -3 -9 0 -19
7 -22 16 -6 15 -4 15 11 3 10 -7 20 -15 22 -16z m-209 2 c11 -13 10 -14 -4 -9
-9 3 -16 10 -16 15 0 13 6 11 20 -6z m-67 -10 c-3 -9 -8 -14 -10 -11 -3 3 -2
9 2 15 9 16 15 13 8 -4z m-1563 -25 c0 -19 -7 -33 -20 -40 -14 -7 -20 -7 -20
0 0 5 8 10 18 10 14 0 15 2 2 10 -10 6 -11 10 -2 10 6 0 11 3 11 8 -2 14 1 32
6 32 3 0 5 -13 5 -30z m1117 -5 c0 -8 -4 -12 -9 -9 -5 3 -6 10 -3 15 9 13 12
11 12 -6z m506 8 c-7 -2 -19 -2 -25 0 -7 3 -2 5 12 5 14 0 19 -2 13 -5z
m-1010 -21 c4 8 6 7 6 -4 1 -23 -25 -23 -33 -2 -5 14 -4 15 8 5 11 -9 15 -9
19 1z m228 -15 c-10 -9 -11 -8 -5 6 3 10 9 15 12 12 3 -3 0 -11 -7 -18z m348
-49 c18 -21 29 -38 24 -38 -13 0 -83 89 -82 104 0 6 6 2 12 -8 7 -11 27 -37
46 -58z m430 39 c-5 -16 -6 -33 -4 -38 6 -9 -15 -6 -32 4 -20 13 -15 30 7 24
15 -4 20 0 20 16 0 18 -2 19 -10 7 -5 -8 -12 -11 -17 -7 -8 9 11 24 31 24 10
0 12 -8 5 -30z m348 11 c-3 -8 -6 -5 -6 6 -1 11 2 17 5 13 3 -3 4 -12 1 -19z
m-1188 -26 c-13 -5 -11 -32 2 -32 5 0 7 5 4 10 -3 6 -4 10 -1 10 3 0 10 -9 16
-19 7 -14 7 -22 -2 -27 -7 -5 -8 -3 -3 7 5 8 4 11 0 6 -10 -8 -15 -48 -8 -60
3 -4 11 -3 19 4 13 10 14 7 9 -19 -3 -18 -1 -32 3 -32 5 0 14 -12 21 -27 11
-23 10 -25 -3 -13 -14 11 -17 8 -22 -19 -6 -30 -8 -31 -25 -15 -11 9 -19 30
-19 45 0 15 -5 31 -12 35 -6 4 -8 3 -5 -3 3 -5 7 -28 8 -51 2 -23 7 -42 11
-42 4 0 8 -4 8 -10 0 -5 -7 -7 -15 -4 -8 4 -15 2 -15 -4 0 -7 -11 -7 -35 -1
-19 6 -40 7 -45 4 -13 -8 -13 -3 6 33 8 17 16 41 17 52 1 11 5 20 9 20 4 0 8
11 8 24 0 13 5 26 11 28 7 2 7 12 -1 32 -9 26 -9 28 5 16 14 -11 14 -10 6 13
-8 21 -7 25 4 20 8 -3 12 -10 8 -16 -3 -6 -1 -7 5 -3 6 3 9 16 7 27 -2 11 -1
27 2 35 4 12 7 12 18 -3 8 -10 9 -19 4 -21z m759 13 c-6 -14 -15 -25 -20 -25
-4 0 -8 -5 -8 -11 0 -5 4 -8 10 -4 5 3 5 -6 -1 -24 -6 -17 -26 -40 -44 -51
-22 -14 -32 -27 -31 -43 1 -17 -5 -22 -26 -23 -28 -1 -37 9 -18 21 6 3 10 1
10 -4 0 -6 6 -11 13 -11 8 0 14 7 14 15 0 15 -8 18 -37 16 -10 0 -11 1 -3 5 9
4 10 11 4 22 -6 11 -5 26 3 41 l13 24 7 -27 c3 -14 11 -26 17 -26 6 0 7 -5 3
-12 -4 -7 -3 -8 5 -4 9 6 8 14 -5 34 -13 21 -14 24 -2 15 8 -7 18 -10 22 -6 4
4 15 8 23 8 9 0 18 7 20 15 4 13 3 13 -7 0 -10 -13 -11 -13 -7 1 3 9 0 22 -6
28 -9 9 -8 11 4 6 10 -4 22 3 33 19 21 33 29 33 14 1z m199 5 c14 -11 21 -20
15 -20 -6 0 -14 5 -17 10 -4 6 -10 8 -15 5 -4 -3 -10 2 -14 10 -7 20 1 19 31
-5z m442 -9 c31 -43 25 -59 -9 -26 -29 28 -39 55 -21 55 5 0 19 -13 30 -29z
m-465 -6 c19 -15 19 -15 -3 -15 -12 0 -20 4 -17 9 4 5 0 12 -6 14 -7 3 -8 6
-3 6 6 0 19 -6 29 -14z m-1604 -66 c69 -28 144 -59 167 -70 24 -10 47 -19 53
-19 5 0 10 -4 10 -10 0 -5 -5 -10 -11 -10 -5 0 -7 -5 -3 -12 4 -7 3 -8 -5 -4
-6 4 -9 11 -6 16 3 4 -4 10 -15 13 -18 5 -18 4 -3 -20 13 -19 13 -27 4 -36
-10 -9 -12 -9 -9 3 2 8 -4 14 -12 15 -8 0 -14 7 -12 16 2 17 -26 22 -45 7 -7
-5 -14 -5 -18 2 -4 6 -1 9 6 8 6 -2 14 3 16 10 3 6 -2 12 -10 12 -8 0 -20 7
-27 15 -7 8 -16 13 -20 10 -5 -3 -11 1 -13 7 -4 10 -8 9 -16 -2 -9 -13 -11
-12 -11 5 0 17 -2 17 -10 5 -7 -10 -10 -11 -10 -2 0 12 -47 37 -63 33 -5 -1
-6 3 -2 9 3 5 1 10 -4 10 -6 0 -11 -4 -11 -10 0 -22 -28 -8 -35 17 -4 19 -9
23 -14 14 -6 -10 -10 -9 -14 3 -10 25 9 20 143 -35z m1470 37 c0 -3 -4 -8 -10
-11 -5 -3 -10 -1 -10 4 0 6 5 11 10 11 6 0 10 -2 10 -4z m420 -6 c0 -5 -4 -10
-10 -10 -5 0 -10 5 -10 10 0 6 5 10 10 10 6 0 10 -4 10 -10z m-1123 -11 c-9
-6 -15 -14 -12 -20 4 -5 -1 -9 -9 -9 -9 0 -16 -5 -16 -11 0 -6 7 -8 16 -5 10
4 14 2 11 -6 -2 -7 -9 -12 -14 -11 -5 1 -10 -5 -10 -13 0 -7 5 -14 11 -14 6 0
4 -5 -4 -10 -8 -5 -10 -10 -4 -10 6 0 11 -7 11 -16 0 -14 -2 -14 -14 2 -7 10
-13 23 -14 28 -3 47 -3 74 -1 71 2 -2 12 5 23 16 10 10 25 19 32 19 6 0 4 -5
-6 -11z m34 -22 c-7 -7 -4 -19 10 -39 21 -28 45 -29 34 -1 -5 13 -3 14 10 3
15 -12 15 -14 1 -22 -9 -5 -19 -8 -23 -8 -4 1 -10 -7 -14 -17 -7 -17 -8 -17
-8 0 -1 9 -5 17 -11 17 -5 0 -7 7 -4 15 4 8 2 21 -3 28 -8 10 -9 21 -4 43 0 3
6 2 12 -2 7 -4 8 -9 0 -17z m695 11 c5 -7 3 -8 -6 -3 -10 6 -12 3 -8 -13 4
-12 3 -20 -2 -17 -9 6 -22 -23 -15 -35 3 -4 -3 -11 -12 -14 -15 -6 -15 -8 -3
-16 11 -7 12 -10 2 -10 -7 0 -10 -4 -7 -10 3 -5 -1 -10 -11 -10 -13 0 -14 3
-5 13 15 19 1 30 -18 14 -14 -11 -14 -10 -2 5 7 10 17 16 21 13 7 -4 15 14 25
52 2 7 -4 9 -13 6 -10 -3 -6 4 8 16 29 24 36 25 46 9z m610 -3 c-1 -8 -7 -20
-13 -26 -13 -13 -13 7 0 29 11 16 16 15 13 -3z m-214 -55 c6 0 8 -15 6 -35 -2
-19 -2 -35 2 -35 3 0 5 -13 5 -30 0 -16 -3 -30 -7 -30 -5 0 -8 -7 -8 -16 0 -8
-4 -12 -10 -9 -5 3 -11 0 -11 -7 -1 -7 -2 -19 -3 -27 -1 -15 -56 -23 -56 -9 0
4 8 8 18 9 10 0 12 3 5 6 -7 2 -13 9 -13 14 0 6 4 8 9 4 5 -3 13 0 17 6 4 8 3
9 -4 5 -8 -5 -12 1 -12 14 0 12 4 19 9 16 4 -3 6 6 3 19 -2 14 -8 25 -13 25
-5 0 -6 -7 -2 -16 3 -9 0 -20 -8 -25 -8 -4 -15 -17 -15 -29 -4 -54 -4 -55 -13
-41 -7 10 -13 11 -31 1 -12 -7 -20 -7 -16 -2 3 6 0 13 -6 15 -9 4 -6 11 9 24
12 10 23 25 25 33 2 8 10 21 18 28 11 10 11 12 1 6 -9 -5 -12 -3 -7 4 4 7 16
12 27 12 22 0 25 10 7 28 -12 12 -4 17 37 24 16 3 20 11 19 38 -1 26 0 28 3 8
2 -16 9 -28 15 -28z m-1622 35 c0 -1 -9 -12 -20 -25 -19 -22 -26 -17 -15 13 5
10 35 21 35 12z m-362 -30 c-3 -3 -9 2 -12 12 -6 14 -5 15 5 6 7 -7 10 -15 7
-18z m1217 5 c10 -11 16 -20 13 -20 -3 0 -13 9 -23 20 -10 11 -16 20 -13 20 3
0 13 -9 23 -20z m-925 -5 c0 -8 -4 -15 -10 -15 -5 0 -7 7 -4 15 4 8 8 15 10
15 2 0 4 -7 4 -15z m584 -16 c-2 -4 0 -10 6 -14 6 -4 7 -11 4 -17 -4 -6 -11
-25 -15 -42 -7 -30 -7 -30 -8 9 -1 22 -5 47 -11 55 -6 9 -5 19 2 28 9 10 13
10 19 0 4 -6 6 -15 3 -19z m486 27 c0 -2 -7 -6 -15 -10 -8 -3 -15 -1 -15 4 0
6 7 10 15 10 8 0 15 -2 15 -4z m589 -25 c-15 -5 -22 6 -14 19 6 9 10 9 16 -1
5 -8 4 -15 -2 -18z m-1931 -3 c-2 -7 4 -11 12 -10 8 2 12 0 8 -3 -4 -4 -3 -17
3 -29 10 -20 10 -20 -5 -2 -9 11 -16 16 -16 11 0 -5 -6 0 -14 11 -11 14 -11
21 -3 26 16 10 17 10 15 -4z m1437 -38 c-9 -18 -19 -30 -21 -27 -3 3 2 19 11
37 9 18 19 30 21 27 3 -3 -2 -19 -11 -37z m-1365 20 c0 -5 -7 -10 -16 -10 -8
0 -12 5 -9 10 3 6 10 10 16 10 5 0 9 -4 9 -10z m2115 -20 c-3 -6 4 -10 17 -10
18 0 20 -2 8 -10 -12 -8 -12 -10 -1 -10 11 0 11 -3 0 -16 -11 -14 -14 -13 -25
8 -16 28 -17 48 -3 48 5 0 7 -4 4 -10z m-1825 -22 c19 -9 47 -22 63 -29 26
-12 40 -43 15 -34 -8 3 -14 -4 -14 -20 -1 -14 2 -25 8 -25 5 0 6 -5 2 -11 -4
-8 -9 -7 -15 2 -5 8 -9 9 -9 3 0 -6 8 -18 17 -25 15 -12 16 -12 8 1 -6 11 -5
12 4 4 7 -6 14 -20 16 -30 2 -11 4 -19 5 -19 1 0 3 -7 5 -15 2 -11 -5 -16 -21
-16 -13 0 -24 5 -24 12 0 7 -12 11 -29 10 -17 -1 -27 2 -24 7 3 5 14 6 25 4
15 -4 17 -3 8 8 -7 8 -8 20 -4 26 4 7 3 9 -4 5 -6 -3 -14 -1 -18 5 -4 7 -3 9
4 5 8 -5 42 43 42 60 0 7 -43 -6 -56 -17 -19 -16 -30 -3 -14 16 7 8 9 15 6 15
-4 0 -1 10 5 23 11 20 11 21 -5 7 -10 -8 -28 -16 -39 -17 -21 -4 -21 -3 -2 11
19 15 19 15 -4 9 -19 -5 -22 -3 -15 8 5 8 9 17 10 22 1 4 2 10 3 13 0 3 4 4 9
2 4 -2 23 -11 42 -20z m1130 -28 c-6 -11 -15 -20 -20 -20 -6 0 -9 -3 -7 -7 1
-5 -2 -9 -8 -11 -5 -2 -12 4 -13 14 -2 9 0 14 5 11 5 -3 15 -2 23 4 13 7 13 9
0 10 -10 0 -8 3 5 9 11 5 21 9 23 9 1 1 -2 -8 -8 -19z m-604 -14 c1 -7 -4 -13
-12 -13 -9 0 -11 4 -4 12 5 7 8 15 5 18 -3 4 -2 5 2 2 4 -3 8 -11 9 -19z m494
20 c0 -3 -4 -8 -10 -11 -5 -3 -10 -1 -10 4 0 6 5 11 10 11 6 0 10 -2 10 -4z
m22 -18 c-7 -7 -12 -8 -12 -2 0 6 3 14 7 17 3 4 9 5 12 2 2 -3 -1 -11 -7 -17z
m-1347 -16 c-7 -7 -55 8 -55 17 0 5 13 4 30 -2 16 -6 27 -13 25 -15z m503 19
c11 -7 10 -9 -3 -14 -9 -4 -14 -3 -10 2 3 5 -1 12 -7 14 -7 3 -8 6 -3 6 6 0
16 -3 23 -8z m262 -26 c0 -5 -5 -3 -10 5 -5 8 -10 20 -10 25 0 6 5 3 10 -5 5
-8 10 -19 10 -25z m373 5 c-6 -24 -19 -26 -27 -4 -3 8 -2 12 4 9 6 -3 10 -1
10 4 0 6 4 11 9 11 5 0 7 -9 4 -20z m-695 -40 c9 -36 8 -38 -14 -36 -23 1 -35
16 -14 16 6 0 10 5 10 10 0 6 -6 10 -14 10 -8 0 -13 8 -11 18 2 9 4 20 4 24 2
21 30 -9 39 -42z m1646 35 c16 -12 17 -15 4 -15 -8 0 -21 7 -28 15 -16 19 -1
19 24 0z m89 0 c-3 -9 -8 -14 -10 -11 -3 3 -2 9 2 15 9 16 15 13 8 -4z m-1436
-17 c-3 -8 -6 -5 -6 6 -1 11 2 17 5 13 3 -3 4 -12 1 -19z m-677 2 c0 -5 -2
-10 -4 -10 -3 0 -8 5 -11 10 -3 6 -1 10 4 10 6 0 11 -4 11 -10z m558 -51 c26
-16 30 -31 5 -22 -12 5 -14 3 -8 -7 5 -8 4 -11 -3 -6 -6 4 -9 13 -5 21 3 8 1
15 -5 15 -5 0 -9 -10 -8 -22 1 -14 -8 -30 -24 -42 -19 -13 -20 -16 -5 -11 44
16 55 17 55 5 0 -7 7 -10 18 -5 13 5 14 3 6 -5 -9 -9 -17 -9 -32 -1 -21 11
-42 -2 -23 -13 12 -8 -10 -56 -25 -56 -6 0 -17 -7 -24 -15 -8 -9 -8 -15 -2
-15 6 0 12 5 14 12 3 7 7 8 11 2 9 -16 -6 -32 -38 -40 -28 -7 -29 -6 -16 10
11 14 12 19 3 25 -7 4 -10 15 -7 23 5 12 15 15 38 11 18 -3 29 -2 26 1 -3 3
-16 7 -29 9 -25 4 -41 27 -20 27 9 0 10 3 1 14 -18 21 13 86 39 81 11 -2 20 1
20 7 0 5 -7 8 -15 4 -10 -4 -15 1 -15 15 0 20 2 20 23 7 12 -8 32 -21 45 -29z
m1112 32 c0 -5 -8 -12 -17 -16 -16 -6 -15 -8 7 -20 18 -10 20 -14 8 -15 -9 0
-20 5 -23 10 -4 6 -11 8 -16 5 -15 -10 -10 4 9 24 19 21 32 26 32 12z m464 -7
c3 -8 2 -12 -4 -9 -6 3 -10 10 -10 16 0 14 7 11 14 -7z m-2064 -10 c0 -8 -19
-13 -24 -6 -3 5 1 9 9 9 8 0 15 -2 15 -3z m20 -9 c-15 -18 1 -20 18 -3 9 9 12
7 13 -12 1 -14 0 -29 -1 -35 -1 -5 9 0 23 13 18 17 27 20 32 11 6 -8 4 -10 -5
-4 -10 6 -12 4 -7 -8 3 -9 1 -19 -5 -23 -7 -4 -8 -3 -4 4 20 32 -20 5 -72 -48
-61 -62 -73 -68 -90 -47 -8 9 -1 23 25 52 20 22 39 40 43 40 5 0 12 3 16 8 4
4 2 7 -5 7 -7 0 -9 5 -6 10 4 6 12 7 18 3 9 -5 9 -3 0 8 -10 12 -10 18 -1 27
17 17 23 15 8 -3z m938 -10 c-3 -3 -9 2 -12 12 -6 14 -5 15 5 6 7 -7 10 -15 7
-18z m102 21 c0 -3 -4 -8 -10 -11 -5 -3 -10 -1 -10 4 0 6 5 11 10 11 6 0 10
-2 10 -4z m110 -5 c0 -6 -4 -13 -10 -16 -5 -3 -10 1 -10 9 0 9 5 16 10 16 6 0
10 -4 10 -9z m-493 -16 c0 -8 -4 -12 -9 -9 -5 3 -6 10 -3 15 9 13 12 11 12 -6z
m1338 5 c3 -5 2 -10 -4 -10 -5 0 -13 5 -16 10 -3 6 -2 10 4 10 5 0 13 -4 16
-10z m-872 -40 c-5 -19 -23 -39 -23 -25 0 9 20 45 24 45 2 0 2 -9 -1 -20z
m437 10 c13 -8 13 -11 1 -22 -10 -10 -12 -10 -7 0 4 7 1 12 -8 12 -9 0 -16 -5
-16 -11 0 -5 -5 -7 -10 -4 -8 5 -7 11 1 21 13 16 19 17 39 4z m-278 -52 c-14
-9 -31 -29 -37 -44 -7 -19 -14 -24 -19 -16 -4 7 -2 12 3 12 6 0 11 6 11 14 0
7 7 19 15 26 8 7 12 16 9 21 -3 5 2 6 10 3 12 -4 16 0 17 17 0 22 1 23 8 4 6
-15 2 -24 -17 -37z m728 37 c0 -8 -2 -15 -4 -15 -2 0 -6 7 -10 15 -3 8 -1 15
4 15 6 0 10 -7 10 -15z m-321 -2 c-3 -20 2 -26 11 -13 5 8 10 10 10 4 0 -6 -9
-19 -19 -28 -14 -13 -21 -14 -27 -5 -4 7 -3 10 4 5 6 -3 13 -2 17 4 3 5 -1 10
-9 10 -27 0 -19 20 12 29 1 1 1 -2 1 -6z m-669 -17 c0 -2 -8 -10 -17 -17 -16
-13 -17 -12 -4 4 13 16 21 21 21 13z m50 -16 c0 -5 -7 -10 -16 -10 -8 0 -12 5
-9 10 3 6 10 10 16 10 5 0 9 -4 9 -10z m417 -15 c0 -8 -4 -12 -9 -9 -5 3 -6
10 -3 15 9 13 12 11 12 -6z m459 -81 c11 -18 27 -41 36 -51 29 -34 97 -199
112 -273 14 -69 14 -81 -3 -155 -10 -44 -28 -110 -41 -148 l-23 -67 -14 27
c-46 90 -99 124 -227 149 l-84 17 15 51 c8 28 34 112 58 186 24 74 43 142 43
150 1 15 2 25 16 105 4 22 9 55 12 73 l5 33 37 -32 c20 -17 46 -47 58 -65z
m-1598 64 c10 -12 10 -18 1 -24 -7 -4 -9 -3 -5 4 3 6 2 13 -4 17 -5 3 -10 11
-10 17 0 6 1 9 3 7 1 -2 8 -11 15 -21z m651 -18 c-6 -16 -15 -30 -19 -30 -5 0
-4 14 1 30 6 17 15 30 19 30 5 0 4 -13 -1 -30z m-776 -1 c4 -16 3 -18 -9 -8
-7 6 -11 15 -8 20 8 13 11 11 17 -12z m421 -5 c3 -14 -2 -19 -19 -19 -13 0
-21 3 -18 8 2 4 11 7 18 7 9 0 12 6 8 18 -3 9 -3 14 1 11 4 -4 8 -15 10 -25z
m26 10 c0 -8 -4 -12 -10 -9 -5 3 -10 10 -10 16 0 5 5 9 10 9 6 0 10 -7 10 -16z
m-190 0 c0 -8 -19 -13 -24 -6 -3 5 1 9 9 9 8 0 15 -2 15 -3z m580 -13 c0 -5
-7 -11 -14 -14 -10 -4 -13 -1 -9 9 6 15 23 19 23 5z m-955 -11 c3 -5 -1 -10
-10 -10 -9 0 -13 5 -10 10 3 6 8 10 10 10 2 0 7 -4 10 -10z m1094 -12 c-4 -31
3 -42 11 -20 5 12 15 22 22 21 10 0 10 -2 -1 -6 -11 -5 -11 -7 0 -14 12 -8 12
-10 1 -18 -8 -4 -13 -12 -13 -17 1 -5 -3 -10 -9 -10 -5 -1 -14 -2 -20 -3 -5 0
-10 -8 -10 -16 0 -8 -5 -15 -11 -15 -5 0 -8 4 -4 9 3 5 1 12 -4 15 -5 4 -12 2
-16 -4 -3 -5 -11 -10 -17 -10 -6 0 1 9 15 20 14 11 29 20 35 20 5 0 9 8 9 18
0 29 3 42 8 42 3 0 5 -6 4 -12z m-852 -29 c-3 -12 2 -23 14 -29 25 -14 24 -26
-3 -33 -23 -6 -23 -6 -3 10 20 15 20 15 -1 11 -11 -3 -21 0 -22 6 0 6 -3 20
-5 31 -5 25 1 37 15 29 5 -3 8 -15 5 -25z m-441 9 c4 -7 3 -8 -4 -4 -7 4 -12
2 -12 -3 0 -6 -5 -11 -11 -11 -8 0 -8 5 1 15 15 18 17 18 26 3z m274 -3 c-7
-9 -15 -13 -19 -10 -3 3 1 10 9 15 21 14 24 12 10 -5z m854 -9 c-3 -9 -10 -16
-15 -16 -6 0 -5 9 1 21 13 24 24 20 14 -5z m660 9 c-4 -8 -8 -15 -10 -15 -2 0
-4 7 -4 15 0 8 4 15 10 15 5 0 7 -7 4 -15z m-1447 -1 c-3 -3 -12 -4 -19 -1 -8
3 -5 6 6 6 11 1 17 -2 13 -5z m203 -6 c0 -4 -7 -8 -15 -8 -8 0 -15 4 -15 8 0
5 7 9 15 9 8 0 15 -4 15 -9z m-575 -34 c-11 -8 -19 -19 -18 -24 2 -5 -6 -14
-17 -20 -12 -6 -18 -16 -14 -23 4 -7 4 -9 -1 -5 -4 4 -13 0 -20 -9 -13 -17
-50 -28 -39 -12 3 5 10 7 15 4 8 -6 13 9 10 28 -1 5 3 6 8 3 5 -3 11 1 15 9 3
8 12 15 21 15 8 0 14 3 14 8 -3 20 3 31 19 35 28 7 28 7 7 -9z m670 -16 c5 -4
0 -6 -12 -6 -13 1 -19 7 -16 15 3 8 8 10 12 6 3 -4 10 -11 16 -15z m-45 3 c0
-5 -7 -12 -16 -15 -14 -5 -15 -4 -4 9 14 17 20 19 20 6z m606 -3 c4 -7 3 -8
-4 -4 -10 6 -36 -27 -37 -49 0 -5 -9 -9 -19 -7 -14 3 -17 -1 -13 -12 4 -9 3
-16 -2 -16 -5 0 -11 10 -14 22 -7 25 13 44 26 25 5 -7 6 -3 2 11 -5 17 -2 22
14 22 11 0 23 5 26 10 8 13 12 13 21 -2z m221 -10 c-3 -8 -6 -5 -6 6 -1 11 2
17 5 13 3 -3 4 -12 1 -19z m-1173 -13 c-4 -8 -11 -12 -16 -9 -6 4 -5 10 3 15
19 12 19 11 13 -6z m1235 -1 c4 3 8 -1 8 -9 0 -24 -23 -17 -24 8 0 12 1 16 4
9 3 -6 8 -10 12 -8z m260 7 c8 -5 9 -11 3 -15 -5 -3 -15 1 -22 9 -14 16 -3 20
19 6z m-1589 -5 c0 -2 -7 -7 -16 -10 -8 -3 -12 -2 -9 4 6 10 25 14 25 6z m884
-7 c8 12 46 15 46 4 -1 -18 -19 -35 -33 -30 -8 3 -19 1 -25 -5 -6 -6 -12 -6
-17 3 -6 8 -4 10 5 4 9 -6 10 -1 5 16 -4 17 -3 20 3 10 7 -9 12 -10 16 -2z
m226 -11 c13 -8 13 -9 -1 -5 -9 3 -16 -1 -16 -8 0 -14 14 -14 35 -2 6 5 12 4
12 -1 0 -6 -13 -15 -30 -21 -25 -8 -30 -7 -30 6 0 14 -2 14 -14 -3 -8 -10 -18
-16 -22 -11 -4 4 -1 7 7 8 8 0 6 4 -6 9 -18 8 -18 9 -2 9 14 1 17 6 12 22 -6
18 -4 20 17 14 12 -4 30 -12 38 -17z m-975 3 c3 -5 2 -12 -3 -15 -5 -3 -9 1
-9 9 0 17 3 19 12 6z m145 3 c0 -8 -19 -13 -24 -6 -3 5 1 9 9 9 8 0 15 -2 15
-3z m35 -33 c3 -5 2 -12 -3 -15 -5 -3 -9 1 -9 9 0 17 3 19 12 6z m1426 -18
c-12 -20 -14 -14 -5 12 4 9 9 14 11 11 3 -2 0 -13 -6 -23z m-1374 11 c-3 -3
-12 -4 -19 -1 -8 3 -5 6 6 6 11 1 17 -2 13 -5z m543 2 c0 -11 -19 -15 -25 -6
-3 5 1 10 9 10 9 0 16 -2 16 -4z m35 -22 c-1 -14 -7 -30 -14 -37 -14 -14 -14
-2 -1 24 8 14 7 19 -2 19 -9 0 -9 3 2 10 8 5 16 10 17 10 1 0 0 -12 -2 -26z
m-1033 -2 c-7 -2 -9 -9 -6 -14 4 -7 2 -8 -4 -4 -6 4 -9 13 -6 21 4 8 11 12 17
8 8 -5 7 -8 -1 -11z m1665 12 c-3 -3 -12 -4 -19 -1 -8 3 -5 6 6 6 11 1 17 -2
13 -5z m42 -11 c-6 -7 -19 -12 -28 -12 -13 1 -13 2 2 6 9 2 15 8 13 12 -3 4 1
8 9 8 11 0 12 -4 4 -14z m-1904 -13 c-3 -5 -11 -10 -16 -10 -6 0 -7 5 -4 10 3
6 11 10 16 10 6 0 7 -4 4 -10z m1175 -15 c-7 -8 -17 -12 -24 -8 -7 4 -6 1 1
-7 9 -10 10 -17 2 -27 -7 -7 -8 -13 -4 -13 4 0 2 -7 -5 -15 -9 -11 -10 -18 -1
-29 9 -11 9 -14 -1 -12 -7 0 -13 -2 -13 -5 0 -3 -6 -13 -14 -22 -7 -10 -10
-17 -6 -17 5 0 0 -10 -11 -22 -12 -13 -13 -18 -4 -13 13 8 13 7 1 -8 -7 -9
-10 -17 -6 -17 5 0 0 -9 -10 -20 -10 -11 -15 -20 -10 -20 4 0 2 -7 -5 -15 -7
-8 -9 -15 -4 -15 5 0 1 -5 -9 -11 -22 -13 -38 -2 -17 11 8 6 11 10 6 10 -5 0
-3 7 4 15 7 8 9 15 5 15 -4 0 -2 7 5 15 7 8 17 12 24 8 7 -5 7 -2 -1 8 -10 12
-9 21 2 42 8 15 11 27 8 27 -3 0 0 7 7 15 7 8 9 15 4 15 -5 0 -1 7 9 14 10 8
16 20 15 27 -2 8 3 13 11 11 11 -2 12 0 3 11 -9 10 -9 16 0 25 7 7 8 12 4 12
-5 0 -3 7 4 15 7 8 19 15 27 15 13 0 13 -3 3 -15z m166 6 c-4 -5 -1 -12 4 -14
6 -3 5 -4 -2 -3 -7 1 -19 -3 -26 -11 -19 -18 -29 -16 -35 7 -4 16 -2 18 13 10
13 -7 21 -5 30 5 14 16 25 20 16 6z m-268 -23 c-7 -13 -11 -26 -10 -31 1 -4
-7 -2 -18 5 -11 7 -16 14 -10 16 6 2 8 8 4 13 -3 5 -1 9 5 9 5 0 12 -6 14 -12
3 -8 6 -6 6 5 1 9 6 17 11 17 7 0 6 -8 -2 -22z m-1102 -6 c-3 -5 -16 -12 -28
-15 -22 -6 -22 -6 2 13 25 19 37 20 26 2z m389 9 c-3 -5 -1 -12 5 -16 5 -3 10
2 10 12 0 15 2 16 10 3 18 -28 4 -36 -28 -17 -11 8 -8 27 4 27 3 0 3 -4 -1 -9z
m1025 -1 c0 -5 -2 -10 -4 -10 -3 0 -8 5 -11 10 -3 6 -1 10 4 10 6 0 11 -4 11
-10z m465 -30 c3 -5 -1 -10 -9 -10 -8 0 -18 5 -21 10 -3 6 1 10 9 10 8 0 18
-4 21 -10z m-1909 -15 c-11 -8 -25 -15 -30 -15 -6 1 0 7 14 15 32 19 40 18 16
0z m1247 -10 c-3 -9 -8 -14 -10 -11 -3 3 -2 9 2 15 9 16 15 13 8 -4z m93 -34
c-4 -6 -13 -11 -19 -10 -9 0 -9 2 1 6 6 2 12 9 12 14 0 6 -5 7 -12 3 -7 -5 -8
-3 -3 5 5 9 11 9 17 3 6 -6 7 -15 4 -21z m-1370 4 c-11 -8 -25 -15 -30 -15 -6
0 -2 7 8 15 11 8 25 15 30 15 6 0 2 -7 -8 -15z m1115 -2 c12 -15 12 -16 -3
-10 -11 4 -21 0 -27 -11 -6 -9 -11 -14 -11 -9 0 6 22 47 26 47 1 0 8 -8 15
-17z m268 -20 c-3 -21 3 -31 17 -29 9 0 19 -6 21 -14 4 -12 2 -12 -5 -2 -7 10
-11 10 -22 -3 -14 -17 -30 -20 -30 -4 0 5 5 7 10 4 12 -8 13 5 1 25 -6 8 -7
18 -5 22 6 10 14 10 13 1z m242 -43 c6 0 7 -9 3 -22 -4 -13 -6 -44 -5 -70 1
-37 -2 -48 -14 -48 -18 0 -20 16 -2 23 7 4 6 6 -5 6 -9 1 -19 -5 -21 -11 -8
-20 -7 23 2 67 5 22 9 30 10 18 0 -13 6 -23 12 -23 7 0 9 9 5 23 -3 12 -6 33
-6 47 0 20 -2 22 -10 10 -8 -13 -10 -13 -10 2 0 26 25 28 28 1 2 -12 8 -23 13
-23z m-1654 29 c-9 -6 -15 -14 -12 -19 3 -5 -3 -14 -14 -19 -30 -16 -40 -12
-11 4 14 8 19 14 11 15 -11 0 -9 4 5 15 10 8 24 14 29 14 6 0 2 -4 -8 -10z
m1385 -34 c-2 -14 -8 -22 -13 -19 -5 3 -5 14 1 25 14 26 18 24 12 -6z m-1422
-30 c0 -2 -13 -11 -30 -20 -38 -19 -40 -11 -2 9 31 17 32 18 32 11z m1460 -1
c0 -8 -19 -13 -24 -6 -3 5 1 9 9 9 8 0 15 -2 15 -3z m526 -6 c3 -4 -1 -5 -10
-4 -8 1 -18 5 -22 8 -3 4 1 5 10 4 8 -1 18 -5 22 -8z m-611 -18 c3 -5 1 -10
-4 -10 -6 0 -11 5 -11 10 0 6 2 10 4 10 3 0 8 -4 11 -10z m-1410 -20 c-3 -5
-14 -10 -23 -9 -14 0 -13 2 3 9 27 11 27 11 20 0z m1443 -15 c-3 -3 -9 2 -12
12 -6 14 -5 15 5 6 7 -7 10 -15 7 -18z m-6 -47 c-7 -7 -12 -8 -12 -2 0 14 12
26 19 19 2 -3 -1 -11 -7 -17z m-192 -12 c0 -9 -30 -14 -35 -6 -4 6 3 10 14 10
12 0 21 -2 21 -4z m455 -6 c-3 -5 0 -10 7 -10 9 0 9 -3 -2 -10 -13 -9 -13 -11
0 -20 8 -5 10 -10 4 -10 -7 0 -10 -33 -9 -95 1 -52 -2 -95 -6 -95 -5 0 -9 5
-9 11 0 5 -4 7 -10 4 -5 -3 -10 -1 -10 4 0 6 4 11 8 11 5 0 8 21 7 48 -1 26 2
53 8 60 6 8 6 12 -1 12 -11 0 -11 18 1 38 5 7 3 12 -4 12 -8 0 -8 4 1 15 10
12 10 15 -1 15 -11 0 -11 2 1 10 19 12 23 12 15 0z m185 -29 c3 -2 -2 -2 -11
2 -9 3 -21 1 -27 -5 -8 -8 -9 -5 -5 11 5 21 12 20 43 -8z m-665 -1 c-8 -9 -12
-20 -8 -23 3 -4 -1 -7 -11 -7 -11 0 -14 4 -9 13 4 6 8 15 9 20 3 13 4 14 19
14 13 0 13 -2 0 -17z m659 -19 c3 -5 0 -11 -7 -14 -8 -3 -14 1 -14 9 0 16 13
19 21 5z m-666 -26 c-10 -10 -49 -14 -43 -4 4 5 16 9 27 9 12 0 19 -2 16 -5z
m732 -24 c0 -5 -11 -8 -25 -6 -38 4 -43 15 -7 15 18 0 32 -4 32 -9z m-755 -11
c-4 -6 -12 -7 -18 -3 -7 4 -6 0 2 -10 11 -15 11 -17 -2 -17 -13 0 -15 13 -8
38 1 1 8 2 17 2 8 0 12 -5 9 -10z m-32 -62 c-6 -7 -9 -21 -8 -30 3 -18 -21
-33 -30 -19 -3 5 2 11 10 14 8 4 12 15 10 27 -2 11 0 18 6 15 5 -4 9 -1 9 6 0
7 3 9 6 6 4 -4 2 -12 -3 -19z m-40 -95 c-8 -12 -12 -23 -8 -23 4 0 2 -6 -4
-13 -6 -8 -8 -17 -4 -20 3 -4 1 -7 -5 -7 -14 0 -11 26 6 56 6 12 9 23 7 26 -3
3 1 5 9 5 12 0 12 -4 -1 -24z m571 21 c11 -4 13 -11 6 -30 -7 -17 -6 -24 3
-24 8 0 8 -3 2 -8 -6 -4 -10 -47 -10 -99 0 -56 -4 -93 -10 -93 -6 0 -5 -3 1
-8 7 -4 8 -15 3 -27 -4 -11 -8 -18 -9 -15 -7 20 -4 228 3 238 6 7 6 12 -1 12
-11 0 -11 18 1 37 4 6 1 14 -5 16 -7 3 -10 6 -6 6 3 1 13 -2 22 -5z m793 -54
c-5 -28 -11 -49 -13 -47 -7 6 8 97 16 97 4 0 3 -23 -3 -50z m-1396 -53 c-6 -8
-10 -16 -8 -18 1 -2 0 -3 -2 -1 -12 7 -7 32 6 32 12 0 13 -3 4 -13z m1370 -48
c-6 -16 -10 -18 -10 -7 -1 22 12 55 16 42 2 -6 -1 -22 -6 -35z m-1394 -9 c-1
-11 -5 -20 -9 -20 -3 0 -6 9 -5 20 1 11 5 20 9 20 3 0 6 -9 5 -20z m-20 -50
c-1 -11 -4 -20 -8 -20 -10 0 -19 27 -12 34 12 12 22 5 20 -14z m1389 -85 c-4
-36 -9 -80 -13 -97 -4 -21 -3 -29 5 -24 8 4 8 -3 2 -25 -5 -18 -6 -37 -3 -43
4 -6 -1 -4 -11 4 -11 8 -14 16 -7 18 6 2 11 13 11 25 0 16 -3 18 -9 9 -7 -11
-9 -10 -14 3 -4 9 -3 14 3 10 6 -4 9 9 7 34 -2 23 0 41 4 41 3 0 7 15 7 33 0
35 11 77 20 77 2 0 2 -29 -2 -65z m114 25 c0 -5 -5 -10 -11 -10 -5 0 -7 5 -4
10 3 6 8 10 11 10 2 0 4 -4 4 -10z m-1325 -10 c3 -6 -1 -7 -9 -4 -18 7 -21 14
-7 14 6 0 13 -4 16 -10z m459 -26 c23 -9 20 -34 -4 -34 -13 0 -20 7 -20 20 0
22 1 23 24 14z m-299 -44 c3 -5 -4 -6 -15 -3 -11 3 -22 9 -25 13 -3 5 4 6 15
3 11 -3 22 -9 25 -13z m1061 -36 c-4 -9 -9 -15 -11 -12 -3 3 -3 13 1 22 4 9 9
15 11 12 3 -3 3 -13 -1 -22z m-960 -36 c4 -7 3 -8 -4 -4 -7 4 -12 2 -12 -5 0
-7 -3 -10 -6 -6 -6 5 3 27 11 27 2 0 7 -5 11 -12z m380 -31 c4 -4 -4 -7 -19
-7 -14 0 -29 -5 -33 -12 -4 -6 -3 -8 3 -5 5 3 10 0 10 -7 0 -8 -6 -13 -14 -12
-7 1 -13 5 -13 9 0 4 0 13 0 21 0 20 49 30 66 13z m-46 -72 c-7 -9 -15 -13
-19 -10 -3 3 1 10 9 15 21 14 24 12 10 -5z m-654 -7 c4 -7 3 -8 -4 -4 -22 13
-37 -6 -17 -21 11 -7 14 -13 8 -13 -16 0 -36 28 -28 40 8 13 32 13 41 -2z
m1250 -25 c-11 -11 -19 6 -11 24 8 17 8 17 12 0 3 -10 2 -21 -1 -24z m-1092
18 c3 -5 -5 -11 -19 -13 -20 -4 -23 -3 -14 8 13 16 25 18 33 5z m173 -37 c8
-22 -13 -42 -29 -25 -11 10 -10 11 5 6 10 -4 17 -2 17 4 0 6 -7 11 -16 11 -8
0 -12 5 -9 10 9 15 25 12 32 -6z"/>
<path d="M555 2180 c-3 -6 1 -7 9 -4 18 7 21 14 7 14 -6 0 -13 -4 -16 -10z"/>
<path d="M570 2150 c-11 -7 -12 -12 -4 -17 7 -5 14 -17 17 -28 3 -12 5 -4 6
18 0 20 0 37 -1 37 -2 0 -10 -5 -18 -10z"/>
<path d="M569 2052 c-3 -20 -2 -29 4 -23 5 5 7 19 5 32 -3 20 -5 19 -9 -9z"/>
<path d="M680 2050 c-9 -6 -10 -10 -3 -10 6 0 15 5 18 10 8 12 4 12 -15 0z"/>
<path d="M270 1935 c-11 -13 -9 -15 13 -13 20 2 23 5 15 15 -13 16 -13 16 -28
-2z"/>
<path d="M500 1925 c-11 -13 -10 -14 4 -9 9 3 16 10 16 15 0 13 -6 11 -20 -6z"/>
<path d="M636 1918 c3 -5 10 -6 15 -3 13 9 11 12 -6 12 -8 0 -12 -4 -9 -9z"/>
<path d="M713 1909 c7 -26 -12 -70 -27 -62 -7 4 -7 1 1 -7 6 -7 9 -20 6 -29
-4 -14 -3 -14 6 -1 9 12 11 9 13 -15 1 -16 1 -41 1 -55 -1 -14 1 -19 4 -12 2
6 9 10 14 6 13 -8 11 17 -7 69 -14 42 -14 48 0 69 21 29 20 58 0 58 -12 0 -15
-6 -11 -21z"/>
<path d="M505 1899 c-3 -4 2 -6 10 -5 21 3 28 13 10 13 -9 0 -18 -4 -20 -8z"/>
<path d="M561 1885 c0 -5 6 -19 14 -29 8 -11 15 -15 15 -10 0 6 -7 19 -15 30
-8 10 -14 15 -14 9z"/>
<path d="M391 1857 c-1 -21 21 -18 27 4 3 12 2 12 -6 0 -8 -11 -10 -11 -15 0
-4 10 -6 8 -6 -4z"/>
<path d="M510 1848 c0 -4 4 -8 9 -8 6 0 12 4 15 8 3 5 -1 9 -9 9 -8 0 -15 -4
-15 -9z"/>
<path d="M761 1786 c-8 -9 -11 -19 -7 -23 9 -9 29 13 24 27 -2 8 -8 7 -17 -4z"/>
<path d="M680 1780 c0 -5 5 -10 11 -10 5 0 7 5 4 10 -3 6 -8 10 -11 10 -2 0
-4 -4 -4 -10z"/>
<path d="M958 1633 c7 -3 16 -2 19 1 4 3 -2 6 -13 5 -11 0 -14 -3 -6 -6z"/>
<path d="M1698 1803 c7 -3 16 -2 19 1 4 3 -2 6 -13 5 -11 0 -14 -3 -6 -6z"/>
<path d="M1642 1785 c1 -10 9 -20 16 -21 7 -1 8 0 2 3 -5 2 -8 9 -5 13 3 5 0
12 -6 15 -7 5 -10 1 -7 -10z"/>
<path d="M235 1840 c3 -5 8 -10 11 -10 2 0 4 5 4 10 0 6 -5 10 -11 10 -5 0 -7
-4 -4 -10z"/>
<path d="M639 1655 c-1 -3 -2 -8 -3 -12 -1 -5 -5 -14 -10 -22 -6 -9 -1 -8 16
3 14 9 29 13 33 9 5 -5 3 0 -4 10 -13 16 -30 23 -32 12z"/>
<path d="M695 1530 c-3 -6 1 -13 9 -16 9 -3 13 -11 9 -17 -4 -6 -1 -7 7 -2 10
6 10 11 -3 20 -9 7 -14 15 -10 18 3 4 4 7 0 7 -3 0 -9 -5 -12 -10z"/>
<path d="M880 1540 c13 -9 8 -14 -12 -12 -3 1 -9 -5 -12 -13 -7 -19 5 -19 29
-2 18 14 14 37 -8 37 -7 0 -6 -4 3 -10z"/>
<path d="M442 1491 c2 -7 7 -12 11 -12 12 1 9 15 -3 20 -7 2 -11 -2 -8 -8z"/>
<path d="M390 1442 c0 -5 7 -13 16 -16 10 -4 14 -1 12 6 -5 15 -28 23 -28 10z"/>
<path d="M2410 2830 c8 -5 20 -10 25 -10 6 0 3 5 -5 10 -8 5 -19 10 -25 10 -5
0 -3 -5 5 -10z"/>
</g>
</svg>
