<?xml version="1.0" standalone="no"?>
<!DOCTYPE svg PUBLIC "-//W3C//DTD SVG 20010904//EN"
 "http://www.w3.org/TR/2001/REC-SVG-20010904/DTD/svg10.dtd">
<svg version="1.0" xmlns="http://www.w3.org/2000/svg"
 width="291.000000pt" height="292.000000pt" viewBox="0 0 291.000000 292.000000"
 preserveAspectRatio="xMidYMid meet">

<g transform="translate(0.000000,292.000000) scale(0.100000,-0.100000)"
fill="#000000" stroke="none">
<path d="M0 2903 c0 -15 2 -16 10 -3 11 18 15 13 24 -25 5 -24 4 -26 -4 -12
-6 9 -15 17 -20 17 -15 0 -12 -28 3 -33 10 -4 10 -6 0 -6 -9 -1 -13 -19 -13
-57 l0 -56 47 28 c27 15 73 44 104 65 31 21 59 35 63 32 3 -4 6 3 6 15 0 13 5
20 13 17 6 -3 26 4 42 15 l30 20 -152 0 c-139 0 -153 -2 -153 -17z"/>
<path d="M2410 2884 c0 -28 3 -35 15 -31 8 4 17 2 20 -3 4 -6 -2 -10 -12 -10
-12 0 -14 -3 -6 -8 7 -5 9 -21 5 -47 -10 -61 -8 -79 8 -83 38 -7 50 20 57 121
l6 97 -47 0 -46 0 0 -36z"/>
<path d="M2510 2836 c0 -98 -10 -132 -44 -147 -13 -6 -29 -21 -34 -33 -10 -19
-11 -18 -11 11 -1 17 -8 39 -17 47 -12 12 -14 29 -11 66 3 28 2 50 -3 50 -8 0
-20 -58 -20 -100 0 -18 -6 -26 -19 -27 -14 -1 -17 4 -15 25 2 15 4 42 6 60 1
17 7 32 13 32 5 0 2 5 -8 11 -26 15 -29 8 -30 -56 -1 -30 -5 -55 -10 -55 -5 0
-6 -7 -3 -15 3 -9 -1 -18 -9 -22 -12 -4 -13 -9 -5 -18 12 -14 -3 -31 -18 -21
-21 13 -405 -17 -762 -60 -140 -17 -277 -16 -580 6 -74 6 -205 15 -290 21 -85
6 -163 11 -172 12 -10 1 -18 7 -18 14 0 7 3 12 8 12 19 -3 33 2 27 11 -3 5
-12 7 -20 4 -15 -6 -21 12 -28 79 -3 34 -1 37 23 38 l25 2 -25 4 c-14 3 -29
11 -33 19 -5 9 -25 14 -54 14 l-46 0 6 -75 c7 -73 6 -75 -16 -75 -12 0 -37 4
-55 10 -29 8 -32 7 -22 -5 8 -10 31 -15 61 -15 42 0 49 -3 49 -20 0 -12 -7
-20 -18 -20 -29 0 -44 -51 -37 -127 4 -37 8 -86 9 -108 1 -22 6 -48 10 -57 5
-10 5 -26 1 -35 -4 -10 -11 -45 -16 -78 -4 -33 -13 -87 -19 -120 -6 -33 -14
-87 -18 -120 l-7 -60 -47 -9 c-60 -10 -64 -30 -5 -21 l43 7 -9 -84 c-19 -191
-59 -519 -72 -593 -26 -149 -46 -462 -61 -977 l-7 -228 622 0 c341 0 621 1
621 3 0 1 13 40 29 87 l28 85 9 -85 9 -85 653 -3 652 -2 2 57 c3 111 -27 483
-57 709 -8 61 -15 135 -15 165 0 31 -4 80 -9 110 -6 30 -12 131 -16 224 -3 94
-12 208 -20 255 -8 47 -22 146 -31 220 -9 74 -22 160 -30 191 -15 62 -18 118
-6 135 7 11 111 25 295 39 l77 7 0 99 c0 98 0 99 -22 94 -128 -30 -341 -75
-357 -75 -20 0 -20 4 -15 188 4 169 22 463 28 469 1 2 38 -18 82 -43 129 -74
195 -106 210 -100 21 8 17 24 -8 32 -12 3 -74 35 -138 70 -74 41 -128 64 -148
64 l-32 0 0 -84z m-2080 -281 c2 -30 2 -30 10 -5 4 14 9 18 9 10 1 -8 4 -24 7
-35 4 -16 0 -21 -15 -21 -13 0 -21 7 -21 17 0 9 -2 38 -5 65 -3 36 -2 42 4 24
5 -14 10 -38 11 -55z m-22 -35 c0 -23 -1 -22 -8 5 -4 17 -8 46 -8 65 l0 35 9
-40 c4 -22 8 -51 7 -65z m-25 26 c6 -60 -7 -40 -17 24 -4 28 -3 41 2 35 5 -5
12 -32 15 -59z m2011 -8 c-5 -30 -4 -39 4 -34 7 4 12 17 13 29 0 12 3 16 6 9
3 -7 2 -24 -1 -37 -6 -22 -12 -25 -56 -25 -36 0 -48 3 -44 13 2 7 17 13 32 13
22 -1 28 4 30 24 4 32 10 50 17 50 3 0 2 -19 -1 -42z m-2036 -186 c2 -7 -3
-12 -12 -12 -9 0 -16 7 -16 16 0 17 22 14 28 -4z m2117 -1 c7 -12 -12 -24 -25
-16 -11 7 -4 25 10 25 5 0 11 -4 15 -9z m-2060 -11 c3 -5 17 -10 30 -10 24 0
42 -16 31 -28 -4 -3 -16 -1 -26 6 -11 7 -29 12 -40 12 -11 0 -20 7 -20 15 0
17 16 20 25 5z m1988 -15 c1 -5 -6 -11 -15 -13 -11 -2 -18 3 -18 13 0 17 30
18 33 0z m-65 -22 c-2 -10 -13 -18 -25 -19 -13 -1 -29 -7 -37 -13 -8 -7 -20
-10 -26 -6 -18 11 8 34 30 28 12 -3 22 1 26 11 8 22 36 21 32 -1z m-1808 -8
c0 -8 -6 -15 -14 -15 -8 0 -16 7 -20 15 -4 10 1 15 14 15 11 0 20 -7 20 -15z
m60 -20 c0 -8 -6 -15 -14 -15 -8 0 -16 7 -20 15 -4 10 1 15 14 15 11 0 20 -7
20 -15z m50 -21 c0 -17 -22 -14 -28 4 -2 7 3 12 12 12 9 0 16 -7 16 -16z
m1580 -9 c-7 -8 -16 -15 -21 -15 -5 0 -9 7 -9 15 0 9 9 15 21 15 18 0 19 -2 9
-15z m-1522 -13 c2 -7 -3 -12 -12 -12 -9 0 -16 7 -16 16 0 17 22 14 28 -4z
m1467 8 c3 -6 -1 -13 -10 -16 -19 -8 -30 0 -20 15 8 14 22 14 30 1z m-1415
-26 c0 -17 -22 -14 -28 4 -2 7 3 12 12 12 9 0 16 -7 16 -16z m1365 7 c3 -5 -4
-13 -16 -16 -23 -8 -34 -1 -24 14 8 13 32 14 40 2z m-627 -23 c33 -27 -1 -118
-43 -118 -24 0 -65 46 -65 74 0 50 66 77 108 44z m-687 -3 c-1 -15 -24 -12
-29 3 -3 9 2 13 12 10 10 -1 17 -7 17 -13z m1253 6 c8 -12 -21 -34 -33 -27 -6
4 -8 13 -4 21 6 17 29 20 37 6z m-1205 -37 c3 -16 1 -17 -13 -5 -19 16 -21 34
-3 29 6 -3 14 -13 16 -24z m1144 20 c9 -10 -4 -34 -19 -34 -8 0 -14 6 -14 13
0 22 19 35 33 21z m-1093 -40 c0 -9 -5 -14 -12 -12 -18 6 -21 28 -4 28 9 0 16
-7 16 -16z m1040 -3 c0 -14 -18 -23 -30 -16 -6 4 -8 11 -5 16 8 12 35 12 35 0z
m-989 -16 c1 -17 -18 -17 -25 0 -4 11 -1 15 10 13 8 -2 15 -7 15 -13z m54 -13
c0 -18 -20 -15 -23 4 -3 10 1 15 10 12 7 -3 13 -10 13 -16z m875 4 c0 -8 -4
-17 -9 -21 -12 -7 -24 12 -16 25 9 15 25 12 25 -4z m-815 -24 c0 -18 -20 -15
-23 4 -3 10 1 15 10 12 7 -3 13 -10 13 -16z m753 -8 c-9 -9 -21 -13 -27 -9
-16 10 -3 25 22 25 20 0 20 -1 5 -16z m-702 -21 c-10 -10 -19 5 -10 18 6 11 8
11 12 0 2 -7 1 -15 -2 -18z m119 -24 c-5 -15 -1 -19 14 -19 21 0 28 -14 13
-24 -13 -8 -50 4 -55 17 -7 18 12 59 23 52 6 -4 8 -15 5 -26z m400 22 c7 -12
-12 -24 -25 -16 -11 7 -4 25 10 25 5 0 11 -4 15 -9z m-51 -15 c-8 -20 -31 -27
-37 -11 -7 17 1 25 24 25 12 0 16 -5 13 -14z m-514 -12 c0 -9 -11 -14 -30 -14
-18 0 -30 5 -30 13 0 9 12 14 30 15 20 0 30 -4 30 -14z m445 7 c7 -12 -12 -24
-25 -16 -11 7 -4 25 10 25 5 0 11 -4 15 -9z m315 -2 c0 -5 6 -7 13 -3 9 5 9 4
0 -6 -6 -7 -16 -9 -22 -6 -14 9 -14 26 -1 26 6 0 10 -5 10 -11z m-528 -29 c-8
-65 -8 -65 17 -62 21 3 23 1 18 -20 -4 -12 -7 -33 -7 -45 0 -14 -6 -23 -16
-23 -11 0 -14 5 -9 18 12 28 11 45 -2 49 -9 3 -13 -6 -13 -26 0 -31 -13 -41
-26 -20 -3 6 -1 15 6 19 18 11 4 44 -15 36 -10 -4 -15 1 -15 15 0 15 5 19 19
14 14 -4 20 0 23 20 3 14 1 28 -3 31 -16 9 -9 26 9 22 12 -2 16 -11 14 -28z
m163 20 c3 -6 -1 -13 -10 -16 -19 -8 -30 0 -20 15 8 14 22 14 30 1z m335 5 c0
-3 -6 -15 -12 -26 -10 -17 -10 -23 0 -26 21 -8 13 -33 -14 -43 -34 -13 -34
-13 -34 11 0 15 4 19 16 15 14 -5 16 -1 11 28 -3 19 -3 37 0 40 8 7 33 8 33 1z
m-397 -20 c1 -5 -6 -11 -15 -13 -11 -2 -18 3 -18 13 0 17 30 18 33 0z m221
-38 c-3 -16 -1 -34 6 -42 10 -12 9 -16 -1 -19 -39 -12 -58 -13 -62 -2 -2 6 -8
7 -13 3 -13 -12 27 -39 48 -33 21 5 32 -9 24 -31 -5 -13 -9 -13 -22 -2 -14 12
-16 11 -12 -6 2 -14 10 -19 26 -17 17 2 22 -2 22 -17 0 -19 -5 -20 -41 -16
-53 7 -58 11 -52 36 4 15 8 17 14 8 4 -8 11 -10 14 -7 11 11 -5 28 -26 28 -10
0 -19 -5 -19 -11 0 -6 -6 -9 -12 -7 -8 3 -14 25 -15 52 -2 36 1 47 11 43 8 -3
18 -1 23 4 6 6 19 6 35 0 29 -11 38 -6 38 19 0 14 -9 17 -55 15 -45 -2 -55 0
-55 14 0 13 11 16 65 16 l65 0 -6 -28z m-629 5 c0 -18 -20 -15 -23 4 -3 10 1
15 10 12 7 -3 13 -10 13 -16z m73 -11 c3 -8 -5 -11 -24 -9 -15 2 -29 8 -31 15
-3 8 6 11 23 9 16 -2 30 -9 32 -15z m272 4 c0 -8 -4 -15 -10 -15 -5 0 -10 7
-10 15 0 8 5 15 10 15 6 0 10 -7 10 -15z m-120 -9 c0 -8 -4 -17 -9 -20 -10 -7
-23 19 -14 28 11 11 23 6 23 -8z m626 -39 c2 -26 -1 -47 -6 -47 -6 0 -10 3
-11 8 0 4 -2 27 -5 50 -3 31 -1 43 8 40 6 -2 13 -25 14 -51z m-853 -20 c-3 -5
-10 -4 -15 1 -6 6 -7 16 -3 22 6 9 9 9 16 -1 4 -7 5 -17 2 -22z m76 17 c2 -2
0 -11 -3 -21 -6 -14 -9 -15 -15 -4 -5 7 -13 11 -19 7 -13 -8 -25 10 -17 24 6
9 42 5 54 -6z m136 -32 c-6 -16 -7 -16 -17 2 -8 14 -7 21 3 27 17 10 24 -4 14
-29z m42 -9 c-3 -3 -11 -2 -17 2 -8 5 -7 11 2 22 12 15 13 14 16 -1 2 -10 1
-20 -1 -23z m561 19 c2 -7 -5 -12 -16 -12 -11 0 -22 -5 -24 -12 -2 -6 -9 -8
-16 -4 -16 9 -4 36 14 29 8 -3 14 0 14 7 0 14 22 8 28 -8z m-778 -34 c0 -6 7
-5 15 2 8 7 15 10 15 7 0 -3 3 -13 7 -23 5 -14 2 -16 -20 -10 -23 5 -27 3 -27
-15 0 -15 5 -19 15 -15 9 3 18 -1 22 -10 8 -21 3 -23 -42 -15 -38 6 -39 8 -41
46 -1 22 0 43 2 46 6 10 54 -2 54 -13z m170 -24 c0 -8 -7 -14 -15 -14 -15 0
-21 21 -9 33 10 9 24 -2 24 -19z m620 -5 c0 -5 -9 -9 -20 -9 -11 0 -20 -5 -20
-11 0 -6 -6 -9 -12 -6 -20 6 -15 30 5 33 11 1 21 5 24 8 8 7 23 -3 23 -15z
m43 15 c8 -8 -3 -34 -14 -34 -5 0 -9 9 -9 20 0 19 11 26 23 14z m-633 -19 c0
-8 -4 -15 -10 -15 -5 0 -10 7 -10 15 0 8 5 15 10 15 6 0 10 -7 10 -15z m45 -3
c0 -18 -20 -15 -23 4 -3 10 1 15 10 12 7 -3 13 -10 13 -16z m40 -32 c-5 -8
-11 -8 -17 -2 -6 6 -7 16 -3 22 5 8 11 8 17 2 6 -6 7 -16 3 -22z m217 -12
c-13 -13 -26 8 -17 30 6 16 7 16 17 -1 7 -13 7 -22 0 -29z m-331 2 c10 0 19
-7 19 -15 0 -17 -16 -20 -25 -5 -3 5 -12 7 -20 3 -16 -6 -19 5 -8 34 7 17 8
17 11 1 2 -10 12 -18 23 -18z m629 -5 c0 -8 -7 -15 -15 -15 -26 0 -18 20 13
29 1 1 2 -6 2 -14z m50 6 c0 -6 -4 -13 -10 -16 -5 -3 -10 1 -10 9 0 9 5 16 10
16 6 0 10 -4 10 -9z m-620 -16 c0 -8 -4 -15 -10 -15 -5 0 -10 7 -10 15 0 8 5
15 10 15 6 0 10 -7 10 -15z m-246 -20 c24 1 46 -18 34 -30 -8 -9 -88 18 -88
30 0 18 14 28 20 13 3 -7 18 -13 34 -13z m297 -15 c-7 -4 -11 -18 -9 -31 2
-13 -1 -24 -7 -24 -10 0 -8 72 2 89 3 5 10 1 16 -9 6 -12 6 -20 -2 -25z m308
25 c19 0 36 -5 38 -11 4 -13 -58 -28 -66 -17 -3 5 -12 8 -18 8 -7 0 -13 3 -13
8 0 4 0 12 0 18 0 6 5 7 13 2 6 -4 27 -8 46 -8z m171 0 c0 -8 -4 -15 -9 -15
-13 0 -22 16 -14 24 11 11 23 6 23 -9z m-248 -37 c-15 -15 -26 -4 -18 18 5 13
9 15 18 6 9 -9 9 -15 0 -24z m358 17 c0 -8 -7 -15 -15 -15 -16 0 -20 12 -8 23
11 12 23 8 23 -8z m-708 -15 c20 0 24 -15 7 -26 -6 -3 -15 -1 -19 5 -4 7 -12
11 -17 9 -11 -3 -13 1 -13 24 0 9 3 9 12 0 7 -7 20 -12 30 -12z m-770 -8 c-7
-2 -12 -10 -12 -18 0 -8 -7 -14 -16 -14 -14 0 -14 1 0 16 9 8 14 20 11 25 -4
5 2 6 11 2 11 -4 13 -8 6 -11z m1428 3 c0 -8 -7 -15 -15 -15 -26 0 -18 20 13
29 1 1 2 -6 2 -14z m-600 -10 c0 -8 -4 -15 -10 -15 -5 0 -10 7 -10 15 0 8 5
15 10 15 6 0 10 -7 10 -15z m-280 -5 c0 -5 7 -10 15 -10 8 0 15 -7 15 -15 0
-8 -4 -15 -10 -15 -5 0 -10 5 -10 10 0 6 -9 10 -20 10 -20 0 -26 11 -13 23 10
10 23 8 23 -3z m830 -5 c0 -8 -4 -15 -10 -15 -5 0 -10 7 -10 15 0 8 5 15 10
15 6 0 10 -7 10 -15z m164 -19 c14 -5 16 -10 9 -17 -13 -13 -76 28 -67 43 3 5
13 3 22 -5 10 -8 26 -17 36 -21z m496 19 c0 -9 -9 -15 -21 -15 -18 0 -19 2 -9
15 7 8 16 15 21 15 5 0 9 -7 9 -15z m-1980 -16 c0 -5 -7 -9 -15 -9 -8 0 -15 7
-15 15 0 9 6 12 15 9 8 -4 15 -10 15 -15z m1120 10 c0 -7 5 -8 13 -3 17 13 50
11 54 -2 5 -15 -33 -24 -68 -17 -30 6 -41 33 -14 33 8 0 15 -5 15 -11z m-40
-25 c0 -16 -16 -19 -25 -4 -8 13 4 32 16 25 5 -4 9 -13 9 -21z m838 14 c-3 -7
-11 -13 -18 -13 -7 0 -15 6 -17 13 -3 7 4 12 17 12 13 0 20 -5 18 -12z m-1358
-8 c0 -5 -4 -10 -10 -10 -5 0 -10 5 -10 10 0 6 5 10 10 10 6 0 10 -4 10 -10z
m111 -13 c-13 -13 -26 -3 -16 12 3 6 11 8 17 5 6 -4 6 -10 -1 -17z m1180 8 c0
-5 -9 -11 -21 -13 -20 -3 -27 8 -13 22 10 9 34 3 34 -9z m-1813 -13 c2 -7 -2
-10 -12 -6 -9 3 -16 11 -16 16 0 13 23 5 28 -10z m680 0 c2 -7 -3 -12 -12 -12
-9 0 -16 7 -16 16 0 17 22 14 28 -4z m672 3 c0 -8 -4 -15 -10 -15 -5 0 -10 7
-10 15 0 8 5 15 10 15 6 0 10 -7 10 -15z m395 4 c10 -15 -1 -23 -20 -15 -9 3
-13 10 -10 16 8 13 22 13 30 -1z m-1025 -14 c0 -8 -4 -15 -9 -15 -13 0 -22 16
-14 24 11 11 23 6 23 -9z m782 0 c0 -5 -5 -11 -11 -13 -6 -2 -11 4 -11 13 0 9
5 15 11 13 6 -2 11 -8 11 -13z m188 0 c0 -8 -4 -15 -9 -15 -13 0 -22 16 -14
24 11 11 23 6 23 -9z m-1270 -5 c0 -5 -7 -10 -15 -10 -8 0 -15 5 -15 10 0 6 7
10 15 10 8 0 15 -4 15 -10z m884 1 c3 -5 -1 -11 -9 -15 -9 -3 -15 0 -15 9 0
16 16 20 24 6z m243 -17 c-9 -9 -28 6 -21 18 4 6 10 6 17 -1 6 -6 8 -13 4 -17z
m39 -1 c-10 -10 -19 5 -10 18 6 11 8 11 12 0 2 -7 1 -15 -2 -18z m49 17 c3 -5
-1 -10 -9 -10 -9 0 -16 5 -16 10 0 6 4 10 9 10 6 0 13 -4 16 -10z m-1590 -10
c3 -5 -1 -10 -9 -10 -9 0 -16 5 -16 10 0 6 4 10 9 10 6 0 13 -4 16 -10z m415
-11 c0 -5 -7 -9 -15 -9 -9 0 -12 6 -9 15 6 15 24 11 24 -6z m630 6 c0 -8 -4
-15 -9 -15 -13 0 -22 16 -14 24 11 11 23 6 23 -9z m80 0 c0 -8 -9 -16 -20 -16
-11 -1 -25 -2 -32 -3 -6 -1 -13 5 -16 13 -3 10 1 12 17 8 11 -3 21 -1 21 4 0
5 7 9 15 9 8 0 15 -7 15 -15z m-670 -16 c0 -5 -4 -9 -10 -9 -5 0 -10 7 -10 16
0 8 5 12 10 9 6 -3 10 -10 10 -16z m280 12 c0 -6 -4 -13 -10 -16 -5 -3 -10 1
-10 9 0 9 5 16 10 16 6 0 10 -4 10 -9z m1212 -6 c0 -5 -5 -11 -11 -13 -6 -2
-11 4 -11 13 0 9 5 15 11 13 6 -2 11 -8 11 -13z m-1625 -22 c-3 -3 -11 -2 -17
2 -9 6 -9 10 1 16 14 8 27 -7 16 -18z m253 6 c0 -5 -4 -9 -10 -9 -5 0 -10 7
-10 16 0 8 5 12 10 9 6 -3 10 -10 10 -16z m430 5 c0 -9 -5 -14 -12 -12 -18 6
-21 28 -4 28 9 0 16 -7 16 -16z m903 10 c3 -3 3 -12 0 -20 -4 -11 -9 -12 -19
-3 -8 6 -11 15 -8 20 6 10 18 12 27 3z m-1863 -14 c0 -5 -2 -10 -4 -10 -3 0
-8 5 -11 10 -3 6 -1 10 4 10 6 0 11 -4 11 -10z m568 -15 c-3 -3 -9 2 -12 12
-6 14 -5 15 5 6 7 -7 10 -15 7 -18z m712 9 c0 -8 -4 -12 -10 -9 -5 3 -10 10
-10 16 0 5 5 9 10 9 6 0 10 -7 10 -16z m-660 -9 c0 -8 -4 -15 -9 -15 -13 0
-22 16 -14 24 11 11 23 6 23 -9z m614 0 c4 -10 -1 -15 -16 -15 -17 0 -18 2 -8
15 7 8 14 15 15 15 2 0 5 -7 9 -15z m-1184 -5 c0 -5 -4 -10 -10 -10 -5 0 -10
5 -10 10 0 6 5 10 10 10 6 0 10 -4 10 -10z m120 0 c0 -5 -7 -10 -15 -10 -8 0
-15 5 -15 10 0 6 7 10 15 10 8 0 15 -4 15 -10z m50 0 c0 -5 -4 -10 -9 -10 -6
0 -13 5 -16 10 -3 6 1 10 9 10 9 0 16 -4 16 -10z m1590 -5 c-7 -9 -19 -14 -26
-11 -6 2 -14 -4 -17 -15 -5 -19 -37 -28 -37 -10 0 14 53 50 74 51 15 0 16 -2
6 -15z m-1700 -5 c0 -5 -4 -10 -10 -10 -5 0 -10 5 -10 10 0 6 5 10 10 10 6 0
10 -4 10 -10z m234 -11 c-3 -5 -10 -7 -15 -3 -5 3 -7 10 -3 15 3 5 10 7 15 3
5 -3 7 -10 3 -15z m336 0 c0 -5 -4 -9 -10 -9 -5 0 -10 7 -10 16 0 8 5 12 10 9
6 -3 10 -10 10 -16z m332 6 c0 -5 -5 -11 -11 -13 -6 -2 -11 4 -11 13 0 9 5 15
11 13 6 -2 11 -8 11 -13z m82 6 c3 -5 -1 -11 -9 -15 -9 -3 -15 0 -15 9 0 16
16 20 24 6z m-1299 -11 c3 -5 -1 -10 -9 -10 -9 0 -16 5 -16 10 0 6 4 10 9 10
6 0 13 -4 16 -10z m595 0 c0 -5 -4 -10 -10 -10 -5 0 -10 5 -10 10 0 6 5 10 10
10 6 0 10 -4 10 -10z m668 -1 c-2 -6 -8 -10 -13 -10 -5 0 -11 4 -13 10 -2 6 4
11 13 11 9 0 15 -5 13 -11z m-1210 -10 c-2 -6 -8 -10 -13 -10 -5 0 -11 4 -13
10 -2 6 4 11 13 11 9 0 15 -5 13 -11z m52 -10 c0 -5 -7 -9 -15 -9 -15 0 -20
12 -9 23 8 8 24 -1 24 -14z m1070 6 c0 -8 -4 -15 -9 -15 -13 0 -22 16 -14 24
11 11 23 6 23 -9z m-410 -3 c0 -13 -12 -22 -22 -16 -10 6 -1 24 13 24 5 0 9
-4 9 -8z m745 -2 c3 -5 1 -10 -4 -10 -6 0 -11 5 -11 10 0 6 2 10 4 10 3 0 8
-4 11 -10z m-1355 -8 c0 -13 -12 -22 -22 -16 -10 6 -1 24 13 24 5 0 9 -4 9 -8z
m655 -2 c-3 -5 -11 -10 -16 -10 -6 0 -7 5 -4 10 3 6 11 10 16 10 6 0 7 -4 4
-10z m655 -11 c0 -5 -7 -9 -15 -9 -15 0 -20 12 -9 23 8 8 24 -1 24 -14z m-953
-4 c0 -8 -4 -12 -9 -9 -5 3 -6 10 -3 15 9 13 12 11 12 -6z m57 -3 c3 -5 -1 -9
-9 -9 -8 0 -12 4 -9 9 3 4 7 8 9 8 2 0 6 -4 9 -8z m306 -7 c0 -8 -4 -15 -10
-15 -5 0 -10 7 -10 15 0 8 5 15 10 15 6 0 10 -7 10 -15z m365 5 c3 -5 -1 -10
-9 -10 -8 0 -18 5 -21 10 -3 6 1 10 9 10 8 0 18 -4 21 -10z m85 2 c0 -5 -6 -9
-12 -10 -7 0 -23 -4 -35 -7 -14 -5 -23 -3 -23 3 0 9 20 17 58 21 6 0 12 -3 12
-7z m-1140 -12 c0 -5 -5 -10 -11 -10 -5 0 -7 5 -4 10 3 6 8 10 11 10 2 0 4 -4
4 -10z m1735 -20 c-5 -8 -11 -8 -17 -2 -6 6 -7 16 -3 22 5 8 11 8 17 2 6 -6 7
-16 3 -22z m-730 10 c3 -5 -1 -10 -9 -10 -9 0 -16 5 -16 10 0 6 4 10 9 10 6 0
13 -4 16 -10z m350 0 c3 -5 1 -10 -4 -10 -6 0 -11 5 -11 10 0 6 2 10 4 10 3 0
8 -4 11 -10z m-1545 -9 c0 -12 -20 -25 -27 -18 -7 7 6 27 18 27 5 0 9 -4 9 -9z
m750 -1 c0 -5 -4 -10 -10 -10 -5 0 -10 5 -10 10 0 6 5 10 10 10 6 0 10 -4 10
-10z m-702 -12 c-3 -7 -11 -13 -18 -13 -7 0 -15 6 -17 13 -3 7 4 12 17 12 13
0 20 -5 18 -12z m442 2 c0 -5 -4 -10 -10 -10 -5 0 -10 5 -10 10 0 6 5 10 10
10 6 0 10 -4 10 -10z m320 6 c0 -11 -19 -15 -25 -6 -3 5 1 10 9 10 9 0 16 -2
16 -4z m680 -6 c0 -5 -2 -10 -4 -10 -3 0 -8 5 -11 10 -3 6 -1 10 4 10 6 0 11
-4 11 -10z m-1398 -15 c0 -5 -5 -11 -11 -13 -6 -2 -11 4 -11 13 0 9 5 15 11
13 6 -2 11 -8 11 -13z m148 5 c0 -5 -4 -10 -9 -10 -6 0 -13 5 -16 10 -3 6 1
10 9 10 9 0 16 -4 16 -10z m310 -11 c0 -6 -4 -7 -10 -4 -5 3 -10 11 -10 16 0
6 5 7 10 4 6 -3 10 -11 10 -16z m800 6 c0 -8 -4 -15 -10 -15 -5 0 -10 7 -10
15 0 8 5 15 10 15 6 0 10 -7 10 -15z m-480 -11 c0 -8 -4 -12 -10 -9 -5 3 -10
10 -10 16 0 5 5 9 10 9 6 0 10 -7 10 -16z m390 6 c0 -5 -4 -10 -10 -10 -5 0
-10 5 -10 10 0 6 5 10 10 10 6 0 10 -4 10 -10z m50 -5 c0 -8 -4 -15 -9 -15
-13 0 -22 16 -14 24 11 11 23 6 23 -9z m569 -11 c-15 -18 -22 -13 -13 10 3 9
10 13 16 10 5 -3 4 -12 -3 -20z m-1739 0 c0 -17 -22 -14 -28 4 -2 7 3 12 12
12 9 0 16 -7 16 -16z m540 12 c0 -3 -4 -8 -10 -11 -5 -3 -10 -1 -10 4 0 6 5
11 10 11 6 0 10 -2 10 -4z m-405 -16 c3 -5 1 -10 -4 -10 -6 0 -11 5 -11 10 0
6 2 10 4 10 3 0 8 -4 11 -10z m170 0 c-3 -5 -10 -10 -16 -10 -5 0 -9 5 -9 10
0 6 7 10 16 10 8 0 12 -4 9 -10z m285 0 c0 -5 -5 -10 -11 -10 -5 0 -7 5 -4 10
3 6 8 10 11 10 2 0 4 -4 4 -10z m480 0 c0 -5 -7 -10 -16 -10 -8 0 -12 5 -9 10
3 6 10 10 16 10 5 0 9 -4 9 -10z m-420 -9 c0 -6 -4 -13 -10 -16 -5 -3 -10 1
-10 9 0 9 5 16 10 16 6 0 10 -4 10 -9z m-608 -16 c0 -5 -5 -11 -11 -13 -6 -2
-11 4 -11 13 0 9 5 15 11 13 6 -2 11 -8 11 -13z m208 5 c0 -5 -2 -10 -4 -10
-3 0 -8 5 -11 10 -3 6 -1 10 4 10 6 0 11 -4 11 -10z m125 0 c-3 -5 -11 -10
-16 -10 -6 0 -7 5 -4 10 3 6 11 10 16 10 6 0 7 -4 4 -10z m865 -16 c0 -16 -16
-19 -25 -4 -8 13 4 32 16 25 5 -4 9 -13 9 -21z m145 16 c3 -5 -1 -10 -9 -10
-9 0 -16 5 -16 10 0 6 4 10 9 10 6 0 13 -4 16 -10z m-249 -27 c-10 -10 -19 5
-10 18 6 11 8 11 12 0 2 -7 1 -15 -2 -18z m59 -11 c-8 -9 -25 20 -18 31 3 5
10 2 15 -7 6 -10 7 -20 3 -24z m499 29 c3 -5 -1 -11 -9 -15 -9 -3 -15 0 -15 9
0 16 16 20 24 6z m316 1 c0 -13 -12 -22 -22 -16 -10 6 -1 24 13 24 5 0 9 -4 9
-8z m-1490 -6 c0 -3 -4 -8 -10 -11 -5 -3 -10 -1 -10 4 0 6 5 11 10 11 6 0 10
-2 10 -4z m200 -6 c0 -5 -4 -10 -10 -10 -5 0 -10 5 -10 10 0 6 5 10 10 10 6 0
10 -4 10 -10z m-640 -21 c0 -5 -4 -9 -10 -9 -5 0 -10 7 -10 16 0 8 5 12 10 9
6 -3 10 -10 10 -16z m1543 0 c-8 -8 -13 -7 -18 2 -5 8 -4 10 3 5 7 -4 12 -2
12 5 0 7 3 9 7 6 4 -4 2 -12 -4 -18z m337 6 c0 -8 -7 -15 -15 -15 -16 0 -20
12 -8 23 11 12 23 8 23 -8z m-1625 -5 c3 -5 -1 -10 -10 -10 -9 0 -13 5 -10 10
3 6 8 10 10 10 2 0 7 -4 10 -10z m235 0 c0 -5 -4 -10 -10 -10 -5 0 -10 5 -10
10 0 6 5 10 10 10 6 0 10 -4 10 -10z m520 2 c0 -5 -7 -9 -15 -9 -8 0 -15 4
-15 9 0 4 7 8 15 8 8 0 15 -4 15 -8z m470 -2 c0 -5 -2 -10 -4 -10 -3 0 -8 5
-11 10 -3 6 -1 10 4 10 6 0 11 -4 11 -10z m-920 -4 c0 -3 -4 -8 -10 -11 -5 -3
-10 -1 -10 4 0 6 5 11 10 11 6 0 10 -2 10 -4z m1280 -11 c0 -8 -7 -15 -16 -15
-14 0 -14 3 -4 15 7 8 14 15 16 15 2 0 4 -7 4 -15z m-655 -23 c-8 -8 -25 10
-19 20 4 6 9 5 15 -3 4 -7 6 -15 4 -17z m-1140 8 c3 -5 1 -10 -4 -10 -6 0 -11
5 -11 10 0 6 2 10 4 10 3 0 8 -4 11 -10z m1035 0 c0 -5 -5 -10 -11 -10 -5 0
-7 5 -4 10 3 6 8 10 11 10 2 0 4 -4 4 -10z m60 -5 c0 -8 -4 -15 -10 -15 -5 0
-10 7 -10 15 0 8 5 15 10 15 6 0 10 -7 10 -15z m-930 1 c0 -3 -4 -8 -10 -11
-5 -3 -10 -1 -10 4 0 6 5 11 10 11 6 0 10 -2 10 -4z m415 -6 c3 -5 1 -10 -4
-10 -6 0 -11 5 -11 10 0 6 2 10 4 10 3 0 8 -4 11 -10z m1175 -4 c0 -8 -4 -17
-9 -21 -12 -7 -24 12 -16 25 9 15 25 12 25 -4z m-1700 -6 c0 -5 -4 -10 -10
-10 -5 0 -10 5 -10 10 0 6 5 10 10 10 6 0 10 -4 10 -10z m55 0 c3 -5 1 -10 -4
-10 -6 0 -11 5 -11 10 0 6 2 10 4 10 3 0 8 -4 11 -10z m315 0 c0 -5 -4 -10
-10 -10 -5 0 -10 5 -10 10 0 6 5 10 10 10 6 0 10 -4 10 -10z m549 -19 c-15 -5
-22 6 -14 19 6 9 10 9 16 -1 5 -8 4 -15 -2 -18z m-484 9 c3 -5 1 -10 -4 -10
-6 0 -11 5 -11 10 0 6 2 10 4 10 3 0 8 -4 11 -10z m845 0 c0 -5 -4 -10 -10
-10 -5 0 -10 5 -10 10 0 6 5 10 10 10 6 0 10 -4 10 -10z m-996 -9 c3 -5 -1
-11 -9 -14 -9 -4 -12 -1 -8 9 6 16 10 17 17 5z m719 -34 c-3 -5 -9 -3 -14 4
-4 7 -5 17 -2 22 3 5 9 3 14 -4 4 -7 5 -17 2 -22z m112 23 c3 -5 -1 -10 -9
-10 -9 0 -16 5 -16 10 0 6 4 10 9 10 6 0 13 -4 16 -10z m537 -22 c-15 -15 -26
-4 -18 18 5 13 9 15 18 6 9 -9 9 -15 0 -24z m-587 12 c3 -5 1 -10 -4 -10 -6 0
-11 5 -11 10 0 6 2 10 4 10 3 0 8 -4 11 -10z m-715 -4 c0 -3 -4 -8 -10 -11 -5
-3 -10 -1 -10 4 0 6 5 11 10 11 6 0 10 -2 10 -4z m985 -6 c3 -6 -1 -7 -9 -4
-18 7 -21 14 -7 14 6 0 13 -4 16 -10z m-915 -10 c0 -5 -4 -10 -10 -10 -5 0
-10 5 -10 10 0 6 5 10 10 10 6 0 10 -4 10 -10z m520 -6 c0 -8 -4 -12 -10 -9
-5 3 -10 10 -10 16 0 5 5 9 10 9 6 0 10 -7 10 -16z m205 -14 c3 -5 1 -10 -4
-10 -6 0 -11 5 -11 10 0 6 2 10 4 10 3 0 8 -4 11 -10z m240 0 c3 -5 1 -10 -4
-10 -6 0 -11 5 -11 10 0 6 2 10 4 10 3 0 8 -4 11 -10z m207 -5 c0 -5 -5 -11
-11 -13 -6 -2 -11 4 -11 13 0 9 5 15 11 13 6 -2 11 -8 11 -13z m-572 -11 c0
-8 -5 -12 -10 -9 -6 4 -8 11 -5 16 9 14 15 11 15 -7z m73 2 c4 -10 1 -13 -8
-9 -8 3 -12 9 -9 14 7 12 11 11 17 -5z m362 -6 c-3 -5 -10 -10 -16 -10 -5 0
-9 5 -9 10 0 6 7 10 16 10 8 0 12 -4 9 -10z m75 0 c0 -5 -7 -10 -16 -10 -8 0
-12 5 -9 10 3 6 10 10 16 10 5 0 9 -4 9 -10z m-1310 -14 c0 -3 -4 -8 -10 -11
-5 -3 -10 -1 -10 4 0 6 5 11 10 11 6 0 10 -2 10 -4z m175 -6 c-3 -5 -10 -10
-16 -10 -5 0 -9 5 -9 10 0 6 7 10 16 10 8 0 12 -4 9 -10z m559 -6 c3 -8 2 -12
-4 -9 -6 3 -10 10 -10 16 0 14 7 11 14 -7z m236 -15 c0 -6 -4 -7 -10 -4 -5 3
-10 11 -10 16 0 6 5 7 10 4 6 -3 10 -11 10 -16z m-705 -9 c3 -5 -1 -10 -10
-10 -9 0 -13 5 -10 10 3 6 8 10 10 10 2 0 7 -4 10 -10z m565 0 c0 -5 -4 -10
-10 -10 -5 0 -10 5 -10 10 0 6 5 10 10 10 6 0 10 -4 10 -10z m-1280 -9 c0 -12
-28 -22 -34 -12 -3 5 -3 11 1 15 9 9 33 7 33 -3z m50 -1 c0 -5 -9 -10 -21 -10
-11 0 -17 5 -14 10 3 6 13 10 21 10 8 0 14 -4 14 -10z m541 -13 c-10 -9 -11
-8 -5 6 3 10 9 15 12 12 3 -3 0 -11 -7 -18z m-651 4 c0 -14 -18 -23 -30 -16
-6 4 -8 11 -5 16 8 12 35 12 35 0z m-65 -11 c-3 -5 -10 -10 -16 -10 -5 0 -9 5
-9 10 0 6 7 10 16 10 8 0 12 -4 9 -10z m220 0 c-3 -5 -10 -10 -16 -10 -5 0 -9
5 -9 10 0 6 7 10 16 10 8 0 12 -4 9 -10z m1110 0 c3 -5 1 -10 -4 -10 -6 0 -11
5 -11 10 0 6 2 10 4 10 3 0 8 -4 11 -10z m-1065 -21 c0 -5 -4 -9 -10 -9 -5 0
-10 7 -10 16 0 8 5 12 10 9 6 -3 10 -10 10 -16z m552 -11 c-7 -7 -12 -8 -12
-2 0 14 12 26 19 19 2 -3 -1 -11 -7 -17z m-442 2 c0 -5 -4 -10 -10 -10 -5 0
-10 5 -10 10 0 6 5 10 10 10 6 0 10 -4 10 -10z m57 4 c-3 -3 -12 -4 -19 -1 -8
3 -5 6 6 6 11 1 17 -2 13 -5z m1003 -4 c0 -5 -2 -10 -4 -10 -3 0 -8 5 -11 10
-3 6 -1 10 4 10 6 0 11 -4 11 -10z m-730 -4 c0 -3 -4 -8 -10 -11 -5 -3 -10 -1
-10 4 0 6 5 11 10 11 6 0 10 -2 10 -4z m-135 -16 c-3 -5 -12 -10 -18 -10 -7 0
-6 4 3 10 19 12 23 12 15 0z m785 -11 c0 -5 -4 -9 -10 -9 -5 0 -10 7 -10 16 0
8 5 12 10 9 6 -3 10 -10 10 -16z m824 6 c-7 -17 -20 -20 -28 -6 -7 10 3 21 20
21 8 0 11 -6 8 -15z m-44 -5 c0 -12 -28 -25 -36 -17 -9 9 6 27 22 27 8 0 14
-5 14 -10z m-2083 -12 c-2 -7 -16 -12 -30 -10 -14 1 -28 -2 -32 -8 -7 -11 -25
-4 -25 10 0 8 12 10 78 18 8 1 12 -4 9 -10z m63 2 c0 -5 -9 -10 -21 -10 -11 0
-17 5 -14 10 3 6 13 10 21 10 8 0 14 -4 14 -10z m682 -12 c-7 -7 -12 -8 -12
-2 0 14 12 26 19 19 2 -3 -1 -11 -7 -17z m-637 3 c10 -17 -12 -21 -25 -6 -10
12 -10 15 3 15 9 0 18 -4 22 -9z m1300 -1 c3 -5 1 -10 -4 -10 -6 0 -11 5 -11
10 0 6 2 10 4 10 3 0 8 -4 11 -10z m235 -6 c0 -2 -7 -4 -15 -4 -8 0 -15 4 -15
10 0 5 7 7 15 4 8 -4 15 -8 15 -10z m374 1 c-4 -8 -12 -15 -20 -15 -17 0 -18
17 -1 23 22 9 27 7 21 -8z m-1864 -21 c0 -8 -4 -12 -10 -9 -5 3 -10 10 -10 16
0 5 5 9 10 9 6 0 10 -7 10 -16z m1545 -4 c3 -5 -1 -10 -9 -10 -9 0 -16 5 -16
10 0 6 4 10 9 10 6 0 13 -4 16 -10z m263 -2 c-6 -18 -28 -21 -28 -4 0 9 7 16
16 16 9 0 14 -5 12 -12z m208 -15 c-10 -10 -19 5 -10 18 6 11 8 11 12 0 2 -7
1 -15 -2 -18z m-1966 1 c0 -8 -4 -12 -10 -9 -5 3 -10 10 -10 16 0 5 5 9 10 9
6 0 10 -7 10 -16z m-210 -9 c0 -8 -6 -15 -14 -15 -20 0 -29 17 -14 23 22 9 28
7 28 -8z m60 5 c0 -5 -9 -10 -21 -10 -11 0 -17 5 -14 10 3 6 13 10 21 10 8 0
14 -4 14 -10z m530 0 c0 -5 -4 -10 -10 -10 -5 0 -10 5 -10 10 0 6 5 10 10 10
6 0 10 -4 10 -10z m1180 0 c0 -5 -7 -10 -15 -10 -8 0 -15 5 -15 10 0 6 7 10
15 10 8 0 15 -4 15 -10z m140 -5 c0 -8 -7 -15 -15 -15 -16 0 -20 12 -8 23 11
12 23 8 23 -8z m-1960 1 c0 -2 -7 -9 -15 -16 -12 -10 -15 -10 -15 4 0 9 7 16
15 16 8 0 15 -2 15 -4z m155 -5 c7 -12 -12 -24 -25 -16 -11 7 -4 25 10 25 5 0
11 -4 15 -9z m165 -1 c0 -5 -4 -10 -10 -10 -5 0 -10 5 -10 10 0 6 5 10 10 10
6 0 10 -4 10 -10z m54 -11 c-3 -5 -10 -7 -15 -3 -5 3 -7 10 -3 15 3 5 10 7 15
3 5 -3 7 -10 3 -15z m56 11 c0 -5 -4 -10 -10 -10 -5 0 -10 5 -10 10 0 6 5 10
10 10 6 0 10 -4 10 -10z m1458 -2 c-6 -18 -28 -21 -28 -4 0 9 7 16 16 16 9 0
14 -5 12 -12z m302 -4 c0 -8 -5 -12 -10 -9 -6 4 -8 11 -5 16 9 14 15 11 15 -7z
m-40 -9 c0 -8 -7 -15 -15 -15 -16 0 -20 12 -8 23 11 12 23 8 23 -8z m-495 -5
c3 -5 1 -10 -4 -10 -6 0 -11 5 -11 10 0 6 2 10 4 10 3 0 8 -4 11 -10z m-1457
-18 c2 -7 -3 -12 -12 -12 -9 0 -16 7 -16 16 0 17 22 14 28 -4z m407 8 c-3 -5
-11 -10 -16 -10 -6 0 -7 5 -4 10 3 6 11 10 16 10 6 0 7 -4 4 -10z m800 0 c3
-5 1 -10 -4 -10 -6 0 -11 5 -11 10 0 6 2 10 4 10 3 0 8 -4 11 -10z m695 -10
c-12 -21 -25 -26 -35 -11 -3 6 3 14 12 20 27 16 35 13 23 -9z m-1860 -31 c0
-5 -4 -9 -10 -9 -5 0 -10 7 -10 16 0 8 5 12 10 9 6 -3 10 -10 10 -16z m320 11
c0 -5 -5 -10 -11 -10 -5 0 -7 5 -4 10 3 6 8 10 11 10 2 0 4 -4 4 -10z m1150 0
c0 -5 -4 -10 -10 -10 -5 0 -10 5 -10 10 0 6 5 10 10 10 6 0 10 -4 10 -10z
m327 -15 c-4 -8 -11 -15 -17 -15 -14 0 -13 27 3 33 16 6 21 1 14 -18z m211 4
c-2 -6 -8 -10 -13 -10 -5 0 -11 4 -13 10 -2 6 4 11 13 11 9 0 15 -5 13 -11z
m-2258 -14 c0 -8 -7 -15 -15 -15 -16 0 -20 12 -8 23 11 12 23 8 23 -8z m55 6
c7 -12 -12 -24 -25 -16 -11 7 -4 25 10 25 5 0 11 -4 15 -9z m55 -6 c0 -8 -4
-15 -9 -15 -13 0 -22 16 -14 24 11 11 23 6 23 -9z m1335 5 c3 -5 1 -10 -4 -10
-6 0 -11 5 -11 10 0 6 2 10 4 10 3 0 8 -4 11 -10z m-1294 -13 c-1 -12 -15 -9
-19 4 -3 6 1 10 8 8 6 -3 11 -8 11 -12z m149 -3 c0 -8 -4 -12 -10 -9 -5 3 -10
10 -10 16 0 5 5 9 10 9 6 0 10 -7 10 -16z m1295 7 c3 -5 1 -12 -5 -16 -5 -3
-10 1 -10 9 0 18 6 21 15 7z m195 -1 c0 -5 -2 -10 -4 -10 -3 0 -8 5 -11 10 -3
6 -1 10 4 10 6 0 11 -4 11 -10z m200 1 c0 -12 -20 -25 -27 -18 -7 7 6 27 18
27 5 0 9 -4 9 -9z m224 -6 c-7 -16 -24 -21 -24 -6 0 8 7 13 27 20 1 1 0 -6 -3
-14z m-356 -7 c-3 -7 -11 -13 -18 -13 -7 0 -15 6 -17 13 -3 7 4 12 17 12 13 0
20 -5 18 -12z m-1498 -8 c0 -5 -4 -10 -9 -10 -6 0 -13 5 -16 10 -3 6 1 10 9
10 9 0 16 -4 16 -10z m1563 -5 c-6 -17 -25 -15 -31 3 -2 7 5 12 17 12 14 0 19
-5 14 -15z m-1508 -5 c-3 -5 -10 -10 -16 -10 -5 0 -9 5 -9 10 0 6 7 10 16 10
8 0 12 -4 9 -10z m1765 0 c0 -5 -7 -10 -16 -10 -8 0 -12 5 -9 10 3 6 10 10 16
10 5 0 9 -4 9 -10z m-1989 -13 c-1 -12 -15 -9 -19 4 -3 6 1 10 8 8 6 -3 11 -8
11 -12z m529 3 c0 -5 -7 -10 -16 -10 -8 0 -12 5 -9 10 3 6 10 10 16 10 5 0 9
-4 9 -10z m925 -10 c3 -5 2 -10 -4 -10 -5 0 -13 5 -16 10 -3 6 -2 10 4 10 5 0
13 -4 16 -10z m484 -16 c-14 -18 -24 -11 -15 11 3 9 11 13 16 10 8 -5 7 -11
-1 -21z m135 -9 c-4 -8 -10 -12 -15 -9 -11 6 -2 24 11 24 5 0 7 -7 4 -15z
m-2024 -5 c0 -5 -7 -10 -16 -10 -8 0 -12 5 -9 10 3 6 10 10 16 10 5 0 9 -4 9
-10z m1460 -10 c0 -5 -2 -10 -4 -10 -3 0 -8 5 -11 10 -3 6 -1 10 4 10 6 0 11
-4 11 -10z m375 1 c3 -5 1 -12 -4 -15 -5 -3 -11 1 -15 9 -6 16 9 21 19 6z
m155 -13 c0 -16 -3 -19 -11 -11 -6 6 -8 16 -5 22 11 17 16 13 16 -11z m-725 2
c3 -5 1 -10 -4 -10 -6 0 -11 5 -11 10 0 6 2 10 4 10 3 0 8 -4 11 -10z m-1225
-21 c0 -5 -4 -9 -10 -9 -5 0 -10 7 -10 16 0 8 5 12 10 9 6 -3 10 -10 10 -16z
m1743 -4 c-3 -8 -9 -15 -14 -15 -10 0 -12 24 -3 33 11 11 24 -3 17 -18z
m-1383 5 c0 -5 -5 -10 -11 -10 -5 0 -7 5 -4 10 3 6 8 10 11 10 2 0 4 -4 4 -10z
m1560 -15 c0 -8 -4 -15 -10 -15 -5 0 -10 7 -10 15 0 8 5 15 10 15 6 0 10 -7
10 -15z m-1870 -16 c0 -5 -7 -9 -15 -9 -8 0 -15 7 -15 15 0 9 6 12 15 9 8 -4
15 -10 15 -15z m1500 11 c0 -5 -7 -10 -15 -10 -8 0 -15 5 -15 10 0 6 7 10 15
10 8 0 15 -4 15 -10z m133 -5 c-6 -17 -25 -15 -31 3 -2 7 5 12 17 12 14 0 19
-5 14 -15z m-418 -5 c3 -5 1 -10 -4 -10 -6 0 -11 5 -11 10 0 6 2 10 4 10 3 0
8 -4 11 -10z m355 0 c0 -5 -6 -10 -14 -10 -8 0 -18 5 -21 10 -3 6 3 10 14 10
12 0 21 -4 21 -10z m260 -31 c0 -5 -7 -9 -15 -9 -15 0 -20 12 -9 23 8 8 24 -1
24 -14z m-1730 -9 c0 -5 -2 -10 -4 -10 -3 0 -8 5 -11 10 -3 6 -1 10 4 10 6 0
11 -4 11 -10z m1682 -42 c-15 -15 -26 -4 -18 18 5 13 9 15 18 6 9 -9 9 -15 0
-24z m-472 -18 c0 -5 -2 -10 -4 -10 -3 0 -8 5 -11 10 -3 6 -1 10 4 10 6 0 11
-4 11 -10z m424 -15 c-4 -8 -10 -15 -15 -15 -5 0 -9 7 -9 15 0 8 7 15 15 15 9
0 12 -6 9 -15z m-52 -37 c-6 -6 -16 -7 -22 -3 -9 6 -9 9 1 16 17 10 34 0 21
-13z m-52 -17 c0 -14 -18 -23 -30 -16 -6 4 -8 11 -5 16 8 12 35 12 35 0z
m-145 -11 c3 -5 1 -10 -4 -10 -6 0 -11 5 -11 10 0 6 2 10 4 10 3 0 8 -4 11
-10z m75 -5 c0 -8 -7 -15 -15 -15 -26 0 -18 20 13 29 1 1 2 -6 2 -14z"/>
<path d="M1407 2109 c7 -7 15 -10 18 -7 3 3 -2 9 -12 12 -14 6 -15 5 -6 -5z"/>
<path d="M1527 1914 c-4 -4 -7 -14 -7 -23 0 -11 3 -12 11 -4 6 6 10 16 7 23
-2 6 -7 8 -11 4z"/>
<path d="M995 1847 c-4 -10 -5 -21 -1 -24 10 -10 18 4 13 24 -4 17 -4 17 -12
0z"/>
<path d="M463 2740 c3 -11 1 -20 -4 -20 -4 0 -6 -7 -2 -15 9 -26 28 -11 30 23
1 23 -3 32 -14 32 -10 0 -14 -6 -10 -20z"/>
<path d="M2090 2670 c-29 -6 -23 -8 33 -9 43 -1 66 3 62 9 -7 11 -42 11 -95 0z"/>
<path d="M500 2660 c0 -6 69 -11 173 -12 94 0 209 -2 254 -3 45 -2 97 1 115 5
20 5 -34 8 -142 9 -96 1 -226 3 -287 6 -69 3 -113 1 -113 -5z"/>
<path d="M1620 2660 c-87 -5 -72 -6 90 -7 107 -1 220 2 250 7 68 9 -180 9
-340 0z"/>
</g>
</svg>
