<?xml version="1.0" standalone="no"?>
<!DOCTYPE svg PUBLIC "-//W3C//DTD SVG 20010904//EN"
 "http://www.w3.org/TR/2001/REC-SVG-20010904/DTD/svg10.dtd">
<svg version="1.0" xmlns="http://www.w3.org/2000/svg"
 width="291.000000pt" height="291.000000pt" viewBox="0 0 291.000000 291.000000"
 preserveAspectRatio="xMidYMid meet">

<g transform="translate(0.000000,291.000000) scale(0.100000,-0.100000)"
fill="#000000" stroke="none">
<path d="M777 2793 c-4 -92 -9 -118 -21 -125 -9 -5 -14 -14 -11 -19 4 -5 11
-7 16 -4 5 4 9 -6 9 -21 0 -53 10 -16 26 97 29 202 28 189 7 189 -18 0 -20 -9
-26 -117z"/>
<path d="M1405 2900 c8 -13 75 -13 95 0 11 7 -2 10 -43 10 -36 0 -56 -4 -52
-10z"/>
<path d="M2629 2873 c0 -21 -3 -32 -6 -25 -2 6 -11 12 -19 12 -10 0 -14 -12
-14 -40 0 -22 5 -40 10 -40 6 0 10 -22 10 -49 0 -28 4 -52 9 -56 5 -3 25 -35
43 -72 32 -63 70 -113 87 -113 17 0 40 -38 59 -100 19 -59 21 -62 21 -29 1 20
4 50 7 67 6 28 9 30 40 25 l34 -6 0 232 0 231 -140 0 -140 0 -1 -37z"/>
<path d="M765 2560 c-4 -6 -4 -28 1 -48 l7 -37 10 38 c10 39 -3 72 -18 47z"/>
<path d="M760 2370 c0 -5 5 -10 10 -10 6 0 10 5 10 10 0 6 -4 10 -10 10 -5 0
-10 -4 -10 -10z"/>
<path d="M2802 2228 c-39 -39 10 -133 66 -126 22 2 28 9 33 40 5 33 2 41 -26
68 -33 32 -54 37 -73 18z"/>
<path d="M767 2130 c-9 -59 -10 -130 -2 -138 12 -13 16 12 13 99 -3 92 -3 93
-11 39z"/>
<path d="M840 2145 c-6 -11 -6 -200 0 -475 l3 -165 8 140 c9 136 0 520 -11
500z"/>
<path d="M758 1804 c-3 -388 -3 -476 5 -481 4 -2 7 -52 8 -111 0 -59 5 -116
10 -127 8 -19 8 64 -6 689 -3 110 -7 201 -10 204 -3 3 -6 -75 -7 -174z"/>
<path d="M831 1354 c0 -11 3 -14 6 -6 3 7 2 16 -1 19 -3 4 -6 -2 -5 -13z"/>
<path d="M1710 1250 c-85 -16 -193 -37 -240 -48 -103 -24 -137 -32 -360 -78
-291 -61 -531 -121 -547 -138 -3 -2 3 -46 14 -98 14 -74 22 -95 39 -103 12 -6
29 -17 38 -24 17 -14 98 -172 92 -178 -6 -6 -161 -17 -222 -16 -59 2 -62 0
-67 -24 -5 -24 -4 -25 52 -19 167 17 254 20 314 10 25 -4 73 2 135 16 200 46
234 66 262 150 13 39 14 40 25 19 19 -34 23 -12 20 96 -2 120 4 149 33 153 16
3 29 -9 54 -47 18 -27 42 -52 53 -55 11 -3 117 -8 235 -11 118 -4 226 -8 240
-8 24 -2 25 1 27 63 4 104 13 150 33 170 18 18 18 21 0 98 -9 44 -20 85 -24
91 -10 15 -27 13 -206 -19z m42 -86 c-12 -8 -27 -12 -32 -9 -6 4 -9 1 -8 -6 2
-6 -2 -13 -9 -16 -6 -2 -10 4 -9 14 3 16 30 30 66 32 9 1 6 -5 -8 -15z m-75
-10 c-3 -3 -12 -4 -19 -1 -8 3 -5 6 6 6 11 1 17 -2 13 -5z m-234 -61 c-7 -2
-19 -2 -25 0 -7 3 -2 5 12 5 14 0 19 -2 13 -5z m-62 -24 c-12 -12 -24 -19 -27
-16 -7 6 25 37 39 37 6 0 1 -9 -12 -21z m-180 -39 c14 -8 19 -20 18 -48 -2
-30 -3 -32 -6 -9 -4 27 -23 39 -23 15 0 -7 -7 -4 -16 7 -10 13 -17 16 -22 9
-13 -20 -70 -25 -87 -8 -13 14 -15 14 -15 -1 0 -12 -6 -16 -20 -12 -12 3 -18
1 -14 -5 5 -7 -3 -9 -22 -4 -21 5 -25 4 -14 -4 8 -5 28 -10 43 -10 16 0 26 -4
23 -9 -20 -32 42 -60 103 -46 22 5 31 13 32 28 1 17 2 18 6 5 5 -21 19 -23 26
-5 3 6 6 1 6 -13 1 -39 -13 -54 -37 -41 -32 17 -35 14 -30 -34 5 -38 3 -45
-12 -45 -10 0 -20 6 -23 13 -2 6 -8 8 -13 4 -5 -4 -2 -12 6 -18 13 -8 13 -10
0 -19 -21 -13 -54 -12 -68 2 -9 9 -12 9 -12 0 0 -7 -12 -12 -26 -12 -20 0 -25
4 -20 16 3 8 2 13 -3 10 -4 -3 -26 10 -47 28 -32 27 -40 41 -42 72 -1 22 -5
51 -8 66 -6 29 -8 29 181 62 101 18 112 18 136 6z m-121 -60 c0 -5 -5 -10 -11
-10 -5 0 -7 5 -4 10 3 6 8 10 11 10 2 0 4 -4 4 -10z m687 4 c-3 -3 -12 -4 -19
-1 -8 3 -5 6 6 6 11 1 17 -2 13 -5z m-937 -34 c0 -16 -4 -30 -10 -30 -5 0 -10
14 -10 30 0 17 5 30 10 30 6 0 10 -13 10 -30z m873 23 c-7 -2 -21 -2 -30 0
-10 3 -4 5 12 5 17 0 24 -2 18 -5z m-933 -23 c0 -21 -24 -27 -50 -10 -12 7
-10 11 10 19 36 14 40 13 40 -9z m750 13 c-88 -15 -130 -19 -130 -12 0 4 12
10 28 12 36 5 134 6 102 0z m-747 -175 c-3 -40 -7 -75 -10 -78 -8 -9 -33 33
-33 57 0 30 26 93 39 93 5 0 7 -30 4 -72z m54 25 c-3 -10 -5 -4 -5 12 0 17 2
24 5 18 2 -7 2 -21 0 -30z m101 -51 c2 -7 -7 -12 -23 -12 -22 0 -24 2 -13 15
15 16 30 15 36 -3z m211 -4 c-8 -7 -24 -13 -36 -12 -13 1 -23 -3 -23 -7 0 -5
-4 -9 -10 -9 -24 0 5 28 38 36 43 12 49 10 31 -8z"/>
<path d="M1092 873 c-31 -6 -17 -23 19 -23 19 0 29 4 27 12 -5 14 -15 17 -46
11z"/>
<path d="M2735 839 c-38 -4 -107 -7 -152 -8 -54 -1 -83 -5 -83 -12 0 -8 -4 -8
-12 -1 -7 5 -24 9 -38 7 -14 -1 -31 -3 -39 -4 -9 -1 -11 -9 -8 -23 6 -22 5
-22 -8 -4 -14 18 -15 18 -21 2 -4 -11 -1 -22 7 -27 11 -7 9 -9 -7 -9 -17 0
-20 5 -16 30 3 19 0 30 -8 30 -7 0 -10 -6 -7 -14 3 -8 -1 -22 -8 -33 -20 -25
-18 -36 3 -31 20 5 46 -17 37 -31 -10 -17 18 -24 30 -8 15 21 26 22 19 2 -4
-8 -1 -15 5 -15 19 0 13 40 -6 41 -14 0 -15 2 -3 6 8 3 18 11 22 17 5 6 8 1 8
-13 0 -20 4 -22 25 -17 19 5 23 3 19 -9 -3 -8 -10 -12 -15 -9 -5 3 -9 0 -9 -5
0 -14 4 -14 47 4 41 17 46 18 39 6 -3 -5 6 -21 19 -35 14 -15 25 -31 25 -36 0
-13 58 -6 72 8 8 8 8 15 -2 27 -15 18 0 20 19 3 11 -10 14 -10 18 0 3 6 11 12
19 12 19 0 18 19 -1 26 -8 4 -15 15 -15 25 0 24 16 25 23 0 6 -23 53 -33 68
-15 12 15 2 19 -30 14 -12 -1 -13 1 -3 13 10 12 10 16 0 20 -10 4 -10 6 0 6 7
1 15 -6 18 -14 8 -19 31 -19 51 1 13 13 18 13 25 2 8 -10 11 -10 15 0 8 21 21
13 15 -10 -3 -14 -2 -19 6 -14 7 4 12 28 12 54 l0 47 -53 0 c-28 0 -83 -2
-122 -6z m-262 -44 c-3 -9 -8 -14 -10 -11 -3 3 -2 9 2 15 9 16 15 13 8 -4z
m367 1 c0 -2 -7 -7 -16 -10 -8 -3 -12 -2 -9 4 6 10 25 14 25 6z m-360 -36 c0
-5 -5 -10 -11 -10 -5 0 -7 5 -4 10 3 6 8 10 11 10 2 0 4 -4 4 -10z m110 0 c0
-5 -12 -10 -27 -9 l-28 1 25 8 c14 4 26 8 28 9 1 1 2 -3 2 -9z m99 -31 c1 8 3
12 6 9 3 -3 2 -13 -1 -22 -5 -14 -9 -15 -15 -4 -5 7 -8 20 -8 28 0 10 3 8 9
-5 5 -12 9 -14 9 -6z m-89 7 c0 -2 -7 -9 -15 -16 -13 -11 -14 -10 -9 4 5 14
24 23 24 12z m18 -55 c3 -8 -1 -12 -9 -9 -7 2 -15 10 -17 17 -3 8 1 12 9 9 7
-2 15 -10 17 -17z"/>
<path d="M1290 830 c0 -5 5 -10 11 -10 5 0 7 5 4 10 -3 6 -8 10 -11 10 -2 0
-4 -4 -4 -10z"/>
<path d="M2195 810 c4 -6 11 -8 16 -5 14 9 11 15 -7 15 -8 0 -12 -5 -9 -10z"/>
<path d="M2284 809 c-5 -8 -2 -10 8 -6 12 4 14 1 10 -15 -3 -15 -1 -19 9 -16
20 7 18 42 -3 46 -9 2 -20 -2 -24 -9z"/>
<path d="M2140 803 c0 -5 11 -13 25 -20 21 -9 25 -9 25 4 0 8 -4 12 -9 8 -5
-3 -12 -1 -16 5 -7 12 -25 14 -25 3z"/>
<path d="M2063 785 c-13 -14 1 -35 24 -35 17 0 17 18 0 34 -10 10 -15 10 -24
1z"/>
<path d="M2228 789 c-10 -5 -18 -15 -18 -21 0 -9 3 -9 11 -1 6 6 18 9 26 6 11
-4 10 -8 -4 -18 -16 -12 -16 -14 0 -29 15 -16 17 -15 23 11 4 15 11 34 17 41
6 8 6 12 -1 12 -6 0 -16 2 -24 5 -7 2 -21 0 -30 -6z"/>
<path d="M2101 741 c-9 -16 -6 -18 17 -17 19 1 29 7 29 19 2 23 -33 22 -46 -2z"/>
<path d="M2842 755 c4 -5 3 -14 -4 -22 -6 -7 -8 -16 -5 -19 3 -3 -6 -16 -20
-28 -15 -13 -23 -28 -19 -34 10 -17 26 -15 26 4 0 9 7 14 18 13 9 -1 28 3 42
9 14 6 21 11 15 12 -5 0 -3 5 5 10 13 8 12 11 -5 25 -24 19 -63 41 -53 30z"/>
<path d="M1740 719 c0 -5 5 -7 10 -4 6 3 10 8 10 11 0 2 -4 4 -10 4 -5 0 -10
-5 -10 -11z"/>
<path d="M1995 720 c3 -5 10 -10 16 -10 5 0 9 5 9 10 0 6 -7 10 -16 10 -8 0
-12 -4 -9 -10z"/>
<path d="M2280 720 c0 -5 7 -10 15 -10 8 0 15 5 15 10 0 6 -7 10 -15 10 -8 0
-15 -4 -15 -10z"/>
<path d="M2160 710 c0 -5 5 -10 10 -10 6 0 10 5 10 10 0 6 -4 10 -10 10 -5 0
-10 -4 -10 -10z"/>
<path d="M2200 700 c0 -5 5 -10 10 -10 6 0 10 5 10 10 0 6 -4 10 -10 10 -5 0
-10 -4 -10 -10z"/>
<path d="M2755 697 c-4 -10 -5 -21 -1 -24 10 -10 18 4 13 24 -4 17 -4 17 -12
0z"/>
<path d="M2294 672 c-25 -26 -32 -52 -14 -52 6 0 10 9 10 20 0 24 34 43 60 35
11 -4 20 -2 20 3 0 5 -12 12 -26 15 -20 3 -33 -2 -50 -21z"/>
<path d="M2040 680 c0 -5 5 -10 10 -10 6 0 10 5 10 10 0 6 -4 10 -10 10 -5 0
-10 -4 -10 -10z"/>
<path d="M2245 680 c3 -5 10 -10 16 -10 5 0 9 5 9 10 0 6 -7 10 -16 10 -8 0
-12 -4 -9 -10z"/>
<path d="M2450 680 c0 -6 11 -22 25 -36 14 -14 25 -29 25 -33 0 -5 7 -14 15
-21 20 -16 19 0 -1 28 -8 12 -13 32 -10 45 3 12 3 16 0 10 -8 -17 -19 -16 -38
3 -9 9 -16 11 -16 4z"/>
<path d="M2160 670 c0 -5 7 -10 15 -10 8 0 15 5 15 10 0 6 -7 10 -15 10 -8 0
-15 -4 -15 -10z"/>
<path d="M2533 673 c-7 -2 -9 -11 -6 -19 6 -16 53 -20 53 -4 0 6 -6 10 -14 10
-8 0 -16 4 -18 9 -1 4 -8 6 -15 4z"/>
<path d="M2020 656 c0 -9 5 -16 10 -16 6 0 10 4 10 9 0 6 -4 13 -10 16 -5 3
-10 -1 -10 -9z"/>
<path d="M2424 650 c0 -11 6 -20 11 -20 14 0 13 32 -1 37 -6 2 -11 -5 -10 -17z"/>
<path d="M2205 650 c-17 -7 -15 -9 13 -9 17 -1 32 4 32 9 0 12 -17 12 -45 0z"/>
<path d="M2382 648 c-14 -14 -16 -42 -2 -33 14 9 32 45 22 45 -4 0 -13 -5 -20
-12z"/>
<path d="M2703 645 c-18 -8 -33 -21 -33 -29 0 -8 -6 -16 -12 -19 -7 -2 -10 -8
-6 -12 4 -4 13 -3 21 3 10 8 16 6 27 -11 21 -32 20 -46 -1 -44 -10 1 -19 7
-19 14 0 14 -28 17 -54 7 -9 -3 -14 -10 -11 -14 3 -5 -4 -6 -15 -3 -11 3 -20
0 -20 -6 0 -6 -4 -11 -10 -11 -5 0 -7 8 -3 18 6 16 5 16 -14 -1 -16 -14 -22
-15 -25 -5 -4 10 -11 9 -31 -5 -28 -18 -62 -23 -52 -8 3 5 0 13 -6 17 -12 7
-31 -15 -23 -28 3 -4 -6 -8 -20 -8 -14 0 -26 5 -26 10 0 6 -8 10 -17 11 -11 0
-13 3 -5 6 15 6 16 33 2 33 -6 0 -13 -7 -15 -15 -17 -53 -16 -51 -26 -33 -5
10 -16 15 -24 12 -8 -4 -12 -11 -8 -17 4 -7 -78 -8 -273 -4 -423 10 -689 45
-804 107 -11 6 -20 7 -20 2 0 -5 11 -15 25 -22 13 -7 22 -17 19 -22 -3 -4 5
-8 18 -8 13 0 45 -7 71 -15 111 -34 255 -54 567 -80 180 -15 572 -8 835 16
191 17 195 17 195 43 0 15 -9 26 -27 34 -19 8 -21 10 -5 6 23 -6 44 22 25 35
-6 3 -13 13 -16 21 -3 9 -6 4 -6 -12 -1 -17 -7 -28 -15 -28 -8 0 -18 -9 -21
-21 -4 -11 -9 -18 -12 -15 -4 3 -12 1 -20 -6 -11 -8 -12 -7 -7 6 5 13 2 15
-12 10 -16 -6 -17 -5 -6 7 18 19 15 26 -15 34 -15 3 -32 12 -36 18 -5 7 -7 3
-4 -10 4 -18 1 -23 -15 -23 -16 0 -18 4 -12 22 4 13 14 28 23 35 25 18 9 23
-26 8z m63 -85 c0 -22 -11 -26 -22 -9 -5 9 5 22 21 29 1 0 1 -9 1 -20z"/>
<path d="M2117 643 c-10 -9 -9 -23 2 -23 5 0 11 7 15 15 5 15 -5 20 -17 8z"/>
<path d="M2851 643 c4 -26 -2 -35 -15 -24 -10 8 -16 9 -21 1 -12 -19 5 -30 30
-18 24 11 35 48 15 48 -5 0 -9 -3 -9 -7z"/>
<path d="M2895 640 c3 -5 8 -10 11 -10 2 0 4 5 4 10 0 6 -5 10 -11 10 -5 0 -7
-4 -4 -10z"/>
<path d="M1865 630 c3 -5 8 -10 11 -10 2 0 4 5 4 10 0 6 -5 10 -11 10 -5 0 -7
-4 -4 -10z"/>
<path d="M2775 630 c-7 -12 2 -30 16 -30 5 0 9 9 9 20 0 21 -15 27 -25 10z"/>
<path d="M1780 620 c0 -5 5 -10 10 -10 6 0 10 5 10 10 0 6 -4 10 -10 10 -5 0
-10 -4 -10 -10z"/>
<path d="M2145 621 c-3 -5 -1 -12 5 -16 5 -3 10 1 10 9 0 18 -6 21 -15 7z"/>
<path d="M2312 618 c5 -15 28 -23 28 -10 0 5 -7 13 -16 16 -10 4 -14 1 -12 -6z"/>
<path d="M2197 614 c-8 -8 1 -24 14 -24 5 0 9 7 9 15 0 15 -12 20 -23 9z"/>
<path d="M2540 610 c0 -5 5 -10 11 -10 5 0 7 5 4 10 -3 6 -8 10 -11 10 -2 0
-4 -4 -4 -10z"/>
<path d="M2041 594 c0 -11 3 -14 6 -6 3 7 2 16 -1 19 -3 4 -6 -2 -5 -13z"/>
<path d="M2237 603 c-13 -12 -7 -33 8 -33 8 0 15 9 15 20 0 20 -11 26 -23 13z"/>
<path d="M2603 594 c-3 -8 -12 -13 -19 -10 -16 6 -44 -3 -44 -14 0 -13 36 -18
53 -8 22 12 42 48 27 48 -6 0 -13 -7 -17 -16z"/>
<path d="M1937 593 c-7 -11 4 -63 13 -63 10 0 10 59 0 65 -5 3 -11 2 -13 -2z"/>
<path d="M2092 584 c4 -22 35 -31 51 -15 13 13 9 18 -27 27 -24 6 -27 4 -24
-12z"/>
<path d="M1596 582 c-3 -6 -1 -14 5 -17 15 -10 25 3 12 16 -7 7 -13 7 -17 1z"/>
<path d="M1752 568 c7 -13 14 -25 16 -27 1 -3 12 6 23 18 12 12 18 25 14 29
-3 3 -11 0 -16 -8 -8 -11 -12 -12 -16 -2 -2 6 -11 12 -19 12 -12 0 -12 -4 -2
-22z"/>
<path d="M2441 576 c-9 -10 -9 -16 -1 -21 17 -10 37 12 24 25 -8 8 -15 6 -23
-4z"/>
<path d="M2480 570 c0 -19 20 -27 33 -13 8 7 -11 33 -24 33 -5 0 -9 -9 -9 -20z"/>
<path d="M1975 560 c-3 -5 -1 -10 4 -10 6 0 11 5 11 10 0 6 -2 10 -4 10 -3 0
-8 -4 -11 -10z"/>
<path d="M2190 560 c0 -5 9 -10 20 -10 11 0 20 5 20 10 0 6 -9 10 -20 10 -11
0 -20 -4 -20 -10z"/>
<path d="M2253 563 c-21 -8 -15 -18 11 -19 17 -1 23 2 19 12 -5 15 -10 16 -30
7z"/>
<path d="M2370 546 c0 -14 5 -28 10 -31 6 -4 10 7 10 24 0 17 -4 31 -10 31 -5
0 -10 -11 -10 -24z"/>
<path d="M1685 550 c3 -5 13 -10 21 -10 8 0 14 5 14 10 0 6 -9 10 -21 10 -11
0 -17 -4 -14 -10z"/>
<path d="M1890 550 c0 -5 5 -10 10 -10 6 0 10 -8 11 -17 0 -15 2 -15 8 2 5 11
7 23 4 28 -6 11 -33 9 -33 -3z"/>
<path d="M2073 546 c2 -6 16 -12 31 -14 35 -4 26 14 -9 20 -16 4 -24 1 -22 -6z"/>
<path d="M2153 533 c9 -9 19 -14 23 -11 10 10 -6 28 -24 28 -15 0 -15 -1 1
-17z"/>
<path d="M1990 530 c0 -5 7 -10 15 -10 8 0 15 5 15 10 0 6 -7 10 -15 10 -8 0
-15 -4 -15 -10z"/>
<path d="M2220 529 c0 -5 9 -9 20 -9 11 0 20 2 20 4 0 2 -9 6 -20 9 -11 3 -20
1 -20 -4z"/>
<path d="M2055 520 c-3 -5 1 -10 10 -10 9 0 13 5 10 10 -3 6 -8 10 -10 10 -2
0 -7 -4 -10 -10z"/>
<path d="M750 508 c-14 -6 -89 -13 -167 -16 l-143 -5 -2 -41 c-3 -68 2 -120
14 -127 13 -8 -5 -65 -20 -62 -5 1 -13 -4 -16 -12 -3 -8 0 -15 7 -15 9 0 11
-29 9 -115 l-3 -115 351 0 352 0 -2 108 c-3 137 -4 129 28 135 50 9 167 56
152 61 -8 3 -49 11 -90 19 -41 8 -83 18 -94 22 -15 7 -17 5 -12 -12 5 -17 -1
-24 -41 -41 -83 -35 -136 -44 -251 -40 l-111 3 6 -30 c3 -16 12 -35 20 -42 9
-7 10 -14 4 -17 -5 -4 -12 -2 -16 4 -10 17 -23 11 -28 -13 -3 -12 -4 14 -4 58
1 55 5 85 16 98 21 25 122 53 220 62 l85 7 -45 17 c-24 10 -53 23 -65 30 -17
11 -25 11 -51 -2 -51 -27 -203 -43 -350 -38 -38 1 -43 4 -43 24 0 33 65 48
228 55 72 2 132 7 132 9 0 2 -5 13 -10 24 -12 21 -23 23 -60 7z m-283 -375
c-3 -10 -5 -4 -5 12 0 17 2 24 5 18 2 -7 2 -21 0 -30z m258 -111 c-3 -3 -11 0
-18 7 -9 10 -8 11 6 5 10 -3 15 -9 12 -12z"/>
<path d="M431 284 c0 -11 3 -14 6 -6 3 7 2 16 -1 19 -3 4 -6 -2 -5 -13z"/>
<path d="M1509 227 c-17 -34 -24 -37 -169 -55 -62 -8 -160 -7 -187 3 -7 2 -13
0 -13 -4 0 -5 5 -11 11 -13 16 -5 21 -61 7 -69 -8 -5 2 -22 29 -48 l41 -41
172 0 c153 0 171 2 166 16 -3 9 -6 25 -6 35 0 11 -4 17 -10 14 -5 -3 -10 -2
-10 4 0 5 4 11 10 13 6 2 1 22 -11 46 -21 41 -21 43 -4 62 23 25 83 42 123 34
17 -4 44 -3 59 1 22 6 9 11 -67 21 -127 17 -123 18 -141 -19z m-24 -57 c3 -5
1 -10 -4 -10 -6 0 -11 5 -11 10 0 6 2 10 4 10 3 0 8 -4 11 -10z"/>
<path d="M1918 204 c37 -19 42 -48 11 -64 -64 -35 -209 -57 -269 -41 l-35 9
33 13 c17 7 32 17 32 21 0 11 -3 10 -36 -7 -16 -8 -39 -15 -51 -15 -21 0 -23
-4 -23 -60 0 -61 12 -79 25 -37 5 17 8 18 12 7 3 -8 11 -18 17 -22 6 -4 91 -8
189 -8 l178 0 -6 43 c-6 40 -5 44 22 56 15 7 45 22 67 33 25 13 67 22 117 25
44 3 78 7 76 9 -2 2 -79 12 -173 23 -93 11 -180 23 -194 26 -20 5 -18 3 8 -11z"/>
<path d="M2544 125 c101 -36 129 -70 90 -109 -14 -15 -3 -16 118 -16 124 1
131 2 106 16 -16 8 -28 23 -28 33 0 27 35 54 59 46 15 -5 21 -2 21 9 0 9 -3
16 -7 16 -5 0 -84 7 -178 15 -93 8 -188 15 -210 14 -39 0 -38 0 29 -24z"/>
<path d="M2320 70 c-12 -8 -11 -10 8 -10 12 0 22 5 22 10 0 13 -11 13 -30 0z"/>
<path d="M1163 3 c9 -2 23 -2 30 0 6 3 -1 5 -18 5 -16 0 -22 -2 -12 -5z"/>
</g>
</svg>
