<?xml version="1.0" standalone="no"?>
<!DOCTYPE svg PUBLIC "-//W3C//DTD SVG 20010904//EN"
 "http://www.w3.org/TR/2001/REC-SVG-20010904/DTD/svg10.dtd">
<svg version="1.0" xmlns="http://www.w3.org/2000/svg"
 width="399.000000pt" height="402.000000pt" viewBox="0 0 399.000000 402.000000"
 preserveAspectRatio="xMidYMid meet">

<g transform="translate(0.000000,402.000000) scale(0.100000,-0.100000)"
fill="#000000" stroke="none">
<path d="M50 4010 c0 -5 5 -10 10 -10 6 0 10 -6 10 -14 0 -9 -7 -12 -20 -9
-11 3 -20 0 -20 -6 0 -6 3 -11 8 -11 16 -1 44 -29 37 -40 -5 -8 -11 -8 -21 1
-18 15 -29 6 -20 -17 3 -9 13 -14 20 -11 8 3 17 -1 20 -9 9 -24 7 -27 -9 -14
-19 15 -19 1 -1 -23 11 -14 15 -15 19 -5 3 7 6 2 6 -12 1 -15 -5 -32 -11 -38
-10 -10 -8 -14 10 -18 17 -5 21 -11 16 -30 -3 -13 -2 -24 4 -24 5 0 15 -21 22
-47 17 -65 55 -129 80 -136 11 -3 27 -21 35 -41 24 -57 105 -68 105 -15 0 11
-6 19 -12 19 -7 0 -2 9 12 19 30 24 42 18 34 -15 -4 -15 -2 -24 6 -24 7 0 9
-8 5 -20 -3 -11 -2 -20 3 -20 6 0 12 -17 14 -37 4 -34 1 -42 -34 -74 -33 -32
-38 -41 -38 -82 0 -29 8 -59 20 -79 11 -18 20 -43 20 -55 0 -13 5 -23 10 -23
6 0 10 9 10 20 0 11 6 20 14 20 23 0 31 -22 13 -35 -23 -17 -21 -25 6 -22 12
1 26 11 30 22 7 18 9 18 30 -9 16 -20 22 -38 19 -62 -5 -39 -19 -42 -56 -13
-28 22 -66 19 -66 -6 0 -7 -13 -16 -29 -20 -33 -7 -55 -28 -49 -47 3 -8 14 -3
32 15 27 27 46 28 46 3 0 -8 -7 -19 -15 -26 -20 -17 -19 -27 3 -26 9 1 17 -3
17 -9 0 -5 -7 -10 -16 -9 -13 0 -17 -8 -17 -33 0 -18 5 -33 10 -33 6 0 6 -5
-1 -14 -9 -11 -9 -16 -1 -21 7 -4 10 -16 7 -26 -3 -11 1 -26 9 -33 8 -8 14
-28 14 -45 0 -17 4 -31 10 -31 5 0 12 -16 16 -35 3 -20 12 -35 20 -35 12 0 11
-5 -2 -25 -16 -24 -18 -25 -35 -9 -10 9 -50 82 -90 163 -146 296 -209 422
-230 461 -5 8 -27 49 -48 90 l-40 75 -1 -848 0 -848 56 -107 c31 -59 58 -110
60 -113 2 -4 50 17 106 46 57 29 121 62 144 73 l41 21 -18 93 c-14 66 -19 137
-19 248 0 181 24 308 84 449 19 46 33 88 29 94 -3 6 -2 7 4 4 11 -7 48 61 44
82 -1 7 2 10 8 6 7 -4 8 2 2 17 -4 13 -14 23 -20 23 -17 0 -29 24 -24 46 3 11
0 19 -7 19 -8 0 -10 12 -5 40 4 26 3 40 -4 40 -6 0 -11 6 -11 14 0 8 8 12 23
9 15 -2 35 8 62 32 57 50 103 47 75 -5 -12 -23 -23 -148 -12 -134 5 5 33 36
64 69 52 56 88 119 57 100 -9 -6 -11 -4 -6 7 3 9 2 19 -3 24 -5 5 -31 68 -60
139 -28 72 -55 139 -59 150 -5 11 -73 180 -151 375 -78 195 -158 392 -178 438
l-37 82 -97 0 c-59 0 -98 -4 -98 -10z m460 -886 c0 -8 -5 -12 -10 -9 -6 4 -8
11 -5 16 9 14 15 11 15 -7z m-91 -303 c-15 -5 -22 6 -14 19 6 9 10 9 16 -1 5
-8 4 -15 -2 -18z m104 -268 c-4 -10 -9 -11 -19 -2 -19 15 -18 18 5 16 11 -1
17 -6 14 -14z m-8 -31 c-3 -3 -11 0 -18 7 -9 10 -8 11 6 5 10 -3 15 -9 12 -12z
m-55 -12 c0 -5 -5 -10 -11 -10 -5 0 -7 5 -4 10 3 6 8 10 11 10 2 0 4 -4 4 -10z
m10 -60 c0 -5 -2 -10 -4 -10 -3 0 -8 5 -11 10 -3 6 -1 10 4 10 6 0 11 -4 11
-10z"/>
<path d="M591 3973 c29 -74 144 -391 163 -453 10 -30 40 -113 66 -185 26 -71
61 -171 78 -220 57 -171 72 -194 105 -161 21 21 -43 321 -111 516 -16 47 -37
114 -47 150 -21 73 -32 91 -44 72 -9 -15 -31 27 -31 58 0 11 -4 20 -10 20 -5
0 -10 7 -10 15 0 9 -7 18 -15 21 -8 4 -15 13 -15 20 0 8 -6 17 -14 20 -8 3
-11 15 -8 30 2 14 0 24 -8 24 -6 0 -9 8 -5 18 12 40 -39 102 -83 102 l-30 0
19 -47z"/>
<path d="M1200 4011 c0 -4 11 -69 25 -142 21 -110 97 -579 122 -747 5 -37 8
-42 27 -36 12 4 22 8 24 9 1 1 -8 67 -22 146 -48 281 -59 354 -59 374 0 11
-10 54 -22 95 -13 41 -26 95 -29 120 -6 39 -13 76 -32 168 -4 20 -34 33 -34
13z"/>
<path d="M1994 3975 c15 -130 26 -253 36 -395 12 -192 29 -401 36 -457 4 -30
10 -43 21 -43 16 0 17 -11 -12 255 -14 123 -51 495 -62 615 -2 30 -9 60 -14
65 -7 7 -8 -7 -5 -40z"/>
<path d="M2112 4000 c0 -14 2 -19 5 -12 2 6 2 18 0 25 -3 6 -5 1 -5 -13z"/>
<path d="M3978 4010 c-3 -8 -11 -46 -18 -85 -6 -38 -20 -119 -30 -180 -10 -60
-24 -144 -30 -185 -7 -41 -21 -124 -32 -185 -24 -131 -55 -324 -68 -415 -5
-36 -16 -105 -25 -155 -30 -173 -35 -201 -55 -325 -25 -149 -67 -371 -75 -391
-7 -20 -84 -477 -97 -574 -5 -44 -11 -105 -11 -135 -2 -59 -9 -66 -45 -42 -12
8 -24 13 -27 11 -2 -2 -15 -51 -29 -107 -25 -100 -25 -105 -10 -175 8 -40 17
-88 20 -107 3 -19 8 -38 11 -42 2 -4 -22 -19 -54 -34 -58 -25 -58 -25 -120 -9
-42 12 -63 22 -63 32 0 9 -10 24 -22 34 -27 24 -17 24 34 -1 22 -11 45 -17 49
-14 12 7 3 128 -10 132 -5 2 -7 12 -4 22 3 11 0 20 -6 20 -5 0 -8 7 -5 15 4 8
2 15 -3 15 -5 0 -10 8 -10 18 1 9 0 31 -2 47 -1 26 -3 28 -12 12 -8 -14 -8
-22 0 -30 15 -15 14 -32 -2 -19 -10 9 -22 -5 -51 -61 -22 -40 -56 -95 -78
-124 -30 -41 -38 -61 -38 -95 0 -24 -9 -60 -20 -80 -12 -23 -16 -39 -10 -43 6
-4 10 -3 9 2 -5 29 2 33 30 18 16 -8 31 -20 34 -27 2 -7 8 -1 12 15 4 17 14
27 25 27 10 0 25 7 34 15 14 15 25 16 100 16 22 0 52 7 67 15 32 16 89 19 89
4 0 -5 9 -10 19 -10 11 0 22 -4 26 -10 3 -5 12 -7 19 -4 7 3 19 -2 26 -11 7
-8 19 -15 26 -15 17 0 104 -65 122 -91 7 -11 17 -19 23 -19 5 0 37 -22 70 -50
34 -27 65 -48 68 -46 9 6 36 -17 44 -36 3 -10 14 -18 24 -18 10 0 33 -14 52
-30 39 -34 41 -35 41 -15 0 8 -7 15 -15 15 -8 0 -19 9 -25 20 -6 11 -15 18
-20 15 -5 -3 -33 17 -62 45 -29 27 -60 52 -68 55 -8 3 -26 21 -39 40 -13 19
-30 35 -37 35 -35 0 -159 94 -148 112 11 17 -7 46 -40 63 -36 19 -71 69 -61
85 3 6 30 7 65 3 48 -5 61 -3 65 9 10 26 109 -2 194 -53 40 -24 88 -53 106
-64 19 -12 42 -28 53 -38 10 -9 22 -17 25 -17 4 0 7 40 7 89 l0 89 -67 41
c-80 49 -108 69 -102 75 10 9 122 -14 138 -28 26 -24 33 -20 29 16 -2 24 -9
34 -23 36 -11 2 -39 13 -62 23 -25 11 -64 19 -97 19 -58 0 -118 24 -150 59
-13 14 -14 24 -7 42 8 20 44 233 67 404 11 78 157 880 180 985 3 14 16 93 30
175 13 83 33 201 44 264 18 105 20 150 18 520 -2 223 -6 399 -10 391z"/>
<path d="M740 3950 c0 -8 5 -22 10 -30 9 -13 10 -13 10 0 0 8 -5 22 -10 30 -9
13 -10 13 -10 0z"/>
<path d="M2120 3927 c0 -9 7 -94 15 -189 15 -183 18 -227 35 -458 12 -171 18
-218 31 -226 11 -7 11 12 -1 133 -5 54 -16 184 -25 288 -17 210 -44 458 -51
464 -2 2 -4 -3 -4 -12z"/>
<path d="M755 3883 c5 -10 10 -33 13 -51 5 -36 22 -54 22 -24 0 23 -27 92 -36
92 -3 0 -3 -8 1 -17z"/>
<path d="M796 3751 c-4 -7 -5 -15 -2 -18 9 -9 19 4 14 18 -4 11 -6 11 -12 0z"/>
<path d="M384 3051 c3 -5 15 -7 26 -4 28 7 25 13 -6 13 -14 0 -23 -4 -20 -9z"/>
<path d="M585 2600 c-4 -6 -15 -8 -26 -5 -20 7 -22 1 -11 -26 6 -13 11 -11 30
13 13 15 21 28 18 28 -2 0 -8 -5 -11 -10z"/>
<path d="M2410 2563 c-245 -89 -952 -402 -1260 -557 -144 -73 -186 -98 -188
-115 -2 -11 1 -21 7 -21 6 0 34 -47 62 -105 28 -58 55 -105 61 -105 5 0 6 -5
3 -11 -8 -12 14 -70 29 -81 6 -4 30 -8 54 -8 23 0 42 -4 42 -9 0 -5 9 -11 20
-14 15 -4 20 -14 20 -42 0 -41 41 -120 68 -129 16 -6 16 -5 0 7 -15 12 -14 15
8 36 19 18 28 21 36 13 20 -20 80 -12 163 21 167 67 307 154 337 210 16 30 30
288 16 304 -7 9 -7 17 1 27 9 11 9 15 0 18 -7 2 -10 10 -8 17 3 8 13 3 29 -14
l24 -26 -22 -6 c-12 -3 -19 -10 -16 -15 3 -5 14 -2 25 8 18 16 20 16 47 -7 15
-13 29 -26 32 -29 65 -66 191 -143 218 -133 16 7 11 11 -58 48 -48 25 -200
160 -200 177 0 6 6 6 15 -2 8 -7 15 -9 15 -4 0 4 18 -9 40 -31 21 -21 36 -43
33 -49 -3 -6 -3 -8 2 -4 4 4 29 -10 54 -31 25 -21 56 -43 68 -50 31 -16 84
-14 129 5 55 23 171 105 222 157 l42 43 -15 43 c-28 79 -46 212 -34 246 10 27
7 40 -21 105 -29 68 -65 121 -79 119 -3 0 -13 -3 -21 -6z m77 -205 c-3 -8 -6
-5 -6 6 -1 11 2 17 5 13 3 -3 4 -12 1 -19z m17 -54 c4 -19 10 -42 13 -50 3 -8
1 -14 -4 -14 -5 0 -14 23 -19 50 -6 28 -7 50 -3 50 4 0 10 -16 13 -36z m-143
-72 c69 -63 78 -86 15 -39 -24 17 -41 35 -39 39 2 4 -2 10 -8 14 -8 5 -9 3 -4
-6 6 -10 4 -11 -11 -6 -40 17 -57 19 -50 8 4 -7 21 -15 38 -20 18 -4 34 -14
36 -21 5 -14 -9 -13 -53 5 -17 7 -18 6 -7 -8 7 -8 10 -23 6 -31 -5 -15 -8 -15
-28 0 l-23 17 21 17 c17 14 18 19 8 32 -17 20 -1 29 35 22 28 -6 28 -6 7 12
-11 10 -31 26 -45 36 -23 17 -23 17 9 0 19 -10 60 -42 93 -71z m-171 -112 c68
-46 123 -38 64 9 -15 12 -22 21 -16 21 12 0 52 -39 52 -51 0 -3 -7 -12 -15
-19 -12 -10 -13 -16 -4 -27 18 -21 2 -29 -19 -10 -10 10 -24 17 -30 17 -7 0
-12 5 -12 11 0 5 5 7 12 3 7 -4 8 -3 4 4 -4 7 -27 23 -52 38 -24 14 -44 28
-44 30 0 10 18 2 60 -26z m45 -98 c-3 -7 -5 -18 -5 -23 0 -5 -7 -9 -17 -9 -9
0 -13 3 -10 7 4 3 -1 15 -10 25 -16 18 -15 18 15 16 23 -2 31 -6 27 -16z m-85
-107 c19 -19 32 -35 29 -35 -3 0 -20 16 -39 35 -19 19 -32 35 -29 35 3 0 20
-16 39 -35z m58 -50 c-3 -3 -9 2 -12 12 -6 14 -5 15 5 6 7 -7 10 -15 7 -18z
m-1029 -245 c7 -21 14 -27 28 -24 14 4 27 -5 47 -33 l27 -38 -29 33 c-27 30
-62 46 -46 20 4 -6 -4 -3 -18 8 -14 10 -25 25 -24 33 1 9 -8 17 -19 19 -33 6
-38 19 -6 14 22 -3 32 -12 40 -32z"/>
<path d="M2258 2183 c7 -3 16 -2 19 1 4 3 -2 6 -13 5 -11 0 -14 -3 -6 -6z"/>
<path d="M2260 1810 c0 -6 -10 -15 -22 -20 -19 -7 -20 -9 -5 -9 25 -1 59 18
52 30 -8 12 -25 12 -25 -1z"/>
<path d="M3546 1705 c-3 -9 -5 -29 -5 -43 1 -20 3 -17 9 13 8 43 7 57 -4 30z"/>
<path d="M3522 1619 c1 -13 -9 -63 -22 -111 -23 -90 -22 -118 5 -118 9 0 15
10 16 28 3 66 5 88 10 97 10 17 10 99 0 114 -7 11 -9 8 -9 -10z"/>
<path d="M591 1560 c0 -8 6 -28 14 -45 17 -39 18 -21 0 25 -7 19 -14 28 -14
20z"/>
<path d="M269 1447 l-137 -72 35 -67 c19 -37 35 -76 36 -87 0 -11 4 -18 8 -15
4 2 15 -14 25 -36 18 -40 31 -48 50 -31 5 5 56 35 114 66 58 31 106 58 108 60
2 2 -15 54 -38 117 -23 62 -43 119 -46 126 -2 6 -7 12 -11 12 -4 0 -69 -33
-144 -73z m189 -100 c-14 -14 -53 -37 -62 -37 -17 0 -2 18 27 33 40 20 53 21
35 4z m-118 -72 c-7 -8 -20 -15 -29 -15 -13 1 -13 3 3 15 26 19 42 19 26 0z"/>
<path d="M1490 1379 c0 -5 5 -7 10 -4 6 3 10 8 10 11 0 2 -4 4 -10 4 -5 0 -10
-5 -10 -11z"/>
<path d="M0 1133 l0 -182 80 -167 c44 -91 80 -168 80 -170 0 -2 49 -110 90
-199 59 -128 81 -180 114 -265 39 -104 39 -108 16 -115 -49 -16 1 -25 135 -25
l143 0 7 28 c3 15 16 32 28 37 12 6 28 22 35 37 7 16 22 32 32 38 12 6 21 26
26 55 3 25 9 45 13 46 3 0 17 2 30 5 14 2 28 -1 33 -8 4 -7 8 -8 9 -3 6 66 21
110 59 170 37 60 46 75 75 133 31 62 50 66 105 22 21 -16 41 -30 44 -30 13 0
255 -120 261 -130 3 -5 15 -10 26 -10 14 0 19 -7 18 -27 0 -16 -3 -22 -6 -15
-8 21 -25 13 -18 -9 6 -19 4 -21 -19 -17 -24 5 -26 2 -26 -27 0 -19 -6 -35
-14 -38 -9 -4 -12 -14 -9 -25 3 -12 -3 -25 -15 -33 -10 -8 -24 -24 -31 -37 -6
-12 -18 -22 -26 -22 -15 0 -65 -42 -65 -56 0 -4 -10 -18 -21 -30 -37 -40 -19
-55 58 -52 l67 3 39 65 c21 36 62 114 92 173 l53 108 19 -33 c11 -18 35 -60
53 -93 18 -33 40 -68 48 -77 8 -10 29 -46 47 -80 l32 -63 109 -3 110 -3 -2
186 -3 185 47 0 c26 0 74 5 107 10 59 10 75 5 82 -22 2 -11 67 -197 86 -248 3
-8 12 -35 20 -60 l14 -45 121 -3 121 -3 -15 43 c-20 53 -54 187 -54 211 0 9
-10 38 -21 63 -17 36 -21 56 -16 100 5 47 3 55 -9 50 -43 -17 -177 -46 -209
-46 -20 0 -34 -3 -32 -8 3 -4 -97 -4 -221 0 -166 4 -249 11 -307 24 -44 11
-108 18 -142 17 -46 -2 -73 2 -100 17 -21 11 -47 21 -58 23 -11 2 -27 7 -35
10 -8 4 -28 9 -44 11 -16 3 -36 12 -45 20 -9 8 -20 15 -26 15 -23 2 -45 13
-40 21 2 4 -8 10 -23 13 -15 3 -69 35 -120 71 -52 37 -98 64 -103 60 -5 -3
-18 -22 -28 -43 -11 -20 -27 -44 -36 -51 -10 -8 -21 -25 -26 -38 -5 -14 -14
-20 -21 -16 -7 5 -8 3 -3 -6 5 -7 -2 -21 -19 -35 -14 -12 -24 -24 -21 -26 2
-3 -5 -5 -16 -6 -11 -1 -17 2 -14 8 8 12 -21 23 -36 13 -9 -5 -9 -10 2 -18 18
-14 21 -44 7 -79 -13 -34 -26 -31 -51 14 -10 19 -33 52 -50 73 -17 22 -40 63
-52 92 -12 29 -27 59 -34 67 -10 13 -9 17 6 25 10 6 15 14 11 18 -4 4 -15 1
-24 -6 -13 -12 -17 -11 -25 1 -10 16 -7 34 7 34 14 0 34 15 34 26 0 19 -31 21
-50 4 -18 -17 -20 -17 -20 -1 0 9 7 19 15 22 20 8 19 23 -2 46 -16 17 -16 20
0 35 11 11 17 13 17 5 0 -7 7 -12 15 -12 8 0 15 -6 15 -12 1 -9 5 -7 13 3 7 9
22 19 34 23 11 4 23 13 26 20 7 19 58 43 85 41 12 -1 22 4 22 12 0 17 -36 53
-46 45 -4 -4 -4 -1 0 5 4 7 -3 27 -17 45 -13 18 -39 59 -58 91 -33 56 -34 57
-42 32 -5 -14 -13 -25 -18 -25 -5 0 -9 -4 -9 -10 0 -6 9 -6 25 0 21 8 27 6 32
-8 4 -9 10 -20 15 -23 5 -3 11 -19 14 -35 3 -16 10 -32 16 -35 14 -9 -32 -93
-53 -97 -12 -2 -15 6 -12 43 3 39 1 45 -16 45 -25 0 -38 -19 -21 -30 7 -4 14
-21 15 -36 2 -16 4 -33 5 -39 6 -26 0 -37 -14 -26 -9 8 -21 8 -40 1 -21 -8
-26 -7 -26 5 0 22 -66 20 -74 -2 -4 -11 -1 -22 8 -29 9 -6 16 -16 16 -23 0 -6
4 -19 9 -29 5 -9 16 -32 23 -49 7 -18 16 -33 20 -33 5 0 8 -8 8 -19 0 -10 9
-30 20 -43 10 -14 26 -46 35 -71 14 -42 14 -50 1 -76 -14 -27 -14 -29 3 -24
13 3 20 -2 24 -19 16 -57 -3 -51 -50 16 -21 30 -44 55 -53 55 -58 2 -100 31
-100 69 0 13 2 13 18 -1 21 -20 97 -23 108 -5 4 6 -5 22 -22 36 -16 14 -28 32
-26 40 2 8 -1 11 -7 7 -6 -3 -11 1 -11 10 0 8 -7 18 -15 21 -8 4 -15 12 -15
20 0 8 -8 15 -17 16 -33 2 -38 4 -50 11 -8 5 -13 3 -13 -6 0 -8 14 -17 33 -21
21 -4 28 -9 19 -15 -7 -4 -10 -15 -6 -27 6 -18 6 -18 -9 1 -13 16 -19 17 -25
7 -6 -9 -22 14 -50 73 -46 95 -54 126 -19 74 23 -34 57 -56 93 -61 33 -5 30
16 -4 33 -18 9 -47 36 -64 60 -17 24 -40 50 -50 57 -22 16 -14 35 13 27 14 -5
19 -2 19 10 0 14 -6 16 -37 10 l-38 -7 20 23 c19 21 19 22 1 16 -15 -6 -17 -3
-13 13 3 11 1 23 -4 26 -5 3 -9 1 -9 -5 0 -21 -69 57 -94 106 -14 28 -30 54
-36 58 -13 8 -13 25 0 25 6 0 10 -6 10 -14 0 -7 7 -19 15 -26 22 -19 18 -5
-15 48 l-30 47 0 -182z m147 -115 c-3 -7 -5 -2 -5 12 0 14 2 19 5 13 2 -7 2
-19 0 -25z m179 -355 c-4 -4 -11 -1 -16 7 -16 25 -11 35 7 17 9 -9 13 -20 9
-24z m89 -191 c-8 -8 -35 20 -35 37 1 12 5 11 21 -8 11 -13 17 -26 14 -29z
m25 -36 c0 -8 -4 -18 -10 -21 -5 -3 -10 3 -10 14 0 12 5 21 10 21 6 0 10 -6
10 -14z m1135 -10 c36 -10 42 -14 24 -15 -15 -1 -42 6 -60 14 -43 18 -28 19
36 1z m-1011 -12 c9 -24 7 -27 -9 -10 -17 17 -19 26 -6 26 5 0 12 -7 15 -16z
m1168 -5 c16 -9 23 -8 29 2 6 10 9 10 9 2 0 -7 19 -14 43 -16 28 -2 18 -4 -30
-5 -39 -1 -74 2 -77 7 -3 4 -22 7 -42 4 -23 -2 -33 0 -29 7 8 13 71 13 97 -1z
m158 -19 c-19 -13 -30 -13 -30 0 0 6 10 10 23 10 18 0 19 -2 7 -10z m-1419
-45 c13 -13 33 -25 44 -26 11 0 14 -3 8 -6 -18 -7 -16 -33 4 -55 16 -18 16
-20 -4 -39 l-21 -21 -12 37 c-7 20 -23 55 -36 78 -13 23 -24 45 -24 50 0 14
18 7 41 -18z"/>
<path d="M3735 1250 c-4 -6 -5 -14 -2 -17 7 -7 203 -43 235 -43 35 0 26 28
-15 45 -49 21 -208 32 -218 15z"/>
<path d="M80 1165 c0 -12 28 -35 44 -35 11 0 -5 26 -24 38 -17 10 -20 10 -20
-3z"/>
<path d="M444 1129 c-3 -6 -27 -20 -51 -31 -25 -11 -53 -28 -64 -39 -18 -18
-19 -18 -34 11 -9 17 -18 30 -20 30 -8 0 4 -59 17 -79 14 -24 58 -16 58 10 0
11 6 19 14 19 8 0 21 9 29 20 17 25 77 39 77 19 0 -11 2 -11 9 0 6 9 6 22 0
33 -11 20 -25 23 -35 7z"/>
<path d="M496 1065 c4 -8 10 -15 15 -15 5 0 9 7 9 15 0 8 -7 15 -15 15 -9 0
-12 -6 -9 -15z"/>
<path d="M367 1023 c-11 -10 -8 -20 8 -27 9 -3 19 3 25 14 9 17 7 20 -8 20
-10 0 -22 -3 -25 -7z"/>
<path d="M405 980 c-10 -11 -15 -23 -12 -27 4 -3 7 -2 7 4 0 6 6 11 13 10 35
-1 46 4 41 18 -8 21 -28 19 -49 -5z"/>
<path d="M316 981 c-3 -4 3 -19 14 -31 15 -18 20 -19 20 -7 0 36 -21 60 -34
38z"/>
<path d="M3376 942 l-19 -27 24 22 c12 12 21 24 18 27 -2 2 -13 -8 -23 -22z"/>
<path d="M472 941 c2 -7 7 -12 11 -12 12 1 9 15 -3 20 -7 2 -11 -2 -8 -8z"/>
<path d="M710 919 c-1 -16 -30 -39 -77 -60 -30 -13 -49 -36 -39 -46 2 -3 22 7
45 21 22 14 43 26 47 26 3 0 16 8 29 18 20 16 21 20 9 37 -10 14 -14 15 -14 4z"/>
<path d="M300 880 c0 -5 5 -10 10 -10 6 0 10 5 10 10 0 6 -4 10 -10 10 -5 0
-10 -4 -10 -10z"/>
<path d="M750 878 c0 -3 9 -15 20 -28 11 -13 20 -19 20 -13 0 5 -9 18 -20 28
-11 10 -20 16 -20 13z"/>
<path d="M795 820 c-3 -6 1 -7 9 -4 12 5 16 0 16 -17 0 -19 -2 -21 -10 -9 -8
13 -10 13 -10 -2 0 -10 9 -26 21 -36 16 -15 25 -17 42 -9 22 10 21 10 -15 48
-40 42 -44 44 -53 29z"/>
<path d="M3260 811 c0 -6 5 -13 10 -16 6 -3 10 1 10 9 0 9 -4 16 -10 16 -5 0
-10 -4 -10 -9z"/>
<path d="M545 790 c-3 -5 1 -10 9 -10 9 0 16 5 16 10 0 6 -4 10 -9 10 -6 0
-13 -4 -16 -10z"/>
<path d="M3387 783 c-4 -3 -7 -11 -7 -17 0 -6 5 -5 12 2 6 6 9 14 7 17 -3 3
-9 2 -12 -2z"/>
<path d="M3671 774 c0 -11 3 -14 6 -6 3 7 2 16 -1 19 -3 4 -6 -2 -5 -13z"/>
<path d="M630 771 c0 -5 5 -13 10 -16 6 -3 10 -2 10 4 0 5 -4 13 -10 16 -5 3
-10 2 -10 -4z"/>
<path d="M3730 770 c0 -5 9 -14 20 -20 22 -12 27 -1 8 18 -14 14 -28 16 -28 2z"/>
<path d="M3336 745 c-3 -8 -17 -20 -31 -27 -14 -6 -25 -18 -25 -26 0 -12 4
-12 23 2 12 9 29 19 37 23 16 7 30 23 30 36 0 13 -28 7 -34 -8z"/>
<path d="M3547 713 c-9 -9 -9 -43 1 -43 4 0 7 11 7 25 0 14 0 25 -1 25 0 0 -4
-3 -7 -7z"/>
<path d="M2765 646 c-38 -25 -70 -49 -70 -55 0 -5 -3 -13 -8 -17 -4 -4 0 -15
8 -24 13 -15 14 -22 1 -58 -8 -22 -17 -72 -19 -110 -2 -38 -7 -74 -11 -80 -4
-7 -2 -22 5 -34 16 -30 180 -228 189 -228 18 0 55 68 56 105 0 22 4 56 8 75 6
31 5 33 -7 18 -7 -10 -20 -49 -27 -88 -11 -57 -16 -68 -26 -58 -9 9 -10 26 -4
58 19 104 21 283 5 355 -14 61 -25 132 -28 173 0 6 -1 12 -1 12 -1 0 -32 -20
-71 -44z"/>
<path d="M1090 630 c0 -5 5 -10 11 -10 5 0 7 5 4 10 -3 6 -8 10 -11 10 -2 0
-4 -4 -4 -10z"/>
<path d="M1210 596 c0 -2 7 -7 16 -10 8 -3 12 -2 9 4 -6 10 -25 14 -25 6z"/>
<path d="M3970 590 c0 -5 5 -10 10 -10 6 0 10 5 10 10 0 6 -4 10 -10 10 -5 0
-10 -4 -10 -10z"/>
<path d="M1170 579 c0 -5 5 -7 10 -4 6 3 10 8 10 11 0 2 -4 4 -10 4 -5 0 -10
-5 -10 -11z"/>
<path d="M1210 570 c8 -5 20 -10 25 -10 6 0 3 5 -5 10 -8 5 -19 10 -25 10 -5
0 -3 -5 5 -10z"/>
<path d="M736 545 c4 -8 8 -15 10 -15 2 0 4 7 4 15 0 8 -4 15 -10 15 -5 0 -7
-7 -4 -15z"/>
<path d="M2595 551 c-6 -4 -43 -21 -82 -36 -66 -25 -73 -31 -73 -55 0 -38 64
-120 93 -120 13 0 27 -4 33 -9 15 -14 74 -24 74 -12 0 5 -4 12 -9 15 -8 5 -11
44 -15 184 -1 43 -5 49 -21 33z"/>
<path d="M1318 543 c6 -2 9 -10 6 -15 -4 -7 -2 -8 5 -4 13 9 5 26 -12 25 -9 0
-8 -2 1 -6z"/>
<path d="M1415 500 c3 -5 13 -10 21 -10 8 0 12 5 9 10 -3 6 -13 10 -21 10 -8
0 -12 -4 -9 -10z"/>
<path d="M1 218 l-1 -208 88 0 c64 0 97 5 127 19 28 14 34 20 20 21 -22 1 -55
22 -55 36 0 5 -16 22 -35 37 -39 31 -44 47 -17 48 10 0 12 3 5 6 -7 2 -13 10
-13 17 0 7 -13 25 -30 41 -16 15 -35 44 -41 64 -6 20 -17 50 -24 66 -7 17 -15
37 -18 45 -3 8 -6 -78 -6 -192z"/>
<path d="M2927 365 c-9 -22 8 -26 21 -4 10 15 10 19 -2 19 -8 0 -16 -7 -19
-15z"/>
<path d="M2032 340 c-9 -23 -6 -239 3 -267 3 -10 11 -10 31 -2 39 14 52 6 46
-30 -3 -24 0 -31 12 -31 12 0 16 9 16 34 0 19 4 37 9 40 5 3 11 19 13 35 4 24
1 29 -15 25 -15 -2 -25 11 -49 64 -17 37 -31 79 -30 93 1 14 -4 34 -12 45 -14
18 -15 18 -24 -6z"/>
<path d="M2480 288 c0 -13 9 -60 21 -104 12 -43 26 -99 33 -124 l11 -45 128
-3 c70 -1 127 1 127 6 0 13 -40 62 -50 62 -42 0 -200 110 -200 138 0 5 -9 17
-20 27 -11 10 -20 24 -20 30 0 7 -7 18 -15 25 -13 10 -15 9 -15 -12z"/>
</g>
</svg>
