<?xml version="1.0" standalone="no"?>
<!DOCTYPE svg PUBLIC "-//W3C//DTD SVG 20010904//EN"
 "http://www.w3.org/TR/2001/REC-SVG-20010904/DTD/svg10.dtd">
<svg version="1.0" xmlns="http://www.w3.org/2000/svg"
 width="401.000000pt" height="402.000000pt" viewBox="0 0 401.000000 402.000000"
 preserveAspectRatio="xMidYMid meet">

<g transform="translate(0.000000,402.000000) scale(0.100000,-0.100000)"
fill="#000000" stroke="none">
<path d="M0 4004 c0 -14 3 -15 18 -3 9 7 19 15 21 16 2 2 -5 3 -17 3 -14 0
-22 -6 -22 -16z"/>
<path d="M320 4015 c0 -12 203 -362 229 -395 44 -56 47 -83 11 -135 l-31 -44
71 -36 c72 -36 87 -59 56 -84 -17 -14 -10 -47 12 -57 10 -4 91 -9 182 -10 91
-2 219 -8 285 -15 218 -21 382 2 586 86 74 30 125 45 154 45 25 0 45 4 45 10
0 6 -19 7 -47 4 -47 -6 -45 -4 57 48 58 30 116 60 129 67 37 20 22 -9 -19 -36
-18 -13 -26 -23 -18 -23 7 0 19 5 25 11 8 8 19 6 39 -8 16 -10 25 -13 22 -8
-4 6 4 30 16 55 19 37 33 49 96 81 85 43 259 110 297 114 14 1 28 7 32 14 6 9
44 24 172 67 22 8 30 -57 18 -144 -11 -75 -1 -112 36 -136 12 -8 31 -33 42
-55 l20 -41 16 43 c71 196 89 243 96 249 8 9 312 -369 418 -520 67 -96 153
-254 153 -282 0 -5 -31 6 -70 25 -77 39 -88 42 -70 20 11 -13 10 -14 -4 -9
-10 4 -15 12 -12 20 3 8 -21 26 -67 50 -40 20 -90 47 -112 59 -22 12 -85 46
-140 75 -55 29 -109 59 -121 67 -20 13 -22 12 -28 -19 -4 -23 -2 -36 7 -43 23
-17 39 -54 32 -76 -13 -41 25 -121 85 -180 32 -31 63 -66 69 -78 7 -11 20 -21
29 -21 34 0 63 -32 99 -112 l37 -81 82 -39 c87 -40 113 -48 76 -22 -12 8 -22
20 -22 26 0 6 8 4 18 -5 23 -21 43 -22 36 -2 -4 8 -1 15 6 15 8 0 11 -11 8
-31 -4 -26 1 -37 31 -65 20 -18 43 -34 51 -34 8 0 31 17 50 37 19 21 27 32 17
24 -13 -11 -11 -1 10 45 37 81 39 222 5 334 -37 120 -123 297 -141 293 -11 -3
-26 36 -17 44 3 3 -6 14 -20 25 -13 11 -31 32 -39 47 -7 15 -29 46 -47 68 -18
21 -42 52 -53 67 -11 16 -35 48 -52 71 -18 24 -33 46 -33 49 0 3 -9 15 -20 26
-11 11 -20 27 -20 36 0 8 -4 13 -9 9 -5 -3 -31 23 -57 57 -26 35 -53 70 -60
78 -8 8 -40 46 -71 85 -32 38 -66 78 -75 89 -17 18 -16 21 22 62 22 24 40 46
40 49 0 3 -596 5 -1325 5 -729 0 -1325 -2 -1325 -5z m2712 -1010 c0 -5 -5 -11
-11 -13 -6 -2 -11 4 -11 13 0 9 5 15 11 13 6 -2 11 -8 11 -13z m82 -1 c9 -23
7 -34 -5 -34 -6 0 -9 7 -5 15 3 8 1 15 -4 15 -6 0 -10 5 -10 10 0 16 17 12 24
-6z m166 -160 c0 -8 -4 -12 -10 -9 -5 3 -10 10 -10 16 0 5 5 9 10 9 6 0 10 -7
10 -16z m260 -14 c0 -5 -2 -10 -4 -10 -3 0 -8 5 -11 10 -3 6 -1 10 4 10 6 0
11 -4 11 -10z"/>
<path d="M3067 4013 c-4 -3 -7 -16 -7 -28 0 -27 107 -92 495 -300 50 -27 123
-68 164 -92 41 -24 77 -40 81 -36 4 4 24 71 44 148 21 77 46 169 57 204 10 35
19 74 19 87 l0 24 -423 0 c-233 0 -427 -3 -430 -7z m773 -143 c0 -5 -4 -10
-10 -10 -5 0 -10 5 -10 10 0 6 5 10 10 10 6 0 10 -4 10 -10z m-54 -72 c-3 -13
-5 -25 -5 -27 -1 -3 -6 0 -13 7 -8 8 -8 15 2 27 17 21 21 19 16 -7z m-94 -43
c2 -25 -1 -31 -19 -33 -17 -3 -21 1 -17 12 3 8 0 24 -6 36 -7 13 -8 20 -2 16
6 -3 14 -1 17 5 10 16 23 -2 27 -36z"/>
<path d="M3154 3769 c-4 -7 -3 -9 4 -5 5 3 13 0 15 -6 4 -9 6 -10 6 -1 1 17
-16 25 -25 12z"/>
<path d="M3090 3750 c0 -5 5 -10 11 -10 5 0 7 5 4 10 -3 6 -8 10 -11 10 -2 0
-4 -4 -4 -10z"/>
<path d="M0 3647 c0 -29 11 -91 24 -137 41 -143 41 -142 6 -178 -32 -34 -38
-57 -17 -66 9 -5 9 -7 -1 -12 -9 -4 -12 -113 -11 -497 1 -271 3 -484 6 -474 2
9 9 17 14 17 13 0 11 -24 -3 -38 -14 -14 -3 -16 22 -2 15 8 19 5 24 -23 4 -17
8 -42 9 -54 1 -13 5 -23 8 -23 4 0 16 -17 27 -37 10 -21 28 -54 40 -74 13 -24
17 -41 11 -50 -18 -28 -8 -31 17 -5 22 21 30 24 41 14 13 -10 13 -13 -1 -24
-19 -13 -22 -58 -3 -51 6 2 11 12 11 21 -3 29 16 17 23 -15 3 -17 12 -33 19
-36 20 -7 17 -33 -3 -33 -33 0 8 -19 57 -26 33 -5 40 -9 26 -14 -11 -4 -15 -9
-10 -12 5 -4 20 2 33 13 l23 19 -25 0 c-30 0 -50 21 -40 45 4 12 3 16 -5 11
-15 -9 -25 11 -14 30 11 21 -18 54 -48 54 -23 0 -25 12 -7 41 10 17 10 23 0
26 -15 5 -18 23 -4 23 4 0 25 -11 45 -25 20 -13 36 -21 36 -17 1 4 7 -4 14
-18 11 -18 11 -27 2 -35 -6 -5 -9 -9 -7 -7 3 1 11 -12 18 -29 7 -17 17 -28 22
-25 5 3 11 -4 14 -16 4 -12 8 -20 11 -17 9 8 -68 196 -79 193 -16 -5 -39 18
-59 61 -18 39 -18 40 1 22 11 -9 23 -14 28 -10 4 5 6 1 3 -7 -3 -8 3 -23 13
-34 17 -17 17 -16 4 25 -7 24 -39 109 -70 189 -103 265 -108 281 -102 322 3
22 32 84 69 146 75 128 191 250 316 331 71 46 97 71 76 71 -27 0 -209 -117
-286 -183 -88 -76 -95 -67 -28 33 55 82 93 150 83 150 -4 0 -3 4 3 8 10 6 70
97 123 184 12 21 20 42 16 48 -6 9 -63 38 -107 53 -10 4 -18 11 -18 17 0 5 -5
10 -11 10 -6 0 -72 30 -147 68 -75 37 -158 77 -184 89 l-48 23 0 -53z m95
-215 c-3 -3 -11 0 -18 7 -9 10 -8 11 6 5 10 -3 15 -9 12 -12z m271 -167 c1 -8
-1 -15 -5 -15 -14 0 -20 12 -14 26 6 17 16 11 19 -11z m-16 -95 c0 -5 -5 -10
-11 -10 -5 0 -7 5 -4 10 3 6 8 10 11 10 2 0 4 -4 4 -10z m-105 -20 c3 -5 -3
-10 -14 -10 -12 0 -21 5 -21 10 0 6 6 10 14 10 8 0 18 -4 21 -10z m-82 -864
c3 3 3 -3 0 -14 -2 -11 0 -23 6 -26 13 -8 15 -26 3 -26 -8 0 -42 63 -42 77 0
3 6 0 13 -6 8 -6 16 -8 20 -5z m58 -58 c14 -25 4 -22 -26 8 -14 14 -22 30 -19
36 7 11 24 -6 45 -44z m9 -89 c0 -6 -4 -7 -10 -4 -5 3 -10 11 -10 16 0 6 5 7
10 4 6 -3 10 -11 10 -16z m25 -29 c3 -5 -1 -10 -9 -10 -9 0 -16 5 -16 10 0 6
4 10 9 10 6 0 13 -4 16 -10z"/>
<path d="M2500 3642 c0 -17 5 -34 11 -37 7 -5 9 4 5 25 -6 43 -16 50 -16 12z"/>
<path d="M2545 3659 c-4 -6 -5 -13 -2 -16 7 -7 27 6 27 18 0 12 -17 12 -25 -2z"/>
<path d="M3250 3632 c0 -14 39 -56 46 -49 3 3 -6 18 -20 32 -14 14 -26 22 -26
17z"/>
<path d="M2538 3530 c-4 -36 -2 -48 13 -59 14 -9 19 -26 19 -57 0 -37 -4 -46
-27 -59 -23 -13 -24 -15 -5 -10 15 5 22 2 22 -8 0 -8 8 -21 18 -28 15 -13 16
-12 4 3 -14 17 -8 43 8 33 14 -8 -1 107 -18 140 -8 17 -18 44 -22 60 -6 28 -7
27 -12 -15z"/>
<path d="M3334 3542 c-7 -4 -8 -15 -3 -28 11 -31 25 -36 40 -17 11 13 11 17 2
20 -7 3 -13 11 -13 19 0 15 -9 18 -26 6z"/>
<path d="M2158 3509 c-26 -23 -28 -28 -10 -19 28 14 66 50 52 50 -5 0 -24 -14
-42 -31z"/>
<path d="M3766 3402 c-21 -75 -47 -165 -57 -199 -27 -81 -26 -107 4 -173 32
-74 50 -153 50 -222 l-1 -58 116 -62 c64 -35 120 -64 124 -66 4 -2 7 177 7
398 l0 400 -47 30 c-26 16 -55 30 -64 30 -10 0 -18 4 -18 10 0 5 -17 18 -38
29 l-38 19 -38 -136z m151 -24 c-3 -8 -6 -5 -6 6 -1 11 2 17 5 13 3 -3 4 -12
1 -19z m58 2 c-3 -5 -11 -10 -16 -10 -6 0 -7 5 -4 10 3 6 11 10 16 10 6 0 7
-4 4 -10z m-5 -100 c0 -5 -2 -10 -4 -10 -3 0 -8 5 -11 10 -3 6 -1 10 4 10 6 0
11 -4 11 -10z m-210 -34 c0 -11 -19 -15 -25 -6 -3 5 1 10 9 10 9 0 16 -2 16
-4z m220 -36 c0 -5 -10 -10 -22 -10 -19 0 -20 2 -8 10 19 13 30 13 30 0z m1
-67 c13 -17 13 -17 -6 -3 -11 8 -22 16 -24 17 -2 2 0 3 6 3 6 0 17 -8 24 -17z
m-180 -30 c-10 -17 -10 -16 -11 3 0 23 13 41 18 25 2 -6 -1 -18 -7 -28z m6
-185 c-3 -7 -5 -2 -5 12 0 14 2 19 5 13 2 -7 2 -19 0 -25z m37 -24 c5 -14 4
-15 -9 -4 -17 14 -19 20 -6 20 5 0 12 -7 15 -16z"/>
<path d="M2256 3484 c-11 -28 -6 -80 9 -100 14 -18 14 -17 5 11 -9 28 -9 29 5
10 9 -11 23 -29 33 -40 9 -11 16 -23 14 -27 -3 -12 23 -9 35 3 6 6 9 17 7 24
-5 13 11 30 36 38 8 2 3 3 -12 1 -23 -3 -29 1 -34 24 -14 57 -82 97 -98 56z"/>
<path d="M2693 3465 c0 -22 2 -30 4 -17 2 12 2 30 0 40 -3 9 -5 -1 -4 -23z"/>
<path d="M3380 3485 c0 -8 5 -15 10 -15 6 0 10 7 10 15 0 8 -4 15 -10 15 -5 0
-10 -7 -10 -15z"/>
<path d="M9 3485 c-6 -29 -4 -97 3 -101 5 -3 8 -2 7 3 -1 4 0 17 1 28 2 17 3
17 10 -5 l8 -25 1 25 c0 26 -26 93 -30 75z"/>
<path d="M3405 3460 c-3 -5 -1 -10 4 -10 6 0 11 -4 11 -10 0 -5 -7 -10 -15
-10 -8 0 -15 -5 -15 -11 0 -6 6 -9 14 -6 7 3 19 0 25 -6 8 -8 14 -8 22 0 7 7
3 18 -14 37 -15 16 -28 23 -32 16z"/>
<path d="M3300 3450 c0 -5 5 -10 11 -10 5 0 7 5 4 10 -3 6 -8 10 -11 10 -2 0
-4 -4 -4 -10z"/>
<path d="M2135 3431 c-3 -5 -1 -12 5 -16 5 -3 10 1 10 9 0 18 -6 21 -15 7z"/>
<path d="M2638 3398 c-10 -12 -18 -28 -18 -35 0 -7 8 -13 18 -12 9 0 12 3 5 5
-16 7 -5 34 13 34 8 0 14 7 14 15 0 21 -12 18 -32 -7z"/>
<path d="M2110 3401 c0 -6 4 -13 10 -16 6 -3 7 1 4 9 -7 18 -14 21 -14 7z"/>
<path d="M1955 3390 c-13 -6 -15 -9 -5 -9 8 0 22 4 30 9 18 12 2 12 -25 0z"/>
<path d="M0 3359 c0 -5 5 -7 10 -4 5 3 10 8 10 11 0 2 -4 4 -10 4 -5 0 -10 -5
-10 -11z"/>
<path d="M2206 3332 c-15 -18 -15 -20 1 -35 17 -15 18 -13 18 19 0 19 0 34 -1
34 0 0 -8 -8 -18 -18z"/>
<path d="M2130 3328 c0 -10 -14 -25 -31 -33 -36 -19 -33 -30 4 -16 21 8 30 6
51 -16 15 -14 28 -24 29 -22 2 2 -9 27 -25 54 -15 28 -28 42 -28 33z"/>
<path d="M2464 3321 c-34 -21 -51 -41 -35 -41 5 0 11 5 13 12 2 6 10 8 16 4
17 -11 15 -26 -5 -26 -9 0 -13 -3 -10 -7 4 -3 2 -12 -5 -20 -8 -10 -8 -17 0
-25 9 -9 12 -7 12 10 0 12 6 22 14 22 21 0 30 -19 17 -34 -12 -15 -5 -46 11
-46 5 0 7 4 4 8 -2 4 -1 14 3 21 5 7 2 36 -7 64 -14 47 -13 51 4 64 27 20 3
15 -32 -6z"/>
<path d="M2650 3326 c0 -4 7 -14 15 -22 8 -8 12 -20 9 -27 -2 -7 6 -13 21 -13
14 -1 25 2 25 7 0 5 -4 9 -10 9 -5 0 -10 9 -10 21 0 14 -5 19 -14 16 -7 -3
-19 0 -25 6 -6 6 -11 8 -11 3z"/>
<path d="M2516 3302 c-3 -5 1 -15 9 -22 16 -14 20 -3 6 19 -5 8 -11 9 -15 3z"/>
<path d="M2740 3236 c0 -7 8 -20 17 -27 15 -12 16 -12 10 4 -4 10 -7 23 -7 28
0 5 -4 9 -10 9 -5 0 -10 -6 -10 -14z"/>
<path d="M2393 3205 c-3 -9 -3 -18 -1 -21 3 -3 8 4 11 16 6 23 -1 27 -10 5z"/>
<path d="M2170 3200 c-13 -8 -13 -10 2 -10 9 0 20 5 23 10 8 13 -5 13 -25 0z"/>
<path d="M2326 3191 c-3 -5 0 -11 6 -14 10 -3 10 -11 0 -41 -8 -21 -12 -40 -9
-42 2 -3 7 6 11 20 4 18 11 24 23 19 12 -5 14 -3 8 8 -5 8 -9 23 -10 33 0 21
-20 33 -29 17z"/>
<path d="M2185 3178 c-11 -6 -26 -19 -33 -27 -8 -9 -11 -10 -7 -3 3 6 1 12 -4
12 -6 0 -11 -7 -11 -15 0 -21 16 -19 50 7 16 12 33 19 37 15 3 -4 2 -7 -4 -7
-11 0 3 -92 18 -122 18 -35 -9 -25 -40 15 -40 51 -40 51 33 -95 56 -112 86
-145 86 -95 0 16 -3 18 -9 9 -6 -10 -11 -5 -20 19 -14 40 -14 39 5 39 13 0 14
6 7 33 -4 17 -8 58 -8 91 0 48 -4 61 -20 70 -36 20 -45 32 -45 56 0 13 -10 12
-35 -2z"/>
<path d="M2780 3165 c0 -14 5 -25 11 -25 9 0 9 -4 0 -14 -8 -10 -7 -20 4 -43
15 -30 65 -83 65 -68 0 4 -10 16 -21 26 -12 11 -19 25 -15 34 3 9 0 15 -10 15
-12 0 -15 6 -10 24 3 14 1 28 -5 32 -6 3 -9 15 -6 25 3 11 1 19 -4 19 -5 0 -9
-11 -9 -25z"/>
<path d="M630 3165 c1 -11 7 -49 15 -85 l13 -65 -5 75 c-3 41 -9 79 -14 85 -5
5 -9 1 -9 -10z"/>
<path d="M1558 3155 c-10 -10 7 -58 21 -63 11 -4 12 2 7 24 -8 32 -19 47 -28
39z"/>
<path d="M1681 3134 c0 -11 3 -14 6 -6 3 7 2 16 -1 19 -3 4 -6 -2 -5 -13z"/>
<path d="M2094 3142 c-6 -4 -14 -16 -18 -26 -6 -19 -6 -19 12 -3 10 9 22 14
26 10 4 -4 4 0 0 10 -7 20 -6 19 -20 9z"/>
<path d="M2477 3143 c-10 -9 -8 -43 2 -43 5 0 11 11 13 25 5 24 -2 32 -15 18z"/>
<path d="M2009 3104 c-8 -10 -21 -13 -38 -9 -21 5 -23 4 -12 -9 15 -18 51 -22
51 -6 0 6 10 14 22 19 17 6 18 9 5 14 -8 3 -21 -1 -28 -9z"/>
<path d="M2900 3100 c0 -5 5 -10 11 -10 5 0 7 5 4 10 -3 6 -8 10 -11 10 -2 0
-4 -4 -4 -10z"/>
<path d="M2480 3052 c0 -18 4 -32 8 -32 9 0 8 47 -1 57 -4 3 -7 -8 -7 -25z"/>
<path d="M2895 3060 c-21 -23 -4 -27 19 -4 18 17 20 24 8 24 -5 0 -17 -9 -27
-20z"/>
<path d="M1860 3040 c-13 -11 -20 -20 -16 -20 4 0 19 9 33 20 14 11 21 20 16
20 -6 0 -20 -9 -33 -20z"/>
<path d="M1605 3022 c5 -19 2 -23 -25 -29 -18 -3 -34 -12 -37 -20 -4 -10 -8
-11 -13 -4 -4 8 -15 9 -30 3 -22 -8 -22 -9 10 -22 26 -11 36 -11 52 -1 10 6
28 9 39 6 16 -5 19 -1 19 27 0 18 -5 40 -11 48 -8 12 -9 10 -4 -8z"/>
<path d="M1776 3031 c-3 -5 0 -11 7 -13 17 -7 38 2 31 13 -7 12 -31 12 -38 0z"/>
<path d="M1710 3004 c0 -22 2 -24 15 -14 8 6 20 8 26 4 8 -4 9 -3 5 4 -4 7
-16 17 -27 22 -17 9 -19 7 -19 -16z"/>
<path d="M1933 3023 c-28 -10 -10 -23 30 -22 27 1 33 3 17 6 -14 3 -27 8 -30
13 -3 4 -11 5 -17 3z"/>
<path d="M2490 2975 c0 -14 5 -25 10 -25 6 0 10 11 10 25 0 14 -4 25 -10 25
-5 0 -10 -11 -10 -25z"/>
<path d="M1640 2971 c0 -5 9 -7 20 -4 11 3 20 7 20 9 0 2 -9 4 -20 4 -11 0
-20 -4 -20 -9z"/>
<path d="M714 2906 c18 -15 26 -29 22 -37 -4 -8 -1 -6 8 5 17 21 36 14 36 -15
0 -11 5 -17 10 -14 13 8 13 -16 0 -52 -10 -27 -9 -27 6 -8 11 14 14 32 10 63
-3 23 -2 42 2 42 12 0 29 -14 35 -30 3 -9 6 -4 6 11 1 31 -6 35 -74 38 -27 1
-54 6 -59 12 -6 5 -15 9 -20 9 -6 -1 2 -11 18 -24z"/>
<path d="M1206 2915 c10 -8 23 -15 28 -15 6 0 1 7 -10 15 -10 8 -23 15 -28 15
-6 0 -1 -7 10 -15z"/>
<path d="M2510 2907 c0 -14 4 -28 8 -31 9 -5 8 41 -1 51 -4 3 -7 -5 -7 -20z"/>
<path d="M1136 2912 c6 -4 14 -14 17 -22 4 -10 6 -8 6 8 1 15 -5 22 -16 22
-11 0 -14 -3 -7 -8z"/>
<path d="M925 2900 c-3 -5 1 -10 10 -10 9 0 13 5 10 10 -3 6 -8 10 -10 10 -2
0 -7 -4 -10 -10z"/>
<path d="M993 2899 c9 -5 17 -18 18 -27 0 -14 2 -13 8 3 11 26 5 35 -22 35
-20 -1 -20 -2 -4 -11z"/>
<path d="M1077 2890 c3 -11 7 -20 9 -20 2 0 4 9 4 20 0 11 -4 20 -9 20 -5 0
-7 -9 -4 -20z"/>
<path d="M1581 2900 c-1 -18 18 -40 34 -40 5 0 3 6 -6 13 -9 7 -18 19 -22 27
-5 13 -6 13 -6 0z"/>
<path d="M2340 2894 c0 -8 5 -12 10 -9 6 3 10 10 10 16 0 5 -4 9 -10 9 -5 0
-10 -7 -10 -16z"/>
<path d="M877 2876 c10 -13 20 -20 21 -15 7 17 -7 39 -23 39 -14 0 -14 -3 2
-24z"/>
<path d="M1637 2886 c-4 -10 -1 -13 8 -9 8 3 12 9 9 14 -7 12 -11 11 -17 -5z"/>
<path d="M1670 2891 c0 -5 9 -7 20 -4 11 3 20 7 20 9 0 2 -9 4 -20 4 -11 0
-20 -4 -20 -9z"/>
<path d="M951 2854 c0 -11 3 -14 6 -6 3 7 2 16 -1 19 -3 4 -6 -2 -5 -13z"/>
<path d="M1475 2861 c-3 -6 -11 -8 -17 -5 -6 4 -8 -1 -6 -11 1 -10 12 -19 23
-20 71 -6 103 -17 110 -38 4 -13 8 -17 11 -10 3 7 0 29 -6 48 -9 28 -17 35
-38 35 -15 0 -37 3 -48 6 -12 3 -25 1 -29 -5z"/>
<path d="M1429 2853 c-1 -5 -1 -11 -1 -14 2 -9 -47 -21 -57 -14 -5 2 -35 -5
-67 -16 -73 -25 -201 -60 -211 -57 -5 1 -29 -4 -55 -11 -38 -11 -51 -11 -63
-1 -10 9 -15 9 -15 1 0 -6 -10 -11 -22 -10 -22 0 -22 1 -3 9 25 11 0 11 -35 1
-23 -7 -21 -8 17 -15 23 -4 41 -13 40 -19 -1 -6 8 -12 21 -13 19 -1 19 -1 2 3
-11 2 -18 8 -15 13 3 5 16 6 28 1 12 -4 42 -8 67 -8 42 -1 43 -1 10 5 -31 6
-24 9 60 25 105 21 165 35 195 47 11 4 41 15 67 25 35 12 46 21 45 36 -1 19
-6 26 -8 12z"/>
<path d="M2520 2845 c0 -6 7 -20 16 -31 15 -18 15 -18 10 0 -4 10 -2 24 3 30
7 8 4 12 -10 12 -10 0 -19 -5 -19 -11z"/>
<path d="M1660 2834 c0 -12 -6 -15 -25 -12 -29 6 -28 7 -15 -27 8 -22 12 -24
24 -13 9 8 10 15 4 19 -6 4 -1 10 11 14 22 7 27 20 11 30 -5 3 -10 -1 -10 -11z"/>
<path d="M695 2820 c-3 -5 -1 -10 4 -10 6 0 11 5 11 10 0 6 -2 10 -4 10 -3 0
-8 -4 -11 -10z"/>
<path d="M2368 2823 c6 -2 18 -2 25 0 6 3 1 5 -13 5 -14 0 -19 -2 -12 -5z"/>
<path d="M2551 2763 c0 -16 3 -21 6 -13 3 8 12 21 21 28 14 10 13 12 -6 12
-18 0 -22 -6 -21 -27z"/>
<path d="M747 2769 c-9 -6 -27 -7 -40 -4 -21 6 -21 6 -3 -9 11 -9 28 -16 39
-16 16 0 19 -6 15 -45 -2 -25 0 -45 4 -45 5 0 8 18 8 39 0 22 3 47 7 57 5 13
3 15 -7 9 -10 -6 -12 -4 -7 8 7 20 8 20 -16 6z"/>
<path d="M2316 2723 c5 -49 15 -126 20 -153 6 -31 40 -116 56 -140 9 -14 24
-51 33 -83 9 -32 19 -56 22 -53 7 7 -24 108 -53 173 -21 48 -38 127 -60 271
-8 51 -23 37 -18 -15z"/>
<path d="M1601 2744 c0 -11 3 -14 6 -6 3 7 2 16 -1 19 -3 4 -6 -2 -5 -13z"/>
<path d="M1630 2751 c0 -6 4 -13 10 -16 6 -3 7 1 4 9 -7 18 -14 21 -14 7z"/>
<path d="M2377 2753 c-4 -3 -7 -16 -6 -27 0 -19 1 -19 10 3 10 24 8 36 -4 24z"/>
<path d="M3098 2753 c7 -3 16 -2 19 1 4 3 -2 6 -13 5 -11 0 -14 -3 -6 -6z"/>
<path d="M1265 2740 c-13 -6 7 -7 55 -3 41 3 77 7 79 9 9 8 -115 2 -134 -6z"/>
<path d="M1155 2720 c-19 -8 -19 -9 3 -9 12 -1 22 4 22 9 0 6 -1 10 -2 9 -2 0
-12 -4 -23 -9z"/>
<path d="M3087 2704 c-6 -31 2 -64 14 -64 12 0 12 77 0 84 -5 3 -11 -6 -14
-20z"/>
<path d="M1368 2713 c-28 -7 -21 -21 7 -15 14 2 25 8 25 13 0 9 -4 10 -32 2z"/>
<path d="M1594 2705 c-4 -8 -12 -15 -20 -15 -8 0 -14 -7 -14 -16 0 -19 -68
-124 -81 -124 -5 0 -9 -9 -9 -20 0 -27 28 -15 32 13 2 14 11 23 27 25 13 2 26
12 28 23 3 10 10 19 15 19 14 0 48 40 48 55 0 6 -5 16 -12 23 -9 9 -9 12 0 12
7 0 12 5 12 10 0 16 -20 12 -26 -5z"/>
<path d="M2562 2700 c0 -14 2 -19 5 -12 2 6 2 18 0 25 -3 6 -5 1 -5 -13z"/>
<path d="M1436 2682 c-2 -4 -1 -14 4 -22 7 -11 9 -9 7 8 -1 24 -3 26 -11 14z"/>
<path d="M2381 2663 c0 -16 3 -22 6 -13 3 8 10 21 16 28 7 8 5 12 -7 12 -11 0
-16 -8 -15 -27z"/>
<path d="M3036 2675 c-9 -26 -7 -32 5 -12 6 10 9 21 6 23 -2 3 -7 -2 -11 -11z"/>
<path d="M2570 2648 c0 -20 32 -98 40 -98 10 0 1 40 -13 57 -5 7 -7 22 -4 33
3 13 0 20 -9 20 -8 0 -14 -5 -14 -12z"/>
<path d="M870 2639 c0 -5 5 -7 10 -4 6 3 10 8 10 11 0 2 -4 4 -10 4 -5 0 -10
-5 -10 -11z"/>
<path d="M1451 2624 c0 -11 3 -14 6 -6 3 7 2 16 -1 19 -3 4 -6 -2 -5 -13z"/>
<path d="M1637 2627 c-3 -7 5 -12 19 -12 29 0 29 1 5 14 -14 8 -20 7 -24 -2z"/>
<path d="M1008 2623 c7 -3 16 -2 19 1 4 3 -2 6 -13 5 -11 0 -14 -3 -6 -6z"/>
<path d="M918 2613 c6 -2 18 -2 25 0 6 3 1 5 -13 5 -14 0 -19 -2 -12 -5z"/>
<path d="M2390 2601 c0 -11 4 -22 9 -25 4 -3 6 6 3 19 -5 30 -12 33 -12 6z"/>
<path d="M766 2587 c3 -10 9 -15 12 -12 3 3 0 11 -7 18 -10 9 -11 8 -5 -6z"/>
<path d="M3099 2553 c-25 -37 -27 -43 -10 -28 22 19 57 75 47 75 -3 0 -20 -21
-37 -47z"/>
<path d="M3211 2518 c-1 -77 13 -105 25 -50 3 15 7 32 9 38 2 6 -5 28 -15 50
l-18 39 -1 -77z"/>
<path d="M2415 2549 c-4 -6 -5 -12 -2 -15 2 -3 7 2 10 11 7 17 1 20 -8 4z"/>
<path d="M1539 2513 c-13 -17 -13 -17 6 -3 11 8 22 16 24 17 2 2 0 3 -6 3 -6
0 -17 -8 -24 -17z"/>
<path d="M2626 2521 c-3 -4 0 -16 7 -25 11 -14 12 -13 12 9 0 25 -9 33 -19 16z"/>
<path d="M3134 2481 c-12 -14 -30 -44 -42 -66 -25 -49 -116 -140 -131 -131 -6
4 -9 1 -6 -6 5 -11 -35 -58 -49 -58 -2 0 -34 -29 -71 -65 -50 -47 -63 -65 -49
-65 16 0 15 -2 -6 -13 -14 -7 -26 -21 -28 -31 -3 -16 -2 -16 20 3 28 25 35 31
118 100 36 29 70 58 75 65 6 6 26 23 45 36 54 38 70 53 70 67 0 7 5 13 10 13
6 0 10 6 10 13 0 6 11 25 25 41 13 16 22 33 19 38 -3 5 -1 22 6 38 17 41 9 52
-16 21z"/>
<path d="M711 2495 c0 -5 6 -21 14 -35 8 -14 14 -20 14 -15 0 6 -6 21 -14 35
-8 14 -14 21 -14 15z"/>
<path d="M1400 2480 c0 -5 4 -10 9 -10 6 0 13 5 16 10 3 6 -1 10 -9 10 -9 0
-16 -4 -16 -10z"/>
<path d="M1479 2473 c-12 -16 -12 -17 1 -7 8 6 22 14 30 17 13 5 12 6 -1 6 -9
1 -23 -7 -30 -16z"/>
<path d="M1335 2460 c-3 -6 5 -10 19 -10 14 0 28 5 31 10 3 6 -5 10 -19 10
-14 0 -28 -4 -31 -10z"/>
<path d="M1430 2450 c0 -5 5 -10 10 -10 6 0 10 5 10 10 0 6 -4 10 -10 10 -5 0
-10 -4 -10 -10z"/>
<path d="M2648 2448 c-6 -15 1 -38 10 -38 4 0 7 11 7 25 0 26 -10 33 -17 13z"/>
<path d="M741 2414 c0 -11 3 -14 6 -6 3 7 2 16 -1 19 -3 4 -6 -2 -5 -13z"/>
<path d="M870 2420 c0 -9 7 -26 16 -39 15 -21 21 -22 72 -16 30 4 65 11 76 16
19 8 -22 6 -89 -6 -13 -2 -30 8 -47 29 -18 20 -28 26 -28 16z"/>
<path d="M1330 2420 c-8 -5 -25 -10 -36 -10 -12 0 -27 -7 -34 -15 -9 -10 -9
-15 -1 -15 6 0 11 5 11 11 0 6 9 9 20 6 11 -3 23 -1 26 4 3 5 9 7 14 4 5 -3
12 0 15 6 4 5 13 8 21 5 8 -3 14 -1 14 4 0 13 -31 13 -50 0z"/>
<path d="M1188 2413 c6 -2 18 -2 25 0 6 3 1 5 -13 5 -14 0 -19 -2 -12 -5z"/>
<path d="M1100 2400 l-25 -8 25 0 c14 0 34 3 45 8 l20 9 -20 -1 c-11 0 -31 -4
-45 -8z"/>
<path d="M1200 2383 c8 -3 22 -15 31 -26 17 -21 17 -20 12 6 -4 21 -11 27 -32
26 -15 0 -20 -3 -11 -6z"/>
<path d="M2651 2368 c0 -16 2 -18 6 -8 3 8 11 18 17 22 7 5 4 8 -6 8 -12 0
-18 -7 -17 -22z"/>
<path d="M843 2329 c4 -30 7 -55 7 -56 0 -2 7 -3 15 -3 8 0 15 -7 15 -15 0 -8
-7 -15 -15 -15 -19 0 -19 -17 1 -55 12 -24 14 -49 9 -125 -3 -52 -2 -115 3
-140 7 -37 8 -22 10 80 1 69 4 154 6 190 8 128 6 142 -28 170 l-29 24 6 -55z"/>
<path d="M1120 2373 c-8 -2 -21 -7 -29 -9 -10 -3 -11 -8 -2 -18 6 -7 8 -21 5
-31 -6 -15 -4 -16 15 -6 17 10 19 15 11 31 -9 17 -7 20 8 20 11 0 27 -10 35
-22 l16 -23 -4 25 c-2 14 -4 28 -4 33 -1 8 -28 8 -51 0z"/>
<path d="M1018 2355 c-3 -3 -72 -14 -94 -15 -6 0 -10 -16 -10 -35 1 -36 1 -36
36 -30 19 4 42 7 51 8 13 1 14 5 5 19 -8 13 -7 21 2 30 10 10 15 10 21 -1 5
-8 7 -20 4 -28 -6 -15 15 -17 35 -4 11 6 10 10 -3 15 -10 4 -15 13 -13 24 4
12 -1 18 -12 19 -10 1 -20 0 -22 -2z m-51 -36 c17 -17 5 -43 -13 -28 -15 12
-19 39 -6 39 4 0 13 -5 19 -11z"/>
<path d="M2482 2330 c0 -14 2 -19 5 -12 2 6 2 18 0 25 -3 6 -5 1 -5 -13z"/>
<path d="M733 2318 c-6 -60 -9 -74 -19 -91 -9 -15 -6 -24 10 -42 27 -31 36
-23 36 33 0 87 -21 162 -27 100z"/>
<path d="M2636 2314 c-10 -25 -7 -82 4 -89 6 -3 10 3 10 14 0 10 6 22 13 24
10 4 10 6 0 6 -16 1 -17 33 -1 49 9 9 8 12 -4 12 -9 0 -19 -7 -22 -16z"/>
<path d="M2490 2263 c0 -10 4 -14 8 -8 4 6 11 13 16 18 5 4 2 7 -7 7 -10 0
-17 -8 -17 -17z"/>
<path d="M2457 2164 c4 -73 2 -113 -5 -118 -15 -9 -26 -107 -17 -162 10 -67
28 -41 23 35 -1 34 0 61 3 61 12 0 22 54 24 127 0 39 -2 70 -6 67 -4 -2 -12
19 -17 48 -9 43 -9 33 -5 -58z"/>
<path d="M3783 2258 c-12 -20 -14 -53 -4 -79 7 -20 9 -14 12 34 2 31 3 57 2
57 -1 0 -5 -6 -10 -12z"/>
<path d="M12 2223 c-15 -28 -17 -443 -2 -443 6 0 10 -9 10 -20 0 -11 -4 -20
-10 -20 -6 0 -10 -123 -9 -338 l0 -339 97 -38 c53 -21 129 -52 167 -68 129
-54 235 -95 235 -91 0 2 -11 32 -25 66 -14 35 -23 68 -21 74 3 7 -1 15 -8 17
-13 5 -31 66 -29 94 0 7 -3 11 -7 8 -4 -3 -13 17 -21 43 -7 26 -11 47 -8 48 2
0 -4 8 -13 18 -10 10 -18 24 -18 33 0 8 -11 42 -24 76 -13 34 -36 96 -52 137
-15 41 -40 104 -56 140 -16 36 -29 66 -29 67 0 2 -13 35 -30 74 -17 39 -28 78
-25 86 3 8 2 11 -3 8 -11 -6 -21 21 -26 68 -1 18 -17 68 -34 112 -20 52 -27
83 -21 89 6 6 10 6 11 1 4 -53 77 -235 94 -235 8 0 22 -3 32 -7 10 -4 5 6 -15
25 -17 17 -32 36 -32 41 0 5 -4 11 -9 13 -6 2 -12 14 -15 28 -6 29 -29 93 -36
100 -3 3 -5 10 -6 15 -3 24 -17 55 -26 55 -5 0 -6 -4 -3 -10 3 -5 2 -10 -3
-10 -6 0 -13 7 -16 16 -8 22 -8 26 4 19 19 -12 32 6 17 23 -8 10 -16 24 -19
32 -4 12 -7 10 -16 -7z m108 -503 c0 -5 -4 -10 -10 -10 -5 0 -10 5 -10 10 0 6
5 10 10 10 6 0 10 -4 10 -10z m180 -380 c0 -5 -2 -10 -4 -10 -3 0 -8 5 -11 10
-3 6 -1 10 4 10 6 0 11 -4 11 -10z m-130 -90 c0 -5 -7 -10 -16 -10 -8 0 -12 5
-9 10 3 6 10 10 16 10 5 0 9 -4 9 -10z m181 -137 c13 -17 13 -17 -6 -3 -11 8
-22 16 -24 17 -2 2 0 3 6 3 6 0 17 -8 24 -17z m-161 -4 c0 -6 9 -8 20 -4 11 4
20 2 20 -4 0 -6 -3 -11 -7 -12 -5 0 -16 -2 -27 -4 -30 -6 -48 5 -35 21 14 17
29 18 29 3z"/>
<path d="M2513 2223 c-7 -3 -13 -12 -13 -21 0 -15 2 -15 17 1 18 18 16 27 -4
20z"/>
<path d="M2627 2203 c-4 -3 -7 -15 -7 -27 0 -19 0 -19 20 2 11 12 20 24 20 27
0 7 -25 6 -33 -2z"/>
<path d="M2510 2138 c0 -17 3 -19 9 -9 5 7 15 17 22 22 10 6 8 9 -8 9 -17 0
-23 -6 -23 -22z"/>
<path d="M2607 2130 c-3 -11 -2 -20 2 -20 3 0 12 9 19 20 10 16 10 20 -2 20
-7 0 -16 -9 -19 -20z"/>
<path d="M3800 2121 c0 -6 4 -13 10 -16 6 -3 7 1 4 9 -7 18 -14 21 -14 7z"/>
<path d="M2521 2101 c-7 -5 -12 -14 -9 -21 2 -7 10 -4 22 9 19 21 12 28 -13
12z"/>
<path d="M762 2070 c0 -19 2 -27 5 -17 2 9 2 25 0 35 -3 9 -5 1 -5 -18z"/>
<path d="M2583 2074 c-9 -23 -45 -57 -76 -71 -17 -8 -28 -21 -28 -35 -4 -58
-2 -72 10 -76 8 -3 12 4 9 19 -2 15 5 32 17 44 12 11 13 14 3 6 -16 -12 -18
-12 -18 1 0 9 6 20 13 26 12 10 18 12 37 12 6 0 10 5 10 11 0 7 8 19 18 28 22
19 35 51 21 51 -5 0 -12 -7 -16 -16z"/>
<path d="M2506 2044 c-10 -25 -1 -27 19 -4 15 17 16 20 3 20 -9 0 -19 -7 -22
-16z"/>
<path d="M3126 2031 c-4 -7 -5 -15 -2 -18 9 -9 19 4 14 18 -4 11 -6 11 -12 0z"/>
<path d="M768 2018 c-9 -21 1 -119 14 -134 5 -7 8 -16 6 -20 -3 -12 25 -115
30 -110 2 2 -4 42 -12 88 -9 45 -19 108 -24 138 -5 36 -10 49 -14 38z"/>
<path d="M3086 2004 c-13 -13 -15 -19 -6 -22 15 -5 33 13 28 28 -3 9 -9 7 -22
-6z"/>
<path d="M3040 1972 c0 -5 -19 -12 -42 -18 -27 -5 -42 -14 -40 -22 2 -13 -15
-36 -33 -42 -23 -7 -45 -26 -45 -37 0 -7 -5 -13 -12 -13 -6 0 -8 -3 -5 -7 4
-3 18 4 32 17 14 13 25 20 25 16 0 -5 6 -3 13 3 8 6 16 8 19 6 3 -3 8 8 11 25
5 23 12 30 30 30 13 0 34 8 45 19 24 20 28 31 12 31 -5 0 -10 -4 -10 -8z"/>
<path d="M334 1899 c-1 -21 2 -26 7 -17 7 11 11 10 19 -2 5 -8 10 -10 10 -5 0
6 -8 20 -18 32 l-17 23 -1 -31z"/>
<path d="M220 1909 c0 -5 5 -7 10 -4 6 3 10 8 10 11 0 2 -4 4 -10 4 -5 0 -10
-5 -10 -11z"/>
<path d="M167 1840 c20 -52 38 -74 54 -65 6 5 3 12 -10 22 -12 8 -21 20 -21
27 0 8 -9 24 -20 37 l-20 24 17 -45z"/>
<path d="M414 1861 c3 -14 0 -32 -7 -40 -7 -8 -7 -12 -1 -8 14 8 47 -49 38
-66 -5 -9 -4 -9 5 -1 13 12 -4 74 -21 74 -5 0 -7 4 -4 9 4 5 1 20 -4 33 l-11
23 5 -24z"/>
<path d="M2770 1867 c0 -4 5 -17 10 -27 6 -11 6 -21 1 -24 -5 -3 -12 1 -15 9
-9 25 -63 15 -91 -17 -27 -30 -25 -32 23 -43 25 -5 33 -3 38 10 4 9 14 15 24
12 26 -7 45 15 47 53 1 29 -2 36 -18 36 -10 0 -19 -4 -19 -9z"/>
<path d="M2855 1870 c3 -5 8 -10 11 -10 2 0 4 5 4 10 0 6 -5 10 -11 10 -5 0
-7 -4 -4 -10z"/>
<path d="M225 1841 c-6 -11 9 -23 19 -14 9 9 7 23 -3 23 -6 0 -12 -4 -16 -9z"/>
<path d="M2820 1840 c0 -5 5 -10 11 -10 5 0 7 5 4 10 -3 6 -8 10 -11 10 -2 0
-4 -4 -4 -10z"/>
<path d="M335 1790 c-3 -5 -2 -10 4 -10 5 0 13 5 16 10 3 6 2 10 -4 10 -5 0
-13 -4 -16 -10z"/>
<path d="M406 1777 c3 -10 9 -15 12 -12 3 3 0 11 -7 18 -10 9 -11 8 -5 -6z"/>
<path d="M1560 1769 c-60 -15 -205 -36 -267 -38 -13 -1 -23 -5 -23 -10 0 -14
164 -4 233 14 32 8 70 21 85 30 30 16 23 17 -28 4z"/>
<path d="M2855 1753 c-49 -13 -121 -32 -160 -43 -139 -37 -158 -42 -198 -46
-21 -2 -46 -9 -53 -15 -24 -20 -26 -3 -3 35 32 55 13 43 -22 -14 -23 -37 -37
-50 -55 -50 -27 0 -47 -30 -37 -57 12 -32 43 -45 43 -17 0 13 3 14 15 4 8 -6
19 -9 25 -5 7 4 28 -9 49 -29 35 -34 40 -36 64 -25 23 11 33 8 94 -28 71 -42
205 -120 407 -238 66 -39 122 -70 125 -69 3 0 26 -11 51 -26 25 -14 64 -34 88
-44 23 -11 42 -24 42 -29 0 -6 3 -8 6 -4 3 3 18 -5 32 -18 14 -13 29 -22 34
-19 4 3 8 1 8 -4 0 -5 14 -15 30 -22 17 -7 30 -16 30 -21 0 -15 -53 2 -83 28
-16 12 -35 23 -43 23 -8 0 -14 5 -14 10 0 6 -8 14 -17 17 -10 4 -48 26 -85 50
-36 24 -71 43 -77 43 -13 0 -26 -65 -16 -80 4 -7 18 -9 32 -5 19 4 26 1 29
-13 3 -10 19 -23 35 -29 26 -10 29 -9 29 10 0 20 0 20 14 1 8 -10 11 -21 6
-24 -5 -3 45 -30 111 -60 89 -41 135 -69 179 -110 64 -59 71 -70 41 -70 -11 0
-31 -13 -44 -30 -14 -16 -28 -30 -31 -30 -8 0 5 32 28 64 18 27 18 29 2 23
-10 -4 -19 -7 -22 -7 -6 0 -38 -64 -36 -72 1 -5 -3 -8 -8 -8 -6 0 -10 -7 -10
-15 0 -18 -12 -19 -27 -4 -15 15 -22 -1 -12 -26 7 -18 8 -18 8 -2 1 10 6 15
11 12 7 -4 7 -12 0 -25 -7 -14 -18 -17 -42 -14 -18 3 -28 1 -23 -3 13 -11 17
-33 6 -33 -5 0 -12 6 -14 13 -3 6 -6 -3 -6 -21 -1 -18 -6 -41 -13 -51 -9 -16
-8 -27 6 -59 10 -22 15 -46 11 -53 -5 -8 -4 -10 3 -5 7 4 12 1 12 -6 0 -7 4
-20 10 -28 7 -12 12 -12 29 5 12 10 24 15 29 10 4 -4 1 -10 -5 -12 -7 -3 -13
-9 -13 -14 0 -4 6 -6 14 -3 8 3 17 1 21 -5 3 -6 1 -11 -4 -11 -6 0 -11 -7 -11
-16 0 -9 -5 -12 -12 -8 -7 4 -8 3 -4 -4 5 -9 13 -9 26 -2 19 10 39 -4 26 -17
-3 -4 -6 0 -6 8 -1 9 -4 8 -11 -5 -9 -15 -7 -22 14 -40 14 -11 30 -38 37 -58
10 -34 13 -36 26 -23 9 8 18 15 22 15 4 0 22 14 41 32 28 26 36 29 45 17 6 -8
25 -21 41 -29 45 -21 52 -23 33 -7 -16 13 -6 15 90 20 59 3 119 10 135 16 l27
11 0 189 c0 128 -4 192 -11 197 -8 4 -7 9 2 14 10 7 10 11 0 24 -9 11 -10 16
-2 16 7 0 11 25 11 70 l0 69 -40 12 c-22 7 -40 16 -40 21 0 11 37 10 59 -1 14
-8 17 -5 19 22 2 30 -1 33 -45 48 -27 9 -69 23 -95 30 -26 7 -44 17 -41 23 3
5 1 6 -5 2 -13 -8 -93 14 -87 23 2 4 0 13 -6 21 -7 13 -9 12 -9 -2 0 -10 -3
-18 -7 -18 -11 0 -147 42 -170 53 -34 15 -19 22 17 7 27 -11 76 -16 105 -10
20 4 70 -2 80 -10 6 -4 25 -7 43 -5 17 1 32 -2 32 -6 0 -4 15 -3 32 2 47 13
71 12 62 -3 -5 -8 -1 -8 10 1 15 13 19 13 28 0 8 -12 9 -12 5 1 -5 20 -92 34
-172 29 -14 -1 -33 5 -43 14 -9 8 -36 18 -60 22 -23 4 -40 11 -37 15 3 5 1 11
-4 14 -5 3 -11 -1 -14 -9 -4 -8 -14 -12 -24 -9 -10 2 -43 10 -73 17 -30 6 -61
16 -68 20 -7 5 -22 7 -35 6 -30 -3 -58 11 -50 24 3 5 1 7 -4 4 -6 -4 -22 2
-34 13 l-24 19 27 1 c14 0 28 5 30 11 4 12 38 1 38 -13 0 -5 -4 -6 -10 -3 -5
3 -10 2 -10 -3 0 -6 7 -13 16 -16 8 -3 12 -2 9 4 -3 6 4 10 17 10 13 0 30 6
37 13 11 10 13 9 8 -6 -8 -22 21 -36 34 -16 6 10 9 10 9 2 0 -7 7 -13 15 -13
8 0 15 5 15 11 0 8 4 8 14 0 10 -9 16 -9 21 -1 5 8 11 7 22 -2 9 -7 25 -12 35
-10 11 2 26 -2 33 -8 8 -7 22 -9 31 -6 9 4 23 1 32 -6 12 -11 16 -11 20 0 2 8
8 10 15 4 7 -5 20 -12 30 -15 13 -5 17 -1 17 18 0 17 -4 23 -14 19 -8 -3 -48
3 -88 14 -40 11 -93 23 -118 27 -25 3 -110 19 -190 35 -80 16 -163 31 -185 35
-75 11 -95 17 -95 26 0 5 11 7 25 3 15 -4 25 -2 25 5 0 6 -3 12 -7 12 -20 4
-51 8 -78 11 -16 1 -41 14 -55 27 -14 13 -19 21 -12 17 6 -4 12 -3 12 2 0 6
14 7 37 2 20 -5 41 -6 45 -4 12 8 -2 26 -15 21 -16 -6 -67 24 -67 40 0 6 -5
15 -12 19 -8 5 -9 2 -5 -9 3 -10 3 -17 -1 -18 -44 -5 -53 -5 -57 2 -6 9 24 21
36 13 16 -9 10 16 -8 35 -27 27 -121 61 -168 61 -62 0 -135 11 -135 21 0 5 8
9 18 9 15 1 15 2 -3 16 -18 13 -21 13 -31 -1 -14 -19 -25 -19 -50 0 -19 14
-19 14 1 9 14 -3 23 2 30 18 9 20 18 23 63 24 29 0 57 5 63 11 6 6 18 9 27 6
10 -4 13 -2 8 5 -13 22 13 12 29 -10 15 -22 16 -22 15 -3 -4 37 0 45 20 45 11
0 20 4 20 9 0 5 10 13 22 17 15 4 25 1 35 -12 7 -10 13 -13 13 -8 0 6 -6 17
-12 25 -12 14 -23 13 -103 -8z m120 -314 c50 -47 113 -98 141 -112 58 -30 87
-54 78 -68 -6 -10 -26 -1 -59 26 -20 16 -19 16 5 10 19 -5 22 -4 10 4 -8 6
-22 8 -31 5 -9 -2 -60 16 -113 41 -53 25 -100 45 -104 45 -5 0 -17 7 -28 15
-17 13 -16 14 21 9 l40 -5 -34 30 c-19 17 -31 34 -27 38 4 4 25 -11 47 -34 21
-23 48 -47 59 -53 11 -6 18 -15 15 -20 -3 -5 -1 -11 4 -14 5 -4 13 -1 17 5 4
6 -31 49 -82 102 -108 110 -83 96 41 -24z m-240 23 c-3 -3 -11 0 -18 7 -9 10
-8 11 6 5 10 -3 15 -9 12 -12z m571 -251 c82 -53 127 -91 109 -91 -3 0 -26 16
-49 35 -24 19 -47 35 -51 35 -14 0 -105 62 -105 71 0 14 1 13 96 -50z m214
-93 l24 -18 -22 0 c-12 0 -25 6 -28 14 -3 8 -12 12 -19 10 -7 -3 -15 -1 -18 3
-10 16 37 8 63 -9z m110 -155 c0 -7 -75 54 -91 74 -8 10 10 -2 39 -26 28 -23
52 -45 52 -48z m89 0 c18 -12 37 -20 42 -17 5 2 19 -2 31 -10 13 -8 42 -19 64
-25 23 -6 47 -18 54 -26 14 -16 0 -21 -15 -6 -6 6 -37 19 -70 30 -130 43 -160
57 -161 74 -2 18 0 17 55 -20z m-217 -11 c3 -7 89 -57 165 -96 13 -6 23 -15
23 -19 0 -9 -19 0 -123 61 -76 44 -98 62 -78 62 5 0 11 -4 13 -8z m283 -118
c53 -48 118 -103 146 -122 90 -63 42 -46 -85 31 -92 55 -120 76 -106 80 11 3
26 -3 36 -14 9 -10 22 -19 28 -19 6 0 -29 39 -79 86 -49 47 -78 77 -63 66 16
-11 71 -59 123 -108z m-325 106 c8 -5 11 -12 8 -16 -4 -3 -14 1 -23 10 -18 17
-9 21 15 6z m400 -95 c7 -8 11 -15 9 -16 -2 0 -11 -2 -19 -4 -10 -1 -16 5 -17
16 -2 23 10 25 27 4z m-195 -95 c3 -5 2 -10 -4 -10 -5 0 -13 5 -16 10 -3 6 -2
10 4 10 5 0 13 -4 16 -10z m310 -10 c3 -5 1 -10 -4 -10 -6 0 -11 5 -11 10 0 6
2 10 4 10 3 0 8 -4 11 -10z m-254 -47 c13 -16 12 -17 -3 -4 -17 13 -22 21 -14
21 2 0 10 -8 17 -17z m-314 -145 c-3 -7 -5 -2 -5 12 0 14 2 19 5 13 2 -7 2
-19 0 -25z m12 -82 c-1 -12 4 -36 10 -55 13 -42 2 -33 -15 12 -6 17 -14 39
-18 48 -5 10 -2 16 8 16 9 0 15 -9 15 -21z m310 -151 c22 -22 -2 -19 -54 6
l-40 19 39 -5 c22 -2 47 -11 55 -20z m114 -44 c6 -6 -6 -6 -28 -1 -20 4 -40
12 -43 16 -10 10 61 -5 71 -15z m-113 -17 c0 -2 -9 0 -20 6 -11 6 -20 13 -20
16 0 2 9 0 20 -6 11 -6 20 -13 20 -16z"/>
<path d="M2630 1753 c-13 -15 -12 -16 4 -10 10 4 22 7 27 7 6 0 7 5 4 10 -9
14 -18 12 -35 -7z"/>
<path d="M2565 1753 c3 -7 0 -13 -7 -13 -10 0 -10 -2 1 -9 11 -7 11 -9 0 -14
-10 -3 -11 -8 -3 -16 10 -11 44 -5 44 8 0 3 -10 17 -21 31 -11 14 -18 19 -14
13z"/>
<path d="M217 1733 c-4 -7 -3 -14 3 -18 6 -4 8 -11 5 -16 -4 -5 -1 -9 4 -9 6
0 11 -10 12 -22 1 -22 1 -22 8 2 4 15 3 29 -5 35 -6 6 -14 17 -16 25 -3 10 -7
11 -11 3z"/>
<path d="M820 1719 c0 -14 7 -34 15 -45 14 -18 15 -17 9 11 -10 46 -23 65 -24
34z"/>
<path d="M1718 1713 c7 -3 16 -2 19 1 4 3 -2 6 -13 5 -11 0 -14 -3 -6 -6z"/>
<path d="M2242 1686 c-77 -16 -122 -76 -57 -76 15 0 29 9 36 22 8 14 14 18 17
10 3 -9 11 -7 30 6 15 10 35 22 45 25 9 4 17 11 17 17 0 12 -18 11 -88 -4z"/>
<path d="M850 1632 c0 -12 -6 -22 -12 -23 -7 0 -2 -5 11 -10 18 -7 22 -15 19
-33 -3 -17 0 -26 11 -29 15 -4 15 1 -2 52 -22 65 -27 73 -27 43z"/>
<path d="M2950 1559 c24 -11 59 -31 77 -45 18 -14 37 -23 42 -20 5 3 15 -1 22
-10 12 -14 14 -14 26 2 11 16 17 16 33 6 26 -16 30 -15 30 3 0 8 5 15 10 15 6
0 10 -4 10 -10 0 -17 18 -11 24 8 10 30 7 37 -16 38 -13 1 -54 6 -93 12 -38 6
-101 13 -140 16 l-70 4 45 -19z m120 -43 c0 -3 -4 -8 -10 -11 -5 -3 -10 -1
-10 4 0 6 5 11 10 11 6 0 10 -2 10 -4z"/>
<path d="M310 1550 c6 -11 13 -20 16 -20 2 0 0 9 -6 20 -6 11 -13 20 -16 20
-2 0 0 -9 6 -20z"/>
<path d="M1042 1507 c5 -36 15 -68 25 -77 15 -13 16 -13 5 1 -6 8 -14 41 -18
72 -4 32 -10 59 -14 62 -3 2 -3 -24 2 -58z"/>
<path d="M895 1511 c-3 -6 -2 -11 3 -11 5 0 12 -12 15 -27 3 -16 13 -37 21
-48 11 -14 9 -4 -5 35 -24 64 -25 65 -34 51z"/>
<path d="M3280 1490 c0 -5 18 -14 39 -20 22 -6 41 -15 43 -21 2 -6 17 -9 33
-7 l30 4 -32 13 c-17 7 -31 18 -29 24 1 7 1 9 -1 5 -7 -12 -51 -10 -58 2 -8
13 -25 13 -25 0z"/>
<path d="M3230 1480 c0 -5 5 -10 10 -10 6 0 10 5 10 10 0 6 -4 10 -10 10 -5 0
-10 -4 -10 -10z"/>
<path d="M350 1439 c0 -5 5 -7 10 -4 6 3 10 8 10 11 0 2 -4 4 -10 4 -5 0 -10
-5 -10 -11z"/>
<path d="M3230 1400 c0 -5 5 -10 11 -10 5 0 7 5 4 10 -3 6 -8 10 -11 10 -2 0
-4 -4 -4 -10z"/>
<path d="M950 1384 c0 -8 5 -12 10 -9 6 4 8 11 5 16 -9 14 -15 11 -15 -7z"/>
<path d="M1110 1373 c0 -6 8 -17 18 -24 16 -13 16 -13 2 6 -8 11 -16 22 -17
24 -2 2 -3 0 -3 -6z"/>
<path d="M625 1304 c14 -32 25 -67 25 -76 0 -10 4 -18 9 -18 23 0 20 23 -10
77 -44 81 -52 86 -24 17z"/>
<path d="M980 1320 c0 -5 5 -10 11 -10 5 0 7 5 4 10 -3 6 -8 10 -11 10 -2 0
-4 -4 -4 -10z"/>
<path d="M2580 1295 c0 -15 32 -65 38 -61 4 2 9 -6 10 -20 1 -13 13 -46 26
-72 13 -26 56 -123 96 -217 49 -116 87 -189 119 -230 25 -33 59 -80 75 -105
l30 -45 13 50 c7 28 14 59 16 70 1 11 5 25 9 30 8 14 22 106 19 128 -1 9 3 17
9 17 7 0 9 8 4 23 -3 12 -3 18 2 14 5 -5 16 15 25 45 9 29 13 54 8 56 -13 5
-11 32 2 30 6 -2 15 7 19 19 8 18 3 25 -27 43 -20 12 -45 22 -55 23 -10 1 -18
4 -18 8 0 9 -120 62 -127 56 -2 -3 -14 4 -26 16 -13 13 -22 17 -25 9 -2 -7
-11 -12 -20 -12 -12 0 -13 3 -4 12 8 8 -16 24 -100 65 -115 55 -118 56 -118
48z m190 -103 c0 -4 -9 -8 -20 -9 -16 -1 -17 1 -7 12 12 13 27 11 27 -3z m175
-81 c9 -16 -9 -20 -23 -5 -10 12 -10 14 2 14 8 0 17 -4 21 -9z m-31 -26 c-4
-8 -8 -15 -10 -15 -2 0 -4 7 -4 15 0 8 4 15 10 15 5 0 7 -7 4 -15z m89 -49 c6
-15 -1 -26 -15 -26 -4 0 -8 9 -8 20 0 23 15 27 23 6z m-93 -22 c0 -17 -26 -19
-36 -3 -7 12 15 31 28 23 4 -3 8 -12 8 -20z m-112 -52 c2 -12 -1 -22 -7 -22
-6 0 -11 4 -11 9 0 5 -3 17 -7 27 -4 12 -2 15 8 12 8 -2 15 -14 17 -26z m222
0 c0 -15 -2 -15 -10 -2 -13 20 -13 33 0 25 6 -3 10 -14 10 -23z m-150 8 c0 -5
-4 -10 -10 -10 -5 0 -10 5 -10 10 0 6 5 10 10 10 6 0 10 -4 10 -10z m144 -115
c3 -9 0 -15 -9 -15 -16 0 -27 14 -18 24 10 10 21 7 27 -9z"/>
<path d="M1012 1268 c1 -15 6 -24 10 -22 4 3 8 0 8 -7 0 -7 3 -10 6 -7 3 4 -1
19 -10 35 l-15 28 1 -27z"/>
<path d="M590 1248 c0 -8 7 -21 15 -28 19 -16 19 -1 0 24 -12 16 -15 17 -15 4z"/>
<path d="M667 1202 c-3 -4 5 -39 17 -77 13 -39 29 -91 36 -116 11 -36 22 -52
52 -70 21 -13 38 -26 38 -29 0 -3 8 -6 18 -7 40 -3 77 -18 50 -21 -38 -3 -52
-12 -64 -40 -7 -18 -18 -32 -23 -32 -6 0 -8 -6 -6 -12 10 -27 -9 -39 -45 -27
l-33 12 27 14 c29 15 33 42 15 107 -7 26 -14 35 -19 27 -4 -8 -16 -11 -29 -6
-16 5 -21 2 -21 -13 0 -24 -35 -58 -45 -43 -9 16 -35 13 -35 -4 0 -9 -10 -15
-22 -16 -22 -1 -22 -1 2 -9 17 -5 19 -8 8 -9 -10 -1 -18 -6 -18 -13 0 -6 -6
-3 -14 7 -7 10 -21 20 -30 21 -17 2 -22 -11 -7 -20 15 -10 19 -55 5 -67 -8 -6
-14 -16 -14 -22 0 -6 -76 -165 -169 -353 -93 -189 -172 -353 -176 -364 -6 -19
-3 -21 39 -19 25 2 46 6 46 11 0 4 5 8 11 8 5 0 7 -5 4 -10 -4 -6 22 -10 69
-10 53 0 76 4 76 12 0 9 3 9 12 0 8 -8 66 -12 195 -12 154 0 185 2 189 15 4 8
10 12 15 9 5 -3 7 -10 4 -15 -4 -6 142 -8 386 -7 l392 3 44 120 c64 173 85
237 80 241 -2 2 -53 24 -113 48 -60 24 -147 60 -194 79 -47 19 -159 65 -250
101 -90 37 -186 78 -213 92 -27 13 -55 24 -63 24 -25 0 -15 20 35 70 46 46 53
49 83 42 56 -12 250 -6 286 9 l32 14 -26 37 -26 36 -87 0 c-105 -1 -191 24
-277 80 -55 36 -165 141 -200 190 -15 22 -39 29 -47 14z m8 -552 c3 -5 2 -10
-4 -10 -5 0 -13 5 -16 10 -3 6 -2 10 4 10 5 0 13 -4 16 -10z m-230 -130 c-3
-5 -12 -10 -18 -10 -7 0 -6 4 3 10 19 12 23 12 15 0z m832 -222 c-3 -8 -6 -5
-6 6 -1 11 2 17 5 13 3 -3 4 -12 1 -19z m-307 -17 c0 -5 -7 -12 -16 -15 -24
-9 -28 -7 -14 9 14 17 30 20 30 6z m-490 -76 c0 -8 -4 -15 -10 -15 -5 0 -10 7
-10 15 0 8 5 15 10 15 6 0 10 -7 10 -15z m-200 -145 c0 -5 -7 -7 -15 -4 -8 4
-15 8 -15 10 0 2 7 4 15 4 8 0 15 -4 15 -10z m320 -4 c0 -3 -4 -8 -10 -11 -5
-3 -10 -1 -10 4 0 6 5 11 10 11 6 0 10 -2 10 -4z"/>
<path d="M3435 1200 c-3 -5 -1 -10 4 -10 6 0 11 5 11 10 0 6 -2 10 -4 10 -3 0
-8 -4 -11 -10z"/>
<path d="M1085 1148 c31 -47 33 -53 18 -59 -15 -6 -13 -8 10 -14 15 -4 27 -10
27 -15 0 -4 11 -20 25 -36 37 -43 30 -19 -13 45 -21 31 -41 64 -45 74 -3 9
-10 17 -16 17 -5 0 -11 9 -14 20 -3 11 -10 20 -16 20 -6 0 4 -24 24 -52z"/>
<path d="M630 1171 c0 -6 4 -12 8 -15 5 -3 9 1 9 9 0 8 -4 15 -9 15 -4 0 -8
-4 -8 -9z"/>
<path d="M3968 1153 c7 -3 16 -2 19 1 4 3 -2 6 -13 5 -11 0 -14 -3 -6 -6z"/>
<path d="M504 1044 c3 -9 6 -20 6 -25 0 -12 37 -49 49 -49 16 0 0 40 -20 51
-11 5 -19 16 -19 24 0 8 -5 15 -11 15 -6 0 -8 -7 -5 -16z"/>
<path d="M3975 1040 c-3 -5 -1 -10 4 -10 6 0 11 5 11 10 0 6 -2 10 -4 10 -3 0
-8 -4 -11 -10z"/>
<path d="M1211 974 c0 -11 3 -14 6 -6 3 7 2 16 -1 19 -3 4 -6 -2 -5 -13z"/>
<path d="M1459 805 c17 -33 31 -51 31 -40 0 6 -10 21 -21 35 -13 17 -17 18
-10 5z"/>
<path d="M95 750 c-3 -5 -1 -10 4 -10 6 0 11 5 11 10 0 6 -2 10 -4 10 -3 0 -8
-4 -11 -10z"/>
<path d="M3188 673 c-40 -57 -56 -89 -60 -123 -2 -21 -13 -29 -60 -45 l-57
-20 85 -130 c46 -72 108 -162 137 -202 l52 -72 45 3 c38 2 46 6 57 32 6 16 12
39 13 52 0 22 -2 23 -60 16 -44 -5 -64 -3 -77 7 -15 12 -16 12 -8 -1 8 -13 7
-13 -8 -1 -10 8 -15 16 -13 18 8 8 147 7 219 -2 37 -4 70 -5 73 -2 9 9 -12 39
-70 101 -47 51 -60 72 -87 153 -29 88 -30 98 -19 141 7 26 17 53 23 60 15 19
4 15 -62 -22 -34 -19 -61 -32 -61 -28 0 4 9 22 20 40 16 25 18 37 10 52 -19
36 -55 25 -92 -27z m32 -79 c0 -8 -4 -12 -10 -9 -5 3 -10 10 -10 16 0 5 5 9
10 9 6 0 10 -7 10 -16z"/>
<path d="M3995 230 c3 -5 8 -10 11 -10 2 0 4 5 4 10 0 6 -5 10 -11 10 -5 0 -7
-4 -4 -10z"/>
<path d="M3790 196 c0 -2 11 -6 25 -8 13 -3 22 -1 19 3 -5 9 -44 13 -44 5z"/>
<path d="M1897 173 c-4 -3 -7 -11 -7 -17 0 -6 5 -5 12 2 6 6 9 14 7 17 -3 3
-9 2 -12 -2z"/>
<path d="M3898 173 c6 -2 18 -2 25 0 6 3 1 5 -13 5 -14 0 -19 -2 -12 -5z"/>
<path d="M1972 79 c2 -7 10 -15 17 -17 8 -3 12 1 9 9 -2 7 -10 15 -17 17 -8 3
-12 -1 -9 -9z"/>
<path d="M1965 40 c-3 -5 -1 -10 4 -10 6 0 11 5 11 10 0 6 -2 10 -4 10 -3 0
-8 -4 -11 -10z"/>
</g>
</svg>
